<svg width="28" height="28" fill="none" xmlns="http://www.w3.org/2000/svg"><path d="M12.993 19a1 1 0 000 2c.563 0 1.007-.468 1.007-1 0-.546-.457-1-1.007-1zm-.63-12C10.06 7 9 8.4 9 9.346c0 .683.563.998 1.024.998.922 0 .547-1.348 2.288-1.348.854 0 1.537.385 1.537 1.19 0 .946-.956 1.49-1.52 1.98-.495.437-1.144 1.155-1.144 2.66 0 .911.24 1.174.94 1.174.836 0 1.007-.385 1.007-.718 0-.91.017-1.436.956-2.189.46-.367 1.912-1.558 1.912-3.204C16 8.243 14.549 7 12.363 7z" fill="#009BDE"/><path fill-rule="evenodd" clip-rule="evenodd" d="M0 14C0 6.262 6.263 0 14 0c7.738 0 14 6.263 14 14 0 7.738-6.263 14-14 14H1.094C.49 28 0 27.51 0 26.906V14zm2.188 11.813H14c6.53 0 11.813-5.285 11.813-11.813 0-6.53-5.285-11.813-11.813-11.813C7.47 2.188 2.187 7.473 2.187 14v11.813z" fill="#009BDE"/></svg>