<svg width="16" height="16" viewBox="0 0 16 16" fill="none" xmlns="http://www.w3.org/2000/svg">
<g clip-path="url(#clip0)">
<path d="M2.51497 7.68921L6.12609 4.0781C6.22013 3.98406 6.37248 3.98406 6.4665 4.0781C6.56055 4.17215 6.56055 4.32449 6.4665 4.41852L3.26633 7.61869H13.7593C13.8923 7.61869 14 7.72636 14 7.85943C14 7.9925 13.8923 8.10018 13.7593 8.10018H3.26633L6.4665 11.3003C6.56055 11.3944 6.56055 11.5467 6.4665 11.6407C6.41949 11.6878 6.35787 11.7113 6.29628 11.7113C6.23469 11.7113 6.1731 11.6878 6.12606 11.6407L2.51495 8.02963C2.42093 7.93561 2.42093 7.78326 2.51497 7.68921Z" fill="#009BDE" stroke="#009BDE" stroke-width="0.8"/>
</g>
<defs>
<clipPath id="clip0">
<rect width="12" height="8" fill="white" transform="matrix(-1 0 0 1 14 4)"/>
</clipPath>
</defs>
</svg>
