<svg width="112" height="112" fill="none" xmlns="http://www.w3.org/2000/svg"><path d="M64.692 61.943h1.505V81h-1.505V61.943z" fill="#016CB1"/><path fill-rule="evenodd" clip-rule="evenodd" d="M81.576 82.003l-1.504-1.504-.168-.168H60.68v2.341c0 .501.168 1.003.335 1.504a3.64 3.64 0 00.836 1.337 3.64 3.64 0 001.337.836c.502.167 1.003.334 1.505.334h43.128c.501 0 1.003-.167 1.504-.334a3.645 3.645 0 001.338-.836c.334-.334.668-.835.836-1.337.167-.501.334-1.003.334-1.504V80.33H92.609l-.167.168-1.505 1.504h-9.36zm-2.34-.167l1.504 1.337.168.334h10.531l.167-.167 1.505-1.504h17.217v.836c0 .334 0 .668-.167 1.003 0 .334-.334.668-.501.835a3.673 3.673 0 00-.418.251 3.604 3.604 0 01-.418.25c-.334.168-.669.168-1.003.168H64.693c-.335 0-.67 0-1.003-.167-.335 0-.669-.334-.836-.502-.084-.167-.167-.292-.25-.418-.084-.125-.168-.25-.252-.417-.167-.335-.167-.67-.167-1.003v-.836h17.05z" fill="#016CB1"/><path d="M106.149 68.63V54.254c0-.167-.167-.167-.167-.335-.167-.167-.167-.167-.334-.167H66.866c-.167 0-.167.167-.335.167-.167.168-.167.168-.167.335v3.344l8.358 8.357 6.019-6.018.501-.501.501.501 9.362 9.362 6.018-6.018.501-.502.502.502 9.026 9.027.168.167v8.692h-1.505v-8.024l-8.358-8.358-6.018 6.018-.501.502-.502-.502-9.361-9.361-5.851 6.018-.502.501-.5-.501-9.195-9.027-.167-.167v-3.678c0-.334 0-.669.167-.836.167-.334.334-.501.501-.836.168-.167.502-.334.836-.501.335-.167.669-.167 1.003-.167h37.947c.334 0 .668 0 .835.167.335.167.502.334.836.502.167.167.335.501.502.835.167.335.167.669.167.836V68.63h-1.505z" fill="#016CB1"/><path d="M101.97 72.809h1.505v5.015h-1.505v-5.015zm-3.176-3.343h1.504v8.358h-1.504v-8.358zm-3.344 0h1.505v8.358h-1.504v-8.358zm-3.343 3.343h1.505v5.015h-1.505v-5.015zm-3.343 0h1.505v5.015h-1.505v-5.015zm-3.344-3.343h1.505v8.358h-1.504v-8.358zm-3.175-3.344h1.504v11.535h-1.504V66.122zm-3.344 0h1.505v11.535H78.9V66.122zm-3.343 3.344h1.505v8.358h-1.505v-8.358zm-3.343 0h1.504v8.358h-1.504v-8.358zm-3.343-3.344h1.504v11.535h-1.504V66.122zm33.098-9.862h1.672v1.504h-1.672V56.26zm-3.343 0h1.672v1.504h-1.672V56.26zm-3.343 0h1.671v1.504h-1.671V56.26zm-23.069-5.851v-2.34l.668-.168 3.177-.668c.167-.334.167-.669.334-1.003l.501-1.003-2.005-2.675-.335-.501.502-.502 2.507-2.507.502-.502.501.335 2.675 2.005 1.003-.5c.334-.168.668-.335 1.003-.335l.668-3.176.168-.669h4.681l.166.669.669 3.176c.334.167.669.167 1.003.334l1.003.502 2.675-2.006.501-.335.502.502 2.507 2.507.502.502-.335.501-2.006 2.842.502 1.003c.167.334.334.669.334 1.003l3.176.669.669.167v2.34h-1.505v-1.003l-3.009-.669-.835-.167-.168-.501c-.167-.502-.334-.836-.501-1.337-.167-.502-.334-.836-.669-1.17l-.334-.502.334-.334 1.839-2.675-1.504-1.672-2.675 1.839-.334.334-.502-.334c-.334-.167-.836-.502-1.17-.669-.502-.167-.836-.334-1.337-.501l-.502-.167-.167-.502-.669-3.009h-1.671l-.669 3.01-.167.5-.502.168c-.501.167-.835.334-1.337.501-.501.167-.836.335-1.17.669l-.502.334-.334-.334-2.675-1.839-1.671 1.672 1.839 2.674.334.335-.334.501c-.168.335-.502.836-.67 1.17-.166.502-.333.836-.5 1.338l-.168.501-.501.167-3.01.67v1.002h-1.002v-.167z" fill="#016CB1"/><path d="M92.107 50.409c0-1.672-.668-3.176-1.671-4.18-1.003-1.002-2.508-1.67-4.18-1.67-1.671 0-3.175.668-4.178 1.67-1.004 1.004-1.672 2.508-1.672 4.18H78.9c0-2.006.836-3.845 2.174-5.182 1.337-1.337 3.176-2.173 5.182-2.173 2.006 0 3.844.835 5.182 2.173 1.337 1.337 2.173 3.176 2.173 5.182h-1.505z" fill="#016CB1"/><path d="M87.093 50.409c0-.334-.168-.502-.335-.669-.167-.167-.334-.334-.668-.334-.168 0-.502.167-.67.334-.166.167-.334.335-.334.669h-1.504c0-.669.334-1.337.669-1.672.501-.501 1.003-.668 1.671-.668.669 0 1.338.334 1.672.668.502.502.669 1.003.669 1.672h-1.17zm-63.69 14.376h4.848v1.505h-4.848v-1.505zm0-19.391h4.848v1.505h-4.848v-1.505z" fill="#016CB1"/><path d="M18.555 78.493h4.18V34.194h-4.18V32.69h5.684v47.307h-5.684v-1.504z" fill="#016CB1"/><path d="M18.555 55.09h4.848v1.504h-4.848V55.09zM2.842 35.364v4.012h12.036v-4.012h1.504v3.845c0 .167 0 .501-.167.669-.167.167-.167.334-.334.501-.168.167-.335.334-.502.334-.167.168-.501.168-.668.168H3.008c-.167 0-.501 0-.669-.168-.167 0-.334-.167-.501-.334-.167-.167-.334-.334-.334-.501-.168-.168-.168-.502-.168-.67v-3.844h1.505z" fill="#016CB1"/><path fill-rule="evenodd" clip-rule="evenodd" d="M1.337 32.522c0 .168 0 .502.168.669 0 .167.167.334.334.502a.874.874 0 00.25.167.838.838 0 01.251.167c.168.167.502.167.669.167H14.71c.168 0 .502 0 .67-.167.166 0 .333-.167.5-.334a.87.87 0 00.168-.251c.042-.084.083-.167.167-.251.167-.167.167-.501.167-.669v-5.85c0-.168 0-.502-.167-.669 0-.167-.167-.334-.334-.502-.168-.167-.335-.334-.502-.334-.167-.167-.501-.167-.668-.167H3.008c-.167 0-.501 0-.669.167-.167 0-.334.167-.501.334-.084.084-.125.168-.167.251a.891.891 0 01-.167.251c-.168.167-.168.502-.168.669v5.85zm1.672.168l-.167-.168h.167v-6.018h12.036v6.186H3.009z" fill="#016CB1"/><path d="M10.866 28.845h2.006v1.504h-2.006v-1.504zm0 6.854h2.006v1.504h-2.006v-1.505zM2.842 57.764v4.179h12.036v-4.012h1.504v3.845c0 .167 0 .502-.167.669-.167.167-.167.334-.334.501-.168.167-.335.335-.502.335-.167.167-.501.167-.668.167H3.008c-.167 0-.501 0-.669-.167-.167-.168-.334-.168-.501-.335-.167-.167-.334-.334-.334-.501-.168-.167-.168-.502-.168-.669v-3.845h1.505v-.167z" fill="#016CB1"/><path fill-rule="evenodd" clip-rule="evenodd" d="M1.337 54.922c0 .168 0 .502.168.67 0 .166.167.333.334.5.083.084.167.126.25.168a.838.838 0 01.251.167c.168.167.502.167.669.167H14.71c.168 0 .502 0 .67-.167.166 0 .333-.167.5-.334a.872.872 0 00.168-.251.874.874 0 01.167-.25c.167-.168.167-.502.167-.67v-5.85c0-.168 0-.502-.167-.669 0-.167-.167-.334-.334-.502-.168-.167-.335-.334-.502-.334-.167-.167-.501-.167-.668-.167H3.008c-.167 0-.501 0-.669.167-.167 0-.334.167-.501.334-.084.084-.125.168-.167.251a.891.891 0 01-.167.251c-.168.167-.168.502-.168.669v5.85zm1.672.168l-.167-.168h.167v-6.018h12.036v6.186H3.009z" fill="#016CB1"/><path d="M10.866 51.245h2.006v1.504h-2.006v-1.504zm0 6.854h2.006v1.504h-2.006v-1.505zM2.842 81.167v4.013h12.036v-4.013h1.504v3.845c0 .167 0 .501-.167.668 0 .168-.167.335-.334.502-.168.167-.335.334-.502.334-.167.167-.501.167-.668.167H3.008c-.167 0-.501 0-.669-.167-.167-.167-.334-.167-.501-.334-.167-.167-.334-.334-.334-.502-.168-.167-.168-.5-.168-.668v-3.845h1.505z" fill="#016CB1"/><path fill-rule="evenodd" clip-rule="evenodd" d="M1.337 78.158c0 .167 0 .502.168.669 0 .334.167.501.334.501.167.168.334.335.501.335.168.167.502.167.669.167H14.71c.168 0 .502 0 .67-.167.166 0 .333-.167.5-.335.168-.167.335-.334.335-.501.167-.167.167-.502.167-.669v-5.85c0-.168 0-.502-.167-.67 0-.166-.167-.334-.334-.5-.168-.168-.335-.335-.502-.335-.167-.167-.501-.167-.668-.167H3.008c-.167 0-.501 0-.669.167-.167 0-.334.167-.501.334-.084.084-.125.168-.167.251a.874.874 0 01-.167.25c-.168.168-.168.502-.168.67v5.85zm1.672.335l-.167-.168h.167v-6.017h12.036v6.185H3.009z" fill="#016CB1"/><path d="M10.866 74.648h2.006v1.504h-2.006v-1.504zm0 6.686h2.006v1.505h-2.006v-1.505z" fill="#016CB1"/><path fill-rule="evenodd" clip-rule="evenodd" d="M59.343 40.38c0-2.007-1.839-3.678-4.513-4.849-2.508-1.17-6.018-1.838-9.863-1.838-3.845 0-7.355.668-9.863 1.838-2.841 1.17-4.513 2.842-4.513 4.848s1.839 3.678 4.513 4.848c2.508 1.17 6.018 1.839 9.863 1.839 3.845 0 7.355-.669 9.863-1.84 2.841-1.17 4.513-2.841 4.513-4.847zm-5.182-3.678c2.173 1.002 3.51 2.173 3.51 3.51 0 1.337-1.337 2.507-3.51 3.51-2.34 1.003-5.684 1.672-9.361 1.672-3.678 0-7.021-.669-9.361-1.672-2.174-1.003-3.51-2.173-3.51-3.51 0-1.337 1.336-2.508 3.51-3.51 2.34-1.003 5.683-1.672 9.36-1.672 3.678 0 7.022.669 9.362 1.672z" fill="#016CB1"/><path d="M59.176 40.212v9.863c0 2.006-1.672 3.677-4.513 4.847-2.508 1.17-6.018 1.84-9.863 1.84-3.845 0-7.355-.67-9.863-1.84-2.674-1.17-4.513-2.841-4.513-4.847v-9.696h1.504v9.696c0 1.337 1.338 2.507 3.51 3.51 2.341 1.003 5.684 1.672 9.362 1.672s7.02-.669 9.361-1.672c2.173-1.003 3.51-2.173 3.51-3.51v-9.696h1.505v-.167z" fill="#016CB1"/><path d="M59.176 50.075v9.695c0 2.006-1.672 3.678-4.513 4.848-2.508 1.17-6.018 1.839-9.863 1.839-3.845 0-7.355-.669-9.863-1.84-2.674-1.17-4.513-2.84-4.513-4.847v-9.695h1.504v9.695c0 1.337 1.338 2.508 3.51 3.51 2.341 1.004 5.684 1.672 9.362 1.672s7.02-.668 9.361-1.671c2.173-1.003 3.51-2.174 3.51-3.51v-9.696h1.505z" fill="#016CB1"/><path d="M59.176 59.77v9.696c0 2.006-1.672 3.677-4.513 4.847-2.508 1.17-6.018 1.84-9.863 1.84-3.845 0-7.355-.67-9.863-1.84-2.674-1.17-4.513-2.841-4.513-4.847V59.77h1.504v9.696c0 1.337 1.338 2.507 3.51 3.51 2.341 1.003 5.684 1.672 9.362 1.672s7.02-.669 9.361-1.672c2.173-1.003 3.51-2.173 3.51-3.51V59.77h1.505zM47.81 50.242h2.005v1.504H47.81v-1.504zm-3.846 0h2.006v1.504h-2.006v-1.504zm-4.012 0h2.006v1.504h-2.006v-1.504z" fill="#016CB1"/><path d="M47.81 59.937h2.005v1.505H47.81v-1.505zm-3.846 0h2.006v1.505h-2.006v-1.505zm-4.012 0h2.006v1.505h-2.006v-1.505zm7.858 9.696h2.005v1.504H47.81v-1.504zm-3.846 0h2.006v1.504h-2.006v-1.504zm-4.012 0h2.006v1.504h-2.006v-1.504zm4.179-35.105v-5.683h42.794v8.358h-1.504v-6.854H45.636v4.18H44.13zm1.505 40.788v10.03h19.892v1.505H44.131V75.316h1.505z" fill="#016CB1"/></svg>