<svg width="112" height="112" fill="none" xmlns="http://www.w3.org/2000/svg"><path fill-rule="evenodd" clip-rule="evenodd" d="M4.012 32.857c0 .836.334 1.504.836 2.006.668.501 1.337.836 2.006.836.835 0 1.504-.335 2.005-.836.502-.502.836-1.17.836-2.006 0-.836-.334-1.505-.836-2.006a2.768 2.768 0 00-2.005-.836c-.836 0-1.505.334-2.006.836a2.768 2.768 0 00-.836 2.006zM5.85 33.86c-.168-.335-.335-.669-.335-1.003 0-.335 0-.836.335-1.003.334-.168.668-.335 1.003-.335.501 0 .835.168 1.002.335.168.334.335.668.335 1.003 0 .501-.167.836-.335 1.003-.334.167-.668.334-1.002.334-.502 0-.836-.167-1.003-.334z" fill="#41B6E6"/><path d="M12.203 30.015h2.006v1.504h-2.006v-1.504zm4.012 0h2.006v1.504h-2.006v-1.504zm4.179 0H22.4v1.504h-2.006v-1.504zm-8.191 4.179h2.006v1.504h-2.006v-1.504zm4.012 0h2.006v1.504h-2.006v-1.504zm4.179 0H22.4v1.504h-2.006v-1.504zm17.051-4.346h1.504v6.185h-1.504v-6.185zm4.179 0h1.505v6.185h-1.505v-6.185zm-8.358 0h1.504v6.185h-1.504v-6.185zm75.725 56.167v-2.006l-5.015-1.003-.502-.167-.167-.502c-.167-.668-.334-1.337-.668-2.006l-1.003-2.006-.335-.501.335-.334 3.176-4.347-3.009-3.009-4.346 3.176-.335.335-.334-.167c-.669-.335-1.337-.67-2.006-1.003-.669-.335-1.337-.502-2.006-.67h-.502l-.167-.5-1.003-5.016H87.26l-1.004 5.015v.502h-.501c-.669.167-1.337.334-2.006.669l-2.006 1.003-.501.334-.335-.334-4.346-3.177-1.337 1.338-1.003-1.003 1.838-1.839.502-.501.501.334 4.514 3.176a7.812 7.812 0 011.672-.836c.668-.167 1.17-.501 1.838-.669l1.003-5.182.168-.668h6.519l.167.668 1.003 5.182c.669.168 1.17.335 1.839.67.669.166 1.17.5 1.672.835l4.513-3.176.501-.334.502.501 3.845 3.845.501.501-.334.502-3.176 4.513c.334.502.668 1.17.836 1.672.167.668.501 1.17.668 1.839l5.182 1.003.669.167v3.176h-2.173z" fill="#41B6E6"/><path d="M78.4 86.015c0-3.009 1.17-5.684 3.176-7.69 2.006-2.006 4.68-3.176 7.69-3.176 3.008 0 5.683 1.17 7.69 3.176 2.005 2.006 3.175 4.681 3.175 7.69h-1.504c0-2.675-1.003-5.015-2.842-6.687-1.672-1.671-4.012-2.841-6.687-2.841-2.674 0-5.014 1.003-6.686 2.841C80.74 81 79.57 83.34 79.57 86.015H78.4z" fill="#41B6E6"/><path d="M85.922 86.015c0-.836.335-1.672 1.003-2.34.669-.669 1.505-1.003 2.34-1.003.837 0 1.672.334 2.34 1.003.67.668 1.004 1.504 1.004 2.34h-1.504c0-.502-.168-1.003-.502-1.337-.334-.335-.836-.502-1.337-.502-.502 0-1.003.167-1.338.502-.334.334-.501.835-.501 1.337h-1.505z" fill="#41B6E6"/><path fill-rule="evenodd" clip-rule="evenodd" d="M86.925 38.708c-.334.334-.668.668-.835 1.17-.168.501-.335 1.003 0 1.504V58.6h7.02V41.382c0-.397-.104-.689-.23-1.042-.034-.093-.069-.19-.104-.295-.167-.502-.501-.836-.836-1.17-.334-.335-.668-.669-1.17-.836-.334-.167-.836-.334-1.337-.334-.836 0-1.839.334-2.508 1.003zm.753 1.504c.083-.125.167-.25.25-.334.335-.502 1.003-.67 1.338-.67.334 0 .501 0 .835.168.084.084.21.167.335.25.125.084.25.168.334.252.084.083.167.209.25.334.084.125.168.25.252.334.167.335.167.502.167.836v15.714h-4.18V41.382c0-.334 0-.501.168-.836.083-.083.167-.209.25-.334z" fill="#41B6E6"/><path fill-rule="evenodd" clip-rule="evenodd" d="M87.26 57.931v3.511h4.179v-4.179H87.26v.668zm1.504 2.006V58.6h1.338v1.337h-1.338zm-1.504 18.89l.668 4.346.335.669h2.841l.168-.669.668-4.346v-.334l-.334-.335-1.504-1.504-.502-.502-.501.502-1.505 1.504-.334.335v.334zm2.006 3.51l-.502-3.343.502-.669.668.669-.501 3.343h-.167z" fill="#41B6E6"/><path d="M88.597 51.412h1.505v1.505h-1.505v-1.505zm0-2.842h1.505v1.505h-1.505V48.57zm0-3.009h1.505v1.505h-1.505V45.56zm0 15.212h1.505v16.55h-1.505v-16.55zm-2.007-6.519h5.684v1.504h-5.683v-1.504zM58.507 74.815c-3.176 0-6.185-1.337-8.358-3.51-2.173-2.174-3.51-5.015-3.51-8.359 0-3.176 1.337-6.185 3.51-8.358 2.173-2.173 5.015-3.51 8.358-3.51v1.504c-2.841 0-5.349 1.17-7.355 3.01-1.839 1.838-3.009 4.513-3.009 7.354 0 2.842 1.17 5.35 3.01 7.356 1.838 1.838 4.513 3.008 7.354 3.008v1.505z" fill="#41B6E6"/><path fill-rule="evenodd" clip-rule="evenodd" d="M64.693 69.299c1.671-1.505 2.674-3.678 2.674-6.186 0-2.507-1.003-4.68-2.674-6.185-1.505-1.671-3.678-2.674-6.185-2.674-2.34 0-4.514 1.003-6.185 2.674-1.672 1.505-2.675 3.678-2.675 6.186 0 2.34 1.003 4.513 2.675 6.185 1.504 1.671 3.677 2.674 6.185 2.674 2.34 0 4.513-1.003 6.185-2.674zm1.17-6.186c0 2.007-.836 3.845-2.173 5.183-1.338 1.337-3.176 2.173-5.182 2.173-2.006 0-3.845-.836-5.182-2.173-1.338-1.338-2.174-3.177-2.174-5.183 0-2.005.836-3.844 2.174-5.182 1.337-1.337 3.176-2.173 5.182-2.173 2.006 0 3.844.836 5.182 2.173 1.337 1.338 2.173 3.177 2.173 5.183z" fill="#41B6E6"/><path d="M60.56 60.686l17.112-7.998.637 1.363-17.112 7.998-.637-1.363z" fill="#41B6E6"/><path fill-rule="evenodd" clip-rule="evenodd" d="M83.415 54.755c.668-.669 1.003-1.671 1.003-2.674 0-1.17-.502-2.006-1.003-2.675-.669-.669-1.672-1.003-2.675-1.003s-2.006.334-2.674 1.003c-.67.669-1.004 1.672-1.004 2.675s.335 2.005 1.004 2.674c.668.669 1.671 1.003 2.674 1.003s2.006-.334 2.675-1.003zm-.502-2.674c0 .501-.334 1.17-.668 1.504-.502.334-1.003.669-1.505.669-.501 0-1.17-.335-1.504-.669-.502-.334-.669-.836-.669-1.504 0-.502.334-1.17.669-1.505.334-.501.835-.669 1.504-.669.502 0 1.17.335 1.505.67.501.333.668.835.668 1.504zM61.182 65.788c.669-.669 1.003-1.672 1.003-2.675s-.334-2.006-1.003-2.674c-.668-.669-1.671-1.003-2.674-1.003s-2.006.334-2.675 1.003c-.669.668-1.003 1.671-1.003 2.674s.334 2.006 1.003 2.675c.669.669 1.672 1.003 2.675 1.003s2.006-.334 2.674-1.003zm-.501-2.675c0 .502-.334 1.17-.669 1.505-.334.334-.836.669-1.504.669-.502 0-1.17-.335-1.505-.67-.501-.333-.668-.835-.668-1.504 0-.501.334-1.17.668-1.504.334-.502.836-.669 1.505-.669.501 0 1.17.335 1.504.669.502.334.669.836.669 1.504z" fill="#41B6E6"/><path d="M79.904 51.245h1.505v1.504h-1.505v-1.504zM57.839 62.278h1.504v1.504H57.84v-1.504zm16.215-2.842h1.504v1.504h-1.504v-1.504zm0 2.842h1.504v1.504h-1.504v-1.504zm0 3.009h1.504v1.504h-1.504v-1.504zM44.466 42.385h1.504v1.505h-1.504v-1.505zm3.009 0h1.504v1.505h-1.504v-1.505zm3.008 0h1.505v1.505h-1.505v-1.505z" fill="#41B6E6"/><path d="M74.054 51.245v-4.848l-5.517-5.516H43.128v44.298h30.926V74.815h1.504v11.869H41.624V39.376h27.582l.167.334 5.851 5.851.334.167v5.517h-1.504z" fill="#41B6E6"/><path d="M69.54 40.212v5.182h5.182v1.505h-6.686v-6.687h1.504zm-25.074 5.182H66.53v1.505H44.466v-1.505zm0 2.842h8.19v1.504h-8.19v-1.504zm9.695 0H72.55v1.504H54.161v-1.504zM44.466 76.32h28.083v1.504H44.466V76.32zm0 3.008h5.182v1.505h-5.182v-1.505zm6.686 0H72.55v1.505H51.152v-1.505zm-6.686 2.842h12.537v1.505H44.466V82.17zm14.041 0h5.182v1.505h-5.182V82.17zM4.18 40.212h1.504v5.182H4.179v-5.182zm0 19.725h1.504v5.182H4.179v-5.182zm0 19.726h1.504v6.185H4.179v-6.185zm5.85 4.513h27.08v1.505H10.03v-1.505z" fill="#41B6E6"/><path fill-rule="evenodd" clip-rule="evenodd" d="M.669 40.88H47.14V25H0v15.881h.669zm41.623-1.504H1.505V26.337h44.132v13.04h-3.344zM.669 60.773h42.293v-15.88H0v15.88h.669zm40.955-1.504H1.504v-13.04h40.12v13.04z" fill="#41B6E6"/><path fill-rule="evenodd" clip-rule="evenodd" d="M4.012 52.75c0 .835.334 1.504.836 2.005.668.502 1.337.836 2.006.836.835 0 1.504-.334 2.005-.836.502-.501.836-1.17.836-2.006 0-.836-.334-1.504-.836-2.006a2.768 2.768 0 00-2.005-.836 2.77 2.77 0 00-2.006.836 2.768 2.768 0 00-.836 2.006zm1.839 1.002c-.168-.334-.335-.668-.335-1.003 0-.501 0-.836.335-1.003.334-.167.668-.334 1.003-.334.501 0 .835.167 1.002.334.168.335.335.669.335 1.003 0 .502-.167.836-.335 1.003-.334.167-.668.335-1.002.335-.502 0-.836-.168-1.003-.335z" fill="#41B6E6"/><path d="M12.203 49.907h2.006v1.505h-2.006v-1.505zm4.012 0h2.006v1.505h-2.006v-1.505zm4.179 0H22.4v1.505h-2.006v-1.505zm-8.191 4.18h2.006v1.504h-2.006v-1.505zm4.012 0h2.006v1.504h-2.006v-1.505zm4.179 0H22.4v1.504h-2.006v-1.505zm17.051-4.514h1.504v6.185h-1.504v-6.185zm-4.179 0h1.504v6.185h-1.504v-6.185z" fill="#41B6E6"/><path fill-rule="evenodd" clip-rule="evenodd" d="M.669 80.498h41.623v-.167h.67v-15.88H0v16.048h.669zm40.955-1.504H1.504V65.955h40.12v13.039z" fill="#41B6E6"/><path fill-rule="evenodd" clip-rule="evenodd" d="M4.012 72.475c0 .835.334 1.504.836 2.006.668.501 1.337.835 2.006.835.835 0 1.504-.334 2.005-.835.502-.502.836-1.17.836-2.006 0-.836-.334-1.505-.836-2.006a2.768 2.768 0 00-2.005-.836c-.836 0-1.505.334-2.006.836a2.768 2.768 0 00-.836 2.006zm1.839 1.003c-.168-.335-.335-.67-.335-1.003 0-.335.167-.67.335-1.003.334-.167.668-.335 1.003-.335.501 0 .835.168 1.002.335.168.334.335.668.335 1.003 0 .501-.167.835-.335 1.003-.334.167-.668.334-1.002.334-.502 0-.836-.167-1.003-.334z" fill="#41B6E6"/><path d="M12.203 69.633h2.006v1.504h-2.006v-1.504zm4.012 0h2.006v1.504h-2.006v-1.504zm4.179 0H22.4v1.504h-2.006v-1.504zm-8.191 4.179h2.006v1.504h-2.006v-1.504zm4.012 0h2.006v1.504h-2.006v-1.504zm4.179 0H22.4v1.504h-2.006v-1.504zm17.051-4.513h1.504v6.184h-1.504V69.3zm-4.179 0h1.504v6.184h-1.504V69.3z" fill="#41B6E6"/></svg>