<svg width="24" height="24" fill="none" xmlns="http://www.w3.org/2000/svg"><path fill-rule="evenodd" clip-rule="evenodd" d="M6.972 0h10.056A6.98 6.98 0 0124 6.972v10.056A6.98 6.98 0 0117.028 24H6.972A6.98 6.98 0 010 17.028V6.972A6.98 6.98 0 016.972 0zm10.056 22.125a5.102 5.102 0 005.097-5.097V6.972a5.102 5.102 0 00-5.097-5.097H6.972a5.102 5.102 0 00-5.097 5.097v10.056a5.102 5.102 0 005.097 5.097h10.056z" fill="#E3E5E7"/><path fill-rule="evenodd" clip-rule="evenodd" d="M5.46 11.928a6.474 6.474 0 016.468-6.467 6.474 6.474 0 016.467 6.467 6.474 6.474 0 01-6.467 6.467 6.474 6.474 0 01-6.467-6.467zm1.875 0a4.598 4.598 0 004.593 4.593 4.598 4.598 0 004.593-4.593 4.598 4.598 0 00-4.593-4.592 4.598 4.598 0 00-4.593 4.592z" fill="#E3E5E7"/><circle cx="18.611" cy="5.389" r=".934" fill="#E3E5E7"/></svg>