<svg width="72" height="112" fill="none" xmlns="http://www.w3.org/2000/svg"><path d="M41.822 82.93H10.139V29.07h31.683v1.559H11.68v50.917h30.142v1.386z" fill="#08ACB3"/><path d="M10.152 82.297c0-1.174-.516-2.18-1.204-2.851-.689-.671-1.893-1.174-2.925-1.174a4.206 4.206 0 00-2.926 1.174c-.688.67-1.204 1.845-1.204 2.851a4 4 0 001.204 2.852c.689.67 1.893 1.174 2.926 1.174h32.35v-1.174h1.548V88H5.85c-1.548 0-3.097-.672-4.13-1.678C.689 85.316 0 83.974 0 82.297c0-1.51.688-3.02 1.72-4.025a5.772 5.772 0 014.13-1.678c1.55 0 3.098.671 4.13 1.678 1.033 1.006 1.72 2.348 1.72 4.025h-1.548z" fill="#08ACB3"/><path d="M10.195 29.882A4.24 4.24 0 009.02 26.94c-.671-.692-1.846-1.211-2.852-1.211-1.174 0-2.18.519-2.851 1.21-.671.693-1.175 1.904-1.175 2.942v52.415H.633V29.882c0-1.557.672-3.114 1.678-4.152C3.318 24.692 4.66 24 6.337 24c1.51 0 3.019.692 4.025 1.73a5.819 5.819 0 011.678 4.152h-1.845zM58 32.871v38.443l.891 4.348h.713l.891-4.348V32.87h1.604v38.791l-1.07 5.044v.522h-3.385l-.179-.522-1.069-5.044V32.87H58z" fill="#08ACB3"/><path d="M56.396 32.871v-3.03c0-.356 0-.712.169-1.069.169-.356.338-.713.507-.89.338-.357.507-.535.845-.535.338-.179.676-.179 1.014-.179.338 0 .676 0 1.014.179.337.178.675.356.844.534.338.357.507.535.507.891.17.357.17.713.17 1.07v3.03h-1.522v-3.03c0-.179 0-.357-.169-.535 0-.178-.168-.356-.337-.356l-.338-.357c-.17 0-.338-.178-.507-.178-.17 0-.338 0-.507.178-.17 0-.338.178-.338.357l-.338.356c0 .178-.17.356-.17.535v3.03h-.844zm.634 37.386h4.435v1.268H57.03v-1.268zm0-3.802h4.435v1.268H57.03v-1.268zm1.267 10.139h1.267v3.168h-1.267v-3.168z" fill="#08ACB3"/><path fill-rule="evenodd" clip-rule="evenodd" d="M45.635 88h8.226V24H44.99v64h.645zm6.936-1.557h-6.13V25.557h6.13v60.886z" fill="#08ACB3"/><path d="M48.158 29.07h1.901v1.267h-1.9v-1.268zm-2.535 5.069h3.169v1.267h-3.169v-1.267zm0 3.801h3.169v1.268h-3.169V37.94zm0 4.436h3.169v1.268h-3.169v-1.268zm0 3.802h3.169v1.268h-3.169v-1.268zm0 3.802h3.169v1.268h-3.169V49.98zm0 3.802h3.169v1.268h-3.169v-1.268zm0 4.436h3.169v1.267h-3.169v-1.267zm0 3.802h3.169v1.267h-3.169V62.02zm0 4.435h3.169v1.268h-3.169v-1.268zm0 3.802h3.169v1.268h-3.169v-1.268zm0 4.436h3.169v1.267h-3.169v-1.267zm0 3.168h3.169v1.268h-3.169V77.86zm0 4.436h3.169v1.267h-3.169v-1.267zM27.248 55.05h1.267v1.9h-1.267v-1.9z" fill="#08ACB3"/><path fill-rule="evenodd" clip-rule="evenodd" d="M20.17 56.843l7.185 7.186.526.526.526-.526 7.186-7.186.526-.526-.526-.526-7.186-7.186-.526-.526-.526.526-7.186 7.186-.525.526.525.526zm7.711 5.433l-5.959-5.96 6.134-6.134 5.784 6.135-5.959 5.959z" fill="#08ACB3"/><path d="M18.86 53.782l-2.956-2.887-.696-.51.696-.68 12.002-11.889.696-.51.522.51L41.3 49.706l.522.68-.522.509-3.131 2.887-1.044-1.019 2.436-2.378-10.96-10.87-11.132 10.87 2.436 2.378-1.044 1.02zm1.045 4.188l-2.436 2.547 11.133 10.7 10.959-10.7-2.436-2.548 1.044-1.019 3.131 3.058.522.51-.522.509-12.176 11.89-.522.509-.696-.51-12.002-11.89-.696-.509.696-.51 2.957-3.057 1.044 1.02zm3.54 17.357h1.901v1.267h-1.9v-1.267zm3.803 0h1.9v1.267h-1.9v-1.267zm4.435 0h1.901v1.267h-1.9v-1.267zm39.921-22.178h1.267v1.9h-1.267v-1.9zm0 3.801h1.267v1.901h-1.267v-1.9z" fill="#08ACB3"/><path d="M94.774 47.541v-4.5l-3.6-2.77-.344-.173v-14.54l-14.23 9.52v10.906l-.343.346-7.544 4.673v8.482h-1.544v-9.348l.343-.172 7.545-4.674V34.386l.343-.346 14.745-9.867.172-.173h2.057v15.233l3.601 2.77.343.345v5.193h-1.543z" fill="#08ACB3"/><path fill-rule="evenodd" clip-rule="evenodd" d="M67.418 62.79C66.474 65.273 64 71.782 64 74.357c0 1.414.657 2.65 1.314 3.358.822.883 1.807 1.414 3.122 1.414 1.15 0 2.3-.53 3.121-1.414.821-.884 1.314-1.944 1.314-3.358 0-3.358-3.778-12.548-3.778-12.548-.165-.354-.657-.53-.986-.354-.164 0-.329.177-.329.354 0 .034-.137.395-.36.98zm-1.775 11.567c0-1.944 1.971-7.423 2.957-10.074.986 2.651 2.957 7.953 2.957 10.074 0 .884-.329 1.767-.821 2.297-.493.53-1.315.884-2.136.884-.822 0-1.643-.353-2.136-.884-.493-.53-.821-1.413-.821-2.297z" fill="#08ACB3"/><path fill="#08ACB3" d="M67.168 72.792h1.267v8.871h-1.267zm-13.307 8.871h56.396v1.268H53.861v-1.268zm-.634 4.436h59.565v1.267H53.227V86.1zm3.803-34.851h4.435v1.267H57.03v-1.267zm0-19.01h4.435v1.267H57.03v-1.267z"/></svg>