<svg width="112" height="112" fill="none" xmlns="http://www.w3.org/2000/svg"><path fill-rule="evenodd" clip-rule="evenodd" d="M40.62 31.857H.502v-6.352h40.12v6.352zM2.007 30.352h37.278V27.01H2.006v3.343z" fill="#0FD7DB"/><path fill-rule="evenodd" clip-rule="evenodd" d="M4.68 28.012h1.505v1.504H4.681v-1.504zm3.01 0h1.504v1.504H7.689v-1.504zm2.841 0h1.505v1.504H10.53v-1.504zm95.451 7.522c.502-.501.836-1.17.836-2.006 0-.835-.334-1.504-.836-2.006a2.768 2.768 0 00-2.006-.835 2.77 2.77 0 00-2.006.835 2.77 2.77 0 00-.836 2.006c0 .836.335 1.505.836 2.006.502.502 1.17.836 2.006.836.836 0 1.505-.334 2.006-.836zm-.669-2.006c0 .502-.167.836-.334 1.003-.167.168-.501.335-1.003.335-.501 0-.836-.167-1.003-.335-.167-.334-.334-.668-.334-1.003 0-.501.167-.835.334-1.003.334-.167.669-.334 1.003-.334.502 0 .836.167 1.003.334.167.335.334.669.334 1.003z" fill="#0FD7DB"/><path d="M96.788 30.686h2.006v1.505h-2.006v-1.505zm-4.179 0h2.006v1.505h-2.006v-1.505zm-4.179 0h2.006v1.505H88.43v-1.505zm8.358 4.18h2.006v1.504h-2.006v-1.504zm-4.179 0h2.006v1.504h-2.006v-1.504zm-4.179 0h2.006v1.504H88.43v-1.504zm-16.382-4.514h1.504v6.185h-1.504v-6.185zm-4.179 0h1.504v6.185H67.87v-6.185zm8.358 0h1.504v6.185h-1.504v-6.185zm-2.34 54.83h27.08v1.505h-27.08v-1.505z" fill="#0FD7DB"/><path fill-rule="evenodd" clip-rule="evenodd" d="M40.621 59.105h-14.71v-1.338h13.373V44.895h1.337v14.21zm-25.409 0H.502V49.91l7.02-7.02 5.015 5.182-1.003 1.003-4.012-4.012-5.516 5.349v7.355h13.206v1.337z" fill="#0FD7DB"/><path fill-rule="evenodd" clip-rule="evenodd" d="M33.767 46.567l-5.182-5.182 1.003-1.003 4.18 4.18 5.516-5.517v-7.188H2.006v12.871H.5V30.352h40.12v9.362l-.167.167-6.687 6.686z" fill="#0FD7DB"/><path fill-rule="evenodd" clip-rule="evenodd" d="M18.221 41.385l-4.68 4.68.501 1.505 4.18-4.179 4.68 4.68 4.68-4.68-.501-1.504-4.18 4.179-4.68-4.68z" fill="#0FD7DB"/><path fill-rule="evenodd" clip-rule="evenodd" d="M20.561 37.54c-3.845 0-7.188 3.176-7.188 7.188s3.176 7.188 7.188 7.188 7.188-3.176 7.188-7.188-3.176-7.188-7.188-7.188zm0 12.872a5.637 5.637 0 01-5.684-5.684 5.637 5.637 0 015.684-5.683 5.637 5.637 0 015.684 5.683c.167 3.176-2.508 5.684-5.684 5.684z" fill="#0FD7DB"/><path fill-rule="evenodd" clip-rule="evenodd" d="M20.561 54.925c-5.516 0-10.03-4.513-10.03-10.03 0-5.516 4.514-10.03 10.03-10.03 5.517 0 10.03 4.514 10.03 10.03.167 5.35-4.346 10.03-10.03 10.03zm0-18.722c-4.68 0-8.692 3.845-8.692 8.693 0 4.68 3.844 8.692 8.692 8.692 4.68 0 8.693-3.845 8.693-8.692 0-4.848-3.845-8.693-8.693-8.693z" fill="#0FD7DB"/><path fill-rule="evenodd" clip-rule="evenodd" d="M19.893 54.09h1.504v4.346h-1.504V54.09z" fill="#0FD7DB"/><path fill-rule="evenodd" clip-rule="evenodd" d="M20.561 67.797c-.668 0-1.337-.334-1.838-.836-.502-.501-.836-1.17-.836-1.839V57.6h5.182v7.522c0 .669-.334 1.338-.836 1.84-.334.668-1.003.835-1.672.835zm-1.17-8.692v6.185c0 .334.167.668.335.835.501.502 1.17.502 1.671 0 .167-.167.335-.501.335-.835v-6.186h-2.34zM2.34 69.97v1.505H.836V69.97H2.34zm3.678 1.505V69.97H4.179v1.505h1.839zm11.033 0h-1.505V69.97h1.505v1.505zm-1.505 3.677h1.505v-1.839h-1.505v1.84zm-7.522-.167h3.845v6.352H5.684v-2.674h.167v-3.678h2.173zm7.522 3.678h1.505v-1.84h-1.505v1.84zm1.505 3.51h-1.505v-1.839h1.505v1.84zM9.528 71.475V69.97H7.69v1.505h1.838zm3.51-1.505v1.505H11.2V69.97h1.839zM2.34 77.493H.836v1.838H2.34v-1.838zM.836 73.982H2.34v1.839H.836v-1.839zm1.504 7.02H.836v1.84H2.34v-1.84zM.836 84.68H2.34v1.505H.836V84.68zm7.522 0v1.505h1.672V84.68H8.358zm-3.51 1.505V84.68h1.839v1.505h-1.84zm7.02-1.505v1.505h1.84V84.68h-1.84zm5.183 1.505h-1.505V84.68h1.505v1.505zm-11.869-3.51h8.358V73.48H4.346v9.194h.836z" fill="#0FD7DB"/><path d="M64.86 67.964V44.728H40.62v12.538h-1.504v-14.21h27.248v26.58H24.74v-1.672h40.12z" fill="#0FD7DB"/><path fill-rule="evenodd" clip-rule="evenodd" d="M44.298 47.069l-4.68 2.34-.335.334v8.024h-3.176v3.845l.502.167 7.69 3.845.334.167.334-.334 7.69-3.845.501-.167V51.08l-.501-.168-7.69-3.844-.334-.168-.335.168zm-3.51 3.677l3.845-2.006 7.02 3.678v8.358l-7.02 3.51-7.021-3.51V59.44h3.176v-8.693z" fill="#0FD7DB"/><path d="M60.848 40.048h8.525v46.471h-1.504V41.552h-7.021v-1.504zm44.465.835h1.505v5.183h-1.505v-5.183zm0 19.726h1.505v5.182h-1.505V60.61zm0 19.725h1.505v6.185h-1.505v-6.185z" fill="#0FD7DB"/><path fill-rule="evenodd" clip-rule="evenodd" d="M68.705 41.552h42.292v-15.88H63.856v15.88h4.849zm40.788-1.504H65.195v-13.04h44.298v13.04zm-40.789 21.23h42.293V45.397H68.036v15.881h.668zm40.788-1.505H69.373V46.734h40.119v13.04z" fill="#0FD7DB"/><path fill-rule="evenodd" clip-rule="evenodd" d="M105.982 55.26c.502-.502.836-1.17.836-2.006 0-.669-.334-1.505-.836-2.006a2.767 2.767 0 00-2.006-.836c-.836 0-1.504.334-2.006.836a2.77 2.77 0 00-.836 2.006c0 .836.335 1.504.836 2.006.502.501 1.17.836 2.006.836a2.77 2.77 0 002.006-.836zm-.669-2.006c0 .501-.167.836-.334 1.003-.167.167-.501.334-1.003.334-.501 0-.836-.167-1.003-.334-.167-.335-.334-.669-.334-1.003 0-.502.167-.836.334-1.003.334-.167.669-.334 1.003-.334.502 0 .836.167 1.003.334.167.334.334.669.334 1.003z" fill="#0FD7DB"/><path d="M96.788 50.412h2.006v1.505h-2.006v-1.505zm-4.179 0h2.006v1.505h-2.006v-1.505zm-4.179 0h2.006v1.505H88.43v-1.505zm8.358 4.179h2.006v1.505h-2.006V54.59zm-4.179 0h2.006v1.505h-2.006V54.59zm-4.179 0h2.006v1.505H88.43V54.59zm-16.382-4.346h1.504v6.185h-1.504v-6.185zm4.179 0h1.504v6.185h-1.504v-6.185z" fill="#0FD7DB"/><path fill-rule="evenodd" clip-rule="evenodd" d="M68.704 81.17h41.624v-.167h.669V65.122H68.036V81.17h.668zm40.788-1.504H69.373v-13.04h40.119v13.04z" fill="#0FD7DB"/><path fill-rule="evenodd" clip-rule="evenodd" d="M105.982 75.152c.502-.501.836-1.17.836-2.006 0-.836-.334-1.504-.836-2.006a2.767 2.767 0 00-2.006-.836c-.836 0-1.504.335-2.006.836a2.77 2.77 0 00-.836 2.006c0 .836.335 1.505.836 2.006.502.502 1.17.836 2.006.836.836 0 1.505-.334 2.006-.836zm-.669-2.173c0 .502-.167.836-.334 1.003-.167.334-.501.502-1.003.334-.501 0-.836-.167-1.003-.334-.167-.334-.334-.669-.334-1.003 0-.501.167-.836.334-1.003.334-.167.669-.334 1.003-.334.502 0 .836.167 1.003.334.035.07.07.132.103.192.127.227.231.414.231.811z" fill="#0FD7DB"/><path d="M96.788 70.304h2.006v1.505h-2.006v-1.505zm-4.179 0h2.006v1.505h-2.006v-1.505zm-4.179 0h2.006v1.505H88.43v-1.505zm8.358 4.18h2.006v1.504h-2.006v-1.504zm-4.179 0h2.006v1.504h-2.006v-1.504zm-4.179 0h2.006v1.504H88.43v-1.504zM72.048 69.97h1.504v6.185h-1.504V69.97zm4.179 0h1.504v6.185h-1.504V69.97z" fill="#0FD7DB"/><path fill-rule="evenodd" clip-rule="evenodd" d="M68.704 71.14H20.561v.167h-.668v4.514c0 .334 0 .836.167 1.17.167.334.334.669.668 1.003.335.334.67.502 1.003.669.335.167.836.167 1.17.167h43.463c.334 0 .836 0 1.17-.167.335-.167.669-.335 1.003-.669.335-.334.502-.669.669-1.003.167-.334.167-.836.167-1.17V71.14h-.669zm-47.307 1.505h46.806v3.176c0 .196-.057.334-.105.449a.6.6 0 00-.062.22c0 .167-.167.334-.335.501-.167.167-.334.334-.501.334-.334.168-.502.168-.669.168H23.07c-.196 0-.335-.058-.45-.105a.587.587 0 00-.219-.063c-.167 0-.334-.167-.502-.334-.167-.167-.334-.334-.334-.501-.167-.335-.167-.502-.167-.67v-3.175z" fill="#0FD7DB"/><path d="M21.397 66.961v4.18h46.639V43.223c0-.167 0-.334-.167-.669 0-.167-.168-.334-.335-.501-.167-.168-.334-.335-.501-.335-.167 0-.335-.167-.669-.167H42.293v-1.504h24.071c.334 0 .836 0 1.17.167.335.167.669.334 1.003.669.335.334.502.668.669 1.002.167.335.167.836.167 1.17v29.422h-49.48V66.96h1.504zm32.597 19.725c0-.167 0-.334-.167-.501 0 0-.167-.167-.334-.167H35.772c-.167 0-.167.167-.334.167 0 0-.167.167-.167.334v.335h-1.505c0-.335 0-.669.167-.836.167-.335.335-.502.502-.669.167-.167.501-.334.668-.501.335-.168.502-.168.836-.168H52.99c.334 0 .669 0 .836.168.334.167.501.334.668.501.502.502.67 1.003.67 1.672h-1.171v-.335z" fill="#0FD7DB"/><path d="M50.1 78.096l1.495-.166.776 6.978-1.496.166-.775-6.978zm-13.162 6.796l.775-6.978 1.496.166-.776 6.978-1.495-.166zm5.354-10.742h4.681v1.504h-4.68v-1.505z" fill="#0FD7DB"/><path fill-rule="evenodd" clip-rule="evenodd" d="M59.343 53.922h3.845V46.4h-4.513v7.522h.669zm2.508-1.504h-1.672v-4.68h1.672v4.68z" fill="#0FD7DB"/><path d="M58.675 55.594h4.68v1.505h-4.68v-1.505zm0 3.176h4.68v1.505h-4.68V58.77zm0 3.01h4.68v1.503h-4.68V61.78zm0 3.175h4.68v1.505h-4.68v-1.505zm-18.389-12.37l4.347 2.173 7.355-3.677.669 1.337-7.69 3.845-.334.167-.335-.167-4.68-2.34.668-1.338z" fill="#0FD7DB"/><path d="M43.964 55.594h1.505v9.361h-1.505v-9.361z" fill="#0FD7DB"/><path fill-rule="evenodd" clip-rule="evenodd" d="M4.848 77.66H5.85v4.513H4.848V77.66z" fill="#0FD7DB"/></svg>