<svg width="24" height="24" fill="none" xmlns="http://www.w3.org/2000/svg"><path fill-rule="evenodd" clip-rule="evenodd" d="M6.007.01h11.938c3.308 0 6.008 2.699 6.026 6.007v11.938c0 3.308-2.699 6.007-6.007 6.007H6.007C2.7 23.962 0 21.262 0 17.974V6.017C0 2.709 2.7.01 6.007.01zm11.92 9.371v-.399a6.242 6.242 0 001.52-1.559c-.551.248-1.14.4-1.768.476a3.095 3.095 0 001.35-1.673 5.706 5.706 0 01-1.94.741 3.115 3.115 0 00-2.242-.95c-1.692 0-3.06 1.35-3.06 3.022 0 .228.018.456.075.685a8.782 8.782 0 01-6.311-3.156c-.266.456-.418.97-.418 1.52 0 1.046.551 1.978 1.368 2.51-.494-.019-.988-.152-1.368-.38v.038a3.038 3.038 0 002.414 2.965 2.833 2.833 0 01-.817.114 2.9 2.9 0 01-.57-.057 3.063 3.063 0 002.87 2.091 6.123 6.123 0 01-3.802 1.293c-.23 0-.445-.016-.673-.034l-.05-.004a8.752 8.752 0 004.696 1.35c5.646 0 8.725-4.6 8.725-8.593z" fill="#E3E5E7"/></svg>