<svg width="331" height="163" fill="none" xmlns="http://www.w3.org/2000/svg"><path fill-rule="evenodd" clip-rule="evenodd" d="M259.712 24.408c.718-.313 1.398-.62 2.041-.913-5.052-2.766-10.463-5.244-16.189-7.409a146.514 146.514 0 00-17.845-5.444 160.522 160.522 0 00-18.954-3.316 170.389 170.389 0 00-19.616-1.114c-11.785 0-23.143 1.182-33.832 3.373-11.055 2.277-21.398 5.637-30.734 9.886-9.499 4.33-17.965 9.593-25.095 15.594-7.043 5.913-12.775 12.552-16.907 19.71l71.93.02c.245 0 .491.093.68.28a.947.947 0 01.283.62l5.166 6.677 2.343 3.029c.025.037.057.068.082.112l3.521 4.55 15.074-14.975a.96.96 0 01.68-.281h54.122c.17 0 .34.05.498.137l.006.007.006.006a.911.911 0 01.29.25l7.225 9.349 9.568-9.505a.962.962 0 01.681-.276h67.054a.95.95 0 01.825.464 58.318 58.318 0 013.332 6.326 54.058 54.058 0 012.413 6.476 48.27 48.27 0 011.512 6.815c.333 2.277.51 4.58.51 6.901 0 10.982-3.824 21.463-10.753 31.025-7.156 9.868-17.631 18.759-30.62 26.206-13.026 7.459-28.585 13.478-45.876 17.577-16.636 3.948-34.872 6.126-53.984 6.126-7.011 0-13.914-.294-20.661-.864a230.14 230.14 0 01-20.138-2.565 214.39 214.39 0 01-16.504-3.523 192.213 192.213 0 01-15.577-4.656.955.955 0 01-.718-.926c0-.525.428-.951.963-.951h21.09c.101 0 .201.013.302.05a149.675 149.675 0 0012.138 3.479c4.114.995 8.334 1.834 12.649 2.516 4.271.676 8.649 1.189 13.121 1.533 4.372.338 8.819.513 13.335.513 15.465 0 30.205-2.034 43.647-5.726 13.94-3.829 26.494-9.442 37.014-16.4 10.538-6.984 19.029-15.318 24.812-24.579 5.543-8.88 8.604-18.622 8.604-28.835 0-.782-.019-1.52-.05-2.208a49.604 49.604 0 00-.145-2.21 41.707 41.707 0 00-.239-2.177 40.05 40.05 0 00-.334-2.19l-35.716 35.48a.96.96 0 01-.68.281h-54.116a.97.97 0 01-.687-.281l-.012-.013a.865.865 0 01-.107-.119l-11.395-14.736-14.999 14.905a.985.985 0 01-.68.282h-53.964a.959.959 0 01-1.04-.338l-20.063-25.956a.882.882 0 01-.207-.394 1.021 1.021 0 01-.032-.307h-33.6a.952.952 0 01-.68-.281.947.947 0 010-1.352l11.93-11.858-9.51-.025H51.185a.956.956 0 01-.92-1.239c2.993-9.304 8.75-18.046 16.769-25.937 8.17-8.047 18.696-15.211 31.03-21.181 12.522-6.063 26.922-10.9 42.619-14.192 15.124-3.172 31.445-4.9 48.465-4.9 12.636 0 24.882.952 36.523 2.735 12.018 1.834 23.413 4.568 33.964 8.06 10.262 3.391 19.698 7.496 28.101 12.195 8.415 4.706 15.804 10.006 21.977 15.782a.96.96 0 01-.604 1.702h-23.225v-.007a.93.93 0 01-.687-.294 92.026 92.026 0 00-3.37-3.272 91.657 91.657 0 00-3.634-3.173 97.635 97.635 0 00-4.057-3.166 95.557 95.557 0 00-4.246-2.972c-.018-.013-.044-.026-.063-.038l-.006-.006c-.592.263-1.165.513-1.701.744v-.006.006c-.529.226-1.083.45-1.669.689-.617.256-1.203.488-1.738.7-.492.188-1.052.407-1.663.633-.051.018-.101.043-.158.056-10.148 3.786-20.699 6.476-31.306 8.116a166.3 166.3 0 01-32.838 1.827c-10.532-.457-20.768-1.927-30.361-4.349-9.531-2.403-18.444-5.75-26.419-9.987a.927.927 0 01-.46-.513.95.95 0 01.561-1.22l.598-.225c.24-.082.504-.082.75.03 7.578 3.605 15.962 6.415 24.856 8.373 8.945 1.971 18.406 3.091 28.088 3.298 9.581.206 19.382-.482 29.114-2.096 9.405-1.57 18.747-4.018 27.761-7.384.711-.263 1.448-.544 2.192-.838.756-.307 1.474-.601 2.154-.883a146 146 0 002.129-.92zm-46.336 80.596l36.982-36.744h-7.282a.962.962 0 01-.523-.156.838.838 0 01-.327-.27l-7.194-9.298-32.566 32.351 10.91 14.117zM10.418 130.853c0 1.076-.541 1.621-1.606 1.621H.075v3.767h9.909c1.75 0 3.03-.401 3.855-1.202.825-.794 1.234-2.015 1.234-3.648v-.269c0-.732-.088-1.383-.258-1.94-.504-1.545-1.449-2.515-2.847-2.909a3.69 3.69 0 001.87-1.414c.48-.676.719-1.546.719-2.629 0-1.633-.397-2.847-1.19-3.648-.794-.801-2.035-1.201-3.723-1.201H.075v3.773h8.277c1.027 0 1.55.538 1.55 1.621v.538c0 1.076-.523 1.614-1.55 1.614H2.658v3.774h6.204c1.04 0 1.556.531 1.556 1.614v.538zm15.25-3.635v-.539c0-.719-.34-1.082-1.033-1.082h-6.847v-3.636h8.271c1.291 0 2.305.382 3.036 1.152.73.757 1.096 1.814 1.096 3.16v9.968h-4.006l-.252-1.346a9.176 9.176 0 01-2.5 1.227c-.857.256-1.57.388-2.161.388h-.901c-1.172 0-2.117-.369-2.816-1.108-.705-.732-1.064-1.714-1.064-2.928v-1.214c0-1.227.359-2.203 1.064-2.941.7-.739 1.644-1.101 2.816-1.101h5.298zm-3.099 5.519c.914 0 1.947-.176 3.1-.539v-1.614H21.92a.865.865 0 00-.65.269.95.95 0 00-.258.67v.275c0 .269.089.494.259.676.176.175.39.263.649.263h.648zm71.621-5.519v-.539c0-.719-.352-1.082-1.04-1.082h-6.853v-3.636h8.278c1.29 0 2.299.382 3.036 1.152.73.757 1.096 1.814 1.096 3.16v9.968H94.7l-.259-1.346a9.14 9.14 0 01-2.494 1.227c-.857.256-1.575.388-2.16.388h-.902c-1.177 0-2.116-.369-2.815-1.108-.712-.732-1.065-1.714-1.065-2.928v-1.214c0-1.227.353-2.203 1.065-2.941.699-.739 1.638-1.101 2.815-1.101h5.304zm-3.111 5.519c.92 0 1.952-.176 3.111-.539v-1.614h-3.754a.856.856 0 00-.649.269.95.95 0 00-.258.67v.275c0 .269.088.494.258.676.17.175.39.263.649.263h.642zm122.807-5.519v-.539c0-.719-.346-1.082-1.033-1.082H206v-3.636h8.277c1.291 0 2.299.382 3.036 1.152.73.757 1.096 1.814 1.096 3.16v9.968h-4.006l-.259-1.346a9.178 9.178 0 01-2.488 1.227c-.863.256-1.581.388-2.167.388h-.907c-1.171 0-2.104-.369-2.816-1.108-.705-.732-1.058-1.714-1.058-2.928v-1.214c0-1.227.353-2.203 1.058-2.941.712-.739 1.645-1.101 2.816-1.101h5.304zm27.401 2.083v2.628c0 .72.347 1.077 1.04 1.077h6.853v3.641h-8.277c-1.291 0-2.306-.387-3.036-1.151-.731-.763-1.103-1.815-1.103-3.16v-6.063c0-1.346.372-2.403 1.103-3.16.73-.77 1.745-1.152 3.036-1.152h8.277v3.636h-6.853c-.693 0-1.04.363-1.04 1.082v2.622zm-191.833 6.94H32.522v-14.28h4.523v10.644h2.973v-10.644h4.529v10.644h2.967v-10.644h4.529v10.644h1.94v6.871h-4.264l-.265-3.235zm15.256-14.28h4.781v14.28H64.97v-7.81l-4.397 7.81H55.79v-14.28h4.523v7.816l4.396-7.816zm15.125 3.636v10.644h-4.523v-10.644H71.04v-3.636h13.058v3.636h-4.264zm37.227 10.644h-4.655v-11.583l-6.198 11.583h-4.913v-18.86h4.648v11.582l6.205-11.582h4.913v18.86zm12.019-9.023v-5.257h4.529v14.28h-4.529v-5.388h-4.649v5.388h-4.522v-14.28h4.522v5.257h4.649zm25.341 4.711c0 1.346-.365 2.403-1.096 3.167-.73.763-1.751 1.145-3.042 1.145h-2.841v4.58h-4.529v-4.58h-2.841c-1.291 0-2.305-.382-3.036-1.145-.737-.764-1.103-1.821-1.103-3.167v-5.656c0-1.346.366-2.403 1.103-3.16.731-.77 1.745-1.152 3.036-1.152h2.841v-4.58h4.529v4.58h2.841c1.291 0 2.312.382 3.042 1.152.731.757 1.096 1.814 1.096 3.16v5.656zm-13.958-.406c0 .719.346 1.082 1.033 1.082h1.807v-7.008h-1.807c-.687 0-1.033.363-1.033 1.082v4.844zm9.436-4.844c0-.719-.347-1.082-1.04-1.082h-1.543v7.008h1.543c.693 0 1.04-.363 1.04-1.082v-4.844zm20.812 5.519c0 1.346-.372 2.403-1.102 3.167-.731.763-1.745 1.145-3.037 1.145h-5.946c-1.298 0-2.305-.382-3.036-1.145-.737-.764-1.103-1.821-1.103-3.167v-6.194c0-1.346.366-2.403 1.103-3.167.731-.763 1.738-1.145 3.036-1.145h5.946c1.292 0 2.306.382 3.037 1.145.73.764 1.102 1.821 1.102 3.167v6.194zm-4.529-5.788c0-.719-.34-1.076-1.033-1.076h-3.099c-.687 0-1.033.357-1.033 1.076v5.388c0 .713.346 1.07 1.033 1.07h3.099c.693 0 1.033-.357 1.033-1.07v-5.388zm15.905 9.831h-4.655v-15.087h-5.43v-3.773h15.509v3.773h-5.424v15.087zm14.608-10.644c-.914 0-1.953.181-3.106.544v6.464h3.881c.686 0 1.033-.363 1.033-1.082v-4.981a.93.93 0 00-.259-.67.865.865 0 00-.642-.275h-.907zm-3.106 10.644v4.58h-4.522v-18.86h4.006l.258 1.352c.813-.557 1.644-.97 2.494-1.227.851-.262 1.569-.394 2.161-.394h1.165c1.166 0 2.111.369 2.816 1.108.706.732 1.058 1.714 1.058 2.935v6.194c0 1.346-.365 2.403-1.096 3.167-.737.763-1.745 1.145-3.042 1.145h-5.298zm17.191-3.504c.913 0 1.952-.176 3.105-.539v-1.614h-3.748a.856.856 0 00-.649.269.95.95 0 00-.258.67v.275c0 .269.088.494.258.676.17.175.391.263.649.263h.643zm19.136-5.519v-5.257h4.523v14.28h-4.523v-5.388h-4.655v5.388h-4.523v-14.28h4.523v5.257h4.655zM14.11 108.739H1.064a.991.991 0 01-.68-.281.948.948 0 010-1.352l6.885-6.845.56-.557 4.208-4.174a.95.95 0 01.68-.281h1.393v-.007l99.664.025c.246 0 .492.094.681.276a.949.949 0 010 1.351l-11.66 11.583a.96.96 0 01-.68.275l-88.005-.013zm146.057-40.773l-.019-.012-2.979-3.861-.082-.1-4.126-5.344-23.004 22.846a.95.95 0 01-.681.281h-16.018l18.04 23.34 32.573-32.357-3.704-4.793z" fill="#fff"/></svg>