<svg width="240" height="32" fill="none" xmlns="http://www.w3.org/2000/svg"><path fill-rule="evenodd" clip-rule="evenodd" d="M71.23 11.604l-1.537-3.86h-.023c.015.236.023.478.023.727v3.133h-.278v-4.18h.447l1.46 3.677h.019l1.46-3.678h.434v4.181h-.291V8.436c0-.221.012-.45.034-.686h-.022l-1.543 3.854h-.184zm3.47-4.18h.277v2.734c0 .194-.008.52-.023.978h.017l2.435-3.713h.292v4.181h-.278V8.888c0-.309.01-.643.036-1h-.024l-2.445 3.716H74.7v-4.18zm7.452 4.18h-.29V9.55h-2.41v2.055h-.286v-4.18h.286V9.28h2.41V7.423h.29v4.181zm1.466-4.18h.279v2.734c0 .194-.009.52-.025.978h.017l2.437-3.713h.29v4.181h-.279V8.888c0-.309.013-.643.038-1h-.023l-2.445 3.716h-.289v-4.18zm6.226.203c-.517 0-.923.168-1.221.503-.298.335-.447.795-.447 1.379 0 .596.142 1.059.421 1.389.28.33.682.495 1.202.495.346 0 .663-.045.953-.136v.258c-.272.098-.613.146-1.02.146-.58 0-1.035-.19-1.37-.568-.33-.38-.498-.91-.498-1.59 0-.426.079-.8.239-1.124.16-.324.387-.574.684-.75a2.015 2.015 0 011.04-.266c.403 0 .762.076 1.08.23l-.116.262a2.075 2.075 0 00-.947-.228zm3.203 3.977h-.29V7.698h-1.34v-.275h2.97v.275h-1.34v3.906zm4.505 0h-2.253v-4.18h2.253v.27h-1.967v1.58h1.858v.27h-1.858v1.792h1.967v.268zm3.715-2.98c0 .404-.135.714-.405.93-.271.215-.655.323-1.15.323h-.638v1.727h-.288v-4.18h1.009c.982 0 1.472.4 1.472 1.2zm-2.193 1.002h.566c.466 0 .801-.078 1.007-.234.207-.154.311-.407.311-.755 0-.323-.098-.562-.293-.717-.196-.155-.499-.233-.909-.233h-.682v1.939zm5.152-1.999c-.519 0-.926.168-1.223.503-.297.335-.445.795-.445 1.379 0 .596.14 1.059.42 1.389.281.33.68.495 1.202.495.346 0 .663-.045.953-.136v.258c-.273.098-.613.146-1.022.146-.578 0-1.035-.19-1.367-.568-.332-.38-.499-.91-.499-1.59 0-.426.079-.8.237-1.124a1.75 1.75 0 01.686-.75 2.014 2.014 0 011.04-.266c.401 0 .762.076 1.079.23l-.115.262a2.073 2.073 0 00-.946-.228zm3.202 3.977h-.291V7.698h-1.341v-.275h2.97v.275h-1.338v3.906zm2.251-4.18h1.131c.51 0 .883.088 1.122.263.239.176.359.44.359.795a.867.867 0 01-.219.605c-.146.16-.359.264-.638.31v.018c.329.049.571.154.726.316.155.16.233.385.233.672 0 .386-.127.682-.378.89-.252.208-.61.311-1.072.311h-1.264v-4.18zm.288 1.862h.909c.386 0 .668-.065.843-.197.177-.13.264-.334.264-.613 0-.277-.099-.48-.298-.605-.198-.126-.493-.19-.886-.19h-.832v1.605zm0 .257v1.804h.969c.764 0 1.146-.314 1.146-.944 0-.573-.401-.86-1.206-.86h-.909zm7.099-.034c0 .662-.163 1.188-.49 1.573-.328.386-.779.579-1.354.579-.573 0-1.023-.193-1.35-.58-.328-.384-.491-.91-.491-1.578 0-.665.164-1.19.495-1.572.33-.382.781-.573 1.352-.573.575 0 1.025.192 1.351.577.325.384.487.91.487 1.574zm-3.372 0c0 .597.132 1.061.395 1.387.263.327.641.491 1.133.491.498 0 .876-.163 1.138-.487.262-.322.394-.787.394-1.391s-.132-1.065-.394-1.386c-.262-.322-.638-.481-1.132-.481-.491 0-.87.16-1.135.486-.267.323-.399.784-.399 1.381zm7.972 2.095h-.291V7.698h-1.339v-.275h2.969v.275h-1.339v3.906zm4.734-2.98c0 .404-.136.714-.406.93-.271.215-.655.323-1.151.323h-.638v1.727h-.288v-4.18h1.01c.982 0 1.473.4 1.473 1.2zm-2.195 1.002h.567c.465 0 .801-.078 1.008-.234.205-.154.308-.407.308-.755 0-.323-.097-.562-.292-.717-.194-.155-.498-.233-.908-.233h-.683v1.939zm5.088.503h-1.673l-.576 1.475h-.319l1.659-4.198h.182l1.625 4.198h-.324l-.574-1.475zm-1.57-.263h1.475l-.562-1.508a7.803 7.803 0 01-.168-.49 4.48 4.48 0 01-.167.496l-.578 1.502zm6.338 1.738h-.289V9.55h-2.409v2.055h-.288v-4.18h.288V9.28h2.409V7.423h.289v4.181zm3.228-3.977c-.518 0-.924.168-1.222.503-.297.335-.445.795-.445 1.379 0 .596.14 1.059.421 1.389.279.33.68.495 1.201.495.345 0 .663-.045.953-.136v.258c-.272.098-.614.146-1.022.146-.578 0-1.034-.19-1.368-.568-.331-.38-.499-.91-.499-1.59 0-.426.08-.8.239-1.124.159-.324.388-.574.686-.75a2.005 2.005 0 011.039-.266c.403 0 .762.076 1.079.23l-.115.262a2.077 2.077 0 00-.947-.228zm5.083 3.977h-.288V7.698h-2.38v3.906h-.288v-4.18h2.956v4.18zm4.934-2.095c0 .662-.164 1.188-.492 1.573-.326.386-.778.579-1.352.579-.574 0-1.024-.193-1.351-.58-.328-.384-.491-.91-.491-1.578 0-.665.164-1.19.495-1.572.329-.382.78-.573 1.353-.573.576 0 1.024.192 1.35.577.325.384.488.91.488 1.574zm-3.374 0c0 .597.132 1.061.396 1.387.263.327.64.491 1.133.491.496 0 .876-.163 1.138-.487.262-.322.394-.787.394-1.391s-.132-1.065-.394-1.386c-.262-.322-.639-.481-1.132-.481-.491 0-.868.16-1.135.486-.267.323-.4.784-.4 1.381zm7.104-.885c0 .404-.137.714-.407.93-.271.215-.654.323-1.152.323h-.636v1.727h-.288v-4.18h1.009c.983 0 1.474.4 1.474 1.2zm-2.195 1.002h.566c.466 0 .8-.078 1.007-.234.207-.154.311-.407.311-.755 0-.323-.098-.562-.293-.717-.196-.155-.5-.233-.909-.233h-.682v1.939zm4.466 1.978h-.29V7.698h-1.341v-.275h2.969v.275h-1.338v3.906zm3.833-1.475h-1.674l-.575 1.475h-.32l1.659-4.198h.183l1.625 4.198h-.324l-.574-1.475zm-1.57-.263h1.475l-.562-1.508a7.2 7.2 0 01-.168-.49 4.937 4.937 0 01-.167.496l-.578 1.502zm8.11-1.242c0 .404-.135.714-.405.93-.271.215-.655.323-1.151.323h-.637v1.727h-.288v-4.18h1.009c.981 0 1.472.4 1.472 1.2zm-2.193 1.002h.567c.464 0 .799-.078 1.007-.234.206-.154.308-.407.308-.755 0-.323-.096-.562-.291-.717-.196-.155-.499-.233-.909-.233h-.682v1.939zm6.857-.117c0 .662-.164 1.188-.492 1.573-.328.386-.778.579-1.352.579-.574 0-1.024-.193-1.351-.58-.328-.384-.491-.91-.491-1.578 0-.665.165-1.19.495-1.572.33-.382.78-.573 1.351-.573.576 0 1.025.192 1.351.577.325.384.489.91.489 1.574zm-3.373 0c0 .597.132 1.061.395 1.387.264.327.641.491 1.134.491.496 0 .876-.163 1.137-.487.263-.322.393-.787.393-1.391s-.13-1.065-.393-1.386c-.261-.322-.639-.481-1.133-.481-.49 0-.868.16-1.133.486-.268.323-.4.784-.4 1.381zm6.381-1.882c-.518 0-.925.168-1.222.503-.297.335-.446.795-.446 1.379 0 .596.141 1.059.422 1.389.279.33.68.495 1.2.495.346 0 .663-.045.953-.136v.258c-.272.098-.613.146-1.021.146-.578 0-1.034-.19-1.368-.568-.332-.38-.499-.91-.499-1.59 0-.426.08-.8.238-1.124a1.74 1.74 0 01.687-.75 2.004 2.004 0 011.038-.266c.403 0 .762.076 1.08.23l-.115.262a2.077 2.077 0 00-.947-.228zm3.771 0c-.517 0-.923.168-1.22.503-.298.335-.446.795-.446 1.379 0 .596.141 1.059.42 1.389.28.33.681.495 1.202.495.346 0 .664-.045.953-.136v.258c-.272.098-.615.146-1.021.146-.58 0-1.036-.19-1.369-.568-.331-.38-.498-.91-.498-1.59 0-.426.079-.8.237-1.124.16-.324.388-.574.686-.75a2.013 2.013 0 011.039-.266c.403 0 .763.076 1.08.23l-.115.262a2.075 2.075 0 00-.948-.228zm2.128-.204h.277v2.735c0 .194-.008.52-.022.978h.017l2.436-3.713h.29v4.181h-.278V8.888c0-.309.011-.643.036-1h-.023l-2.445 3.716h-.288v-4.18zm4.466 0h.277v2.735c0 .194-.008.52-.024.978h.018l2.437-3.713h.29v4.181h-.279V8.888c0-.309.012-.643.036-1h-.023l-2.444 3.716h-.288v-4.18zm1.495-.334c-.281 0-.494-.063-.641-.19-.147-.126-.232-.33-.255-.613h.248c.027.21.09.358.191.446.099.085.254.13.462.13.207 0 .361-.046.461-.135.102-.09.162-.236.185-.44h.248c-.04.535-.339.802-.899.802zm4.73.538c-.518 0-.924.168-1.221.503-.297.335-.446.795-.446 1.379 0 .596.14 1.059.421 1.389.279.33.68.495 1.2.495.346 0 .664-.045.954-.136v.258c-.273.098-.614.146-1.022.146-.578 0-1.034-.19-1.368-.568-.332-.38-.497-.91-.497-1.59 0-.426.078-.8.237-1.124a1.75 1.75 0 01.685-.75 2.01 2.01 0 011.039-.266c.403 0 .763.076 1.08.23l-.114.262a2.08 2.08 0 00-.948-.228zm4.846 3.977h-.392l-2.039-2.13v2.13h-.288v-4.18h.288v2.025l1.983-2.026h.38l-1.993 2.026 2.061 2.155zm4.234-2.095c0 .662-.162 1.188-.49 1.573-.327.386-.778.579-1.353.579s-1.024-.193-1.351-.58c-.327-.384-.491-.91-.491-1.578 0-.665.165-1.19.494-1.572.332-.382.782-.573 1.353-.573.576 0 1.025.192 1.351.577.325.384.487.91.487 1.574zm-3.372 0c0 .597.132 1.061.394 1.387.264.327.641.491 1.135.491.496 0 .876-.163 1.138-.487.262-.322.393-.787.393-1.391s-.131-1.065-.393-1.386c-.262-.322-.639-.481-1.133-.481-.49 0-.869.16-1.135.486-.266.323-.399.784-.399 1.381zm4.621-2.086h.277v2.735c0 .194-.009.52-.023.978h.017l2.435-3.713h.292v4.181h-.28V8.888c0-.309.011-.643.037-1h-.023l-2.446 3.716h-.286v-4.18zm1.495-.334c-.279 0-.494-.063-.641-.19-.147-.126-.233-.33-.257-.613h.25c.027.21.09.358.191.446.099.085.254.13.462.13.207 0 .361-.046.461-.135.1-.09.162-.236.185-.44h.248c-.04.535-.339.802-.899.802zm6.719.274h.288v.516h.121c.517 0 .916.133 1.2.403.283.269.424.642.424 1.12 0 .333-.065.619-.197.861a1.317 1.317 0 01-.58.56c-.257.13-.568.195-.937.195h-.031v.643h-.288v-.643h-.05c-.363 0-.672-.065-.924-.194a1.325 1.325 0 01-.574-.547 1.706 1.706 0 01-.195-.84c0-.297.066-.566.197-.804.132-.24.321-.424.568-.557a1.83 1.83 0 01.873-.197h.105v-.516zm.288 3.414h.043c.441 0 .785-.119 1.026-.354.242-.24.364-.574.364-1.008 0-.419-.114-.739-.34-.962-.225-.222-.549-.334-.972-.334h-.121v2.658zm-.288-2.658h-.115c-.412 0-.735.115-.968.348-.233.232-.351.551-.351.954 0 .431.123.766.363 1.003.242.234.584.353 1.027.353h.044V8.12zm5.483 3.485h-2.253v-4.18h2.253v.27h-1.966v1.58h1.856v.27h-1.856v1.792h1.966v.268zm4.248 1.055h-.276v-1.055h-3.003v1.055h-.28v-1.33h.297c.278-.489.524-1.11.732-1.865.212-.754.329-1.435.353-2.04h1.755v3.905h.422v1.33zm-.716-1.33V7.7h-1.213c-.044.6-.163 1.247-.354 1.94-.193.694-.412 1.257-.657 1.69h2.224zm4.025.275h-2.253v-4.18h2.253v.27h-1.965v1.58h1.855v.27h-1.855v1.792h1.965v.268zm3.716-2.98c0 .404-.134.714-.405.93-.271.215-.655.323-1.151.323h-.637v1.727h-.288v-4.18h1.009c.982 0 1.472.4 1.472 1.2zm-2.193 1.002h.567c.465 0 .799-.078 1.006-.234.208-.154.311-.407.311-.755 0-.323-.098-.562-.293-.717-.196-.155-.499-.233-.909-.233h-.682v1.939zm5.088.503h-1.675l-.575 1.475h-.319l1.659-4.198h.183l1.625 4.198h-.325l-.573-1.475zm-1.571-.263h1.475l-.561-1.508a7.2 7.2 0 01-.168-.49 4.937 4.937 0 01-.167.496l-.579 1.502zm6.308 1.463h.439v1.33h-.275v-1.055h-3.12v-4.18h.288v3.905h2.381V7.423h.287v3.906zm1.498-3.906h.277v2.735c0 .194-.007.52-.023.978h.017l2.437-3.713h.29v4.181h-.279V8.888c0-.309.012-.643.037-1h-.024l-2.444 3.716h-.288v-4.18zm4.465 0h.277v2.735c0 .194-.007.52-.023.978h.018l2.436-3.713h.29v4.181h-.279V8.888c0-.309.013-.643.037-1h-.023l-2.445 3.716h-.288v-4.18zm-163.914 8.51h2.148v1.031h.164c.707 0 1.324.131 1.853.394.529.264.934.633 1.217 1.109a3.11 3.11 0 01.427 1.623c0 .633-.14 1.187-.417 1.66a2.766 2.766 0 01-1.225 1.102c-.537.26-1.187.388-1.951.388h-.068v1.29h-2.148v-1.29h-.114c-.758 0-1.405-.126-1.937-.378-.531-.254-.933-.617-1.203-1.088-.27-.47-.406-1.035-.406-1.695 0-.621.142-1.173.43-1.655.289-.482.69-.845 1.208-1.092.517-.245 1.12-.368 1.814-.368h.208v-1.03zm2.148 5.598h.068c.474 0 .83-.117 1.066-.353.237-.237.357-.604.357-1.1 0-.432-.124-.775-.368-1.02-.245-.247-.587-.37-1.032-.37h-.091v2.843zm-2.148-2.842h-.13c-.44 0-.778.119-1.01.354-.233.237-.348.583-.348 1.036 0 .515.113.886.34 1.112.227.227.572.34 1.034.34h.114V18.69zm12.626-2.635v1.823H82.29v6.536h-2.24v-8.36h5.497zm2.241 8.475a5.69 5.69 0 01-1.443-.172v-1.795c.352.14.8.21 1.342.21.232 0 .43-.054.588-.162.16-.11.291-.3.393-.576l-2.691-5.98h2.402l1.017 2.549c.037.1.083.218.136.356.055.136.11.278.162.424.052.149.103.293.146.438.046.146.081.271.108.38h.08c.126-.521.317-1.126.569-1.821l.84-2.326h2.402l-2.504 5.867c-.313.732-.619 1.271-.919 1.615-.301.345-.66.596-1.08.754-.419.159-.936.24-1.548.24zm13.564-.116H99.11V17.9h-2.275v6.513h-2.238v-8.36h6.756v8.36zm4.305-3.363l2.193-2.761 1.58.852-1.534 1.984 1.534 1.99-1.58.841-2.193-2.751v-.155zm3.242 0l2.184-2.761 1.595.852-1.55 1.984 1.55 1.99-1.595.841-2.184-2.751v-.155zm11.045-3.04c0 1.1-.647 1.764-1.941 1.989v.047c.744.063 1.307.265 1.687.604.379.34.569.797.569 1.373 0 .503-.138.945-.413 1.325-.278.378-.678.669-1.2.875-.524.202-1.141.306-1.856.306-1.313 0-2.359-.152-3.142-.452v-1.945c.32.163.728.296 1.222.398.493.1.942.15 1.345.15.635 0 1.088-.066 1.354-.198.266-.136.399-.358.399-.671 0-.56-.632-.84-1.894-.84h-.97v-1.83h.869a6 6 0 001.023-.066c.246-.043.425-.115.54-.214.11-.1.169-.248.169-.445 0-.42-.396-.63-1.19-.63-.749 0-1.407.194-1.975.583l-.936-1.556c.493-.32.992-.546 1.5-.68.508-.133 1.12-.2 1.838-.2.907 0 1.632.19 2.182.572.547.383.82.881.82 1.504zm5.786 6.403l-.423-.856h-.046c-.297.373-.599.628-.907.765-.308.136-.706.207-1.196.207-.602 0-1.076-.184-1.422-.552-.345-.364-.519-.88-.519-1.543 0-.688.238-1.202.711-1.54.473-.338 1.158-.527 2.059-.57l1.066-.033v-.09c0-.537-.259-.802-.779-.802-.465 0-1.058.16-1.776.48l-.637-1.475c.745-.389 1.684-.584 2.82-.584.819 0 1.453.208 1.902.616.452.412.675.989.675 1.729v4.248h-1.528zm-1.636-1.464a.984.984 0 00.685-.257.857.857 0 00.286-.669v-.503l-.509.022c-.726.028-1.089.3-1.089.812 0 .397.209.595.627.595zm14.737-.2h1.431v4.044h-1.928v-2.38h-9.575v-6.477h2.205v4.812h1.771v-4.812h2.148v4.812h1.741v-4.812h2.207v4.812zm4.297-4.813v1.63c0 .088 0 .189-.003.296-.002.108-.028.785-.077 2.036l2.555-3.962h2.437v6.477h-1.964v-1.754c0-.615.027-1.342.08-2.18l-2.543 3.934h-2.447v-6.477h1.962zm12.362 1.662h-2.104v4.815h-2.206v-4.815h-2.102v-1.662h6.412v1.662zm5.206 4.815l-.424-.856h-.046c-.296.373-.598.628-.906.765-.309.136-.707.207-1.197.207-.601 0-1.076-.184-1.422-.552-.344-.364-.517-.88-.517-1.543 0-.688.237-1.202.71-1.54.473-.338 1.158-.527 2.058-.57l1.066-.033v-.09c0-.537-.259-.802-.777-.802-.466 0-1.059.16-1.776.48l-.639-1.475c.745-.389 1.684-.584 2.821-.584.819 0 1.453.208 1.902.616.451.412.676.989.676 1.729v4.248h-1.529zm-1.636-1.464a.981.981 0 00.684-.257.854.854 0 00.286-.669v-.503l-.508.022c-.726.028-1.088.3-1.088.812 0 .397.208.595.626.595zm4.792-6.895h1.985v3.592c0 .38-.028 1.143-.09 2.286h.046l3.289-5.878h2.75v8.359h-1.972v-3.499c0-.529.034-1.324.102-2.38h-.046l-3.316 5.879h-2.748v-8.36zm11.839 1.882v2.332h1.747v-2.332h2.207v6.477h-2.207v-2.48h-1.747v2.48h-2.205v-6.477h2.205zm14.234 3.247c0 .937-.301 1.687-.901 2.247-.603.56-1.458.887-2.566.983v2.813h-2.066v-2.813c-1.089-.114-1.946-.457-2.567-1.027-.624-.57-.935-1.303-.935-2.203 0-.983.293-1.753.88-2.306.587-.557 1.452-.869 2.596-.941v-2.42h2.092v2.42c1.101.096 1.954.433 2.56 1.004.605.572.907 1.32.907 2.243zm-6.852 0c0 .445.124.817.371 1.113.245.295.551.447.922.452v-3.15c-.355.016-.659.178-.912.487a1.672 1.672 0 00-.381 1.098zm4.653 0c0-.434-.121-.804-.363-1.107-.242-.302-.545-.462-.905-.478v3.15c.367-.005.672-.154.911-.449.238-.29.357-.663.357-1.116zm9.546-.023c0 1.06-.28 1.885-.842 2.479-.562.592-1.348.89-2.36.89-.971 0-1.74-.305-2.315-.91-.574-.607-.86-1.427-.86-2.46 0-1.056.282-1.875.843-2.46.563-.586 1.352-.879 2.367-.879.627 0 1.182.135 1.663.406.481.273.852.658 1.115 1.165.261.504.389 1.094.389 1.769zm-4.138 0c0 .556.073.98.219 1.273.147.29.392.437.74.437.342 0 .583-.146.726-.437.14-.293.209-.716.209-1.273 0-.552-.071-.97-.213-1.253-.143-.28-.387-.422-.734-.422-.338 0-.581.139-.728.42-.146.28-.219.699-.219 1.255zm9.165 3.253h-2.229V17.9h-2.015v-1.846h6.252V17.9H202.3v6.513zm6.316.116a2.18 2.18 0 01-.867-.164c-.256-.11-.511-.304-.763-.586h-.103c.068.452.103.736.103.845v2.602h-2.204v-9.29h1.792l.309.824h.103c.411-.628.977-.94 1.698-.94.708 0 1.262.297 1.664.892.403.596.605 1.41.605 2.448 0 1.045-.211 1.868-.631 2.466-.42.603-.987.903-1.706.903zm-.738-4.953c-.324 0-.551.117-.68.352s-.201.581-.212 1.043v.177c0 .556.074.959.219 1.206.148.248.379.373.696.373a.642.642 0 00.613-.369c.128-.247.194-.654.194-1.222 0-.557-.066-.954-.194-1.196-.127-.244-.34-.364-.636-.364zm8.499 4.837l-.425-.856h-.044c-.297.373-.599.628-.908.765-.307.136-.706.207-1.194.207-.604 0-1.077-.184-1.423-.552-.345-.364-.518-.88-.518-1.543 0-.688.237-1.202.71-1.54.473-.338 1.158-.527 2.059-.57l1.066-.033v-.09c0-.537-.261-.802-.778-.802-.466 0-1.059.16-1.777.48l-.637-1.475c.745-.389 1.684-.584 2.82-.584.818 0 1.453.208 1.902.616.45.412.675.989.675 1.729v4.248h-1.528zm-1.637-1.464a.984.984 0 00.686-.257.857.857 0 00.286-.669v-.503l-.51.022c-.725.028-1.086.3-1.086.812 0 .397.207.595.624.595zm6.869-5.013v2.332h1.748v-2.332h2.206v6.477h-2.206v-2.48h-1.748v2.48h-2.205v-6.477h2.205zm8.385 6.593c-1.044 0-1.835-.288-2.376-.858-.54-.573-.808-1.395-.808-2.466 0-1.073.29-1.908.873-2.499.583-.591 1.411-.886 2.488-.886.741 0 1.437.165 2.092.492l-.648 1.653a7.015 7.015 0 00-.741-.282 2.35 2.35 0 00-.703-.107.955.955 0 00-.831.423c-.194.283-.292.68-.292 1.196 0 1.037.378 1.553 1.134 1.553.647 0 1.267-.189 1.862-.572v1.78c-.567.38-1.251.573-2.05.573zM240 21.205l-2.183 2.752-1.607-.842 1.551-1.99-1.551-1.983 1.607-.853L240 21.05v.155zm-3.248 0l-2.183 2.752-1.59-.842 1.535-1.99-1.535-1.983 1.59-.853 2.183 2.761v.155zM50.106 4.556c.14-.06.27-.12.394-.177a24.681 24.681 0 00-3.124-1.43 28.273 28.273 0 00-3.444-1.051 30.967 30.967 0 00-3.658-.64 32.87 32.87 0 00-3.785-.215 32.56 32.56 0 00-6.53.65 27.966 27.966 0 00-5.93 1.91c-1.834.835-3.468 1.851-4.844 3.01-1.359 1.141-2.465 2.423-3.263 3.805l13.882.004a.185.185 0 01.186.174l.997 1.289.452.585.016.021.68.879 2.908-2.891a.185.185 0 01.132-.055H45.62c.032 0 .065.01.096.027v.001l.002.001c.02.011.04.028.056.049l1.394 1.804 1.847-1.835a.185.185 0 01.131-.053h12.941c.063 0 .125.032.159.09.242.4.457.807.643 1.221.184.412.34.829.466 1.25a9.329 9.329 0 01.39 2.648c0 2.12-.738 4.144-2.075 5.99-1.381 1.905-3.403 3.622-5.91 5.06-2.513 1.44-5.516 2.601-8.853 3.393-3.21.762-6.73 1.182-10.418 1.182a47.38 47.38 0 01-3.987-.166 44.382 44.382 0 01-3.887-.496 41.33 41.33 0 01-3.185-.68 37.074 37.074 0 01-3.006-.899.184.184 0 01.047-.362h4.07c.02 0 .039.002.058.01.758.252 1.54.477 2.343.671a31.08 31.08 0 004.973.782c.844.065 1.702.099 2.574.099 2.984 0 5.829-.393 8.423-1.105 2.69-.74 5.113-1.823 7.143-3.167 2.034-1.348 3.673-2.957 4.789-4.745 1.07-1.714 1.66-3.595 1.66-5.567a9.305 9.305 0 00-.037-.853 8.036 8.036 0 00-.047-.42 7.564 7.564 0 00-.064-.423l-6.893 6.85a.185.185 0 01-.131.054H40.888a.186.186 0 01-.132-.054l-.003-.002a.18.18 0 01-.02-.023l-2.2-2.845-2.894 2.877a.19.19 0 01-.131.055H25.093a.184.184 0 01-.2-.066l-3.872-5.01a.17.17 0 01-.04-.077.2.2 0 01-.006-.059H14.49a.184.184 0 01-.13-.054.183.183 0 010-.261l2.302-2.29-1.836-.004H9.863a.184.184 0 01-.177-.24c.578-1.796 1.689-3.484 3.236-5.007 1.577-1.554 3.608-2.937 5.988-4.09 2.417-1.17 5.196-2.104 8.226-2.74A45.683 45.683 0 0136.489 0c2.438 0 4.802.184 7.048.528 2.32.354 4.519.882 6.555 1.556 1.98.655 3.801 1.447 5.423 2.354 1.624.909 3.05 1.932 4.241 3.047a.186.186 0 01-.116.329h-4.482v-.002a.179.179 0 01-.133-.056 17.895 17.895 0 00-1.352-1.245 18.86 18.86 0 00-1.602-1.185l-.012-.007-.001-.001-.329.144V5.46v.002c-.102.043-.209.087-.322.132-.119.05-.232.095-.335.136l-.321.122c-.01.003-.02.008-.03.01a30.752 30.752 0 01-6.042 1.568 32.08 32.08 0 01-6.337.352 29.18 29.18 0 01-5.86-.84c-1.84-.463-3.56-1.11-5.098-1.927a.183.183 0 01.02-.335l.114-.043a.194.194 0 01.145.006 22.45 22.45 0 004.797 1.616c1.726.38 3.552.597 5.42.637 1.85.04 3.741-.093 5.62-.405a28.969 28.969 0 005.78-1.588l.416-.17c.122-.052.26-.111.41-.177zm-8.942 15.56l7.137-7.094h-1.405a.185.185 0 01-.101-.03.163.163 0 01-.063-.053l-1.389-1.795-6.284 6.246 2.105 2.725zm-39.168 4.99c0 .207-.105.313-.31.313H0v.727h1.912c.338 0 .585-.077.744-.232.16-.154.238-.389.238-.704v-.052c0-.142-.017-.267-.05-.375-.097-.298-.28-.485-.55-.562a.712.712 0 00.362-.273.856.856 0 00.139-.507c0-.315-.077-.55-.23-.704-.153-.155-.393-.232-.719-.232H0v.728h1.597c.198 0 .3.104.3.313v.104c0 .208-.102.312-.3.312H.498v.728h1.198c.2 0 .3.103.3.312v.104zm2.943-.702V24.3c0-.139-.066-.209-.2-.209H3.42v-.702h1.595c.25 0 .445.074.586.222.141.147.212.35.212.61v1.925H5.04l-.049-.26a1.769 1.769 0 01-.9.312h-.173a.714.714 0 01-.544-.214c-.136-.141-.205-.331-.205-.565v-.235c0-.236.069-.425.205-.568.135-.142.317-.212.544-.212H4.94zm-.598 1.065c.176 0 .375-.033.598-.104v-.311h-.723a.166.166 0 00-.126.052.183.183 0 00-.05.129v.053c0 .052.018.096.05.13a.17.17 0 00.126.051h.125zm13.822-1.065V24.3c0-.139-.068-.209-.2-.209H16.64v-.702h1.597c.25 0 .444.074.586.222.141.147.212.35.212.61v1.925h-.774l-.05-.26a1.762 1.762 0 01-.48.237c-.166.05-.305.075-.418.075h-.174a.713.713 0 01-.543-.214c-.137-.141-.206-.331-.206-.565v-.235c0-.236.069-.425.206-.568.135-.142.316-.212.543-.212h1.024zm-.6 1.065c.177 0 .376-.033.6-.104v-.311h-.725a.164.164 0 00-.125.052.183.183 0 00-.05.129v.053a.18.18 0 00.05.13.164.164 0 00.125.051h.124zm23.7-1.065V24.3c0-.139-.067-.209-.2-.209H39.74v-.702h1.598c.25 0 .444.074.586.222.14.147.211.35.211.61v1.925h-.773l-.05-.26a1.773 1.773 0 01-.48.237c-.166.05-.305.075-.418.075h-.175a.718.718 0 01-.543-.214c-.137-.141-.205-.331-.205-.565v-.235c0-.236.068-.425.205-.568a.717.717 0 01.543-.212h1.024zm5.288.402v.508c0 .139.067.207.2.207h1.323v.703h-1.597c-.25 0-.445-.075-.586-.222-.141-.147-.213-.35-.213-.61v-1.171c0-.26.072-.463.213-.61.14-.148.336-.222.586-.222h1.597v.702H46.75c-.133 0-.2.07-.2.209v.506zm-37.022 1.34H6.262v-2.757h.872v2.055h.574v-2.055h.874v2.055h.573v-2.055h.874v2.055h.374v1.326H9.58l-.05-.624zm2.944-2.757h.923v2.757h-.873v-1.508l-.848 1.508h-.923v-2.757h.873v1.509l.848-1.509zm2.92.702v2.055h-.873V24.09h-.825v-.702h2.52v.702h-.823zm7.184 2.055h-.899V23.91l-1.196 2.236h-.948v-3.641h.897v2.236l1.198-2.236h.948v3.64zm2.32-1.742v-1.015h.873v2.757h-.874v-1.04H24v1.04h-.873v-2.757H24v1.015h.897zm4.89.91c0 .26-.07.463-.212.61-.14.148-.338.222-.587.222h-.548v.884h-.874v-.884h-.548c-.25 0-.445-.074-.586-.221-.143-.148-.213-.352-.213-.611V24.22c0-.26.07-.463.213-.61.14-.148.336-.222.586-.222h.548v-.884h.874v.884h.548c.25 0 .446.074.587.222.141.147.212.35.212.61v1.093zm-2.694-.079c0 .139.067.209.2.209h.348v-1.353h-.349c-.132 0-.2.07-.2.209v.935zm1.82-.935c0-.139-.066-.209-.2-.209h-.297v1.353h.297c.134 0 .2-.07.2-.209V24.3zm4.018 1.066c0 .26-.072.463-.213.61-.141.148-.337.222-.586.222h-1.148c-.25 0-.445-.074-.586-.221-.142-.148-.212-.352-.212-.611v-1.197c0-.26.07-.463.212-.61.141-.148.336-.222.586-.222h1.148c.249 0 .445.074.586.221.14.148.212.352.212.611v1.197zm-.874-1.118c0-.139-.066-.208-.2-.208h-.598c-.133 0-.2.07-.2.208v1.04c0 .138.067.207.2.207h.598c.134 0 .2-.07.2-.207v-1.04zm3.069 1.898h-.898v-2.913H33.18v-.728h2.993v.728h-1.047v2.913zm2.82-2.055c-.177 0-.378.035-.6.105v1.248h.749c.132 0 .199-.07.199-.209v-.962a.18.18 0 00-.05-.129.167.167 0 00-.124-.053h-.175zm-.6 2.055v.884h-.873v-3.64h.773l.05.26c.157-.107.317-.187.481-.237a1.48 1.48 0 01.417-.076h.225c.225 0 .408.071.544.214.136.141.204.331.204.567v1.196c0 .26-.07.463-.212.61-.142.148-.336.222-.587.222h-1.022zm3.317-.677c.177 0 .377-.033.6-.104v-.311h-.724a.164.164 0 00-.125.052.183.183 0 00-.05.129v.053a.18.18 0 00.05.13.164.164 0 00.125.051h.124zm3.693-1.065v-1.015h.873v2.757h-.873v-1.04h-.898v1.04h-.873v-2.757h.873v1.015h.898zM2.708 20.837H.191a.19.19 0 01-.132-.055.183.183 0 010-.26L1.39 19.2l.107-.108.812-.806a.183.183 0 01.132-.054h.268v-.001l19.234.005a.183.183 0 01.131.314l-2.25 2.236a.185.185 0 01-.13.053l-16.985-.002zm28.188-7.872l-.004-.003-.575-.745a1.34 1.34 0 01-.016-.02l-.796-1.031-4.44 4.41a.183.183 0 01-.131.055h-3.091l3.481 4.506 6.286-6.247-.714-.925z" fill="#016CB1"/></svg>