<svg width="8" height="8" viewBox="0 0 8 8" fill="none" xmlns="http://www.w3.org/2000/svg">
<path fill-rule="evenodd" clip-rule="evenodd" d="M6.86424 3.68784L3.07685 0.127804C2.98925 0.045398 2.87231 0 2.74763 0C2.62294 0 2.50601 0.045398 2.41841 0.127804L2.13949 0.389916C1.958 0.560711 1.958 0.838302 2.13949 1.00884L5.31986 3.99834L2.13596 6.99116C2.04837 7.07357 2 7.18342 2 7.30056C2 7.41783 2.04837 7.52768 2.13596 7.61015L2.41488 7.8722C2.50255 7.9546 2.61941 8 2.7441 8C2.86878 8 2.98572 7.9546 3.07332 7.8722L6.86424 4.30891C6.95205 4.22624 7.00028 4.11587 7 3.99854C7.00028 3.88075 6.95205 3.77044 6.86424 3.68784Z" fill="#009BDE"/>
</svg>
