<svg width="348" height="274" viewBox="0 0 348 274" fill="none" xmlns="http://www.w3.org/2000/svg">
<g clip-path="url(#clip0)">
<path d="M338.6 272.7H228.3C223.6 272.7 219.8 268.9 219.8 264.2V50C219.8 45.3 223.6 41.5 228.3 41.5H338.6C343.3 41.5 347.1 45.3 347.1 50V264.2C347.1 268.9 343.3 272.7 338.6 272.7Z" fill="#1F2735"/>
<path opacity="0.49" d="M332.7 265.3H234.3C229.6 265.3 225.8 261.5 225.8 256.8V57.4004C225.8 52.7004 229.6 48.9004 234.3 48.9004H332.7C337.4 48.9004 341.2 52.7004 341.2 57.4004V256.9C341.1 261.6 337.3 265.3 332.7 265.3Z" stroke="#002E82" stroke-width="4" stroke-miterlimit="10"/>
<path d="M331.2 71.4004H236.4C234.3 71.4004 232.5 69.7004 232.5 67.5004V61.3004C232.5 59.2004 234.2 57.4004 236.4 57.4004H331.2C333.3 57.4004 335.1 59.1004 335.1 61.3004V67.5004C335.1 69.6004 333.3 71.4004 331.2 71.4004Z" fill="#C2C3C9"/>
<path d="M264.1 71.4004H236.4C234.3 71.4004 232.5 69.7004 232.5 67.5004V61.3004C232.5 59.2004 234.2 57.4004 236.4 57.4004H264.1V71.4004Z" fill="#211915"/>
<path d="M299.2 64.7002C299.2 66.7002 297.6 68.2002 295.7 68.2002C293.7 68.2002 292.2 66.6002 292.2 64.7002C292.2 62.7002 293.8 61.2002 295.7 61.2002C297.6 61.2002 299.2 62.7002 299.2 64.7002Z" fill="#BF0411"/>
<path d="M313.9 64.7002C313.9 66.7002 312.3 68.2002 310.4 68.2002C308.4 68.2002 306.9 66.6002 306.9 64.7002C306.9 62.7002 308.5 61.2002 310.4 61.2002C312.3 61.2002 313.9 62.7002 313.9 64.7002Z" fill="#4F8E3A"/>
<path d="M328.6 64.7002C328.6 66.7002 327 68.2002 325.1 68.2002C323.1 68.2002 321.6 66.6002 321.6 64.7002C321.6 62.7002 323.2 61.2002 325.1 61.2002C327.1 61.2002 328.6 62.7002 328.6 64.7002Z" fill="#3B4459"/>
<path opacity="0.14" d="M256 64.4006H237C235.4 64.4006 234.1 63.1006 234.1 61.5006C234.1 59.9006 235.4 58.6006 237 58.6006H256C257.6 58.6006 258.9 59.9006 258.9 61.5006C258.9 63.1006 257.6 64.4006 256 64.4006Z" fill="white"/>
<path opacity="0.14" d="M297.1 63.6C297.1 64.8 296.1 65.7 295 65.7C293.9 65.7 292.9 64.7 292.9 63.6C292.9 62.4 293.9 61.5 295 61.5C296.1 61.5 297.1 62.5 297.1 63.6Z" fill="white"/>
<path opacity="0.14" d="M311.9 63.6C311.9 64.8 310.9 65.7 309.8 65.7C308.6 65.7 307.7 64.7 307.7 63.6C307.7 62.4 308.7 61.5 309.8 61.5C310.9 61.5 311.9 62.5 311.9 63.6Z" fill="white"/>
<path opacity="0.14" d="M327.2 63.6C327.2 64.8 326.2 65.7 325.1 65.7C323.9 65.7 323 64.7 323 63.6C323 62.4 324 61.5 325.1 61.5C326.3 61.5 327.2 62.5 327.2 63.6Z" fill="white"/>
<path d="M331.2 94H236.4C234.3 94 232.5 92.3 232.5 90.1V83.9C232.5 81.8 234.2 80 236.4 80H331.2C333.3 80 335.1 81.7 335.1 83.9V90.1C335.1 92.2 333.3 94 331.2 94Z" fill="#C2C3C9"/>
<path d="M264.1 94H236.4C234.3 94 232.5 92.3 232.5 90.1V83.9C232.5 81.8 234.2 80 236.4 80H264.1V94Z" fill="#211915"/>
<path d="M299.2 87.3003C299.2 89.3003 297.6 90.8003 295.7 90.8003C293.7 90.8003 292.2 89.2003 292.2 87.3003C292.2 85.3003 293.8 83.8003 295.7 83.8003C297.6 83.7003 299.2 85.3003 299.2 87.3003Z" fill="#BF0411"/>
<path d="M313.9 87.3003C313.9 89.3003 312.3 90.8003 310.4 90.8003C308.4 90.8003 306.9 89.2003 306.9 87.3003C306.9 85.3003 308.5 83.8003 310.4 83.8003C312.3 83.7003 313.9 85.3003 313.9 87.3003Z" fill="#4F8E3A"/>
<path d="M328.6 87.3003C328.6 89.3003 327 90.8003 325.1 90.8003C323.1 90.8003 321.6 89.2003 321.6 87.3003C321.6 85.3003 323.2 83.8003 325.1 83.8003C327.1 83.7003 328.6 85.3003 328.6 87.3003Z" fill="#3B4459"/>
<path opacity="0.14" d="M256 87.0002H237C235.4 87.0002 234.1 85.7002 234.1 84.1002C234.1 82.5002 235.4 81.2002 237 81.2002H256C257.6 81.2002 258.9 82.5002 258.9 84.1002C258.9 85.7002 257.6 87.0002 256 87.0002Z" fill="white"/>
<path opacity="0.14" d="M297.1 86.1996C297.1 87.3996 296.1 88.2996 295 88.2996C293.9 88.2996 292.9 87.2996 292.9 86.1996C292.9 84.9996 293.9 84.0996 295 84.0996C296.1 84.0996 297.1 84.9996 297.1 86.1996Z" fill="white"/>
<path opacity="0.14" d="M311.9 86.1996C311.9 87.3996 310.9 88.2996 309.8 88.2996C308.6 88.2996 307.7 87.2996 307.7 86.1996C307.7 84.9996 308.7 84.0996 309.8 84.0996C310.9 84.0996 311.9 84.9996 311.9 86.1996Z" fill="white"/>
<path opacity="0.14" d="M327.2 86.1996C327.2 87.3996 326.2 88.2996 325.1 88.2996C323.9 88.2996 323 87.2996 323 86.1996C323 84.9996 324 84.0996 325.1 84.0996C326.3 84.0996 327.2 84.9996 327.2 86.1996Z" fill="white"/>
<path d="M331.2 116.601H236.4C234.3 116.601 232.5 114.901 232.5 112.701V106.501C232.5 104.401 234.2 102.601 236.4 102.601H331.2C333.3 102.601 335.1 104.301 335.1 106.501V112.701C335.1 114.801 333.3 116.601 331.2 116.601Z" fill="#C2C3C9"/>
<path d="M264.1 116.601H236.4C234.3 116.601 232.5 114.901 232.5 112.701V106.501C232.5 104.401 234.2 102.601 236.4 102.601H264.1V116.601Z" fill="#211915"/>
<path d="M299.2 109.901C299.2 111.901 297.6 113.401 295.7 113.401C293.7 113.401 292.2 111.801 292.2 109.901C292.2 107.901 293.8 106.401 295.7 106.401C297.6 106.301 299.2 107.901 299.2 109.901Z" fill="#3B4459"/>
<path d="M313.9 109.901C313.9 111.901 312.3 113.401 310.4 113.401C308.4 113.401 306.9 111.801 306.9 109.901C306.9 107.901 308.5 106.401 310.4 106.401C312.3 106.301 313.9 107.901 313.9 109.901Z" fill="#4F8E3A"/>
<path d="M328.6 109.901C328.6 111.901 327 113.401 325.1 113.401C323.1 113.401 321.6 111.801 321.6 109.901C321.6 107.901 323.2 106.401 325.1 106.401C327.1 106.301 328.6 107.901 328.6 109.901Z" fill="#E6B54A"/>
<path opacity="0.14" d="M256 109.601H237C235.4 109.601 234.1 108.301 234.1 106.701C234.1 105.101 235.4 103.801 237 103.801H256C257.6 103.801 258.9 105.101 258.9 106.701C258.9 108.301 257.6 109.601 256 109.601Z" fill="white"/>
<path opacity="0.14" d="M294.9 110.9C296.06 110.9 297 109.96 297 108.8C297 107.64 296.06 106.7 294.9 106.7C293.74 106.7 292.8 107.64 292.8 108.8C292.8 109.96 293.74 110.9 294.9 110.9Z" fill="white"/>
<path opacity="0.14" d="M309.8 110.9C310.96 110.9 311.9 109.96 311.9 108.8C311.9 107.64 310.96 106.7 309.8 106.7C308.64 106.7 307.7 107.64 307.7 108.8C307.7 109.96 308.64 110.9 309.8 110.9Z" fill="white"/>
<path opacity="0.14" d="M325.1 110.9C326.26 110.9 327.2 109.96 327.2 108.8C327.2 107.64 326.26 106.7 325.1 106.7C323.94 106.7 323 107.64 323 108.8C323 109.96 323.94 110.9 325.1 110.9Z" fill="white"/>
<path d="M331.2 139.2H236.4C234.3 139.2 232.5 137.5 232.5 135.3V129.1C232.5 127 234.2 125.2 236.4 125.2H331.2C333.3 125.2 335.1 126.9 335.1 129.1V135.3C335.1 137.4 333.3 139.2 331.2 139.2Z" fill="#C2C3C9"/>
<path d="M264.1 139.2H236.4C234.3 139.2 232.5 137.5 232.5 135.3V129.1C232.5 127 234.2 125.2 236.4 125.2H264.1V139.2Z" fill="#211915"/>
<path d="M299.2 132.501C299.2 134.501 297.6 136.001 295.7 136.001C293.7 136.001 292.2 134.401 292.2 132.501C292.2 130.501 293.8 129.001 295.7 129.001C297.6 128.901 299.2 130.501 299.2 132.501Z" fill="#BF0411"/>
<path d="M313.9 132.501C313.9 134.501 312.3 136.001 310.4 136.001C308.4 136.001 306.9 134.401 306.9 132.501C306.9 130.501 308.5 129.001 310.4 129.001C312.3 128.901 313.9 130.501 313.9 132.501Z" fill="#3B4459"/>
<path d="M328.6 132.501C328.6 134.501 327 136.001 325.1 136.001C323.1 136.001 321.6 134.401 321.6 132.501C321.6 130.501 323.2 129.001 325.1 129.001C327.1 128.901 328.6 130.501 328.6 132.501Z" fill="#E6B54A"/>
<path opacity="0.14" d="M256 132.2H237C235.4 132.2 234.1 130.9 234.1 129.3C234.1 127.7 235.4 126.4 237 126.4H256C257.6 126.4 258.9 127.7 258.9 129.3C258.9 130.9 257.6 132.2 256 132.2Z" fill="white"/>
<path opacity="0.14" d="M294.9 133.5C296.06 133.5 297 132.56 297 131.4C297 130.24 296.06 129.3 294.9 129.3C293.74 129.3 292.8 130.24 292.8 131.4C292.8 132.56 293.74 133.5 294.9 133.5Z" fill="white"/>
<path opacity="0.14" d="M309.8 133.5C310.96 133.5 311.9 132.56 311.9 131.4C311.9 130.24 310.96 129.3 309.8 129.3C308.64 129.3 307.7 130.24 307.7 131.4C307.7 132.56 308.64 133.5 309.8 133.5Z" fill="white"/>
<path opacity="0.14" d="M325.1 133.5C326.26 133.5 327.2 132.56 327.2 131.4C327.2 130.24 326.26 129.3 325.1 129.3C323.94 129.3 323 130.24 323 131.4C323 132.56 323.94 133.5 325.1 133.5Z" fill="white"/>
<path d="M331.2 161.801H236.4C234.3 161.801 232.5 160.101 232.5 157.901V151.701C232.5 149.601 234.2 147.801 236.4 147.801H331.2C333.3 147.801 335.1 149.501 335.1 151.701V157.901C335.1 160.001 333.3 161.801 331.2 161.801Z" fill="#C2C3C9"/>
<path d="M264.1 161.801H236.4C234.3 161.801 232.5 160.101 232.5 157.901V151.701C232.5 149.601 234.2 147.801 236.4 147.801H264.1V161.801Z" fill="#211915"/>
<path d="M299.2 155.101C299.2 157.101 297.6 158.601 295.7 158.601C293.7 158.601 292.2 157.001 292.2 155.101C292.2 153.101 293.8 151.601 295.7 151.601C297.6 151.501 299.2 153.101 299.2 155.101Z" fill="#BF0411"/>
<path d="M313.9 155.101C313.9 157.101 312.3 158.601 310.4 158.601C308.4 158.601 306.9 157.001 306.9 155.101C306.9 153.101 308.5 151.601 310.4 151.601C312.3 151.501 313.9 153.101 313.9 155.101Z" fill="#4F8E3A"/>
<path d="M328.6 155.101C328.6 157.101 327 158.601 325.1 158.601C323.1 158.601 321.6 157.001 321.6 155.101C321.6 153.101 323.2 151.601 325.1 151.601C327.1 151.501 328.6 153.101 328.6 155.101Z" fill="#3B4459"/>
<path opacity="0.14" d="M256 154.801H237C235.4 154.801 234.1 153.501 234.1 151.901C234.1 150.301 235.4 149.001 237 149.001H256C257.6 149.001 258.9 150.301 258.9 151.901C258.9 153.501 257.6 154.801 256 154.801Z" fill="white"/>
<path opacity="0.14" d="M294.9 156.1C296.06 156.1 297 155.16 297 154C297 152.841 296.06 151.9 294.9 151.9C293.74 151.9 292.8 152.841 292.8 154C292.8 155.16 293.74 156.1 294.9 156.1Z" fill="white"/>
<path opacity="0.14" d="M309.8 156.1C310.96 156.1 311.9 155.16 311.9 154C311.9 152.841 310.96 151.9 309.8 151.9C308.64 151.9 307.7 152.841 307.7 154C307.7 155.16 308.64 156.1 309.8 156.1Z" fill="white"/>
<path opacity="0.14" d="M325.1 156.1C326.26 156.1 327.2 155.16 327.2 154C327.2 152.841 326.26 151.9 325.1 151.9C323.94 151.9 323 152.841 323 154C323 155.16 323.94 156.1 325.1 156.1Z" fill="white"/>
<path d="M331.2 184.4H236.4C234.3 184.4 232.5 182.7 232.5 180.5V174.3C232.5 172.2 234.2 170.4 236.4 170.4H331.2C333.3 170.4 335.1 172.1 335.1 174.3V180.5C335.1 182.6 333.3 184.4 331.2 184.4Z" fill="#C2C3C9"/>
<path d="M264.1 184.4H236.4C234.3 184.4 232.5 182.7 232.5 180.5V174.3C232.5 172.2 234.2 170.4 236.4 170.4H264.1V184.4Z" fill="#211915"/>
<path d="M299.2 177.701C299.2 179.701 297.6 181.201 295.7 181.201C293.7 181.201 292.2 179.601 292.2 177.701C292.2 175.701 293.8 174.201 295.7 174.201C297.6 174.101 299.2 175.701 299.2 177.701Z" fill="#3B4459"/>
<path d="M313.9 177.701C313.9 179.701 312.3 181.201 310.4 181.201C308.4 181.201 306.9 179.601 306.9 177.701C306.9 175.701 308.5 174.201 310.4 174.201C312.3 174.101 313.9 175.701 313.9 177.701Z" fill="#3B4459"/>
<path d="M328.6 177.701C328.6 179.701 327 181.201 325.1 181.201C323.1 181.201 321.6 179.601 321.6 177.701C321.6 175.701 323.2 174.201 325.1 174.201C327.1 174.101 328.6 175.701 328.6 177.701Z" fill="#E6B54A"/>
<path opacity="0.14" d="M256 177.401H237C235.4 177.401 234.1 176.101 234.1 174.501C234.1 172.901 235.4 171.601 237 171.601H256C257.6 171.601 258.9 172.901 258.9 174.501C258.9 176.101 257.6 177.401 256 177.401Z" fill="white"/>
<path opacity="0.14" d="M294.9 178.7C296.06 178.7 297 177.76 297 176.6C297 175.44 296.06 174.5 294.9 174.5C293.74 174.5 292.8 175.44 292.8 176.6C292.8 177.76 293.74 178.7 294.9 178.7Z" fill="white"/>
<path opacity="0.14" d="M309.8 178.7C310.96 178.7 311.9 177.76 311.9 176.6C311.9 175.44 310.96 174.5 309.8 174.5C308.64 174.5 307.7 175.44 307.7 176.6C307.7 177.76 308.64 178.7 309.8 178.7Z" fill="white"/>
<path opacity="0.14" d="M325.1 178.7C326.26 178.7 327.2 177.76 327.2 176.6C327.2 175.44 326.26 174.5 325.1 174.5C323.94 174.5 323 175.44 323 176.6C323 177.76 323.94 178.7 325.1 178.7Z" fill="white"/>
<path d="M331.2 206.9H236.4C234.3 206.9 232.5 205.2 232.5 203V196.8C232.5 194.7 234.2 192.9 236.4 192.9H331.2C333.3 192.9 335.1 194.6 335.1 196.8V203C335.1 205.2 333.3 206.9 331.2 206.9Z" fill="#C2C3C9"/>
<path d="M264.1 206.9H236.4C234.3 206.9 232.5 205.2 232.5 203V196.8C232.5 194.7 234.2 192.9 236.4 192.9H264.1V206.9Z" fill="#211915"/>
<path d="M299.2 200.3C299.2 202.3 297.6 203.8 295.7 203.8C293.7 203.8 292.2 202.2 292.2 200.3C292.2 198.3 293.8 196.8 295.7 196.8C297.6 196.7 299.2 198.3 299.2 200.3Z" fill="#BF0411"/>
<path d="M313.9 200.3C313.9 202.3 312.3 203.8 310.4 203.8C308.4 203.8 306.9 202.2 306.9 200.3C306.9 198.3 308.5 196.8 310.4 196.8C312.3 196.7 313.9 198.3 313.9 200.3Z" fill="#4F8E3A"/>
<path d="M328.6 200.3C328.6 202.3 327 203.8 325.1 203.8C323.1 203.8 321.6 202.2 321.6 200.3C321.6 198.3 323.2 196.8 325.1 196.8C327.1 196.7 328.6 198.3 328.6 200.3Z" fill="#3B4459"/>
<path opacity="0.14" d="M256 199.901H237C235.4 199.901 234.1 198.601 234.1 197.001C234.1 195.401 235.4 194.101 237 194.101H256C257.6 194.101 258.9 195.401 258.9 197.001C258.9 198.601 257.6 199.901 256 199.901Z" fill="white"/>
<path opacity="0.14" d="M294.9 201.301C296.06 201.301 297 200.36 297 199.201C297 198.041 296.06 197.101 294.9 197.101C293.74 197.101 292.8 198.041 292.8 199.201C292.8 200.36 293.74 201.301 294.9 201.301Z" fill="white"/>
<path opacity="0.14" d="M309.8 201.301C310.96 201.301 311.9 200.36 311.9 199.201C311.9 198.041 310.96 197.101 309.8 197.101C308.64 197.101 307.7 198.041 307.7 199.201C307.7 200.36 308.64 201.301 309.8 201.301Z" fill="white"/>
<path opacity="0.14" d="M325.1 201.301C326.26 201.301 327.2 200.36 327.2 199.201C327.2 198.041 326.26 197.101 325.1 197.101C323.94 197.101 323 198.041 323 199.201C323 200.36 323.94 201.301 325.1 201.301Z" fill="white"/>
<path d="M331.2 229.5H236.4C234.3 229.5 232.5 227.8 232.5 225.6V219.4C232.5 217.3 234.2 215.5 236.4 215.5H331.2C333.3 215.5 335.1 217.2 335.1 219.4V225.6C335.1 227.8 333.3 229.5 331.2 229.5Z" fill="#C2C3C9"/>
<path d="M264.1 229.5H236.4C234.3 229.5 232.5 227.8 232.5 225.6V219.4C232.5 217.3 234.2 215.5 236.4 215.5H264.1V229.5Z" fill="#211915"/>
<path d="M299.2 222.8C299.2 224.8 297.6 226.3 295.7 226.3C293.7 226.3 292.2 224.7 292.2 222.8C292.2 220.8 293.8 219.3 295.7 219.3C297.6 219.3 299.2 220.9 299.2 222.8Z" fill="#BF0411"/>
<path d="M313.9 222.8C313.9 224.8 312.3 226.3 310.4 226.3C308.4 226.3 306.9 224.7 306.9 222.8C306.9 220.8 308.5 219.3 310.4 219.3C312.3 219.3 313.9 220.9 313.9 222.8Z" fill="#3B4459"/>
<path d="M328.6 222.8C328.6 224.8 327 226.3 325.1 226.3C323.1 226.3 321.6 224.7 321.6 222.8C321.6 220.8 323.2 219.3 325.1 219.3C327.1 219.3 328.6 220.9 328.6 222.8Z" fill="#E6B54A"/>
<path opacity="0.14" d="M256 222.5H237C235.4 222.5 234.1 221.2 234.1 219.6C234.1 218 235.4 216.7 237 216.7H256C257.6 216.7 258.9 218 258.9 219.6C258.9 221.2 257.6 222.5 256 222.5Z" fill="white"/>
<path opacity="0.14" d="M294.9 223.9C296.06 223.9 297 222.96 297 221.8C297 220.64 296.06 219.7 294.9 219.7C293.74 219.7 292.8 220.64 292.8 221.8C292.8 222.96 293.74 223.9 294.9 223.9Z" fill="white"/>
<path opacity="0.14" d="M309.8 223.9C310.96 223.9 311.9 222.96 311.9 221.8C311.9 220.64 310.96 219.7 309.8 219.7C308.64 219.7 307.7 220.64 307.7 221.8C307.7 222.96 308.64 223.9 309.8 223.9Z" fill="white"/>
<path opacity="0.14" d="M325.1 223.9C326.26 223.9 327.2 222.96 327.2 221.8C327.2 220.64 326.26 219.7 325.1 219.7C323.94 219.7 323 220.64 323 221.8C323 222.96 323.94 223.9 325.1 223.9Z" fill="white"/>
<path d="M331.2 252.101H236.4C234.3 252.101 232.5 250.401 232.5 248.201V242.001C232.5 239.901 234.2 238.101 236.4 238.101H331.2C333.3 238.101 335.1 239.801 335.1 242.001V248.201C335.1 250.401 333.3 252.101 331.2 252.101Z" fill="#C2C3C9"/>
<path d="M264.1 252.101H236.4C234.3 252.101 232.5 250.401 232.5 248.201V242.001C232.5 239.901 234.2 238.101 236.4 238.101H264.1V252.101Z" fill="#211915"/>
<path d="M299.2 245.4C299.2 247.4 297.6 248.9 295.7 248.9C293.7 248.9 292.2 247.3 292.2 245.4C292.2 243.4 293.8 241.9 295.7 241.9C297.6 241.9 299.2 243.5 299.2 245.4Z" fill="#BF0411"/>
<path d="M313.9 245.4C313.9 247.4 312.3 248.9 310.4 248.9C308.4 248.9 306.9 247.3 306.9 245.4C306.9 243.4 308.5 241.9 310.4 241.9C312.3 241.9 313.9 243.5 313.9 245.4Z" fill="#3B4459"/>
<path d="M328.6 245.4C328.6 247.4 327 248.9 325.1 248.9C323.1 248.9 321.6 247.3 321.6 245.4C321.6 243.4 323.2 241.9 325.1 241.9C327.1 241.9 328.6 243.5 328.6 245.4Z" fill="#E6B54A"/>
<path opacity="0.14" d="M256 245.101H237C235.4 245.101 234.1 243.801 234.1 242.201C234.1 240.601 235.4 239.301 237 239.301H256C257.6 239.301 258.9 240.601 258.9 242.201C258.9 243.801 257.6 245.101 256 245.101Z" fill="white"/>
<path opacity="0.14" d="M294.9 246.501C296.06 246.501 297 245.561 297 244.401C297 243.241 296.06 242.301 294.9 242.301C293.74 242.301 292.8 243.241 292.8 244.401C292.8 245.561 293.74 246.501 294.9 246.501Z" fill="white"/>
<path opacity="0.14" d="M309.8 246.501C310.96 246.501 311.9 245.561 311.9 244.401C311.9 243.241 310.96 242.301 309.8 242.301C308.64 242.301 307.7 243.241 307.7 244.401C307.7 245.561 308.64 246.501 309.8 246.501Z" fill="white"/>
<path opacity="0.14" d="M325.1 246.501C326.26 246.501 327.2 245.561 327.2 244.401C327.2 243.241 326.26 242.301 325.1 242.301C323.94 242.301 323 243.241 323 244.401C323 245.561 323.94 246.501 325.1 246.501Z" fill="white"/>
<path d="M118.8 272.7H8.5C3.8 272.7 0 268.9 0 264.2V50C0 45.3 3.8 41.5 8.5 41.5H118.8C123.5 41.5 127.3 45.3 127.3 50V264.2C127.3 268.9 123.5 272.7 118.8 272.7Z" fill="#1F2735"/>
<path opacity="0.49" d="M112.8 265.3H14.4004C9.70039 265.3 5.90039 261.5 5.90039 256.8V57.4004C5.90039 52.7004 9.70039 48.9004 14.4004 48.9004H112.8C117.5 48.9004 121.3 52.7004 121.3 57.4004V256.9C121.3 261.6 117.5 265.3 112.8 265.3Z" stroke="#002E82" stroke-width="4" stroke-miterlimit="10"/>
<path d="M111.4 71.4004H16.4996C14.3996 71.4004 12.5996 69.7004 12.5996 67.5004V61.3004C12.5996 59.2004 14.2996 57.4004 16.4996 57.4004H111.3C113.4 57.4004 115.2 59.1004 115.2 61.3004V67.5004C115.3 69.6004 113.5 71.4004 111.4 71.4004Z" fill="#C2C3C9"/>
<path d="M44.2996 71.4004H16.4996C14.3996 71.4004 12.5996 69.7004 12.5996 67.5004V61.3004C12.5996 59.2004 14.2996 57.4004 16.4996 57.4004H44.1996V71.4004H44.2996Z" fill="#211915"/>
<path d="M75.7998 68.2002C77.7328 68.2002 79.2998 66.6332 79.2998 64.7002C79.2998 62.7672 77.7328 61.2002 75.7998 61.2002C73.8668 61.2002 72.2998 62.7672 72.2998 64.7002C72.2998 66.6332 73.8668 68.2002 75.7998 68.2002Z" fill="#BF0411"/>
<path d="M90.5 68.2002C92.433 68.2002 94 66.6332 94 64.7002C94 62.7672 92.433 61.2002 90.5 61.2002C88.567 61.2002 87 62.7672 87 64.7002C87 66.6332 88.567 68.2002 90.5 68.2002Z" fill="#4F8E3A"/>
<path d="M105.3 68.2002C107.233 68.2002 108.8 66.6332 108.8 64.7002C108.8 62.7672 107.233 61.2002 105.3 61.2002C103.367 61.2002 101.8 62.7672 101.8 64.7002C101.8 66.6332 103.367 68.2002 105.3 68.2002Z" fill="#3B4459"/>
<path opacity="0.14" d="M36.1998 64.4006H17.1998C15.5998 64.4006 14.2998 63.1006 14.2998 61.5006C14.2998 59.9006 15.5998 58.6006 17.1998 58.6006H36.1998C37.7998 58.6006 39.0998 59.9006 39.0998 61.5006C38.9998 63.1006 37.6998 64.4006 36.1998 64.4006Z" fill="white"/>
<path opacity="0.14" d="M77.2 63.6C77.2 64.8 76.2 65.7 75.1 65.7C73.9 65.7 73 64.7 73 63.6C73 62.4 74 61.5 75.1 61.5C76.3 61.5 77.2 62.5 77.2 63.6Z" fill="white"/>
<path opacity="0.14" d="M92.0994 63.6C92.0994 64.8 91.0994 65.7 89.9994 65.7C88.7994 65.7 87.8994 64.7 87.8994 63.6C87.8994 62.4 88.8994 61.5 89.9994 61.5C91.0994 61.5 92.0994 62.5 92.0994 63.6Z" fill="white"/>
<path opacity="0.14" d="M107.399 63.6C107.399 64.8 106.399 65.7 105.299 65.7C104.099 65.7 103.199 64.7 103.199 63.6C103.199 62.4 104.199 61.5 105.299 61.5C106.499 61.5 107.399 62.5 107.399 63.6Z" fill="white"/>
<path d="M111.4 94H16.4996C14.3996 94 12.5996 92.3 12.5996 90.1V83.9C12.5996 81.8 14.2996 80 16.4996 80H111.3C113.4 80 115.2 81.7 115.2 83.9V90.1C115.3 92.2 113.5 94 111.4 94Z" fill="#C2C3C9"/>
<path d="M44.2996 94H16.4996C14.3996 94 12.5996 92.3 12.5996 90.1V83.9C12.5996 81.8 14.2996 80 16.4996 80H44.1996V94H44.2996Z" fill="#211915"/>
<path d="M75.7998 90.7998C77.7328 90.7998 79.2998 89.2328 79.2998 87.2998C79.2998 85.3668 77.7328 83.7998 75.7998 83.7998C73.8668 83.7998 72.2998 85.3668 72.2998 87.2998C72.2998 89.2328 73.8668 90.7998 75.7998 90.7998Z" fill="#BF0411"/>
<path d="M90.5 90.7998C92.433 90.7998 94 89.2328 94 87.2998C94 85.3668 92.433 83.7998 90.5 83.7998C88.567 83.7998 87 85.3668 87 87.2998C87 89.2328 88.567 90.7998 90.5 90.7998Z" fill="#4F8E3A"/>
<path d="M105.3 90.7998C107.233 90.7998 108.8 89.2328 108.8 87.2998C108.8 85.3668 107.233 83.7998 105.3 83.7998C103.367 83.7998 101.8 85.3668 101.8 87.2998C101.8 89.2328 103.367 90.7998 105.3 90.7998Z" fill="#3B4459"/>
<path opacity="0.14" d="M36.1998 87.0002H17.1998C15.5998 87.0002 14.2998 85.7002 14.2998 84.1002C14.2998 82.5002 15.5998 81.2002 17.1998 81.2002H36.1998C37.7998 81.2002 39.0998 82.5002 39.0998 84.1002C38.9998 85.7002 37.6998 87.0002 36.1998 87.0002Z" fill="white"/>
<path opacity="0.14" d="M77.2 86.1996C77.2 87.3996 76.2 88.2996 75.1 88.2996C73.9 88.2996 73 87.2996 73 86.1996C73 84.9996 74 84.0996 75.1 84.0996C76.3 84.0996 77.2 84.9996 77.2 86.1996Z" fill="white"/>
<path opacity="0.14" d="M92.0994 86.1996C92.0994 87.3996 91.0994 88.2996 89.9994 88.2996C88.7994 88.2996 87.8994 87.2996 87.8994 86.1996C87.8994 84.9996 88.8994 84.0996 89.9994 84.0996C91.0994 84.0996 92.0994 84.9996 92.0994 86.1996Z" fill="white"/>
<path opacity="0.14" d="M107.399 86.1996C107.399 87.3996 106.399 88.2996 105.299 88.2996C104.099 88.2996 103.199 87.2996 103.199 86.1996C103.199 84.9996 104.199 84.0996 105.299 84.0996C106.499 84.0996 107.399 84.9996 107.399 86.1996Z" fill="white"/>
<path d="M111.4 116.601H16.4996C14.3996 116.601 12.5996 114.901 12.5996 112.701V106.501C12.5996 104.401 14.2996 102.601 16.4996 102.601H111.3C113.4 102.601 115.2 104.301 115.2 106.501V112.701C115.3 114.801 113.5 116.601 111.4 116.601Z" fill="#C2C3C9"/>
<path d="M44.2996 116.601H16.4996C14.3996 116.601 12.5996 114.901 12.5996 112.701V106.501C12.5996 104.401 14.2996 102.601 16.4996 102.601H44.1996V116.601H44.2996Z" fill="#211915"/>
<path d="M79.2998 109.9C79.2998 111.9 77.6998 113.4 75.7998 113.4C73.8998 113.4 72.2998 111.8 72.2998 109.9C72.2998 107.9 73.8998 106.4 75.7998 106.4C77.6998 106.4 79.2998 107.9 79.2998 109.9Z" fill="#3B4459"/>
<path d="M94.0996 109.901C94.0996 111.901 92.4996 113.401 90.5996 113.401C88.5996 113.401 87.0996 111.801 87.0996 109.901C87.0996 107.901 88.6996 106.401 90.5996 106.401C92.4996 106.301 94.0996 107.901 94.0996 109.901Z" fill="#4F8E3A"/>
<path d="M108.8 109.901C108.8 111.901 107.2 113.401 105.3 113.401C103.3 113.401 101.8 111.801 101.8 109.901C101.8 107.901 103.4 106.401 105.3 106.401C107.2 106.301 108.8 107.901 108.8 109.901Z" fill="#E6B54A"/>
<path opacity="0.14" d="M36.1998 109.601H17.1998C15.5998 109.601 14.2998 108.301 14.2998 106.701C14.2998 105.101 15.5998 103.801 17.1998 103.801H36.1998C37.7998 103.801 39.0998 105.101 39.0998 106.701C38.9998 108.301 37.6998 109.601 36.1998 109.601Z" fill="white"/>
<path opacity="0.14" d="M75.1 110.9C76.2598 110.9 77.2 109.96 77.2 108.8C77.2 107.64 76.2598 106.7 75.1 106.7C73.9402 106.7 73 107.64 73 108.8C73 109.96 73.9402 110.9 75.1 110.9Z" fill="white"/>
<path opacity="0.14" d="M92.0994 108.8C92.0994 110 91.0994 110.9 89.9994 110.9C88.7994 110.9 87.8994 109.9 87.8994 108.8C87.8994 107.6 88.8994 106.7 89.9994 106.7C91.0994 106.7 92.0994 107.6 92.0994 108.8Z" fill="white"/>
<path opacity="0.14" d="M105.299 110.9C106.459 110.9 107.399 109.96 107.399 108.8C107.399 107.64 106.459 106.7 105.299 106.7C104.139 106.7 103.199 107.64 103.199 108.8C103.199 109.96 104.139 110.9 105.299 110.9Z" fill="white"/>
<path d="M111.4 139.2H16.4996C14.3996 139.2 12.5996 137.5 12.5996 135.3V129.1C12.5996 127 14.2996 125.2 16.4996 125.2H111.3C113.4 125.2 115.2 126.9 115.2 129.1V135.3C115.3 137.4 113.5 139.2 111.4 139.2Z" fill="#C2C3C9"/>
<path d="M44.2996 139.2H16.4996C14.3996 139.2 12.5996 137.5 12.5996 135.3V129.1C12.5996 127 14.2996 125.2 16.4996 125.2H44.1996V139.2H44.2996Z" fill="#211915"/>
<path d="M79.2998 132.5C79.2998 134.5 77.6998 136 75.7998 136C73.8998 136 72.2998 134.4 72.2998 132.5C72.2998 130.5 73.8998 129 75.7998 129C77.6998 129 79.2998 130.5 79.2998 132.5Z" fill="#BF0411"/>
<path d="M94.0996 132.501C94.0996 134.501 92.4996 136.001 90.5996 136.001C88.5996 136.001 87.0996 134.401 87.0996 132.501C87.0996 130.501 88.6996 129.001 90.5996 129.001C92.4996 128.901 94.0996 130.501 94.0996 132.501Z" fill="#3B4459"/>
<path d="M108.8 132.501C108.8 134.501 107.2 136.001 105.3 136.001C103.3 136.001 101.8 134.401 101.8 132.501C101.8 130.501 103.4 129.001 105.3 129.001C107.2 128.901 108.8 130.501 108.8 132.501Z" fill="#E6B54A"/>
<path opacity="0.14" d="M36.1998 132.2H17.1998C15.5998 132.2 14.2998 130.9 14.2998 129.3C14.2998 127.7 15.5998 126.4 17.1998 126.4H36.1998C37.7998 126.4 39.0998 127.7 39.0998 129.3C38.9998 130.9 37.6998 132.2 36.1998 132.2Z" fill="white"/>
<path opacity="0.14" d="M75.1 133.5C76.2598 133.5 77.2 132.56 77.2 131.4C77.2 130.24 76.2598 129.3 75.1 129.3C73.9402 129.3 73 130.24 73 131.4C73 132.56 73.9402 133.5 75.1 133.5Z" fill="white"/>
<path opacity="0.14" d="M92.0994 131.4C92.0994 132.6 91.0994 133.5 89.9994 133.5C88.7994 133.5 87.8994 132.5 87.8994 131.4C87.8994 130.2 88.8994 129.3 89.9994 129.3C91.0994 129.3 92.0994 130.2 92.0994 131.4Z" fill="white"/>
<path opacity="0.14" d="M105.299 133.5C106.459 133.5 107.399 132.56 107.399 131.4C107.399 130.24 106.459 129.3 105.299 129.3C104.139 129.3 103.199 130.24 103.199 131.4C103.199 132.56 104.139 133.5 105.299 133.5Z" fill="white"/>
<path d="M111.4 161.801H16.4996C14.3996 161.801 12.5996 160.101 12.5996 157.901V151.701C12.5996 149.601 14.2996 147.801 16.4996 147.801H111.3C113.4 147.801 115.2 149.501 115.2 151.701V157.901C115.3 160.001 113.5 161.801 111.4 161.801Z" fill="#C2C3C9"/>
<path d="M44.2996 161.801H16.4996C14.3996 161.801 12.5996 160.101 12.5996 157.901V151.701C12.5996 149.601 14.2996 147.801 16.4996 147.801H44.1996V161.801H44.2996Z" fill="#211915"/>
<path d="M79.2998 155.101C79.2998 157.101 77.6998 158.601 75.7998 158.601C73.8998 158.601 72.2998 157.001 72.2998 155.101C72.2998 153.101 73.8998 151.601 75.7998 151.601C77.6998 151.601 79.2998 153.101 79.2998 155.101Z" fill="#BF0411"/>
<path d="M94.0996 155.101C94.0996 157.101 92.4996 158.601 90.5996 158.601C88.5996 158.601 87.0996 157.001 87.0996 155.101C87.0996 153.101 88.6996 151.601 90.5996 151.601C92.4996 151.501 94.0996 153.101 94.0996 155.101Z" fill="#4F8E3A"/>
<path d="M108.8 155.101C108.8 157.101 107.2 158.601 105.3 158.601C103.3 158.601 101.8 157.001 101.8 155.101C101.8 153.101 103.4 151.601 105.3 151.601C107.2 151.501 108.8 153.101 108.8 155.101Z" fill="#3B4459"/>
<path opacity="0.14" d="M36.1998 154.801H17.1998C15.5998 154.801 14.2998 153.501 14.2998 151.901C14.2998 150.301 15.5998 149.001 17.1998 149.001H36.1998C37.7998 149.001 39.0998 150.301 39.0998 151.901C38.9998 153.501 37.6998 154.801 36.1998 154.801Z" fill="white"/>
<path opacity="0.14" d="M75.1 156.1C76.2598 156.1 77.2 155.16 77.2 154C77.2 152.841 76.2598 151.9 75.1 151.9C73.9402 151.9 73 152.841 73 154C73 155.16 73.9402 156.1 75.1 156.1Z" fill="white"/>
<path opacity="0.14" d="M92.0994 154C92.0994 155.2 91.0994 156.1 89.9994 156.1C88.7994 156.1 87.8994 155.1 87.8994 154C87.8994 152.8 88.8994 151.9 89.9994 151.9C91.0994 151.9 92.0994 152.8 92.0994 154Z" fill="white"/>
<path opacity="0.14" d="M105.299 156.1C106.459 156.1 107.399 155.16 107.399 154C107.399 152.841 106.459 151.9 105.299 151.9C104.139 151.9 103.199 152.841 103.199 154C103.199 155.16 104.139 156.1 105.299 156.1Z" fill="white"/>
<path d="M111.4 184.4H16.4996C14.3996 184.4 12.5996 182.7 12.5996 180.5V174.3C12.5996 172.2 14.2996 170.4 16.4996 170.4H111.3C113.4 170.4 115.2 172.1 115.2 174.3V180.5C115.3 182.6 113.5 184.4 111.4 184.4Z" fill="#C2C3C9"/>
<path d="M44.2996 184.4H16.4996C14.3996 184.4 12.5996 182.7 12.5996 180.5V174.3C12.5996 172.2 14.2996 170.4 16.4996 170.4H44.1996V184.4H44.2996Z" fill="#211915"/>
<path d="M79.2998 177.7C79.2998 179.7 77.6998 181.2 75.7998 181.2C73.8998 181.2 72.2998 179.6 72.2998 177.7C72.2998 175.7 73.8998 174.2 75.7998 174.2C77.6998 174.2 79.2998 175.7 79.2998 177.7Z" fill="#3B4459"/>
<path d="M94.0996 177.701C94.0996 179.701 92.4996 181.201 90.5996 181.201C88.5996 181.201 87.0996 179.601 87.0996 177.701C87.0996 175.701 88.6996 174.201 90.5996 174.201C92.4996 174.101 94.0996 175.701 94.0996 177.701Z" fill="#3B4459"/>
<path d="M108.8 177.701C108.8 179.701 107.2 181.201 105.3 181.201C103.3 181.201 101.8 179.601 101.8 177.701C101.8 175.701 103.4 174.201 105.3 174.201C107.2 174.101 108.8 175.701 108.8 177.701Z" fill="#E6B54A"/>
<path opacity="0.14" d="M36.1998 177.401H17.1998C15.5998 177.401 14.2998 176.101 14.2998 174.501C14.2998 172.901 15.5998 171.601 17.1998 171.601H36.1998C37.7998 171.601 39.0998 172.901 39.0998 174.501C38.9998 176.101 37.6998 177.401 36.1998 177.401Z" fill="white"/>
<path opacity="0.14" d="M75.1 178.7C76.2598 178.7 77.2 177.76 77.2 176.6C77.2 175.44 76.2598 174.5 75.1 174.5C73.9402 174.5 73 175.44 73 176.6C73 177.76 73.9402 178.7 75.1 178.7Z" fill="white"/>
<path opacity="0.14" d="M92.0994 176.6C92.0994 177.8 91.0994 178.7 89.9994 178.7C88.7994 178.7 87.8994 177.7 87.8994 176.6C87.8994 175.5 88.8994 174.5 89.9994 174.5C91.0994 174.5 92.0994 175.4 92.0994 176.6Z" fill="white"/>
<path opacity="0.14" d="M105.299 178.7C106.459 178.7 107.399 177.76 107.399 176.6C107.399 175.44 106.459 174.5 105.299 174.5C104.139 174.5 103.199 175.44 103.199 176.6C103.199 177.76 104.139 178.7 105.299 178.7Z" fill="white"/>
<path d="M111.4 206.9H16.4996C14.3996 206.9 12.5996 205.2 12.5996 203V196.8C12.5996 194.7 14.2996 192.9 16.4996 192.9H111.3C113.4 192.9 115.2 194.6 115.2 196.8V203C115.3 205.2 113.5 206.9 111.4 206.9Z" fill="#C2C3C9"/>
<path d="M44.2996 206.9H16.4996C14.3996 206.9 12.5996 205.2 12.5996 203V196.8C12.5996 194.7 14.2996 192.9 16.4996 192.9H44.1996V206.9H44.2996Z" fill="#211915"/>
<path d="M79.2998 200.301C79.2998 202.301 77.6998 203.801 75.7998 203.801C73.8998 203.801 72.2998 202.201 72.2998 200.301C72.2998 198.301 73.8998 196.801 75.7998 196.801C77.6998 196.801 79.2998 198.301 79.2998 200.301Z" fill="#BF0411"/>
<path d="M94.0996 200.3C94.0996 202.3 92.4996 203.8 90.5996 203.8C88.5996 203.8 87.0996 202.2 87.0996 200.3C87.0996 198.3 88.6996 196.8 90.5996 196.8C92.4996 196.7 94.0996 198.3 94.0996 200.3Z" fill="#4F8E3A"/>
<path d="M108.8 200.3C108.8 202.3 107.2 203.8 105.3 203.8C103.3 203.8 101.8 202.2 101.8 200.3C101.8 198.3 103.4 196.8 105.3 196.8C107.2 196.7 108.8 198.3 108.8 200.3Z" fill="#3B4459"/>
<path opacity="0.14" d="M36.1998 199.901H17.1998C15.5998 199.901 14.2998 198.601 14.2998 197.001C14.2998 195.401 15.5998 194.101 17.1998 194.101H36.1998C37.7998 194.101 39.0998 195.401 39.0998 197.001C38.9998 198.601 37.6998 199.901 36.1998 199.901Z" fill="white"/>
<path opacity="0.14" d="M75.1 201.301C76.2598 201.301 77.2 200.36 77.2 199.201C77.2 198.041 76.2598 197.101 75.1 197.101C73.9402 197.101 73 198.041 73 199.201C73 200.36 73.9402 201.301 75.1 201.301Z" fill="white"/>
<path opacity="0.14" d="M92.0994 199.201C92.0994 200.401 91.0994 201.301 89.9994 201.301C88.7994 201.301 87.8994 200.301 87.8994 199.201C87.8994 198.101 88.8994 197.101 89.9994 197.101C91.0994 197.101 92.0994 198.001 92.0994 199.201Z" fill="white"/>
<path opacity="0.14" d="M105.299 201.301C106.459 201.301 107.399 200.36 107.399 199.201C107.399 198.041 106.459 197.101 105.299 197.101C104.139 197.101 103.199 198.041 103.199 199.201C103.199 200.36 104.139 201.301 105.299 201.301Z" fill="white"/>
<path d="M111.4 229.5H16.4996C14.3996 229.5 12.5996 227.8 12.5996 225.6V219.4C12.5996 217.3 14.2996 215.5 16.4996 215.5H111.3C113.4 215.5 115.2 217.2 115.2 219.4V225.6C115.3 227.8 113.5 229.5 111.4 229.5Z" fill="#C2C3C9"/>
<path d="M44.2996 229.5H16.4996C14.3996 229.5 12.5996 227.8 12.5996 225.6V219.4C12.5996 217.3 14.2996 215.5 16.4996 215.5H44.1996V229.5H44.2996Z" fill="#211915"/>
<path d="M79.2998 222.8C79.2998 224.8 77.6998 226.3 75.7998 226.3C73.8998 226.3 72.2998 224.7 72.2998 222.8C72.2998 220.8 73.8998 219.3 75.7998 219.3C77.6998 219.3 79.2998 220.9 79.2998 222.8Z" fill="#BF0411"/>
<path d="M94.0996 222.8C94.0996 224.8 92.4996 226.3 90.5996 226.3C88.5996 226.3 87.0996 224.7 87.0996 222.8C87.0996 220.8 88.6996 219.3 90.5996 219.3C92.4996 219.3 94.0996 220.9 94.0996 222.8Z" fill="#3B4459"/>
<path d="M108.8 222.8C108.8 224.8 107.2 226.3 105.3 226.3C103.3 226.3 101.8 224.7 101.8 222.8C101.8 220.8 103.4 219.3 105.3 219.3C107.2 219.3 108.8 220.9 108.8 222.8Z" fill="#E6B54A"/>
<path opacity="0.14" d="M36.1998 222.5H17.1998C15.5998 222.5 14.2998 221.2 14.2998 219.6C14.2998 218 15.5998 216.7 17.1998 216.7H36.1998C37.7998 216.7 39.0998 218 39.0998 219.6C38.9998 221.2 37.6998 222.5 36.1998 222.5Z" fill="white"/>
<path opacity="0.14" d="M75.1 223.9C76.2598 223.9 77.2 222.96 77.2 221.8C77.2 220.64 76.2598 219.7 75.1 219.7C73.9402 219.7 73 220.64 73 221.8C73 222.96 73.9402 223.9 75.1 223.9Z" fill="white"/>
<path opacity="0.14" d="M92.0994 221.8C92.0994 223 91.0994 223.9 89.9994 223.9C88.7994 223.9 87.8994 222.9 87.8994 221.8C87.8994 220.6 88.8994 219.7 89.9994 219.7C91.0994 219.6 92.0994 220.6 92.0994 221.8Z" fill="white"/>
<path opacity="0.14" d="M105.299 223.9C106.459 223.9 107.399 222.96 107.399 221.8C107.399 220.64 106.459 219.7 105.299 219.7C104.139 219.7 103.199 220.64 103.199 221.8C103.199 222.96 104.139 223.9 105.299 223.9Z" fill="white"/>
<path d="M111.4 252.101H16.4996C14.3996 252.101 12.5996 250.401 12.5996 248.201V242.001C12.5996 239.901 14.2996 238.101 16.4996 238.101H111.3C113.4 238.101 115.2 239.801 115.2 242.001V248.201C115.3 250.401 113.5 252.101 111.4 252.101Z" fill="#C2C3C9"/>
<path d="M44.2996 252.101H16.4996C14.3996 252.101 12.5996 250.401 12.5996 248.201V242.001C12.5996 239.901 14.2996 238.101 16.4996 238.101H44.1996V252.101H44.2996Z" fill="#211915"/>
<path d="M79.2998 245.4C79.2998 247.4 77.6998 248.9 75.7998 248.9C73.8998 248.9 72.2998 247.3 72.2998 245.4C72.2998 243.4 73.8998 241.9 75.7998 241.9C77.6998 241.9 79.2998 243.5 79.2998 245.4Z" fill="#BF0411"/>
<path d="M94.0996 245.4C94.0996 247.4 92.4996 248.9 90.5996 248.9C88.5996 248.9 87.0996 247.3 87.0996 245.4C87.0996 243.4 88.6996 241.9 90.5996 241.9C92.4996 241.9 94.0996 243.5 94.0996 245.4Z" fill="#3B4459"/>
<path d="M108.8 245.4C108.8 247.4 107.2 248.9 105.3 248.9C103.3 248.9 101.8 247.3 101.8 245.4C101.8 243.4 103.4 241.9 105.3 241.9C107.2 241.9 108.8 243.5 108.8 245.4Z" fill="#E6B54A"/>
<path opacity="0.14" d="M36.1998 245.101H17.1998C15.5998 245.101 14.2998 243.801 14.2998 242.201C14.2998 240.601 15.5998 239.301 17.1998 239.301H36.1998C37.7998 239.301 39.0998 240.601 39.0998 242.201C38.9998 243.801 37.6998 245.101 36.1998 245.101Z" fill="white"/>
<path opacity="0.14" d="M75.1 246.501C76.2598 246.501 77.2 245.561 77.2 244.401C77.2 243.241 76.2598 242.301 75.1 242.301C73.9402 242.301 73 243.241 73 244.401C73 245.561 73.9402 246.501 75.1 246.501Z" fill="white"/>
<path opacity="0.14" d="M92.0994 244.401C92.0994 245.601 91.0994 246.501 89.9994 246.501C88.7994 246.501 87.8994 245.501 87.8994 244.401C87.8994 243.201 88.8994 242.301 89.9994 242.301C91.0994 242.201 92.0994 243.201 92.0994 244.401Z" fill="white"/>
<path opacity="0.14" d="M105.299 246.501C106.459 246.501 107.399 245.561 107.399 244.401C107.399 243.241 106.459 242.301 105.299 242.301C104.139 242.301 103.199 243.241 103.199 244.401C103.199 245.561 104.139 246.501 105.299 246.501Z" fill="white"/>
<path d="M238 273.9H104.1C99.3996 273.9 95.5996 270.1 95.5996 265.4V8.5C95.5996 3.8 99.3996 0 104.1 0H238C242.7 0 246.5 3.8 246.5 8.5V265.4C246.4 270.1 242.6 273.9 238 273.9Z" fill="#4B5A7A"/>
<path opacity="0.49" d="M230.899 265.1H111.199C106.499 265.1 102.699 261.3 102.699 256.6V17.2998C102.699 12.5998 106.499 8.7998 111.199 8.7998H230.899C235.599 8.7998 239.399 12.5998 239.399 17.2998V256.7C239.399 261.4 235.599 265.1 230.899 265.1Z" stroke="#002E82" stroke-width="4" stroke-miterlimit="10"/>
<path d="M228.299 35.3998H114.599C112.499 35.3998 110.699 33.6998 110.699 31.4998V22.6998C110.699 20.5998 112.399 18.7998 114.599 18.7998H228.399C230.499 18.7998 232.299 20.4998 232.299 22.6998V31.4998C232.199 33.5998 230.499 35.3998 228.299 35.3998Z" fill="#C2C3C9"/>
<path d="M148.099 35.3998H114.599C112.499 35.3998 110.699 33.6998 110.699 31.4998V22.6998C110.699 20.5998 112.399 18.7998 114.599 18.7998H148.099V35.3998Z" fill="#211915"/>
<path d="M189.699 27.4002C189.699 29.7002 187.799 31.6002 185.499 31.6002C183.199 31.6002 181.299 29.7002 181.299 27.4002C181.299 25.1002 183.199 23.2002 185.499 23.2002C187.799 23.2002 189.699 25.1002 189.699 27.4002Z" fill="#BF0411"/>
<path d="M207.099 27.4002C207.099 29.7002 205.199 31.6002 202.899 31.6002C200.599 31.6002 198.699 29.7002 198.699 27.4002C198.699 25.1002 200.599 23.2002 202.899 23.2002C205.199 23.2002 207.099 25.1002 207.099 27.4002Z" fill="#4F8E3A"/>
<path d="M224.599 27.4002C224.599 29.7002 222.699 31.6002 220.399 31.6002C218.099 31.6002 216.199 29.7002 216.199 27.4002C216.199 25.1002 218.099 23.2002 220.399 23.2002C222.699 23.2002 224.599 25.1002 224.599 27.4002Z" fill="#3B4459"/>
<path opacity="0.14" d="M138.5 27.0998H116C114.1 27.0998 112.6 25.5998 112.6 23.6998C112.6 21.7998 114.1 20.2998 116 20.2998H138.5C140.4 20.2998 141.9 21.7998 141.9 23.6998C141.9 25.4998 140.4 27.0998 138.5 27.0998Z" fill="white"/>
<path opacity="0.14" d="M187.199 26.2002C187.199 27.6002 186.099 28.7002 184.699 28.7002C183.299 28.7002 182.199 27.6002 182.199 26.2002C182.199 24.8002 183.299 23.7002 184.699 23.7002C185.999 23.7002 187.199 24.8002 187.199 26.2002Z" fill="white"/>
<path opacity="0.14" d="M204.699 26.2002C204.699 27.6002 203.599 28.7002 202.199 28.7002C200.799 28.7002 199.699 27.6002 199.699 26.2002C199.699 24.8002 200.799 23.7002 202.199 23.7002C203.599 23.7002 204.699 24.8002 204.699 26.2002Z" fill="white"/>
<path opacity="0.14" d="M222.899 26.2002C222.899 27.6002 221.799 28.7002 220.399 28.7002C218.999 28.7002 217.899 27.6002 217.899 26.2002C217.899 24.8002 218.999 23.7002 220.399 23.7002C221.799 23.7002 222.899 24.8002 222.899 26.2002Z" fill="white"/>
<path d="M228.299 62.1H114.599C112.499 62.1 110.699 60.4 110.699 58.2V49.4C110.699 47.3 112.399 45.5 114.599 45.5H228.399C230.499 45.5 232.299 47.2 232.299 49.4V58.2C232.199 60.4 230.499 62.1 228.299 62.1Z" fill="#C2C3C9"/>
<path d="M148.099 62.1H114.599C112.499 62.1 110.699 60.4 110.699 58.2V49.4C110.699 47.3 112.399 45.5 114.599 45.5H148.099V62.1Z" fill="#211915"/>
<path d="M185.499 58.4C187.818 58.4 189.699 56.5196 189.699 54.2C189.699 51.8804 187.818 50 185.499 50C183.179 50 181.299 51.8804 181.299 54.2C181.299 56.5196 183.179 58.4 185.499 58.4Z" fill="#BF0411"/>
<path d="M202.899 58.4C205.219 58.4 207.099 56.5196 207.099 54.2C207.099 51.8804 205.219 50 202.899 50C200.58 50 198.699 51.8804 198.699 54.2C198.699 56.5196 200.58 58.4 202.899 58.4Z" fill="#4F8E3A"/>
<path d="M224.599 54.2C224.599 56.5 222.699 58.4 220.399 58.4C218.099 58.4 216.199 56.5 216.199 54.2C216.199 51.9 218.099 50 220.399 50C222.699 50 224.599 51.9 224.599 54.2Z" fill="#3B4459"/>
<path opacity="0.14" d="M138.5 53.8H116C114.1 53.8 112.6 52.3 112.6 50.4C112.6 48.5 114.1 47 116 47H138.5C140.4 47 141.9 48.5 141.9 50.4C141.9 52.3 140.4 53.8 138.5 53.8Z" fill="white"/>
<path opacity="0.14" d="M187.199 53C187.199 54.4 186.099 55.5 184.699 55.5C183.299 55.5 182.199 54.4 182.199 53C182.199 51.6 183.299 50.5 184.699 50.5C185.999 50.4 187.199 51.6 187.199 53Z" fill="white"/>
<path opacity="0.14" d="M204.699 53C204.699 54.4 203.599 55.5 202.199 55.5C200.799 55.5 199.699 54.4 199.699 53C199.699 51.6 200.799 50.5 202.199 50.5C203.599 50.4 204.699 51.6 204.699 53Z" fill="white"/>
<path opacity="0.14" d="M222.899 53C222.899 54.4 221.799 55.5 220.399 55.5C218.999 55.5 217.899 54.4 217.899 53C217.899 51.6 218.999 50.5 220.399 50.5C221.799 50.4 222.899 51.6 222.899 53Z" fill="white"/>
<path d="M228.299 88.8998H114.599C112.499 88.8998 110.699 87.1998 110.699 84.9998V76.1998C110.699 74.0998 112.399 72.2998 114.599 72.2998H228.399C230.499 72.2998 232.299 73.9998 232.299 76.1998V84.9998C232.199 87.1998 230.499 88.8998 228.299 88.8998Z" fill="#C2C3C9"/>
<path d="M148.099 88.8998H114.599C112.499 88.8998 110.699 87.1998 110.699 84.9998V76.1998C110.699 74.0998 112.399 72.2998 114.599 72.2998H148.099V88.8998Z" fill="#211915"/>
<path d="M185.499 85.1998C187.818 85.1998 189.699 83.3194 189.699 80.9998C189.699 78.6802 187.818 76.7998 185.499 76.7998C183.179 76.7998 181.299 78.6802 181.299 80.9998C181.299 83.3194 183.179 85.1998 185.499 85.1998Z" fill="#3B4459"/>
<path d="M202.899 85.1998C205.219 85.1998 207.099 83.3194 207.099 80.9998C207.099 78.6802 205.219 76.7998 202.899 76.7998C200.58 76.7998 198.699 78.6802 198.699 80.9998C198.699 83.3194 200.58 85.1998 202.899 85.1998Z" fill="#4F8E3A"/>
<path d="M224.599 80.9998C224.599 83.2998 222.699 85.1998 220.399 85.1998C218.099 85.1998 216.199 83.2998 216.199 80.9998C216.199 78.6998 218.099 76.7998 220.399 76.7998C222.699 76.7998 224.599 78.6998 224.599 80.9998Z" fill="#E6B54A"/>
<path opacity="0.14" d="M138.5 80.5998H116C114.1 80.5998 112.6 79.0998 112.6 77.1998C112.6 75.2998 114.1 73.7998 116 73.7998H138.5C140.4 73.7998 141.9 75.2998 141.9 77.1998C141.9 79.0998 140.4 80.5998 138.5 80.5998Z" fill="white"/>
<path opacity="0.14" d="M187.199 79.7002C187.199 81.1002 186.099 82.2002 184.699 82.2002C183.299 82.2002 182.199 81.1002 182.199 79.7002C182.199 78.3002 183.299 77.2002 184.699 77.2002C185.999 77.2002 187.199 78.3002 187.199 79.7002Z" fill="white"/>
<path opacity="0.14" d="M204.699 79.7002C204.699 81.1002 203.599 82.2002 202.199 82.2002C200.799 82.2002 199.699 81.1002 199.699 79.7002C199.699 78.3002 200.799 77.2002 202.199 77.2002C203.599 77.2002 204.699 78.3002 204.699 79.7002Z" fill="white"/>
<path opacity="0.14" d="M222.899 79.7002C222.899 81.1002 221.799 82.2002 220.399 82.2002C218.999 82.2002 217.899 81.1002 217.899 79.7002C217.899 78.3002 218.999 77.2002 220.399 77.2002C221.799 77.2002 222.899 78.3002 222.899 79.7002Z" fill="white"/>
<path d="M228.299 115.7H114.599C112.499 115.7 110.699 114 110.699 111.8V103C110.699 100.9 112.399 99.0996 114.599 99.0996H228.399C230.499 99.0996 232.299 100.8 232.299 103V111.8C232.199 113.9 230.499 115.7 228.299 115.7Z" fill="#C2C3C9"/>
<path d="M148.099 115.7H114.599C112.499 115.7 110.699 114 110.699 111.8V103C110.699 100.9 112.399 99.0996 114.599 99.0996H148.099V115.7Z" fill="#211915"/>
<path d="M189.699 107.7C189.699 110 187.799 111.9 185.499 111.9C183.199 111.9 181.299 110 181.299 107.7C181.299 105.4 183.199 103.5 185.499 103.5C187.799 103.5 189.699 105.4 189.699 107.7Z" fill="#BF0411"/>
<path d="M207.099 107.7C207.099 110 205.199 111.9 202.899 111.9C200.599 111.9 198.699 110 198.699 107.7C198.699 105.4 200.599 103.5 202.899 103.5C205.199 103.5 207.099 105.4 207.099 107.7Z" fill="#3B4459"/>
<path d="M224.599 107.7C224.599 110 222.699 111.9 220.399 111.9C218.099 111.9 216.199 110 216.199 107.7C216.199 105.4 218.099 103.5 220.399 103.5C222.699 103.5 224.599 105.4 224.599 107.7Z" fill="#E6B54A"/>
<path opacity="0.14" d="M138.5 107.4H116C114.1 107.4 112.6 105.9 112.6 104C112.6 102.1 114.1 100.6 116 100.6H138.5C140.4 100.6 141.9 102.1 141.9 104C141.9 105.8 140.4 107.4 138.5 107.4Z" fill="white"/>
<path opacity="0.14" d="M187.199 106.5C187.199 107.9 186.099 109 184.699 109C183.299 109 182.199 107.9 182.199 106.5C182.199 105.1 183.299 104 184.699 104C185.999 103.9 187.199 105.1 187.199 106.5Z" fill="white"/>
<path opacity="0.14" d="M204.699 106.5C204.699 107.9 203.599 109 202.199 109C200.799 109 199.699 107.9 199.699 106.5C199.699 105.1 200.799 104 202.199 104C203.599 103.9 204.699 105.1 204.699 106.5Z" fill="white"/>
<path opacity="0.14" d="M222.899 106.5C222.899 107.9 221.799 109 220.399 109C218.999 109 217.899 107.9 217.899 106.5C217.899 105.1 218.999 104 220.399 104C221.799 103.9 222.899 105.1 222.899 106.5Z" fill="white"/>
<path d="M228.299 142.4H114.599C112.499 142.4 110.699 140.7 110.699 138.5V129.7C110.699 127.6 112.399 125.8 114.599 125.8H228.399C230.499 125.8 232.299 127.5 232.299 129.7V138.5C232.199 140.7 230.499 142.4 228.299 142.4Z" fill="#C2C3C9"/>
<path d="M148.099 142.4H114.599C112.499 142.4 110.699 140.7 110.699 138.5V129.7C110.699 127.6 112.399 125.8 114.599 125.8H148.099V142.4Z" fill="#211915"/>
<path d="M189.699 134.5C189.699 136.8 187.799 138.7 185.499 138.7C183.199 138.7 181.299 136.8 181.299 134.5C181.299 132.2 183.199 130.3 185.499 130.3C187.799 130.3 189.699 132.2 189.699 134.5Z" fill="#BF0411"/>
<path d="M207.099 134.5C207.099 136.8 205.199 138.7 202.899 138.7C200.599 138.7 198.699 136.8 198.699 134.5C198.699 132.2 200.599 130.3 202.899 130.3C205.199 130.3 207.099 132.2 207.099 134.5Z" fill="#4F8E3A"/>
<path d="M224.599 134.5C224.599 136.8 222.699 138.7 220.399 138.7C218.099 138.7 216.199 136.8 216.199 134.5C216.199 132.2 218.099 130.3 220.399 130.3C222.699 130.3 224.599 132.2 224.599 134.5Z" fill="#3B4459"/>
<path opacity="0.14" d="M138.5 134.1H116C114.1 134.1 112.6 132.6 112.6 130.7C112.6 128.8 114.1 127.3 116 127.3H138.5C140.4 127.3 141.9 128.8 141.9 130.7C141.9 132.6 140.4 134.1 138.5 134.1Z" fill="white"/>
<path opacity="0.14" d="M187.199 133.2C187.199 134.6 186.099 135.7 184.699 135.7C183.299 135.7 182.199 134.6 182.199 133.2C182.199 131.8 183.299 130.7 184.699 130.7C185.999 130.7 187.199 131.8 187.199 133.2Z" fill="white"/>
<path opacity="0.14" d="M204.699 133.2C204.699 134.6 203.599 135.7 202.199 135.7C200.799 135.7 199.699 134.6 199.699 133.2C199.699 131.8 200.799 130.7 202.199 130.7C203.599 130.7 204.699 131.8 204.699 133.2Z" fill="white"/>
<path opacity="0.14" d="M222.899 133.2C222.899 134.6 221.799 135.7 220.399 135.7C218.999 135.7 217.899 134.6 217.899 133.2C217.899 131.8 218.999 130.7 220.399 130.7C221.799 130.7 222.899 131.8 222.899 133.2Z" fill="white"/>
<path d="M228.299 169.2H114.599C112.499 169.2 110.699 167.5 110.699 165.3V156.5C110.699 154.4 112.399 152.6 114.599 152.6H228.399C230.499 152.6 232.299 154.3 232.299 156.5V165.3C232.199 167.4 230.499 169.2 228.299 169.2Z" fill="#C2C3C9"/>
<path d="M148.099 169.2H114.599C112.499 169.2 110.699 167.5 110.699 165.3V156.5C110.699 154.4 112.399 152.6 114.599 152.6H148.099V169.2Z" fill="#211915"/>
<path d="M185.499 165.5C187.818 165.5 189.699 163.619 189.699 161.3C189.699 158.98 187.818 157.1 185.499 157.1C183.179 157.1 181.299 158.98 181.299 161.3C181.299 163.619 183.179 165.5 185.499 165.5Z" fill="#3B4459"/>
<path d="M202.899 165.5C205.219 165.5 207.099 163.619 207.099 161.3C207.099 158.98 205.219 157.1 202.899 157.1C200.58 157.1 198.699 158.98 198.699 161.3C198.699 163.619 200.58 165.5 202.899 165.5Z" fill="#3B4459"/>
<path d="M224.599 161.3C224.599 163.6 222.699 165.5 220.399 165.5C218.099 165.5 216.199 163.6 216.199 161.3C216.199 159 218.099 157.1 220.399 157.1C222.699 157.1 224.599 159 224.599 161.3Z" fill="#E6B54A"/>
<path opacity="0.14" d="M138.5 160.9H116C114.1 160.9 112.6 159.4 112.6 157.5C112.6 155.6 114.1 154.1 116 154.1H138.5C140.4 154.1 141.9 155.6 141.9 157.5C141.9 159.4 140.4 160.9 138.5 160.9Z" fill="white"/>
<path opacity="0.14" d="M187.199 160C187.199 161.4 186.099 162.5 184.699 162.5C183.299 162.5 182.199 161.4 182.199 160C182.199 158.6 183.299 157.5 184.699 157.5C185.999 157.5 187.199 158.6 187.199 160Z" fill="white"/>
<path opacity="0.14" d="M204.699 160C204.699 161.4 203.599 162.5 202.199 162.5C200.799 162.5 199.699 161.4 199.699 160C199.699 158.6 200.799 157.5 202.199 157.5C203.599 157.5 204.699 158.6 204.699 160Z" fill="white"/>
<path opacity="0.14" d="M222.899 160C222.899 161.4 221.799 162.5 220.399 162.5C218.999 162.5 217.899 161.4 217.899 160C217.899 158.6 218.999 157.5 220.399 157.5C221.799 157.5 222.899 158.6 222.899 160Z" fill="white"/>
<path d="M228.299 195.999H114.599C112.499 195.999 110.699 194.299 110.699 192.099V183.299C110.699 181.199 112.399 179.399 114.599 179.399H228.399C230.499 179.399 232.299 181.099 232.299 183.299V192.099C232.199 194.199 230.499 195.999 228.299 195.999Z" fill="#C2C3C9"/>
<path d="M148.099 195.999H114.599C112.499 195.999 110.699 194.299 110.699 192.099V183.299C110.699 181.199 112.399 179.399 114.599 179.399H148.099V195.999Z" fill="#211915"/>
<path d="M189.699 188C189.699 190.3 187.799 192.2 185.499 192.2C183.199 192.2 181.299 190.3 181.299 188C181.299 185.7 183.199 183.8 185.499 183.8C187.799 183.8 189.699 185.7 189.699 188Z" fill="#BF0411"/>
<path d="M207.099 188C207.099 190.3 205.199 192.2 202.899 192.2C200.599 192.2 198.699 190.3 198.699 188C198.699 185.7 200.599 183.8 202.899 183.8C205.199 183.8 207.099 185.7 207.099 188Z" fill="#4F8E3A"/>
<path d="M224.599 188C224.599 190.3 222.699 192.2 220.399 192.2C218.099 192.2 216.199 190.3 216.199 188C216.199 185.7 218.099 183.8 220.399 183.8C222.699 183.8 224.599 185.7 224.599 188Z" fill="#3B4459"/>
<path opacity="0.14" d="M138.5 187.699H116C114.1 187.699 112.6 186.199 112.6 184.299C112.6 182.399 114.1 180.899 116 180.899H138.5C140.4 180.899 141.9 182.399 141.9 184.299C141.9 186.099 140.4 187.699 138.5 187.699Z" fill="white"/>
<path opacity="0.14" d="M187.199 186.8C187.199 188.2 186.099 189.3 184.699 189.3C183.299 189.3 182.199 188.2 182.199 186.8C182.199 185.4 183.299 184.3 184.699 184.3C185.999 184.2 187.199 185.4 187.199 186.8Z" fill="white"/>
<path opacity="0.14" d="M204.699 186.8C204.699 188.2 203.599 189.3 202.199 189.3C200.799 189.3 199.699 188.2 199.699 186.8C199.699 185.4 200.799 184.3 202.199 184.3C203.599 184.2 204.699 185.4 204.699 186.8Z" fill="white"/>
<path opacity="0.14" d="M222.899 186.8C222.899 188.2 221.799 189.3 220.399 189.3C218.999 189.3 217.899 188.2 217.899 186.8C217.899 185.4 218.999 184.3 220.399 184.3C221.799 184.2 222.899 185.4 222.899 186.8Z" fill="white"/>
<path d="M228.299 222.7H114.599C112.499 222.7 110.699 221 110.699 218.8V210C110.699 207.9 112.399 206.1 114.599 206.1H228.399C230.499 206.1 232.299 207.8 232.299 210V218.8C232.199 221 230.499 222.7 228.299 222.7Z" fill="#C2C3C9"/>
<path d="M148.099 222.7H114.599C112.499 222.7 110.699 221 110.699 218.8V210C110.699 207.9 112.399 206.1 114.599 206.1H148.099V222.7Z" fill="#211915"/>
<path d="M189.699 214.8C189.699 217.1 187.799 219 185.499 219C183.199 219 181.299 217.1 181.299 214.8C181.299 212.5 183.199 210.6 185.499 210.6C187.799 210.6 189.699 212.5 189.699 214.8Z" fill="#BF0411"/>
<path d="M207.099 214.8C207.099 217.1 205.199 219 202.899 219C200.599 219 198.699 217.1 198.699 214.8C198.699 212.5 200.599 210.6 202.899 210.6C205.199 210.6 207.099 212.5 207.099 214.8Z" fill="#3B4459"/>
<path d="M224.599 214.8C224.599 217.1 222.699 219 220.399 219C218.099 219 216.199 217.1 216.199 214.8C216.199 212.5 218.099 210.6 220.399 210.6C222.699 210.6 224.599 212.5 224.599 214.8Z" fill="#E6B54A"/>
<path opacity="0.14" d="M138.5 214.4H116C114.1 214.4 112.6 212.9 112.6 211C112.6 209.1 114.1 207.6 116 207.6H138.5C140.4 207.6 141.9 209.1 141.9 211C141.9 212.9 140.4 214.4 138.5 214.4Z" fill="white"/>
<path opacity="0.14" d="M187.199 213.5C187.199 214.9 186.099 216 184.699 216C183.299 216 182.199 214.9 182.199 213.5C182.199 212.1 183.299 211 184.699 211C185.999 211 187.199 212.1 187.199 213.5Z" fill="white"/>
<path opacity="0.14" d="M204.699 213.5C204.699 214.9 203.599 216 202.199 216C200.799 216 199.699 214.9 199.699 213.5C199.699 212.1 200.799 211 202.199 211C203.599 211 204.699 212.1 204.699 213.5Z" fill="white"/>
<path opacity="0.14" d="M222.899 213.5C222.899 214.9 221.799 216 220.399 216C218.999 216 217.899 214.9 217.899 213.5C217.899 212.1 218.999 211 220.399 211C221.799 211 222.899 212.1 222.899 213.5Z" fill="white"/>
<path d="M228.299 249.499H114.599C112.499 249.499 110.699 247.799 110.699 245.599V236.799C110.699 234.699 112.399 232.899 114.599 232.899H228.399C230.499 232.899 232.299 234.599 232.299 236.799V245.599C232.199 247.699 230.499 249.499 228.299 249.499Z" fill="#C2C3C9"/>
<path d="M148.099 249.499H114.599C112.499 249.499 110.699 247.799 110.699 245.599V236.799C110.699 234.699 112.399 232.899 114.599 232.899H148.099V249.499Z" fill="#211915"/>
<path d="M185.499 245.799C187.818 245.799 189.699 243.919 189.699 241.599C189.699 239.28 187.818 237.399 185.499 237.399C183.179 237.399 181.299 239.28 181.299 241.599C181.299 243.919 183.179 245.799 185.499 245.799Z" fill="#BF0411"/>
<path d="M202.899 245.799C205.219 245.799 207.099 243.919 207.099 241.599C207.099 239.28 205.219 237.399 202.899 237.399C200.58 237.399 198.699 239.28 198.699 241.599C198.699 243.919 200.58 245.799 202.899 245.799Z" fill="#3B4459"/>
<path d="M224.599 241.599C224.599 243.899 222.699 245.799 220.399 245.799C218.099 245.799 216.199 243.899 216.199 241.599C216.199 239.299 218.099 237.399 220.399 237.399C222.699 237.399 224.599 239.199 224.599 241.599Z" fill="#E6B54A"/>
<path opacity="0.14" d="M138.5 241.199H116C114.1 241.199 112.6 239.699 112.6 237.799C112.6 235.899 114.1 234.399 116 234.399H138.5C140.4 234.399 141.9 235.899 141.9 237.799C141.9 239.699 140.4 241.199 138.5 241.199Z" fill="white"/>
<path opacity="0.14" d="M187.199 240.3C187.199 241.7 186.099 242.8 184.699 242.8C183.299 242.8 182.199 241.7 182.199 240.3C182.199 238.9 183.299 237.8 184.699 237.8C185.999 237.8 187.199 238.9 187.199 240.3Z" fill="white"/>
<path opacity="0.14" d="M204.699 240.3C204.699 241.7 203.599 242.8 202.199 242.8C200.799 242.8 199.699 241.7 199.699 240.3C199.699 238.9 200.799 237.8 202.199 237.8C203.599 237.8 204.699 238.9 204.699 240.3Z" fill="white"/>
<path opacity="0.14" d="M222.899 240.3C222.899 241.7 221.799 242.8 220.399 242.8C218.999 242.8 217.899 241.7 217.899 240.3C217.899 238.9 218.999 237.8 220.399 237.8C221.799 237.8 222.899 238.9 222.899 240.3Z" fill="white"/>
</g>
<defs>
<clipPath id="clip0">
<rect width="347.1" height="273.9" fill="white"/>
</clipPath>
</defs>
</svg>
