<svg width="16" height="16" viewBox="0 0 16 16" fill="none" xmlns="http://www.w3.org/2000/svg">
<g clip-path="url(#clip0)">
<path d="M13.485 8.31085L9.87391 11.922C9.77987 12.016 9.62752 12.016 9.5335 11.922C9.43945 11.8279 9.43945 11.6756 9.5335 11.5815L12.7337 8.38138H2.24075C2.10768 8.38138 2 8.2737 2 8.14063C2 8.00756 2.10768 7.89988 2.24075 7.89988H12.7337L9.5335 4.69974C9.43945 4.60569 9.43945 4.45334 9.5335 4.35932C9.58051 4.31231 9.64213 4.28879 9.70372 4.28879C9.76531 4.28879 9.8269 4.31231 9.87394 4.35932L13.485 7.97043C13.5791 8.06446 13.5791 8.2168 13.485 8.31085Z" fill="#009BDE" stroke="#009BDE" stroke-width="0.8"/>
</g>
<defs>
<clipPath id="clip0">
<rect width="12" height="8" fill="white" transform="matrix(1 0 0 -1 2 12)"/>
</clipPath>
</defs>
</svg>
