<svg width="16" height="16" viewBox="0 0 16 16" fill="none" xmlns="http://www.w3.org/2000/svg">
<path d="M15.7443 7.47286L9.9661 1.7529C9.80115 1.58962 9.58132 1.5 9.34691 1.5C9.11225 1.5 8.89254 1.58975 8.7276 1.7529L8.20299 2.27234C8.03818 2.43536 7.94738 2.65311 7.94738 2.88528C7.94738 3.11731 8.03818 3.3424 8.20299 3.50542L11.5739 6.84963H0.864383C0.381525 6.84963 0 7.22382 0 7.70193V8.43629C0 8.9144 0.381525 9.32633 0.864383 9.32633H11.6121L8.20312 12.6892C8.03831 12.8525 7.94751 13.0643 7.94751 13.2965C7.94751 13.5284 8.03831 13.7433 8.20312 13.9064L8.72773 14.4242C8.89267 14.5875 9.11238 14.6765 9.34704 14.6765C9.58145 14.6765 9.80128 14.5863 9.96623 14.4231L15.7444 8.70323C15.9097 8.53943 16.0006 8.32079 16 8.08836C16.0005 7.85517 15.9097 7.63639 15.7443 7.47286Z" fill="#009BDE"/>
</svg>
