<svg width="14" height="24" viewBox="0 0 14 24" fill="none" xmlns="http://www.w3.org/2000/svg">
<path fill-rule="evenodd" clip-rule="evenodd" d="M13.6199 12.9365L3.01517 23.6166C2.76989 23.8638 2.44247 24 2.09335 24C1.74424 24 1.41682 23.8638 1.17154 23.6166L0.390579 22.8303C-0.1176 22.3179 -0.1176 21.4851 0.390579 20.9735L9.29562 12.005L0.380698 3.02651C0.135424 2.77929 0 2.44974 0 2.09832C0 1.74652 0.135424 1.41696 0.380698 1.16955L1.16166 0.383411C1.40713 0.136194 1.73435 0 2.08347 0C2.43259 0 2.76001 0.136194 3.00529 0.383411L13.6199 11.0733C13.8657 11.3213 14.0008 11.6524 14 12.0044C14.0008 12.3578 13.8657 12.6887 13.6199 12.9365Z" fill="white"/>
</svg>
