<svg width="24" height="24" viewBox="0 0 24 24" fill="none" xmlns="http://www.w3.org/2000/svg">
<path d="M23.6164 11.2093L14.9491 2.62935C14.7017 2.38443 14.372 2.25 14.0204 2.25C13.6684 2.25 13.3388 2.38463 13.0914 2.62935L12.3045 3.40852C12.0573 3.65305 11.9211 3.97966 11.9211 4.32791C11.9211 4.67597 12.0573 5.0136 12.3045 5.25813L17.3608 10.2744H1.29657C0.572288 10.2744 0 10.8357 0 11.5529V12.6544C0 13.3716 0.572288 13.9895 1.29657 13.9895H17.4182L12.3047 19.0338C12.0575 19.2787 11.9213 19.5965 11.9213 19.9447C11.9213 20.2926 12.0575 20.6149 12.3047 20.8597L13.0916 21.6363C13.339 21.8812 13.6686 22.0147 14.0206 22.0147C14.3722 22.0147 14.7019 21.8795 14.9493 21.6346L23.6166 13.0548C23.8646 12.8092 24.001 12.4812 24 12.1325C24.0008 11.7828 23.8646 11.4546 23.6164 11.2093Z" fill="white"/>
</svg>
