<svg width="80" height="80" viewBox="0 0 80 80" fill="none" xmlns="http://www.w3.org/2000/svg">
<path d="M29.6634 59.2362H7.79876H7.19141V58.7414V21.2586V20.7638H7.79876H29.6634V21.8771H8.28464V58.2466H29.6634V59.2362Z" fill="#08ACB3"/>
<path d="M7.20071 58.7836C7.20071 57.945 6.83457 57.2261 6.34639 56.7469C5.8582 56.2676 5.00388 55.9082 4.27161 55.9082C3.41729 55.9082 2.68501 56.2676 2.19683 56.7469C1.70864 57.2261 1.3425 58.0648 1.3425 58.7836C1.3425 59.6223 1.70864 60.3412 2.19683 60.8204C2.68501 61.2996 3.53933 61.6591 4.27161 61.6591H27.2162V60.8204H28.3147V62.2581V62.8572H27.8265H4.14956C3.05115 62.8572 1.95273 62.3779 1.22046 61.6591C0.488184 60.9402 0 59.9817 0 58.7836C0 57.7053 0.488184 56.627 1.22046 55.9082C1.95273 55.1893 2.9291 54.7101 4.14956 54.7101C5.24797 54.7101 6.34639 55.1893 7.07866 55.9082C7.81094 56.627 8.29912 57.5855 8.29912 58.7836H7.20071Z" fill="#08ACB3"/>
<path d="M7.23046 21.344C7.23046 20.479 6.87355 19.7376 6.39768 19.2434C5.9218 18.7491 5.08902 18.3785 4.3752 18.3785C3.54242 18.3785 2.8286 18.7491 2.35272 19.2434C1.87685 19.7376 1.51994 20.6026 1.51994 21.344V58.7836H0.449219V21.344C0.449219 20.2319 0.925095 19.1198 1.63891 18.3785C2.35272 17.6371 3.30448 17.1428 4.49417 17.1428C5.56489 17.1428 6.63561 17.6371 7.34943 18.3785C8.06324 19.1198 8.53912 20.1083 8.53912 21.344H7.23046Z" fill="#08ACB3"/>
<path d="M41.1376 23.4795V50.9382L41.7697 54.0444H42.2753L42.9073 50.9382V23.4795H44.045V51.0625V51.1867L43.2865 54.7899V55.1627H42.7809H41.264H40.8848L40.7584 54.7899L40 51.1867V51.0625V23.4795H41.1376Z" fill="#08ACB3"/>
<path d="M40 23.4796V21.3155C40 21.0609 40 20.8063 40.1199 20.5517C40.2397 20.2971 40.3596 20.0425 40.4794 19.9152C40.7191 19.6606 40.839 19.5333 41.0787 19.5333C41.3184 19.406 41.5581 19.406 41.7978 19.406C42.0375 19.406 42.2772 19.406 42.5169 19.5333C42.7566 19.6606 42.9963 19.7879 43.1161 19.9152C43.3558 20.1698 43.4757 20.2971 43.4757 20.5517C43.5955 20.8063 43.5955 21.0609 43.5955 21.3155V23.4796H42.5169V21.3155C42.5169 21.1882 42.5169 21.0609 42.397 20.9336C42.397 20.8063 42.2772 20.679 42.1573 20.679C42.0375 20.5517 42.0375 20.5517 41.9176 20.4244C41.7978 20.4244 41.6779 20.2971 41.5581 20.2971C41.4382 20.2971 41.3184 20.2971 41.1985 20.4244C41.0787 20.4244 40.9588 20.5517 40.9588 20.679C40.839 20.8063 40.839 20.8063 40.7191 20.9336C40.7191 21.0609 40.5993 21.1882 40.5993 21.3155V23.4796H40Z" fill="#08ACB3"/>
<path d="M40.4492 50.1838H43.5953V51.0891H40.4492V50.1838Z" fill="#08ACB3"/>
<path d="M40.4492 47.4681H43.5953V48.3734H40.4492V47.4681Z" fill="#08ACB3"/>
<path d="M41.3486 54.7101H42.2475V56.9732H41.3486V54.7101Z" fill="#08ACB3"/>
<path fill-rule="evenodd" clip-rule="evenodd" d="M32.3678 62.8571H37.7447H38.2023V62.2393V17.637V17.1428H37.7447H32.3678H31.9102V17.637V62.3629V62.8571H32.3678ZM37.2875 61.7452H32.9402V18.2549H37.2875V61.7452Z" fill="#08ACB3"/>
<path d="M34.1572 20.7638H35.5055V21.669H34.1572V20.7638Z" fill="#08ACB3"/>
<path d="M32.3594 24.3848H34.6066V25.29H32.3594V24.3848Z" fill="#08ACB3"/>
<path d="M32.3594 27.1003H34.6066V28.0056H32.3594V27.1003Z" fill="#08ACB3"/>
<path d="M32.3594 30.2687H34.6066V31.1739H32.3594V30.2687Z" fill="#08ACB3"/>
<path d="M32.3594 32.9845H34.6066V33.8897H32.3594V32.9845Z" fill="#08ACB3"/>
<path d="M32.3594 35.7002H34.6066V36.6054H32.3594V35.7002Z" fill="#08ACB3"/>
<path d="M32.3594 38.4159H34.6066V39.3211H32.3594V38.4159Z" fill="#08ACB3"/>
<path d="M32.3594 41.5841H34.6066V42.4893H32.3594V41.5841Z" fill="#08ACB3"/>
<path d="M32.3594 44.2998H34.6066V45.205H32.3594V44.2998Z" fill="#08ACB3"/>
<path d="M32.3594 47.4681H34.6066V48.3734H32.3594V47.4681Z" fill="#08ACB3"/>
<path d="M32.3594 50.1838H34.6066V51.0891H32.3594V50.1838Z" fill="#08ACB3"/>
<path d="M32.3594 53.3522H34.6066V54.2574H32.3594V53.3522Z" fill="#08ACB3"/>
<path d="M32.3594 55.6152H34.6066V56.5205H32.3594V55.6152Z" fill="#08ACB3"/>
<path d="M32.3594 58.7836H34.6066V59.6888H32.3594V58.7836Z" fill="#08ACB3"/>
<path d="M19.3252 39.3212H20.2241V40.679H19.3252V39.3212Z" fill="#08ACB3"/>
<path fill-rule="evenodd" clip-rule="evenodd" d="M14.3056 40.6019L19.4024 45.7347L19.7753 46.1103L20.1483 45.7347L25.2451 40.6019L25.618 40.2263L25.2451 39.8507L20.1483 34.7179L19.7753 34.3423L19.4024 34.7179L14.3056 39.8507L13.9326 40.2263L14.3056 40.6019ZM19.7752 44.4828L15.5485 40.2263L19.8995 35.8446L24.0018 40.2263L19.7752 44.4828Z" fill="#08ACB3"/>
<path d="M13.377 38.4159L11.2796 36.3534L10.7861 35.9895L11.2796 35.5042L19.7925 27.0118L20.286 26.6478L20.6562 27.0118L29.2924 35.5042L29.6626 35.9895L29.2924 36.3534L27.0717 38.4159L26.3314 37.6879L28.0587 35.9895L20.286 28.225L12.39 35.9895L14.1173 37.6879L13.377 38.4159Z" fill="#08ACB3"/>
<path d="M14.1173 41.4068L12.39 43.2266L20.286 50.8697L28.0587 43.2266L26.3314 41.4068L27.0717 40.6788L29.2924 42.8626L29.6626 43.2266L29.2924 43.5905L20.6562 52.0829L20.286 52.4469L19.7925 52.0829L11.2796 43.5905L10.7861 43.2266L11.2796 42.8626L13.377 40.6788L14.1173 41.4068Z" fill="#08ACB3"/>
<path d="M16.6289 53.8048H17.9772V54.71H16.6289V53.8048Z" fill="#08ACB3"/>
<path d="M19.3252 53.8048H20.6735V54.71H19.3252V53.8048Z" fill="#08ACB3"/>
<path d="M22.4727 53.8048H23.821V54.71H22.4727V53.8048Z" fill="#08ACB3"/>
<path d="M58.876 35.7002H59.7749V37.058H58.876V35.7002Z" fill="#08ACB3"/>
<path d="M58.876 32.5319H59.7749V33.8897H58.876V32.5319Z" fill="#08ACB3"/>
<path d="M58.876 29.8162H59.7749V31.174H58.876V29.8162Z" fill="#08ACB3"/>
<path d="M58.876 26.6478H59.7749V28.0057H58.876V26.6478Z" fill="#08ACB3"/>
<path d="M58.876 37.9633H59.7749V39.3211H58.876V37.9633Z" fill="#08ACB3"/>
<path d="M58.876 40.6788H59.7749V42.0367H58.876V40.6788Z" fill="#08ACB3"/>
<path d="M58.876 43.8472H59.7749V45.205H58.876V43.8472Z" fill="#08ACB3"/>
<path d="M58.876 47.0155H59.7749V48.3734H58.876V47.0155Z" fill="#08ACB3"/>
<path d="M58.876 49.2787H59.7749V50.6365H58.876V49.2787Z" fill="#08ACB3"/>
<path d="M58.876 51.9944H59.7749V53.3522H58.876V51.9944Z" fill="#08ACB3"/>
<path d="M58.876 55.1627H59.7749V56.5206H58.876V55.1627Z" fill="#08ACB3"/>
<path d="M61.5732 35.7002H62.4721V37.058H61.5732V35.7002Z" fill="#08ACB3"/>
<path d="M64.7188 35.7002H65.6176V37.058H64.7188V35.7002Z" fill="#08ACB3"/>
<path d="M61.5732 32.5319H62.4721V33.8897H61.5732V32.5319Z" fill="#08ACB3"/>
<path d="M61.5732 29.8162H62.4721V31.174H61.5732V29.8162Z" fill="#08ACB3"/>
<path d="M61.5732 26.6478H62.4721V28.0057H61.5732V26.6478Z" fill="#08ACB3"/>
<path d="M61.5732 24.3848H62.4721V25.7426H61.5732V24.3848Z" fill="#08ACB3"/>
<path d="M61.5732 37.9633H62.4721V39.3211H61.5732V37.9633Z" fill="#08ACB3"/>
<path d="M61.5732 40.6788H62.4721V42.0367H61.5732V40.6788Z" fill="#08ACB3"/>
<path d="M61.5732 43.8472H62.4721V45.205H61.5732V43.8472Z" fill="#08ACB3"/>
<path d="M61.5732 47.0155H62.4721V48.3734H61.5732V47.0155Z" fill="#08ACB3"/>
<path d="M61.5732 49.2787H62.4721V50.6365H61.5732V49.2787Z" fill="#08ACB3"/>
<path d="M61.5732 51.9944H62.4721V53.3522H61.5732V51.9944Z" fill="#08ACB3"/>
<path d="M61.5732 55.1627H62.4721V56.5206H61.5732V55.1627Z" fill="#08ACB3"/>
<path d="M64.7188 32.5319H65.6176V33.8897H64.7188V32.5319Z" fill="#08ACB3"/>
<path d="M56.6299 35.7002H57.5288V37.058H56.6299V35.7002Z" fill="#08ACB3"/>
<path d="M56.6299 32.5319H57.5288V33.8897H56.6299V32.5319Z" fill="#08ACB3"/>
<path d="M56.6299 29.8162H57.5288V31.174H56.6299V29.8162Z" fill="#08ACB3"/>
<path d="M56.6299 26.6478H57.5288V28.0057H56.6299V26.6478Z" fill="#08ACB3"/>
<path d="M56.6299 37.9633H57.5288V39.3211H56.6299V37.9633Z" fill="#08ACB3"/>
<path d="M56.6299 40.6788H57.5288V42.0367H56.6299V40.6788Z" fill="#08ACB3"/>
<path d="M56.6299 43.8472H57.5288V45.205H56.6299V43.8472Z" fill="#08ACB3"/>
<path d="M56.6299 47.0155H57.5288V48.3734H56.6299V47.0155Z" fill="#08ACB3"/>
<path d="M56.6299 49.2787H57.5288V50.6365H56.6299V49.2787Z" fill="#08ACB3"/>
<path d="M56.6299 51.9944H57.5288V53.3522H56.6299V51.9944Z" fill="#08ACB3"/>
<path d="M56.6299 55.1627H57.5288V56.5206H56.6299V55.1627Z" fill="#08ACB3"/>
<path d="M53.4834 37.9633H54.3823V39.3211H53.4834V37.9633Z" fill="#08ACB3"/>
<path d="M53.4834 40.6788H54.3823V42.0367H53.4834V40.6788Z" fill="#08ACB3"/>
<path d="M53.4834 43.8472H54.3823V45.205H53.4834V43.8472Z" fill="#08ACB3"/>
<path d="M53.4834 47.0155H54.3823V48.3734H53.4834V47.0155Z" fill="#08ACB3"/>
<path d="M53.4834 49.2787H54.3823V50.6365H53.4834V49.2787Z" fill="#08ACB3"/>
<path d="M53.4834 51.9944H54.3823V53.3522H53.4834V51.9944Z" fill="#08ACB3"/>
<path d="M53.4834 55.1627H54.3823V56.5206H53.4834V55.1627Z" fill="#08ACB3"/>
<path d="M50.7861 37.9633H51.685V39.3211H50.7861V37.9633Z" fill="#08ACB3"/>
<path d="M50.7861 40.6788H51.685V42.0367H50.7861V40.6788Z" fill="#08ACB3"/>
<path d="M67.2203 33.9581V30.7434L64.6664 28.7651L64.4232 28.6415V28.3942V18.2556L54.3293 25.0559V32.598V32.8453L54.0861 33.0926L48.7351 36.4309V42.4894H47.6406V36.1836V35.8127L47.8839 35.6891L53.2348 32.3507V24.8086V24.5613L53.478 24.314L63.9368 17.2665L64.0584 17.1428H64.3016H64.9097H65.5177V17.761V28.0233L68.0716 30.0016L68.3148 30.2488V30.4961V33.9581H67.2203Z" fill="#08ACB3"/>
<path d="M75.7723 58.7836V39.5269H65.8001V58.7836H64.7188V39.0331V38.4159H65.1993H76.2529H76.8536V39.0331V58.7836H75.7723Z" fill="#08ACB3"/>
<path d="M73.1278 39.3211V36.8641H68.8949V39.3211H67.8652V36.3468V35.7002H68.3228H73.5854H74.1574V36.3468V39.3211H73.1278Z" fill="#08ACB3"/>
<path d="M67.8652 40.6788H75.0563V41.5841H67.8652V40.6788Z" fill="#08ACB3"/>
<path d="M67.8652 43.8472H75.0563V44.7524H67.8652V43.8472Z" fill="#08ACB3"/>
<path d="M67.8652 47.0155H75.0563V47.9207H67.8652V47.0155Z" fill="#08ACB3"/>
<path d="M67.8652 49.7313H75.0563V50.6366H67.8652V49.7313Z" fill="#08ACB3"/>
<path d="M67.8652 52.8997H75.0563V53.8049H67.8652V52.8997Z" fill="#08ACB3"/>
<path d="M67.8652 55.6152H75.0563V55.9773H67.8652V55.6152Z" fill="#08ACB3"/>
<path fill-rule="evenodd" clip-rule="evenodd" d="M47.8182 44.8497C47.1487 46.6235 45.3936 51.2732 45.3936 53.112C45.3936 54.1219 45.8596 55.0056 46.3257 55.5105C46.9083 56.1417 47.6075 56.5204 48.5396 56.5204C49.3553 56.5204 50.1709 56.1417 50.7535 55.5105C51.3361 54.8793 51.6857 54.1219 51.6857 53.112C51.6857 50.7135 49.0057 44.1492 49.0057 44.1492C48.8892 43.8967 48.5396 43.7705 48.3066 43.8967C48.1901 43.8967 48.0735 44.0229 48.0735 44.1492C48.0735 44.1732 47.976 44.4316 47.8182 44.8497ZM46.5584 53.1122C46.5584 51.7235 47.9566 47.8102 48.6557 45.9166C49.3549 47.8102 50.7531 51.5973 50.7531 53.1122C50.7531 53.7433 50.5201 54.3745 50.1705 54.7532C49.821 55.132 49.2384 55.3844 48.6557 55.3844C48.0731 55.3844 47.4905 55.132 47.141 54.7532C46.7914 54.3745 46.5584 53.7433 46.5584 53.1122Z" fill="#08ACB3"/>
<rect x="47.6406" y="51.9944" width="0.898878" height="6.33663" fill="#08ACB3"/>
<path d="M38.2021 58.3309H78.2022V59.2362H38.2021V58.3309Z" fill="#08ACB3"/>
<path d="M37.7529 61.4993H80.0002V62.4045H37.7529V61.4993Z" fill="#08ACB3"/>
<path d="M40.4492 36.6053H43.5953V37.5106H40.4492V36.6053Z" fill="#08ACB3"/>
<path d="M40.4492 23.0269H43.5953V23.9321H40.4492V23.0269Z" fill="#08ACB3"/>
<path d="M58.876 24.3848H59.7749V25.7426H58.876V24.3848Z" fill="#08ACB3"/>
<path d="M58.876 35.7002H59.7749V37.058H58.876V35.7002Z" fill="#08ACB3"/>
<path d="M58.876 43.8472H59.7749V45.205H58.876V43.8472Z" fill="#08ACB3"/>
</svg>
