<svg width="16" height="16" viewBox="0 0 16 16" fill="none" xmlns="http://www.w3.org/2000/svg">
<g clip-path="url(#clip0)">
<path d="M10.3097 0.0924075C10.2363 0.0151368 10.1358 -0.03125 10.0315 -0.03125H3.78992C2.63819 -0.03125 1.6875 0.915651 1.6875 2.06726V13.8701C1.6875 15.0219 2.63819 15.9688 3.78992 15.9688H12.2614C13.4131 15.9688 14.3638 15.0219 14.3638 13.8701V4.49818C14.3638 4.39771 14.3174 4.30116 14.2517 4.22767L10.3097 0.0924075ZM10.4218 1.33301L13.0614 4.10401H11.3455C10.8353 4.10401 10.4218 3.69434 10.4218 3.18421V1.33301ZM12.2614 15.1958H3.78992C3.06726 15.1958 2.46045 14.5968 2.46045 13.8701V2.06726C2.46045 1.34461 3.06336 0.741701 3.78992 0.741701H9.64882V3.18421C9.64882 4.1233 10.4064 4.87696 11.3455 4.87696H13.5908V13.8701C13.5908 14.5968 12.9879 15.1958 12.2614 15.1958Z" fill="#0092D6"/>
<path d="M11.2068 12.5291H4.84546C4.63293 12.5291 4.45898 12.7029 4.45898 12.9156C4.45898 13.1281 4.63293 13.3021 4.84546 13.3021H11.2107C11.4232 13.3021 11.5972 13.1281 11.5972 12.9156C11.5972 12.7029 11.4232 12.5291 11.2068 12.5291Z" fill="#0092D6"/>
<path d="M7.74345 11.1417C7.81694 11.219 7.9174 11.2654 8.02555 11.2654C8.13383 11.2654 8.23429 11.219 8.30766 11.1417L10.5724 8.71082C10.7193 8.55616 10.7077 8.30884 10.5531 8.1659C10.3985 8.01905 10.1512 8.03052 10.0082 8.18519L8.41203 9.89722V5.677C8.41203 5.46436 8.23808 5.29053 8.02555 5.29053C7.81303 5.29053 7.63908 5.46436 7.63908 5.677V9.89722L6.04679 8.18519C5.89994 8.03064 5.65641 8.01905 5.50187 8.1659C5.34733 8.31275 5.33573 8.55628 5.48258 8.71082L7.74345 11.1417Z" fill="#0092D6"/>
</g>
<defs>
<clipPath id="clip0">
<rect width="16" height="16" fill="white"/>
</clipPath>
</defs>
</svg>
