<svg width="112" height="112" viewBox="0 0 112 112" fill="none" xmlns="http://www.w3.org/2000/svg">
<path d="M64.6924 61.9432H66.1969V81H64.6924V61.9432Z" fill="#016CB1"/>
<path fill-rule="evenodd" clip-rule="evenodd" d="M81.5762 82.0029L80.0717 80.4985L79.9045 80.3313H79.5702H61.3493H60.6807V81V82.6716C60.6807 83.1731 60.8478 83.6746 61.015 84.1761C61.1822 84.6776 61.5165 85.1791 61.8508 85.5134C62.1851 85.8477 62.6866 86.182 63.1881 86.3492C63.6896 86.5164 64.1911 86.6835 64.6926 86.6835H107.821C108.322 86.6835 108.824 86.5164 109.325 86.3492C109.827 86.182 110.328 85.8477 110.663 85.5134C110.997 85.1791 111.331 84.6776 111.499 84.1761C111.666 83.6746 111.833 83.1731 111.833 82.6716V81V80.3313H111.164H92.9434H92.609L92.4419 80.4985L90.9374 82.0029H81.5762ZM79.2359 81.8358L80.7404 83.1731L80.9075 83.5074H81.2419H91.1045H91.4389L91.606 83.3403L93.1105 81.8358H110.328V82.6716C110.328 83.0059 110.328 83.3403 110.161 83.6746C110.161 84.0089 109.827 84.3432 109.66 84.5104C109.493 84.594 109.367 84.6776 109.242 84.7611C109.116 84.8447 108.991 84.9283 108.824 85.0119C108.49 85.1791 108.155 85.1791 107.821 85.1791H64.6926C64.3583 85.1791 64.0239 85.1791 63.6896 85.0119C63.3553 85.0119 63.021 84.6776 62.8538 84.5104C62.7702 84.3432 62.6866 84.2179 62.6031 84.0925C62.5195 83.9671 62.4359 83.8417 62.3523 83.6746C62.1851 83.3403 62.1851 83.0059 62.1851 82.6716V81.8358H79.2359Z" fill="#016CB1"/>
<path d="M106.149 68.6299V54.5881C106.149 54.4209 106.149 54.4209 106.149 54.2538C106.149 54.0866 105.982 54.0866 105.982 53.9194C105.815 53.7523 105.815 53.7523 105.648 53.7523C105.481 53.7523 105.481 53.7523 105.314 53.7523H67.2002C67.033 53.7523 67.033 53.7523 66.8658 53.7523C66.6987 53.7523 66.6987 53.9194 66.5315 53.9194C66.3643 54.0866 66.3643 54.0866 66.3643 54.2538C66.3643 54.4209 66.3643 54.4209 66.3643 54.5881V57.5971L74.7225 65.9553L80.7405 59.9374L81.242 59.4359L81.7434 59.9374L91.1046 69.2985L97.1226 63.2806L97.624 62.7791L98.1255 63.2806L107.152 72.3075L107.32 72.4747V72.809V81.1672H105.815V73.1433L97.4569 64.7851L91.439 70.803L90.9375 71.3045L90.436 70.803L81.0748 61.4418L75.224 67.4597L74.7225 67.9612L74.2211 67.4597L65.027 58.4329L64.8599 58.2657V57.9314V54.5881C64.8599 54.2538 64.8599 53.9194 65.027 53.7523C65.1942 53.418 65.3614 53.2508 65.5285 52.9165C65.6957 52.7493 66.03 52.5821 66.3643 52.415C66.6987 52.2478 67.033 52.2478 67.3673 52.2478H105.314C105.648 52.2478 105.982 52.2478 106.149 52.415C106.484 52.5821 106.651 52.7493 106.985 52.9165C107.152 53.0836 107.32 53.418 107.487 53.7523C107.654 54.0866 107.654 54.4209 107.654 54.5881V68.6299H106.149Z" fill="#016CB1"/>
<path d="M101.97 72.809H103.475V77.8239H101.97V72.809Z" fill="#016CB1"/>
<path d="M98.7939 69.4657H100.298V77.8239H98.7939V69.4657Z" fill="#016CB1"/>
<path d="M95.4507 69.4657H96.9552V77.8239H95.4507V69.4657Z" fill="#016CB1"/>
<path d="M92.1074 72.809H93.6119V77.8239H92.1074V72.809Z" fill="#016CB1"/>
<path d="M88.7642 72.809H90.2686V77.8239H88.7642V72.809Z" fill="#016CB1"/>
<path d="M85.4209 69.4657H86.9254V77.8239H85.4209V69.4657Z" fill="#016CB1"/>
<path d="M82.2446 66.1224H83.7491V77.6568H82.2446V66.1224Z" fill="#016CB1"/>
<path d="M78.9014 66.1224H80.4058V77.6568H78.9014V66.1224Z" fill="#016CB1"/>
<path d="M75.5581 69.4657H77.0626V77.8239H75.5581V69.4657Z" fill="#016CB1"/>
<path d="M72.2148 69.4657H73.7193V77.8239H72.2148V69.4657Z" fill="#016CB1"/>
<path d="M68.8716 66.1224H70.3761V77.6568H68.8716V66.1224Z" fill="#016CB1"/>
<path d="M101.97 56.2596H103.642V57.7641H101.97V56.2596Z" fill="#016CB1"/>
<path d="M98.627 56.2596H100.299V57.7641H98.627V56.2596Z" fill="#016CB1"/>
<path d="M95.2837 56.2596H96.9553V57.7641H95.2837V56.2596Z" fill="#016CB1"/>
<path d="M72.2148 50.4089V48.7373V48.0686L72.8835 47.9014L76.0596 47.2328C76.2268 46.8985 76.2268 46.5641 76.3939 46.2298C76.5611 45.8955 76.7283 45.5611 76.8954 45.2268L74.8895 42.5522L74.5551 42.0507L75.0566 41.5492L77.5641 39.0417L78.0656 38.5402L78.5671 38.8746L81.2417 40.8805C81.576 40.7134 81.9104 40.5462 82.2447 40.3791C82.579 40.2119 82.9134 40.0447 83.2477 40.0447L83.9163 36.8686L84.0835 36.2H84.7522H88.0954H88.7641L88.9313 36.8686L89.5999 40.0447C89.9342 40.2119 90.2686 40.2119 90.6029 40.3791C90.9372 40.5462 91.2716 40.7134 91.6059 40.8805L94.2805 38.8746L94.782 38.5402L95.2835 39.0417L97.791 41.5492L98.2925 42.0507L97.9581 42.5522L95.9522 45.394C96.1193 45.7283 96.2865 46.0626 96.4536 46.397C96.6208 46.7313 96.788 47.0656 96.788 47.4L99.9641 48.0686L100.633 48.2358V48.9044V50.5761H99.1283V49.5731L96.1193 48.9044L95.2835 48.7373L95.1163 48.2358C94.9492 47.7343 94.782 47.4 94.6148 46.8985C94.4477 46.397 94.2805 46.0626 93.9462 45.7283L93.6119 45.2268L93.9462 44.8925L95.785 42.2179L94.2805 40.5462L91.6059 42.385L91.2716 42.7194L90.7701 42.385C90.4357 42.2179 89.9342 41.8835 89.5999 41.7164C89.0984 41.5492 88.7641 41.382 88.2626 41.2149L87.7611 41.0477L87.5939 40.5462L86.9253 37.5373H85.2536L84.585 40.5462L84.4178 41.0477L83.9163 41.2149C83.4148 41.382 83.0805 41.5492 82.579 41.7164C82.0775 41.8835 81.7432 42.0507 81.4089 42.385L80.9074 42.7194L80.5731 42.385L77.8984 40.5462L76.2268 42.2179L78.0656 44.8925L78.3999 45.2268L78.0656 45.7283C77.8984 46.0626 77.5641 46.5641 77.3969 46.8985C77.2298 47.4 77.0626 47.7343 76.8954 48.2358L76.7283 48.7373L76.2268 48.9044L73.2178 49.5731V50.5761H72.2148V50.4089Z" fill="#016CB1"/>
<path d="M92.1073 50.4089C92.1073 48.7373 91.4387 47.2328 90.4357 46.2298C89.4327 45.2268 87.9282 44.5582 86.2566 44.5582C84.5849 44.5582 83.0805 45.2268 82.0775 46.2298C81.0745 47.2328 80.4058 48.7373 80.4058 50.4089H78.9014C78.9014 48.403 79.7372 46.5642 81.0745 45.2268C82.4118 43.8895 84.2506 43.0537 86.2566 43.0537C88.2626 43.0537 90.1014 43.8895 91.4387 45.2268C92.776 46.5642 93.6118 48.403 93.6118 50.4089H92.1073Z" fill="#016CB1"/>
<path d="M87.0925 50.4089C87.0925 50.0746 86.9253 49.9074 86.7582 49.7402C86.591 49.5731 86.4238 49.4059 86.0895 49.4059C85.9223 49.4059 85.588 49.5731 85.4208 49.7402C85.2537 49.9074 85.0865 50.0746 85.0865 50.4089H83.582C83.582 49.7402 83.9164 49.0716 84.2507 48.7373C84.7522 48.2358 85.2537 48.0686 85.9223 48.0686C86.591 48.0686 87.2596 48.4029 87.594 48.7373C88.0955 49.2388 88.2626 49.7402 88.2626 50.4089H87.0925Z" fill="#016CB1"/>
<path d="M23.4028 64.785H28.2506V66.2895H23.4028V64.785Z" fill="#016CB1"/>
<path d="M23.4028 45.394H28.2506V46.8985H23.4028V45.394Z" fill="#016CB1"/>
<path d="M18.5552 78.4926H22.7343V34.1941H18.5552V32.6896H23.4029H24.2388V33.5254V79.1612V79.997H23.4029H18.5552V78.4926Z" fill="#016CB1"/>
<path d="M18.5552 55.0896H23.4029V56.5941H18.5552V55.0896Z" fill="#016CB1"/>
<path d="M2.84188 35.3641V39.2089C2.84188 39.2089 2.84188 39.2089 2.84188 39.3761C2.84188 39.3761 2.84188 39.3761 3.00904 39.3761H14.7105C14.7105 39.3761 14.7105 39.3761 14.8777 39.3761C14.8777 39.3761 14.8777 39.3761 14.8777 39.2089V35.3641H16.3822V39.2089C16.3822 39.3761 16.3822 39.7104 16.215 39.8776C16.0479 40.0447 16.0478 40.2119 15.8807 40.3791C15.7135 40.5462 15.5464 40.7134 15.3792 40.7134C15.212 40.8806 14.8777 40.8806 14.7105 40.8806H3.00904C2.84188 40.8806 2.50755 40.8806 2.34039 40.7134C2.17322 40.7134 2.00606 40.5462 1.83889 40.3791C1.67173 40.2119 1.50457 40.0447 1.50457 39.8776C1.3374 39.7104 1.3374 39.3761 1.3374 39.2089V35.3641H2.84188Z" fill="#016CB1"/>
<path fill-rule="evenodd" clip-rule="evenodd" d="M1.3374 32.5224C1.3374 32.6896 1.3374 33.0239 1.50457 33.191C1.50457 33.3582 1.67173 33.5254 1.83889 33.6925C1.92248 33.7761 2.00606 33.8179 2.08964 33.8597C2.17322 33.9015 2.25681 33.9433 2.34039 34.0269C2.50755 34.194 2.84188 34.194 3.00904 34.194H14.7105C14.8777 34.194 15.212 34.194 15.3792 34.0269C15.5464 34.0269 15.7135 33.8597 15.8807 33.6925C15.9643 33.609 16.0061 33.5254 16.0478 33.4418C16.0896 33.3582 16.1314 33.2746 16.215 33.191C16.3822 33.0239 16.3822 32.6896 16.3822 32.5224V26.6716C16.3822 26.5045 16.3822 26.1701 16.215 26.003C16.215 25.8358 16.0478 25.6687 15.8807 25.5015C15.7135 25.3343 15.5464 25.1672 15.3792 25.1672C15.212 25 14.8777 25 14.7105 25H3.00904C2.84188 25 2.50755 25 2.34039 25.1672C2.17322 25.1672 2.00606 25.3343 1.83889 25.5015C1.75531 25.5851 1.71352 25.6687 1.67173 25.7522C1.62994 25.8358 1.58815 25.9194 1.50457 26.003C1.3374 26.1701 1.3374 26.5045 1.3374 26.6716V32.5224ZM3.00904 32.6896L2.84188 32.5224H3.00904V26.6716V26.5045H3.17621H14.8777H15.0449V26.6716V32.5224V32.6896H14.8777H3.17621H3.00904Z" fill="#016CB1"/>
<path d="M10.8657 28.8447H12.8717V30.3492H10.8657V28.8447Z" fill="#016CB1"/>
<path d="M10.8657 35.6985H12.8717V37.203H10.8657V35.6985Z" fill="#016CB1"/>
<path d="M2.84188 57.7642V61.7761C2.84188 61.7761 2.84188 61.7761 2.84188 61.9433C2.84188 61.9433 2.84188 61.9433 3.00904 61.9433H14.7105C14.7105 61.9433 14.7105 61.9433 14.8777 61.9433C14.8777 61.9433 14.8777 61.9433 14.8777 61.7761V57.9313H16.3822V61.7761C16.3822 61.9433 16.3822 62.2776 16.215 62.4448C16.0479 62.6119 16.0478 62.7791 15.8807 62.9462C15.7135 63.1134 15.5464 63.2806 15.3792 63.2806C15.212 63.4477 14.8777 63.4477 14.7105 63.4477H3.00904C2.84188 63.4477 2.50755 63.4477 2.34039 63.2806C2.17322 63.1134 2.00606 63.1134 1.83889 62.9462C1.67173 62.7791 1.50457 62.6119 1.50457 62.4448C1.3374 62.2776 1.3374 61.9433 1.3374 61.7761V57.9313H2.84188V57.7642Z" fill="#016CB1"/>
<path fill-rule="evenodd" clip-rule="evenodd" d="M1.3374 54.9224C1.3374 55.0896 1.3374 55.4239 1.50457 55.5911C1.50457 55.7582 1.67173 55.9254 1.83889 56.0926C1.92248 56.1761 2.00606 56.2179 2.08964 56.2597C2.17322 56.3015 2.25681 56.3433 2.34039 56.4269C2.50755 56.5941 2.84188 56.5941 3.00904 56.5941H14.7105C14.8777 56.5941 15.212 56.5941 15.3792 56.4269C15.5464 56.4269 15.7135 56.2597 15.8807 56.0926C15.9643 56.009 16.0061 55.9254 16.0478 55.8418C16.0896 55.7582 16.1314 55.6747 16.215 55.5911C16.3822 55.4239 16.3822 55.0896 16.3822 54.9224V49.0717C16.3822 48.9045 16.3822 48.5702 16.215 48.403C16.215 48.2358 16.0478 48.0687 15.8807 47.9015C15.7135 47.7344 15.5464 47.5672 15.3792 47.5672C15.212 47.4 14.8777 47.4 14.7105 47.4H3.00904C2.84188 47.4 2.50755 47.4 2.34039 47.5672C2.17322 47.5672 2.00606 47.7344 1.83889 47.9015C1.75531 47.9851 1.71352 48.0687 1.67173 48.1523C1.62994 48.2358 1.58815 48.3194 1.50457 48.403C1.3374 48.5702 1.3374 48.9045 1.3374 49.0717V54.9224ZM3.00904 55.0896L2.84188 54.9224H3.00904V49.0717V48.9045H3.17621H14.8777H15.0449V49.0717V54.9224V55.0896H14.8777H3.17621H3.00904Z" fill="#016CB1"/>
<path d="M10.8657 51.2448H12.8717V52.7492H10.8657V51.2448Z" fill="#016CB1"/>
<path d="M10.8657 58.0985H12.8717V59.603H10.8657V58.0985Z" fill="#016CB1"/>
<path d="M2.84188 81.1671V85.0119C2.84188 85.0119 2.84188 85.0119 2.84188 85.1791C2.84188 85.1791 2.84188 85.1791 3.00904 85.1791H14.7105C14.7105 85.1791 14.7105 85.1791 14.8777 85.1791C14.8777 85.1791 14.8777 85.1791 14.8777 85.0119V81.1671H16.3822V85.0119C16.3822 85.1791 16.3822 85.5134 16.215 85.6805C16.215 85.8477 16.0478 86.0149 15.8807 86.182C15.7135 86.3492 15.5464 86.5164 15.3792 86.5164C15.212 86.6835 14.8777 86.6835 14.7105 86.6835H3.00904C2.84188 86.6835 2.50755 86.6835 2.34039 86.5164C2.17322 86.3492 2.00606 86.3492 1.83889 86.182C1.67173 86.0149 1.50457 85.8477 1.50457 85.6805C1.3374 85.5134 1.3374 85.1791 1.3374 85.0119V81.1671H2.84188Z" fill="#016CB1"/>
<path fill-rule="evenodd" clip-rule="evenodd" d="M1.3374 78.1583C1.3374 78.3254 1.3374 78.6597 1.50457 78.8269C1.50457 79.1612 1.67173 79.3284 1.83889 79.3284C2.00606 79.4956 2.17322 79.6627 2.34039 79.6627C2.50755 79.8299 2.84188 79.8299 3.00904 79.8299H14.7105C14.8777 79.8299 15.212 79.8299 15.3792 79.6627C15.5464 79.6627 15.7135 79.4956 15.8807 79.3284C16.0478 79.1612 16.215 78.9941 16.215 78.8269C16.3822 78.6597 16.3822 78.3254 16.3822 78.1583V72.3075C16.3822 72.1403 16.3822 71.806 16.215 71.6388C16.215 71.4717 16.0478 71.3045 15.8807 71.1374C15.7135 70.9702 15.5464 70.803 15.3792 70.803C15.212 70.6359 14.8777 70.6359 14.7105 70.6359H3.00904C2.84188 70.6359 2.50755 70.6359 2.34039 70.803C2.17322 70.803 2.00606 70.9702 1.83889 71.1374C1.75531 71.2209 1.71352 71.3045 1.67173 71.3881C1.62994 71.4717 1.58815 71.5553 1.50457 71.6388C1.3374 71.806 1.3374 72.1403 1.3374 72.3075V78.1583ZM3.00904 78.4926L2.84188 78.3254H3.00904V72.4747V72.3075H3.17621H14.8777H15.0449V72.4747V78.3254V78.4926H14.8777H3.17621H3.00904Z" fill="#016CB1"/>
<path d="M10.8657 74.6477H12.8717V76.1522H10.8657V74.6477Z" fill="#016CB1"/>
<path d="M10.8657 81.3344H12.8717V82.8388H10.8657V81.3344Z" fill="#016CB1"/>
<path fill-rule="evenodd" clip-rule="evenodd" d="M59.3431 40.3791C59.3431 38.3731 57.5043 36.7015 54.8296 35.5313C52.3222 34.3612 48.8117 33.6925 44.9669 33.6925C41.1222 33.6925 37.6117 34.3612 35.1043 35.5313C32.2625 36.7015 30.5908 38.3731 30.5908 40.3791C30.5908 42.385 32.4296 44.0567 35.1043 45.2268C37.6117 46.397 41.1222 47.0656 44.9669 47.0656C48.8117 47.0656 52.3222 46.397 54.8296 45.2268C57.6714 44.0567 59.3431 42.385 59.3431 40.3791ZM54.161 36.7015C56.3341 37.7044 57.6714 38.8746 57.6714 40.2119C57.6714 41.5492 56.3341 42.7194 54.161 43.7224C51.8207 44.7253 48.4774 45.394 44.7998 45.394C41.1222 45.394 37.7789 44.7253 35.4386 43.7224C33.2654 42.7194 31.9281 41.5492 31.9281 40.2119C31.9281 38.8746 33.2654 37.7044 35.4386 36.7015C37.7789 35.6985 41.1222 35.0298 44.7998 35.0298C48.4774 35.0298 51.8207 35.6985 54.161 36.7015Z" fill="#016CB1"/>
<path d="M59.1761 40.2119V50.0746C59.1761 52.0806 57.5044 53.7522 54.6626 54.9224C52.1552 56.0925 48.6447 56.7612 44.7999 56.7612C40.9552 56.7612 37.4447 56.0925 34.9373 54.9224C32.2626 53.7522 30.4238 52.0806 30.4238 50.0746V40.3791H31.9283V50.0746C31.9283 51.4119 33.2656 52.5821 35.4388 53.585C37.7791 54.588 41.1223 55.2567 44.7999 55.2567C48.4776 55.2567 51.8208 54.588 54.1611 53.585C56.3343 52.5821 57.6716 51.4119 57.6716 50.0746V40.3791H59.1761V40.2119Z" fill="#016CB1"/>
<path d="M59.1761 50.0746V59.7701C59.1761 61.7761 57.5044 63.4477 54.6626 64.6179C52.1552 65.788 48.6447 66.4567 44.7999 66.4567C40.9552 66.4567 37.4447 65.788 34.9373 64.6179C32.2626 63.4477 30.4238 61.7761 30.4238 59.7701V50.0746H31.9283V59.7701C31.9283 61.1074 33.2656 62.2776 35.4388 63.2806C37.7791 64.2835 41.1223 64.9522 44.7999 64.9522C48.4776 64.9522 51.8208 64.2835 54.1611 63.2806C56.3343 62.2776 57.6716 61.1074 57.6716 59.7701V50.0746H59.1761Z" fill="#016CB1"/>
<path d="M59.1761 59.7701V69.4657C59.1761 71.4716 57.5044 73.1433 54.6626 74.3134C52.1552 75.4836 48.6447 76.1522 44.7999 76.1522C40.9552 76.1522 37.4447 75.4836 34.9373 74.3134C32.2626 73.1433 30.4238 71.4716 30.4238 69.4657V59.7701H31.9283V69.4657C31.9283 70.803 33.2656 71.9731 35.4388 72.9761C37.7791 73.9791 41.1223 74.6478 44.7999 74.6478C48.4776 74.6478 51.8208 73.9791 54.1611 72.9761C56.3343 71.9731 57.6716 70.803 57.6716 69.4657V59.7701H59.1761Z" fill="#016CB1"/>
<path d="M47.8091 50.2418H49.8151V51.7463H47.8091V50.2418Z" fill="#016CB1"/>
<path d="M43.9644 50.2418H45.9703V51.7463H43.9644V50.2418Z" fill="#016CB1"/>
<path d="M39.9521 50.2418H41.9581V51.7463H39.9521V50.2418Z" fill="#016CB1"/>
<path d="M47.8091 59.9373H49.8151V61.4417H47.8091V59.9373Z" fill="#016CB1"/>
<path d="M43.9644 59.9373H45.9703V61.4417H43.9644V59.9373Z" fill="#016CB1"/>
<path d="M39.9521 59.9373H41.9581V61.4417H39.9521V59.9373Z" fill="#016CB1"/>
<path d="M47.8091 69.6328H49.8151V71.1373H47.8091V69.6328Z" fill="#016CB1"/>
<path d="M43.9644 69.6328H45.9703V71.1373H43.9644V69.6328Z" fill="#016CB1"/>
<path d="M39.9521 69.6328H41.9581V71.1373H39.9521V69.6328Z" fill="#016CB1"/>
<path d="M44.1313 34.5283V29.5134V28.8447H44.8H86.2567H86.9254V29.5134V37.2029H85.4209V30.3492H45.6358V34.5283H44.1313Z" fill="#016CB1"/>
<path d="M45.6358 75.3164V85.3463H65.5284V86.8507H44.8H44.1313V86.0149V75.3164H45.6358Z" fill="#016CB1"/>
</svg>
