<svg width="24" height="32" viewBox="0 0 24 32" fill="none" xmlns="http://www.w3.org/2000/svg">
<g id="Group">
<g id="pdf copy 8">
<path id="Shape" fill-rule="evenodd" clip-rule="evenodd" d="M23.8868 6.3838L23.8547 6.35139V6.31899L17.7543 0.162025L17.7222 0.12962C17.7222 0.12962 17.6901 0.12962 17.6901 0.0972152C17.6901 0.0972152 17.658 0.0972152 17.658 0.0648101C17.5617 0 17.4654 0 17.3369 0H2.21453C1.6366 0 1.09078 0.226835 0.705498 0.615696L0.67339 0.648101C0.288106 1.03696 0.03125 1.62025 0.03125 2.20354V29.7803C0.03125 30.3959 0.288106 30.9468 0.67339 31.3357C1.05867 31.7246 1.6366 31.9838 2.21453 31.9838H21.7677C22.3777 31.9838 22.9236 31.7246 23.3088 31.3357C23.6941 30.9468 23.951 30.3635 23.951 29.7803V6.70785C23.951 6.57823 23.9189 6.48101 23.8868 6.3838ZM17.947 2.33316L21.5751 5.99494H18.9102C18.6533 5.99494 18.3965 5.89772 18.2359 5.70329C18.0754 5.54127 17.947 5.28203 17.947 5.02278V2.33316ZM22.3135 30.3635C22.4741 30.2015 22.5704 30.0071 22.5704 29.7803V7.35595H19.0065C18.3644 7.35595 17.7543 7.09671 17.3369 6.67544C16.8874 6.22177 16.6306 5.63848 16.6306 4.99038V1.32861H2.24663C2.05399 1.32861 1.86135 1.42582 1.70082 1.55544L1.66871 1.58785C1.50817 1.74987 1.41185 1.9443 1.41185 2.17114V29.8127C1.41185 30.0395 1.47607 30.2339 1.6366 30.3959C1.79714 30.5256 1.98978 30.6228 2.21453 30.6228H21.7356C21.9603 30.6228 22.153 30.5256 22.3135 30.3635Z" fill="#0F1C49"/>
</g>
<path id="DOC" d="M3.65039 20V13.6016H5.54004C6.10547 13.6016 6.60645 13.7275 7.04297 13.9795C7.48242 14.2314 7.82227 14.5889 8.0625 15.0518C8.30273 15.5146 8.42285 16.0449 8.42285 16.6426V16.9634C8.42285 17.5698 8.30127 18.103 8.05811 18.563C7.81787 19.0229 7.47363 19.3774 7.02539 19.6265C6.58008 19.8755 6.06885 20 5.4917 20H3.65039ZM4.76221 14.498V19.1123H5.4873C6.07031 19.1123 6.51709 18.9307 6.82764 18.5674C7.14111 18.2012 7.30078 17.6768 7.30664 16.9941V16.6382C7.30664 15.9438 7.15576 15.4136 6.854 15.0474C6.55225 14.6812 6.11426 14.498 5.54004 14.498H4.76221ZM14.6367 16.9678C14.6367 17.5947 14.5283 18.1455 14.3115 18.6201C14.0947 19.0918 13.7842 19.4551 13.3799 19.71C12.9785 19.9619 12.5156 20.0879 11.9912 20.0879C11.4727 20.0879 11.0098 19.9619 10.6025 19.71C10.1982 19.4551 9.88477 19.0933 9.66211 18.6245C9.44238 18.1558 9.33105 17.6152 9.32812 17.0029V16.6426C9.32812 16.0186 9.43799 15.4678 9.65771 14.9902C9.88037 14.5127 10.1924 14.1479 10.5938 13.896C10.998 13.6411 11.4609 13.5137 11.9824 13.5137C12.5039 13.5137 12.9653 13.6396 13.3667 13.8916C13.771 14.1406 14.083 14.501 14.3027 14.9727C14.5225 15.4414 14.6338 15.9878 14.6367 16.6118V16.9678ZM13.5249 16.6338C13.5249 15.9248 13.3901 15.3813 13.1206 15.0034C12.854 14.6255 12.4746 14.4365 11.9824 14.4365C11.502 14.4365 11.1255 14.6255 10.853 15.0034C10.5835 15.3784 10.4458 15.9102 10.4399 16.5986V16.9678C10.4399 17.6709 10.5762 18.2144 10.8486 18.5981C11.124 18.9819 11.5049 19.1738 11.9912 19.1738C12.4834 19.1738 12.8613 18.9863 13.125 18.6113C13.3916 18.2363 13.5249 17.6885 13.5249 16.9678V16.6338ZM20.6265 17.917C20.562 18.5996 20.3101 19.1328 19.8706 19.5166C19.4312 19.8975 18.8467 20.0879 18.1172 20.0879C17.6074 20.0879 17.1577 19.9678 16.7681 19.7275C16.3813 19.4844 16.0825 19.1401 15.8716 18.6948C15.6606 18.2495 15.5508 17.7324 15.542 17.1436V16.5459C15.542 15.9424 15.6489 15.4106 15.8628 14.9507C16.0767 14.4907 16.3828 14.1362 16.7812 13.8872C17.1826 13.6382 17.6455 13.5137 18.1699 13.5137C18.876 13.5137 19.4443 13.7056 19.875 14.0894C20.3057 14.4731 20.5562 15.0151 20.6265 15.7153H19.519C19.4663 15.2554 19.3315 14.9243 19.1147 14.7222C18.9009 14.5171 18.5859 14.4146 18.1699 14.4146C17.6865 14.4146 17.3145 14.5918 17.0537 14.9463C16.7959 15.2979 16.6641 15.8149 16.6582 16.4976V17.0645C16.6582 17.7559 16.7812 18.2832 17.0273 18.6465C17.2764 19.0098 17.6396 19.1914 18.1172 19.1914C18.5537 19.1914 18.8818 19.0933 19.1016 18.897C19.3213 18.7007 19.4604 18.374 19.519 17.917H20.6265Z" fill="#0F1C49"/>
</g>
</svg>
