<svg width="24" height="32" viewBox="0 0 24 32" fill="none" xmlns="http://www.w3.org/2000/svg">
<g id="pdf copy">
<path id="Shape" fill-rule="evenodd" clip-rule="evenodd" d="M23.9356 6.38703L23.9034 6.35461V6.32219L17.7826 0.162107L17.7503 0.129686C17.7503 0.129686 17.7181 0.129686 17.7181 0.0972644C17.7181 0.0972644 17.6859 0.0972644 17.6859 0.064843C17.5893 0 17.4926 0 17.3638 0H2.1906C1.61074 0 1.06309 0.22695 0.67651 0.616008L0.644295 0.64843C0.257718 1.03749 0 1.62107 0 2.20466V29.7953C0 30.4113 0.257718 30.9625 0.644295 31.3516C1.03087 31.7406 1.61074 32 2.1906 32H21.8094C22.4215 32 22.9691 31.7406 23.3557 31.3516C23.7423 30.9625 24 30.3789 24 29.7953V6.71125C24 6.58156 23.9678 6.4843 23.9356 6.38703ZM17.9766 2.33434L21.6168 5.99797H18.943C18.6853 5.99797 18.4276 5.90071 18.2665 5.70618C18.1054 5.54407 17.9766 5.2847 17.9766 5.02533V2.33434ZM22.3552 30.3783C22.5163 30.2162 22.613 30.0216 22.613 29.7947V7.35901H19.0371C18.3928 7.35901 17.7807 7.09964 17.362 6.67816C16.9109 6.22426 16.6532 5.64067 16.6532 4.99224V1.32861H2.22101C2.02772 1.32861 1.83444 1.42588 1.67336 1.55556L1.64115 1.58799C1.48007 1.75009 1.38343 1.94462 1.38343 2.17157V29.8271C1.38343 30.054 1.44786 30.2486 1.60893 30.4107C1.77001 30.5404 1.9633 30.6376 2.1888 30.6376H21.7754C22.0009 30.6376 22.1942 30.5404 22.3552 30.3783Z" fill="#0F1C49"/>
<g id="arrow">
<path id="Shape_2" d="M18.574 15.8092C18.5411 15.7763 18.506 15.7455 18.4691 15.7171C18.0183 15.4161 17.4154 15.4818 17.0407 15.8728L14.0546 18.8365C13.8963 18.994 13.7635 19.1751 13.6611 19.3734L13.4886 19.7009V9.15091C13.5114 8.6107 13.1406 8.13253 12.6101 8.01807C12.0224 7.92314 11.4687 8.32071 11.3734 8.90612C11.3634 8.96753 11.3587 9.02968 11.3596 9.09185V19.6794L11.2518 19.4485C11.1445 19.2229 10.9986 19.0176 10.8205 18.8418L7.83444 15.8728C7.45969 15.4818 6.85685 15.4161 6.40607 15.7171C5.92571 16.0675 5.82141 16.7394 6.17315 17.2179C6.20158 17.2565 6.23258 17.2933 6.26593 17.3278L11.656 22.6967C12.0768 23.1163 12.7593 23.1167 13.1806 22.6976C13.1808 22.6973 13.1811 22.697 13.1814 22.6967L18.5715 17.3278C18.9932 16.9092 18.9943 16.2293 18.574 15.8092Z" fill="#0F1C49"/>
</g>
</g>
</svg>
