<svg width="16" height="16" viewBox="0 0 16 16" fill="none" xmlns="http://www.w3.org/2000/svg">
<g id="event">
<path id="Shape" fill-rule="evenodd" clip-rule="evenodd" d="M13.0667 1.06667H14.6667C15.4027 1.06749 15.9992 1.66396 16 2.4V14.6667C15.9992 15.4027 15.4027 15.9992 14.6667 16H1.33333C0.597296 15.9992 0.000826647 15.4027 0 14.6667V2.4C0.000826647 1.66396 0.597296 1.06749 1.33333 1.06667H2.93333V0.8C2.93333 0.358172 3.29151 0 3.73333 0C4.17516 0 4.53333 0.358172 4.53333 0.8V1.06667H7.2V0.8C7.2 0.358172 7.55817 0 8 0C8.44183 0 8.8 0.358172 8.8 0.8V1.06667H11.4667V0.8C11.4667 0.358172 11.8248 0 12.2667 0C12.7085 0 13.0667 0.358172 13.0667 0.8V1.06667ZM12.2667 0.533333C12.1194 0.533333 12 0.652724 12 0.8V2.4C12 2.54728 12.1194 2.66667 12.2667 2.66667C12.4139 2.66667 12.5333 2.54728 12.5333 2.4V0.8C12.5333 0.652724 12.4139 0.533333 12.2667 0.533333ZM7.73333 0.8C7.73333 0.652724 7.85272 0.533333 8 0.533333C8.14728 0.533333 8.26667 0.652724 8.26667 0.8V2.4C8.26667 2.54728 8.14728 2.66667 8 2.66667C7.85272 2.66667 7.73333 2.54728 7.73333 2.4V0.8ZM3.73333 0.533333C3.58606 0.533333 3.46667 0.652724 3.46667 0.8V2.4C3.46667 2.54728 3.58606 2.66667 3.73333 2.66667C3.88061 2.66667 4 2.54728 4 2.4V0.8C4 0.652724 3.88061 0.533333 3.73333 0.533333ZM1.33333 1.6H2.93333V2.4C2.93333 2.84183 3.29151 3.2 3.73333 3.2C4.17516 3.2 4.53333 2.84183 4.53333 2.4V1.6H7.2V2.4C7.2 2.84183 7.55817 3.2 8 3.2C8.44183 3.2 8.8 2.84183 8.8 2.4V1.6H11.4667V2.4C11.4667 2.84183 11.8248 3.2 12.2667 3.2C12.7085 3.2 13.0667 2.84183 13.0667 2.4V1.6H14.6667C15.1083 1.60051 15.4662 1.95839 15.4667 2.4V4.26667H0.533333V2.4C0.533848 1.95839 0.891719 1.60051 1.33333 1.6ZM0.533333 14.6667C0.533848 15.1083 0.891719 15.4662 1.33333 15.4667H14.6667C15.1083 15.4662 15.4662 15.1083 15.4667 14.6667V4.8H0.533333V14.6667Z" fill="#0F1C49"/>
<path id="Shape_2" fill-rule="evenodd" clip-rule="evenodd" d="M13.0225 6.67484H14.0695C14.2141 6.67484 14.3313 6.79203 14.3313 6.93659V7.98363C14.3313 8.12819 14.2141 8.24539 14.0695 8.24539H13.0225C12.8779 8.24539 12.7607 8.12819 12.7607 7.98363V6.93659C12.7607 6.79203 12.8779 6.67484 13.0225 6.67484ZM13.2843 7.72187H13.8078V7.19835H13.2843V7.72187Z" fill="#0F1C49"/>
<path id="Shape_3" fill-rule="evenodd" clip-rule="evenodd" d="M7.72172 11.9755H8.76875C8.91332 11.9755 9.03051 12.0927 9.03051 12.2372V13.2843C9.03051 13.4288 8.91332 13.546 8.76875 13.546H7.72172C7.57715 13.546 7.45996 13.4288 7.45996 13.2843V12.2372C7.45996 12.0927 7.57715 11.9755 7.72172 11.9755ZM7.98348 13.0225H8.507V12.499H7.98348V13.0225Z" fill="#0F1C49"/>
<path id="Shape_4" fill-rule="evenodd" clip-rule="evenodd" d="M5.07182 6.67484H6.11885C6.26342 6.67484 6.38061 6.79203 6.38061 6.93659V7.98363C6.38061 8.12819 6.26342 8.24539 6.11885 8.24539H5.07182C4.92725 8.24539 4.81006 8.12819 4.81006 7.98363V6.93659C4.81006 6.79203 4.92725 6.67484 5.07182 6.67484ZM5.33358 7.72187H5.85709V7.19835H5.33358V7.72187Z" fill="#0F1C49"/>
<path id="Shape_5" fill-rule="evenodd" clip-rule="evenodd" d="M2.42143 9.32516H3.46846C3.61303 9.32516 3.73022 9.44236 3.73022 9.58692V10.634C3.73022 10.7785 3.61303 10.8957 3.46846 10.8957H2.42143C2.27686 10.8957 2.15967 10.7785 2.15967 10.634V9.58692C2.15967 9.44236 2.27686 9.32516 2.42143 9.32516ZM2.68319 10.3722H3.2067V9.84868H2.68319V10.3722Z" fill="#0F1C49"/>
<path id="Shape_6" fill-rule="evenodd" clip-rule="evenodd" d="M5.07182 9.32516H6.11885C6.26342 9.32516 6.38061 9.44236 6.38061 9.58692V10.634C6.38061 10.7785 6.26342 10.8957 6.11885 10.8957H5.07182C4.92725 10.8957 4.81006 10.7785 4.81006 10.634V9.58692C4.81006 9.44236 4.92725 9.32516 5.07182 9.32516ZM5.33358 10.3722H5.85709V9.84868H5.33358V10.3722Z" fill="#0F1C49"/>
<path id="Shape_7" fill-rule="evenodd" clip-rule="evenodd" d="M2.42143 11.9755H3.46846C3.61303 11.9755 3.73022 12.0927 3.73022 12.2372V13.2843C3.73022 13.4288 3.61303 13.546 3.46846 13.546H2.42143C2.27686 13.546 2.15967 13.4288 2.15967 13.2843V12.2372C2.15967 12.0927 2.27686 11.9755 2.42143 11.9755ZM2.68319 13.0225H3.2067V12.499H2.68319V13.0225Z" fill="#0F1C49"/>
<path id="Shape_8" fill-rule="evenodd" clip-rule="evenodd" d="M5.07182 11.9755H6.11885C6.26342 11.9755 6.38061 12.0927 6.38061 12.2372V13.2843C6.38061 13.4288 6.26342 13.546 6.11885 13.546H5.07182C4.92725 13.546 4.81006 13.4288 4.81006 13.2843V12.2372C4.81006 12.0927 4.92725 11.9755 5.07182 11.9755ZM5.33358 13.0225H5.85709V12.499H5.33358V13.0225Z" fill="#0F1C49"/>
<path id="Shape_9" fill-rule="evenodd" clip-rule="evenodd" d="M10.4122 7.51787L11.7482 7.72202L11.7483 7.72185C11.8474 7.73693 11.9297 7.80618 11.9615 7.90122C11.9933 7.99625 11.9693 8.1011 11.8992 8.17278L10.9246 9.17172L11.1551 10.5855C11.1715 10.6865 11.1289 10.788 11.0452 10.8469C10.9616 10.9059 10.8516 10.9118 10.7621 10.8623L9.57022 10.2035L8.37837 10.8623C8.28887 10.9116 8.17915 10.9055 8.09567 10.8466C8.01218 10.7878 7.96955 10.6865 7.98581 10.5856L8.21628 9.17188L7.24162 8.17294C7.17159 8.10126 7.14754 7.99642 7.17935 7.90139C7.21115 7.80635 7.29346 7.7371 7.39253 7.72202L8.72853 7.51787L9.32833 6.23956C9.37235 6.14577 9.46662 6.08588 9.57022 6.08588C9.67382 6.08588 9.76808 6.14577 9.8121 6.23956L10.4122 7.51787ZM10.3753 9.12462C10.3616 9.04091 10.3885 8.95569 10.4478 8.89498L11.1534 8.17161L10.1904 8.02464C10.1023 8.01117 10.0267 7.95469 9.98889 7.87403L9.57022 6.98201L9.15158 7.8742C9.11372 7.95486 9.03815 8.01134 8.95008 8.02481L7.98705 8.17177L8.69253 8.89498C8.75176 8.95569 8.77866 9.04091 8.76501 9.12462L8.60135 10.1284L9.44089 9.66409C9.52133 9.61963 9.61897 9.61963 9.69941 9.66409L10.539 10.1284L10.3753 9.12462Z" fill="#0F1C49"/>
<path id="Shape_10" fill-rule="evenodd" clip-rule="evenodd" d="M13.0225 9.32516H14.0695C14.2141 9.32516 14.3313 9.44236 14.3313 9.58692V10.634C14.3313 10.7785 14.2141 10.8957 14.0695 10.8957H13.0225C12.8779 10.8957 12.7607 10.7785 12.7607 10.634V9.58692C12.7607 9.44236 12.8779 9.32516 13.0225 9.32516ZM13.2843 10.3722H13.8078V9.84868H13.2843V10.3722Z" fill="#0F1C49"/>
<path id="Shape_11" fill-rule="evenodd" clip-rule="evenodd" d="M13.0225 11.9755H14.0695C14.2141 11.9755 14.3313 12.0927 14.3313 12.2372V13.2843C14.3313 13.4288 14.2141 13.546 14.0695 13.546H13.0225C12.8779 13.546 12.7607 13.4288 12.7607 13.2843V12.2372C12.7607 12.0927 12.8779 11.9755 13.0225 11.9755ZM13.2843 13.0225H13.8078V12.499H13.2843V13.0225Z" fill="#0F1C49"/>
<path id="Shape_12" fill-rule="evenodd" clip-rule="evenodd" d="M10.3721 11.9755H11.4191C11.5637 11.9755 11.6809 12.0927 11.6809 12.2372V13.2843C11.6809 13.4288 11.5637 13.546 11.4191 13.546H10.3721C10.2275 13.546 10.1104 13.4288 10.1104 13.2843V12.2372C10.1104 12.0927 10.2275 11.9755 10.3721 11.9755ZM10.6339 13.0225H11.1574V12.499H10.6339V13.0225Z" fill="#0F1C49"/>
</g>
</svg>
