<svg width="112" height="112" viewBox="0 0 112 112" fill="none" xmlns="http://www.w3.org/2000/svg">
<path fill-rule="evenodd" clip-rule="evenodd" d="M4.01172 32.8567C4.01172 33.6925 4.34605 34.3612 4.84754 34.8627C5.5162 35.3641 6.18485 35.6985 6.85351 35.6985C7.68933 35.6985 8.35799 35.3641 8.85948 34.8627C9.36097 34.3612 9.6953 33.6925 9.6953 32.8567C9.6953 32.0209 9.36097 31.3522 8.85948 30.8507C8.35799 30.3492 7.68933 30.0149 6.85351 30.0149C6.01769 30.0149 5.34903 30.3492 4.84754 30.8507C4.34605 31.3522 4.01172 32.0209 4.01172 32.8567ZM5.85052 33.8597C5.68336 33.5253 5.5162 33.191 5.5162 32.8567C5.5162 32.5224 5.5162 32.0209 5.85052 31.8537L5.85053 31.8537C6.18485 31.6865 6.51918 31.5194 6.85351 31.5194C7.355 31.5194 7.68933 31.6865 7.85649 31.8537L7.8565 31.8537C8.02366 32.188 8.19082 32.5224 8.19082 32.8567C8.19082 33.3582 8.02366 33.6925 7.85649 33.8597L7.85649 33.8597C7.52216 34.0268 7.18784 34.194 6.85351 34.194C6.35202 34.194 6.01769 34.0268 5.85052 33.8597L5.85052 33.8597Z" fill="#41B6E6"/>
<path d="M12.2031 30.0149H14.2091V31.5194H12.2031V30.0149Z" fill="#41B6E6"/>
<path d="M16.2148 30.0149H18.2208V31.5194H16.2148V30.0149Z" fill="#41B6E6"/>
<path d="M20.394 30.0149H22.4V31.5194H20.394V30.0149Z" fill="#41B6E6"/>
<path d="M12.2031 34.194H14.2091V35.6984H12.2031V34.194Z" fill="#41B6E6"/>
<path d="M16.2148 34.194H18.2208V35.6984H16.2148V34.194Z" fill="#41B6E6"/>
<path d="M20.394 34.194H22.4V35.6984H20.394V34.194Z" fill="#41B6E6"/>
<path d="M37.4448 29.8478H38.9493V36.0329H37.4448V29.8478Z" fill="#41B6E6"/>
<path d="M41.624 29.8478H43.1285V36.0329H41.624V29.8478Z" fill="#41B6E6"/>
<path d="M33.2656 29.8478H34.7701V36.0329H33.2656V29.8478Z" fill="#41B6E6"/>
<path d="M108.991 86.0149V84.0089L103.976 83.0059L103.474 82.8387L103.307 82.3373C103.14 81.6686 102.973 80.9999 102.639 80.3313C102.304 79.6626 101.97 78.994 101.636 78.3253L101.301 77.8238L101.636 77.4895L104.812 73.1432L101.803 70.1343L97.4565 73.3104L97.1222 73.6447L96.7879 73.4775C96.1192 73.1432 95.4506 72.8089 94.7819 72.4746C94.1132 72.1402 93.4446 71.9731 92.7759 71.8059H92.2744L92.1073 71.3044L91.1043 66.2895H87.2595L86.2565 71.3044V71.8059H85.755C85.0864 71.9731 84.4177 72.1402 83.7491 72.4746C83.0804 72.8089 82.4117 73.1432 81.7431 73.4775L81.2416 73.8119L80.9073 73.4775L76.561 70.3014L75.2237 71.6387L74.2207 70.6358L76.0595 68.797L76.561 68.2955L77.0625 68.6298L81.5759 71.8059C82.0774 71.4716 82.7461 71.1373 83.2476 70.9701C83.9162 70.8029 84.4177 70.4686 85.0864 70.3014L86.0894 65.1193L86.2565 64.4507H86.9252H92.1073H92.7759L92.9431 65.1193L93.9461 70.3014C94.6147 70.4686 95.1162 70.6358 95.7849 70.9701C96.4535 71.1373 96.955 71.4716 97.4565 71.8059L101.97 68.6298L102.471 68.2955L102.973 68.797L106.818 72.6417L107.319 73.1432L106.985 73.6447L103.809 78.1581C104.143 78.6596 104.477 79.3283 104.645 79.8298C104.812 80.4984 105.146 80.9999 105.313 81.6686L110.495 82.6716L111.164 82.8387V83.5074V86.0149H108.991Z" fill="#41B6E6"/>
<path d="M78.3999 86.015C78.3999 83.006 79.5701 80.3314 81.576 78.3254C83.582 76.3194 86.2566 75.1493 89.2656 75.1493C92.2745 75.1493 94.9492 76.3194 96.9551 78.3254C98.9611 80.3314 100.131 83.006 100.131 86.015H98.6268C98.6268 83.3403 97.6238 81 95.785 79.3284C94.1133 77.6568 91.773 76.4866 89.0984 76.4866C86.4238 76.4866 84.0835 77.4896 82.4118 79.3284C80.7402 81 79.5701 83.3403 79.5701 86.015H78.3999Z" fill="#41B6E6"/>
<path d="M85.9224 86.0149C85.9224 85.1791 86.2567 84.3433 86.9253 83.6746C87.594 83.006 88.4298 82.6716 89.2656 82.6716C90.1015 82.6716 90.9373 83.006 91.6059 83.6746C92.2746 84.3433 92.6089 85.1791 92.6089 86.0149H91.1045C91.1045 85.5134 90.9373 85.0119 90.603 84.6776C90.2686 84.3433 89.7671 84.1761 89.2656 84.1761C88.7642 84.1761 88.2627 84.3433 87.9283 84.6776C87.594 85.0119 87.4268 85.5134 87.4268 86.0149H85.9224Z" fill="#41B6E6"/>
<path fill-rule="evenodd" clip-rule="evenodd" d="M86.9253 38.7075C86.591 39.0418 86.2567 39.3761 86.0895 39.8776C85.9223 40.3791 85.7552 40.8806 86.0895 41.3821V57.9313V58.6H86.7582H92.4417H93.1104V57.9313V41.3821C93.1104 40.9853 93.0057 40.6931 92.8792 40.34C92.8459 40.2468 92.811 40.1494 92.7761 40.0448C92.6089 39.5433 92.2746 39.2089 91.9403 38.8746C91.6059 38.5403 91.2716 38.206 90.7701 38.0388C90.4358 37.8716 89.9343 37.7045 89.4328 37.7045C88.597 37.7045 87.594 38.0388 86.9253 38.7075ZM87.6776 40.2119C87.7612 40.0866 87.8447 39.9612 87.9283 39.8776C88.2626 39.3761 88.9313 39.2089 89.2656 39.2089C89.6 39.2089 89.7671 39.2089 90.1014 39.3761C90.185 39.4597 90.3104 39.5433 90.4358 39.6269C90.5612 39.7104 90.6865 39.794 90.7701 39.8776C90.8537 39.9612 90.9373 40.0866 91.0209 40.2119C91.1044 40.3373 91.188 40.4627 91.2716 40.5463C91.4388 40.8806 91.4388 41.0478 91.4388 41.3821V57.0955H87.2597V41.3821C87.2597 41.0478 87.2597 40.8806 87.4268 40.5463C87.5104 40.4627 87.594 40.3373 87.6776 40.2119Z" fill="#41B6E6"/>
<path fill-rule="evenodd" clip-rule="evenodd" d="M87.2598 57.9314V60.7731V61.4418H87.9284H90.7702H91.4389V60.7731V57.9314V57.2627H90.7702H87.9284H87.2598V57.9314ZM88.7642 59.9373V58.6H90.1016V59.9373H88.7642Z" fill="#41B6E6"/>
<path fill-rule="evenodd" clip-rule="evenodd" d="M87.2598 78.8268L87.9284 83.1731L88.2628 83.8418H88.9314H90.4359H91.1045L91.2717 83.1731L91.9404 78.8268V78.4925L91.606 78.1582L90.1016 76.6537L89.6001 76.1522L89.0986 76.6537L87.5941 78.1582L87.2598 78.4925V78.8268ZM89.2657 82.3373L88.7642 78.994L89.2657 78.3254L89.9344 78.994L89.4329 82.3373H89.2657Z" fill="#41B6E6"/>
<path d="M88.5972 51.412H90.1016V52.9165H88.5972V51.412Z" fill="#41B6E6"/>
<path d="M88.5972 48.5702H90.1016V50.0747H88.5972V48.5702Z" fill="#41B6E6"/>
<path d="M88.5972 45.5612H90.1016V47.0656H88.5972V45.5612Z" fill="#41B6E6"/>
<path d="M88.5972 60.7732H90.1016V77.3224H88.5972V60.7732Z" fill="#41B6E6"/>
<path d="M86.5908 54.2538H92.2744V55.7583H86.5908V54.2538Z" fill="#41B6E6"/>
<path d="M58.5073 74.815C55.3312 74.815 52.3223 73.4776 50.1491 71.3045C47.976 69.1314 46.6387 66.2896 46.6387 62.9463C46.6387 59.7702 47.976 56.7612 50.1491 54.5881C52.3223 52.415 55.164 51.0776 58.5073 51.0776V52.5821C55.6655 52.5821 53.1581 53.7523 51.1521 55.5911C49.3133 57.4299 48.1431 60.1045 48.1431 62.9463C48.1431 65.7881 49.3133 68.2955 51.1521 70.3015C52.9909 72.1403 55.6655 73.3105 58.5073 73.3105V74.815Z" fill="#41B6E6"/>
<path fill-rule="evenodd" clip-rule="evenodd" d="M64.6927 69.2986C66.3644 67.7941 67.3674 65.6209 67.3674 63.1135C67.3674 60.606 66.3644 58.4329 64.6927 56.9284C63.1882 55.2568 61.0151 54.2538 58.5077 54.2538C56.1674 54.2538 53.9942 55.2568 52.3226 56.9284C50.6509 58.4329 49.6479 60.606 49.6479 63.1135C49.6479 65.4538 50.6509 67.6269 52.3226 69.2986C53.8271 70.9702 56.0002 71.9732 58.5077 71.9732C60.8479 71.9732 63.0211 70.9702 64.6927 69.2986ZM65.8629 63.1135C65.8629 65.1195 65.0271 66.9583 63.6897 68.2956C62.3524 69.6329 60.5136 70.4687 58.5077 70.4687C56.5017 70.4687 54.6629 69.6329 53.3256 68.2956C51.9882 66.9583 51.1524 65.1195 51.1524 63.1135C51.1524 61.1075 51.9882 59.2687 53.3256 57.9314C54.6629 56.5941 56.5017 55.7583 58.5077 55.7583C60.5136 55.7583 62.3524 56.5941 63.6897 57.9314C65.0271 59.2687 65.8629 61.1075 65.8629 63.1135Z" fill="#41B6E6"/>
<path d="M60.5596 60.6858L77.6716 52.688L78.3086 54.0509L61.1966 62.0487L60.5596 60.6858Z" fill="#41B6E6"/>
<path fill-rule="evenodd" clip-rule="evenodd" d="M83.4147 54.7552C84.0834 54.0865 84.4177 53.0836 84.4177 52.0806C84.4177 50.9104 83.9162 50.0746 83.4147 49.4059C82.7461 48.7373 81.7431 48.403 80.7401 48.403C79.7371 48.403 78.7341 48.7373 78.0655 49.4059C77.3968 50.0746 77.0625 51.0776 77.0625 52.0806C77.0625 53.0836 77.3968 54.0865 78.0655 54.7552C78.7341 55.4238 79.7371 55.7582 80.7401 55.7582C81.7431 55.7582 82.7461 55.4238 83.4147 54.7552ZM82.9132 52.0806C82.9132 52.5821 82.5789 53.2507 82.2446 53.585C81.7431 53.9194 81.2416 54.2537 80.7401 54.2537C80.2386 54.2537 79.57 53.9194 79.2356 53.585C78.7341 53.2507 78.567 52.7492 78.567 52.0806C78.567 51.5791 78.9013 50.9104 79.2356 50.5761C79.57 50.0746 80.0715 49.9074 80.7401 49.9074C81.2416 49.9074 81.9103 50.2418 82.2446 50.5761C82.7461 50.9104 82.9132 51.4119 82.9132 52.0806Z" fill="#41B6E6"/>
<path fill-rule="evenodd" clip-rule="evenodd" d="M61.1823 65.788C61.851 65.1194 62.1853 64.1164 62.1853 63.1134C62.1853 62.1104 61.851 61.1074 61.1823 60.4388C60.5137 59.7701 59.5107 59.4358 58.5077 59.4358C57.5047 59.4358 56.5017 59.7701 55.8331 60.4388C55.1644 61.1074 54.8301 62.1104 54.8301 63.1134C54.8301 64.1164 55.1644 65.1194 55.8331 65.788C56.5017 66.4567 57.5047 66.791 58.5077 66.791C59.5107 66.791 60.5137 66.4567 61.1823 65.788ZM60.6808 63.1134C60.6808 63.6149 60.3465 64.2836 60.0122 64.6179C59.6778 64.9522 59.1763 65.2865 58.5077 65.2865C58.0062 65.2865 57.3375 64.9522 57.0032 64.6179C56.5017 64.2836 56.3346 63.7821 56.3346 63.1134C56.3346 62.6119 56.6689 61.9433 57.0032 61.6089C57.3375 61.1074 57.839 60.9403 58.5077 60.9403C59.0092 60.9403 59.6778 61.2746 60.0122 61.6089C60.5137 61.9433 60.6808 62.4447 60.6808 63.1134Z" fill="#41B6E6"/>
<path d="M79.9043 51.2448H81.4088V52.7492H79.9043V51.2448Z" fill="#41B6E6"/>
<path d="M57.8389 62.2776H59.3433V63.7821H57.8389V62.2776Z" fill="#41B6E6"/>
<path d="M74.0537 59.4358H75.5582V60.9403H74.0537V59.4358Z" fill="#41B6E6"/>
<path d="M74.0537 62.2776H75.5582V63.7821H74.0537V62.2776Z" fill="#41B6E6"/>
<path d="M74.0537 65.2866H75.5582V66.7911H74.0537V65.2866Z" fill="#41B6E6"/>
<path d="M44.4658 42.3851H45.9703V43.8896H44.4658V42.3851Z" fill="#41B6E6"/>
<path d="M47.4746 42.3851H48.9791V43.8896H47.4746V42.3851Z" fill="#41B6E6"/>
<path d="M50.4834 42.3851H51.9879V43.8896H50.4834V42.3851Z" fill="#41B6E6"/>
<path d="M74.0539 51.2448V46.397L68.5375 40.8806H43.1285V85.1791H74.0539V74.8149H75.5584V86.0149V86.6836H74.7225H42.2927H41.624V86.0149V40.2119V39.3761H42.2927H68.8718H69.2061L69.3733 39.7104L75.224 45.5612L75.5584 45.7283V46.0627V51.2448H74.0539Z" fill="#41B6E6"/>
<path d="M69.5401 40.2119V45.394H74.7222V46.8985H68.8715H68.0356V46.0627V40.2119H69.5401Z" fill="#41B6E6"/>
<path d="M44.4658 45.394H66.5315V46.8985H44.4658V45.394Z" fill="#41B6E6"/>
<path d="M44.4658 48.2358H52.6569V49.7403H44.4658V48.2358Z" fill="#41B6E6"/>
<path d="M54.1611 48.2358H72.5492V49.7403H54.1611V48.2358Z" fill="#41B6E6"/>
<path d="M44.4658 76.3195H72.5494V77.8239H44.4658V76.3195Z" fill="#41B6E6"/>
<path d="M44.4658 79.3284H49.6479V80.8328H44.4658V79.3284Z" fill="#41B6E6"/>
<path d="M51.1523 79.3284H72.5494V80.8328H51.1523V79.3284Z" fill="#41B6E6"/>
<path d="M44.4658 82.1702H57.0031V83.6746H44.4658V82.1702Z" fill="#41B6E6"/>
<path d="M58.5073 82.1702H63.6894V83.6746H58.5073V82.1702Z" fill="#41B6E6"/>
<path d="M4.1792 40.2119H5.68368V45.394H4.1792V40.2119Z" fill="#41B6E6"/>
<path d="M4.1792 59.9373H5.68368V65.1193H4.1792V59.9373Z" fill="#41B6E6"/>
<path d="M4.1792 79.6627H5.68368V85.8478H4.1792V79.6627Z" fill="#41B6E6"/>
<path d="M10.0298 84.1761H37.1104V85.6806H10.0298V84.1761Z" fill="#41B6E6"/>
<path fill-rule="evenodd" clip-rule="evenodd" d="M0.668657 40.8806H42.2925H46.4716H47.1403V40.2119V25.6687V25H46.4716H0.668657H0V25.6687V40.2119V40.8806H0.668657ZM42.2925 39.3761H1.50448V26.3373H45.6358V39.3761H42.2925Z" fill="#41B6E6"/>
<path fill-rule="evenodd" clip-rule="evenodd" d="M0.668657 60.7732H42.2925H42.9612V60.1045V45.5612V44.8926H42.2925H0.668657H0V45.5612V60.1045V60.7732H0.668657ZM41.6239 59.2687H1.50448V46.2299H41.6239V59.2687Z" fill="#41B6E6"/>
<path fill-rule="evenodd" clip-rule="evenodd" d="M4.01172 52.7493C4.01172 53.5851 4.34605 54.2537 4.84754 54.7552C5.5162 55.2567 6.18485 55.5911 6.85351 55.5911C7.68933 55.5911 8.35799 55.2567 8.85948 54.7552C9.36097 54.2537 9.6953 53.5851 9.6953 52.7493C9.6953 51.9134 9.36097 51.2448 8.85948 50.7433C8.35799 50.2418 7.68933 49.9075 6.85351 49.9075C6.01769 49.9075 5.34903 50.2418 4.84754 50.7433C4.34605 51.2448 4.01172 51.9134 4.01172 52.7493ZM5.85052 53.7522C5.68336 53.4179 5.5162 53.0836 5.5162 52.7493C5.5162 52.2478 5.5162 51.9134 5.85052 51.7463L5.85053 51.7463C6.18485 51.5791 6.51918 51.4119 6.85351 51.4119C7.355 51.4119 7.68933 51.5791 7.85649 51.7463L7.8565 51.7463C8.02366 52.0806 8.19082 52.4149 8.19082 52.7493C8.19082 53.2508 8.02366 53.5851 7.85649 53.7522L7.85649 53.7522C7.52216 53.9194 7.18784 54.0866 6.85351 54.0866C6.35202 54.0866 6.01769 53.9194 5.85052 53.7522L5.85052 53.7522Z" fill="#41B6E6"/>
<path d="M12.2031 49.9075H14.2091V51.4119H12.2031V49.9075Z" fill="#41B6E6"/>
<path d="M16.2148 49.9075H18.2208V51.4119H16.2148V49.9075Z" fill="#41B6E6"/>
<path d="M20.394 49.9075H22.4V51.4119H20.394V49.9075Z" fill="#41B6E6"/>
<path d="M12.2031 54.0865H14.2091V55.591H12.2031V54.0865Z" fill="#41B6E6"/>
<path d="M16.2148 54.0865H18.2208V55.591H16.2148V54.0865Z" fill="#41B6E6"/>
<path d="M20.394 54.0865H22.4V55.591H20.394V54.0865Z" fill="#41B6E6"/>
<path d="M37.4448 49.5731H38.9493V55.7582H37.4448V49.5731Z" fill="#41B6E6"/>
<path d="M33.2656 49.5731H34.7701V55.7582H33.2656V49.5731Z" fill="#41B6E6"/>
<path fill-rule="evenodd" clip-rule="evenodd" d="M0.668657 80.4984H42.2925V80.3313H42.9612V79.6626V65.1193V64.4507H42.2925H0.668657H0V65.1193V79.8298V80.4984H0.668657ZM41.6239 78.994H1.50448V65.9552H41.6239V78.994Z" fill="#41B6E6"/>
<path fill-rule="evenodd" clip-rule="evenodd" d="M4.01172 72.4746C4.01172 73.3104 4.34605 73.9791 4.84754 74.4806C5.5162 74.9821 6.18485 75.3164 6.85351 75.3164C7.68933 75.3164 8.35799 74.9821 8.85948 74.4806C9.36097 73.9791 9.6953 73.3104 9.6953 72.4746C9.6953 71.6388 9.36097 70.9701 8.85948 70.4686C8.35799 69.9671 7.68933 69.6328 6.85351 69.6328C6.01769 69.6328 5.34903 69.9671 4.84754 70.4686C4.34605 70.9701 4.01172 71.6388 4.01172 72.4746ZM5.85052 73.4776C5.68336 73.1433 5.5162 72.8089 5.5162 72.4746C5.5162 72.1403 5.68336 71.8059 5.85052 71.4716L5.85052 71.4716L5.85053 71.4716C6.18485 71.3045 6.51918 71.1373 6.85351 71.1373C7.355 71.1373 7.68933 71.3045 7.85649 71.4716L7.8565 71.4716C8.02366 71.8059 8.19082 72.1403 8.19082 72.4746C8.19082 72.9761 8.02366 73.3104 7.85649 73.4776L7.85649 73.4776C7.52216 73.6448 7.18784 73.8119 6.85351 73.8119C6.35202 73.8119 6.01769 73.6448 5.85052 73.4776L5.85052 73.4776Z" fill="#41B6E6"/>
<path d="M12.2031 69.6328H14.2091V71.1373H12.2031V69.6328Z" fill="#41B6E6"/>
<path d="M16.2148 69.6328H18.2208V71.1373H16.2148V69.6328Z" fill="#41B6E6"/>
<path d="M20.394 69.6328H22.4V71.1373H20.394V69.6328Z" fill="#41B6E6"/>
<path d="M12.2031 73.8119H14.2091V75.3164H12.2031V73.8119Z" fill="#41B6E6"/>
<path d="M16.2148 73.8119H18.2208V75.3164H16.2148V73.8119Z" fill="#41B6E6"/>
<path d="M20.394 73.8119H22.4V75.3164H20.394V73.8119Z" fill="#41B6E6"/>
<path d="M37.4448 69.2985H38.9493V75.4835H37.4448V69.2985Z" fill="#41B6E6"/>
<path d="M33.2656 69.2985H34.7701V75.4835H33.2656V69.2985Z" fill="#41B6E6"/>
</svg>
