<svg width="24" height="24" viewBox="0 0 24 24" fill="none" xmlns="http://www.w3.org/2000/svg">
<path fill-rule="evenodd" clip-rule="evenodd" d="M6.97162 0H17.0284C20.8725 0 24 3.12745 24 6.97162V17.0284C24 20.8725 20.8725 24 17.0284 24H6.97162C3.12745 24 0 20.8725 0 17.0284V6.97162C0 3.12745 3.12745 0 6.97162 0ZM17.0284 22.125C19.8387 22.125 22.125 19.8387 22.125 17.0284V6.97162C22.125 4.16133 19.8387 1.875 17.0284 1.875H6.97162C4.16133 1.875 1.875 4.16133 1.875 6.97162V17.0284C1.875 19.8387 4.16133 22.125 6.97162 22.125H17.0284Z" fill="#E3E5E7"/>
<path fill-rule="evenodd" clip-rule="evenodd" d="M5.46094 11.9281C5.46094 8.36215 8.36203 5.46106 11.928 5.46106C15.494 5.46106 18.3951 8.36215 18.3951 11.9281C18.3951 15.4941 15.494 18.3952 11.928 18.3952C8.36203 18.3952 5.46094 15.4941 5.46094 11.9281ZM7.33545 11.9281C7.33545 14.4605 9.39568 16.5207 11.928 16.5207C14.4603 16.5207 16.5206 14.4605 16.5206 11.9281C16.5206 9.3958 14.4603 7.33557 11.928 7.33557C9.39568 7.33557 7.33545 9.3958 7.33545 11.9281Z" fill="#E3E5E7"/>
<circle cx="18.6109" cy="5.38921" r="0.934132" fill="#E3E5E7"/>
</svg>
