<svg width="72" height="112" viewBox="0 0 72 112" fill="none" xmlns="http://www.w3.org/2000/svg">
<path d="M41.8218 82.9307H10.995H10.1387V82.238V29.7621V29.0693H10.995H41.8218V30.628H11.68V81.5452H41.8218V82.9307Z" fill="#08ACB3"/>
<path d="M10.1523 82.2971C10.1523 81.1229 9.63605 80.1165 8.94776 79.4456C8.25947 78.7747 7.05497 78.2715 6.02253 78.2715C4.81803 78.2715 3.78559 78.7747 3.0973 79.4456C2.40901 80.1165 1.8928 81.2907 1.8928 82.2971C1.8928 83.4712 2.40901 84.4776 3.0973 85.1486C3.78559 85.8195 4.9901 86.3227 6.02253 86.3227H38.3721V85.1486H39.9208V87.1614V88.0001H39.2325H5.85046C4.30181 88.0001 2.75316 87.3291 1.72072 86.3227C0.68829 85.3163 0 83.9744 0 82.2971C0 80.7875 0.68829 79.2779 1.72072 78.2715C2.75316 77.2651 4.12974 76.5941 5.85046 76.5941C7.39911 76.5941 8.94776 77.2651 9.9802 78.2715C11.0126 79.2779 11.7009 80.6197 11.7009 82.2971H10.1523Z" fill="#08ACB3"/>
<path d="M10.1947 29.8816C10.1947 28.6707 9.69145 27.6328 9.02051 26.9408C8.34957 26.2488 7.17543 25.7299 6.16902 25.7299C4.99488 25.7299 3.98848 26.2488 3.31754 26.9408C2.6466 27.6328 2.1434 28.8437 2.1434 29.8816V82.297H0.633789V29.8816C0.633789 28.3247 1.30473 26.7678 2.31113 25.7299C3.31754 24.692 4.65942 24 6.33676 24C7.84637 24 9.35598 24.692 10.3624 25.7299C11.3688 26.7678 12.0397 28.1517 12.0397 29.8816H10.1947Z" fill="#08ACB3"/>
<path d="M58 32.8713V71.3136L58.891 75.6623H59.6039L60.495 71.3136V32.8713H62.099V71.4875V71.6615L61.0297 76.7059V77.2278H60.3168H58.1782H57.6435L57.4653 76.7059L56.396 71.6615V71.4875V32.8713H58Z" fill="#08ACB3"/>
<path d="M56.396 32.8713V29.8416C56.396 29.4852 56.396 29.1287 56.565 28.7723C56.7339 28.4159 56.9029 28.0594 57.0719 27.8812C57.4099 27.5248 57.5788 27.3466 57.9168 27.3466C58.2547 27.1683 58.5927 27.1683 58.9306 27.1683C59.2686 27.1683 59.6066 27.1683 59.9445 27.3466C60.2825 27.5248 60.6204 27.703 60.7894 27.8812C61.1273 28.2376 61.2963 28.4159 61.2963 28.7723C61.4653 29.1287 61.4653 29.4852 61.4653 29.8416V32.8713H59.9445V29.8416C59.9445 29.6634 59.9445 29.4852 59.7755 29.3069C59.7755 29.1287 59.6066 28.9505 59.4376 28.9505C59.2686 28.7723 59.2686 28.7723 59.0996 28.5941C58.9306 28.5941 58.7617 28.4159 58.5927 28.4159C58.4237 28.4159 58.2547 28.4159 58.0858 28.5941C57.9168 28.5941 57.7478 28.7723 57.7478 28.9505C57.5788 29.1287 57.5788 29.1287 57.4099 29.3069C57.4099 29.4852 57.2409 29.6634 57.2409 29.8416V32.8713H56.396Z" fill="#08ACB3"/>
<path d="M57.0298 70.2574H61.4654V71.5248H57.0298V70.2574Z" fill="#08ACB3"/>
<path d="M57.0298 66.4554H61.4654V67.7228H57.0298V66.4554Z" fill="#08ACB3"/>
<path d="M58.2969 76.5941H59.5642V79.7624H58.2969V76.5941Z" fill="#08ACB3"/>
<path fill-rule="evenodd" clip-rule="evenodd" d="M45.6354 88H53.2163H53.8615V87.1351V24.6919V24H53.2163H45.6354H44.9902V24.6919V87.3081V88H45.6354ZM52.5712 86.4432H46.4419V25.5568H52.5712V86.4432Z" fill="#08ACB3"/>
<path d="M48.1582 29.0693H50.0592V30.3367H48.1582V29.0693Z" fill="#08ACB3"/>
<path d="M45.6235 34.1387H48.7919V35.406H45.6235V34.1387Z" fill="#08ACB3"/>
<path d="M45.6235 37.9406H48.7919V39.2079H45.6235V37.9406Z" fill="#08ACB3"/>
<path d="M45.6235 42.3762H48.7919V43.6435H45.6235V42.3762Z" fill="#08ACB3"/>
<path d="M45.6235 46.1782H48.7919V47.4455H45.6235V46.1782Z" fill="#08ACB3"/>
<path d="M45.6235 49.9802H48.7919V51.2476H45.6235V49.9802Z" fill="#08ACB3"/>
<path d="M45.6235 53.7822H48.7919V55.0496H45.6235V53.7822Z" fill="#08ACB3"/>
<path d="M45.6235 58.2178H48.7919V59.4851H45.6235V58.2178Z" fill="#08ACB3"/>
<path d="M45.6235 62.0198H48.7919V63.2871H45.6235V62.0198Z" fill="#08ACB3"/>
<path d="M45.6235 66.4554H48.7919V67.7228H45.6235V66.4554Z" fill="#08ACB3"/>
<path d="M45.6235 70.2574H48.7919V71.5248H45.6235V70.2574Z" fill="#08ACB3"/>
<path d="M45.6235 74.6931H48.7919V75.9604H45.6235V74.6931Z" fill="#08ACB3"/>
<path d="M45.6235 77.8613H48.7919V79.1287H45.6235V77.8613Z" fill="#08ACB3"/>
<path d="M45.6235 82.297H48.7919V83.5643H45.6235V82.297Z" fill="#08ACB3"/>
<path d="M27.2476 55.0496H28.5149V56.9506H27.2476V55.0496Z" fill="#08ACB3"/>
<path fill-rule="evenodd" clip-rule="evenodd" d="M20.1694 56.8427L27.3554 64.0287L27.8812 64.5545L28.407 64.0287L35.593 56.8427L36.1188 56.3168L35.593 55.791L28.407 48.605L27.8812 48.0792L27.3554 48.605L20.1694 55.791L19.6436 56.3168L20.1694 56.8427ZM27.8812 62.276L21.922 56.3168L28.0564 50.1824L33.8403 56.3168L27.8812 62.276Z" fill="#08ACB3"/>
<path d="M18.8609 53.7821L15.9038 50.8947L15.208 50.3852L15.9038 49.7058L27.9061 37.8164L28.6019 37.3069L29.1238 37.8164L41.3 49.7058L41.8219 50.3852L41.3 50.8947L38.169 53.7821L37.1253 52.763L39.5606 50.3852L28.6019 39.5149L17.4693 50.3852L19.9046 52.763L18.8609 53.7821Z" fill="#08ACB3"/>
<path d="M19.9046 57.9695L17.4693 60.5172L28.6019 71.2177L39.5606 60.5172L37.1253 57.9695L38.169 56.9504L41.3 60.0077L41.8219 60.5172L41.3 61.0268L29.1238 72.9161L28.6019 73.4257L27.9061 72.9161L15.9038 61.0268L15.208 60.5172L15.9038 60.0077L18.8609 56.9504L19.9046 57.9695Z" fill="#08ACB3"/>
<path d="M23.4453 75.3268H25.3463V76.5941H23.4453V75.3268Z" fill="#08ACB3"/>
<path d="M27.2476 75.3268H29.1485V76.5941H27.2476V75.3268Z" fill="#08ACB3"/>
<path d="M31.6831 75.3268H33.5841V76.5941H31.6831V75.3268Z" fill="#08ACB3"/>
<path d="M71.604 53.1486H72.8713V55.0495H71.604V53.1486Z" fill="#08ACB3"/>
<path d="M71.604 56.9504H72.8713V58.8514H71.604V56.9504Z" fill="#08ACB3"/>
<path d="M94.7738 47.5414V43.0408L91.1731 40.2712L90.8302 40.0981V39.7519V25.5579L76.5989 35.0783V45.6373V45.9835L76.2559 46.3297L68.7116 51.0033V59.4851H67.1685V50.6571V50.1378L67.5114 49.9647L75.0557 45.2911V34.7321V34.3859L75.3986 34.0397L90.1443 24.1731L90.3158 24H90.6587H91.516H92.3734V24.8655V39.2326L95.974 42.0022L96.317 42.3484V42.6946V47.5414H94.7738Z" fill="#08ACB3"/>
<path fill-rule="evenodd" clip-rule="evenodd" d="M67.4185 62.7896C66.4745 65.2729 64 71.7825 64 74.3569C64 75.7708 64.6571 77.0079 65.3143 77.7148C66.1357 78.5985 67.1214 79.1287 68.4356 79.1287C69.5856 79.1287 70.7356 78.5985 71.557 77.7148C72.3784 76.8312 72.8713 75.7708 72.8713 74.3569C72.8713 70.999 69.0928 61.8089 69.0928 61.8089C68.9285 61.4554 68.4356 61.2787 68.1071 61.4554C67.9428 61.4554 67.7785 61.6322 67.7785 61.8089C67.7785 61.8426 67.641 62.2043 67.4185 62.7896ZM65.6428 74.3569C65.6428 72.4129 67.6142 66.9341 68.5999 64.2832C69.5856 66.9341 71.557 72.2361 71.557 74.3569C71.557 75.2406 71.2285 76.1242 70.7356 76.6544C70.2428 77.1846 69.4213 77.5381 68.5999 77.5381C67.7785 77.5381 66.9571 77.1846 66.4642 76.6544C65.9714 76.1242 65.6428 75.2406 65.6428 74.3569Z" fill="#08ACB3"/>
<rect x="67.1685" y="72.7921" width="1.26733" height="8.87129" fill="#08ACB3"/>
<path d="M53.8613 81.6633H110.257V82.9307H53.8613V81.6633Z" fill="#08ACB3"/>
<path d="M53.2275 86.099H112.792V87.3663H53.2275V86.099Z" fill="#08ACB3"/>
<path d="M57.0298 51.2476H61.4654V52.5149H57.0298V51.2476Z" fill="#08ACB3"/>
<path d="M57.0298 32.2377H61.4654V33.505H57.0298V32.2377Z" fill="#08ACB3"/>
</svg>
