<svg width="482" height="325" viewBox="0 0 482 325" fill="none" xmlns="http://www.w3.org/2000/svg">
<path d="M90.9434 100.43H216.865V191.095H90.9434V100.43Z" fill="#F4F4F4"/>
<path d="M85.3467 112.285H222.461V175.751H85.3467V112.285Z" fill="#C4D0D9"/>
<path opacity="0.36" d="M85.3467 161.803H222.461V168.777H85.3467V161.803Z" fill="#B8CCD2"/>
<path opacity="0.36" d="M85.3467 147.854H222.461V154.828H85.3467V147.854Z" fill="#B8CCD2"/>
<path opacity="0.36" d="M85.3467 133.905H222.461V140.88H85.3467V133.905Z" fill="#B8CCD2"/>
<path opacity="0.36" d="M85.3467 119.957H222.461V126.931H85.3467V119.957Z" fill="#B8CCD2"/>
<path d="M186.783 179.238H211.968V191.095H186.783V179.238Z" fill="#BBC8D1"/>
<path d="M156.003 179.238H181.187V191.095H156.003V179.238Z" fill="#BBC8D1"/>
<path d="M125.922 179.238H151.106V191.095H125.922V179.238Z" fill="#BBC8D1"/>
<path d="M95.1406 179.238H120.325V191.095H95.1406V179.238Z" fill="#BBC8D1"/>
<path d="M221.062 112.285H222.462V175.751H221.062V112.285Z" fill="white"/>
<path d="M212.668 112.285H214.067V175.751H212.668V112.285Z" fill="white"/>
<path d="M204.272 112.285H205.672V175.751H204.272V112.285Z" fill="white"/>
<path d="M195.878 112.285H197.277V175.751H195.878V112.285Z" fill="white"/>
<path d="M187.483 112.285H188.883V175.751H187.483V112.285Z" fill="white"/>
<path d="M178.389 112.285H179.788V175.751H178.389V112.285Z" fill="white"/>
<path d="M169.994 112.285H171.393V175.751H169.994V112.285Z" fill="white"/>
<path d="M161.6 112.285H162.999V175.751H161.6V112.285Z" fill="white"/>
<path d="M153.205 112.285H154.604V175.751H153.205V112.285Z" fill="white"/>
<path d="M144.81 112.285H146.209V175.751H144.81V112.285Z" fill="white"/>
<path d="M135.716 112.285H137.115V175.751H135.716V112.285Z" fill="white"/>
<path d="M127.32 112.285H128.719V175.751H127.32V112.285Z" fill="white"/>
<path d="M118.926 112.285H120.325V175.751H118.926V112.285Z" fill="white"/>
<path d="M110.531 112.285H111.93V175.751H110.531V112.285Z" fill="white"/>
<path d="M102.137 112.285H103.536V175.751H102.137V112.285Z" fill="white"/>
<path d="M93.042 112.285H94.4411V175.751H93.042V112.285Z" fill="white"/>
<path d="M84.6475 112.285H86.0466V175.751H84.6475V112.285Z" fill="white"/>
<path opacity="0.3" d="M84.6475 112.285H153.205V175.751H84.6475V112.285Z" fill="#5C6062"/>
<path d="M352.58 82.9941H391.056V188.305H352.58V82.9941Z" fill="#B8CCCF"/>
<path d="M357.478 86.4805H382.662V184.12H357.478V86.4805Z" fill="#879CA8"/>
<path d="M362.375 88.5732H377.066V185.515H362.375V88.5732Z" fill="#B8CCCF"/>
<path d="M147.608 163.197H148.308V209.227H147.608V163.197Z" fill="white"/>
<path d="M158.102 180.633H158.801V209.227H158.102V180.633Z" fill="white"/>
<path d="M65.7588 251.771H116.127V253.863H65.7588V251.771Z" fill="#F1E8E2"/>
<path d="M174.191 251.771H224.56V253.863H174.191V251.771Z" fill="#F1E8E2"/>
<path d="M281.925 251.073H332.293V253.166H281.925V251.073Z" fill="#F1E8E2"/>
<path d="M208.12 30.6865C205.24 30.6865 202.874 33.0062 202.874 35.8302V45.1089H205.189V35.8302C205.189 34.2669 206.526 32.9558 208.12 32.9558C209.715 32.9558 211.052 34.2669 211.052 35.8302V104.614H213.367V35.8302C213.418 33.0062 211.052 30.6865 208.12 30.6865Z" fill="white"/>
<path d="M203.726 43.9375H203.421C201.946 43.9375 200.775 45.1041 200.775 46.575V46.8794C200.775 48.3503 201.946 49.5169 203.421 49.5169H203.726C205.202 49.5169 206.372 48.3503 206.372 46.8794V46.575C206.372 45.1041 205.202 43.9375 203.726 43.9375Z" fill="white"/>
<path d="M149.008 124.839H194.48V126.931H149.008V124.839Z" fill="#868E98"/>
<path d="M151.105 126.234H192.38V127.629H151.105V126.234Z" fill="#5B666D"/>
<path d="M149.008 127.629H193.78V132.511H149.008V127.629Z" fill="#868E98"/>
<path d="M167.896 124.839H202.874V126.931H167.896V124.839Z" fill="#AED5E5"/>
<path d="M169.994 126.234H202.174V127.629H169.994V126.234Z" fill="#75808A"/>
<path d="M167.896 127.629H202.874V132.511H167.896V127.629Z" fill="#AED5E5"/>
<path d="M167.896 132.511H186.784V207.135H167.896V132.511Z" fill="#AED5E5"/>
<path d="M168.311 142.275H187.564L203.574 132.511H149.008L168.311 142.275Z" fill="#7EB9D4"/>
<path d="M149.008 132.511L168.046 142.275H174.892L168.046 132.511H149.008Z" fill="#666E74"/>
<path d="M167.896 142.274H174.891V207.135H167.896V142.274Z" fill="#868E98"/>
<path d="M314.804 124.839H360.275V126.931H314.804V124.839Z" fill="#868E98"/>
<path d="M316.902 126.234H358.177V127.629H316.902V126.234Z" fill="#5B666D"/>
<path d="M314.804 127.629H359.576V132.511H314.804V127.629Z" fill="#868E98"/>
<path d="M333.692 124.839H368.671V126.931H333.692V124.839Z" fill="#AED5E5"/>
<path d="M335.791 126.234H367.971V127.629H335.791V126.234Z" fill="#75808A"/>
<path d="M333.692 127.629H368.671V132.511H333.692V127.629Z" fill="#AED5E5"/>
<path d="M333.692 132.511H352.581V207.135H333.692V132.511Z" fill="#AED5E5"/>
<path d="M334.125 142.275H353.345L369.37 132.511H314.804L334.125 142.275Z" fill="#7EB9D4"/>
<path d="M314.804 132.511L333.879 142.275H340.688L333.879 132.511H314.804Z" fill="#666E74"/>
<path d="M333.692 142.274H340.688V207.135H333.692V142.274Z" fill="#868E98"/>
<path d="M82.5488 195.279H83.948V207.136H82.5488V195.279Z" fill="white"/>
<path d="M144.11 195.279H145.509V207.136H144.11V195.279Z" fill="white"/>
<path d="M205.672 195.279H207.071V207.136H205.672V195.279Z" fill="white"/>
<path d="M267.233 195.279H268.633V207.136H267.233V195.279Z" fill="white"/>
<path d="M328.795 195.279H330.194V207.136H328.795V195.279Z" fill="white"/>
<path d="M315.504 269.903H320.401V271.996H315.504V269.903Z" fill="#F5F0DD"/>
<path d="M328.795 269.903H337.889V271.996H328.795V269.903Z" fill="#F5F0DD"/>
<path d="M365.872 269.903H374.966V271.996H365.872V269.903Z" fill="#F5F0DD"/>
<path d="M346.984 269.903H356.079V271.996H346.984V269.903Z" fill="#F5F0DD"/>
<path d="M171.394 269.903H180.488V271.996H171.394V269.903Z" fill="#F5F0DD"/>
<path d="M79.75 269.903H88.8443V271.996H79.75V269.903Z" fill="#F5F0DD"/>
<path d="M97.9395 269.903H107.034V271.996H97.9395V269.903Z" fill="#F5F0DD"/>
<path d="M116.128 269.903H125.222V271.996H116.128V269.903Z" fill="#F5F0DD"/>
<path d="M153.205 269.903H162.299V271.996H153.205V269.903Z" fill="#F5F0DD"/>
<path d="M134.316 269.903H143.411V271.996H134.316V269.903Z" fill="#F5F0DD"/>
<path d="M189.582 269.903H194.479V271.996H189.582V269.903Z" fill="#F5F0DD"/>
<path d="M217.564 262.93H293.817V264.325H217.564V262.93Z" fill="#F5F0DD"/>
<path d="M217.564 266.416H293.817V267.811H217.564V266.416Z" fill="#F5F0DD"/>
<path d="M217.564 269.903H293.817V271.298H217.564V269.903Z" fill="#F5F0DD"/>
<path d="M217.564 272.693H293.817V274.088H217.564V272.693Z" fill="#F5F0DD"/>
<path d="M217.564 276.18H293.817V277.575H217.564V276.18Z" fill="#F5F0DD"/>
<path d="M217.564 279.668H293.817V281.063H217.564V279.668Z" fill="#F5F0DD"/>
<path d="M205.672 260.837H207.071V284.549H205.672V260.837Z" fill="#F5F0DD"/>
<path d="M305.01 260.837H306.409V284.549H305.01V260.837Z" fill="#F5F0DD"/>
<path d="M207.071 301.287H207.771V318.025H207.071V301.287Z" fill="white"/>
<path d="M203.819 300.597L207.777 296.639L211.722 300.585L207.765 304.542L203.819 300.597Z" fill="#0092D2"/>
<path d="M214.066 305.473H214.766V318.026H214.066V305.473Z" fill="white"/>
<path d="M213.29 303.269C212.461 304.104 212.461 305.407 213.29 306.241C214.119 307.076 215.414 307.076 216.244 306.241C217.073 305.407 217.073 304.104 216.244 303.269C215.414 302.487 214.119 302.487 213.29 303.269Z" fill="#EF532A"/>
<path d="M306.409 246.191H307.109V259.442H306.409V246.191Z" fill="white"/>
<path d="M304.146 245.498L307.114 242.531L310.073 245.49L307.104 248.457L304.146 245.498Z" fill="#0092D2"/>
<path d="M312.006 248.98H312.566V258.744H312.006V248.98Z" fill="white"/>
<path d="M311.013 247.294C310.471 247.834 310.471 248.733 311.013 249.273C311.554 249.813 312.457 249.813 312.999 249.273C313.54 248.733 313.54 247.834 312.999 247.294C312.457 246.754 311.554 246.754 311.013 247.294Z" fill="#EF532A"/>
<path fill-rule="evenodd" clip-rule="evenodd" d="M343.486 271.996H372.868V269.957V264.324H343.486V269.52V271.996Z" fill="#231F20"/>
<path fill-rule="evenodd" clip-rule="evenodd" d="M342.787 272.693H372.169V273.391H342.787V272.693Z" fill="#BDCFD2"/>
<path fill-rule="evenodd" clip-rule="evenodd" d="M356.778 272.693C356.778 269.233 353.941 266.416 350.507 266.416C347.023 266.416 344.186 269.233 344.186 272.693C344.186 276.153 347.023 278.97 350.507 278.97C353.991 278.97 356.778 276.153 356.778 272.693Z" fill="#231F20"/>
<path fill-rule="evenodd" clip-rule="evenodd" d="M354.679 272.693C354.679 270.406 352.775 268.509 350.482 268.509C348.139 268.509 346.284 270.406 346.284 272.693C346.284 275.029 348.139 276.878 350.482 276.878C352.775 276.878 354.679 275.029 354.679 272.693Z" fill="#C8D6D3"/>
<path fill-rule="evenodd" clip-rule="evenodd" d="M354.679 272.693C354.679 270.773 353.108 269.206 351.181 269.206C349.255 269.206 347.684 270.773 347.684 272.693C347.684 274.614 349.255 276.18 351.181 276.18C353.108 276.18 354.679 274.614 354.679 272.693Z" fill="#231F20"/>
<path fill-rule="evenodd" clip-rule="evenodd" d="M353.28 273.042C353.28 271.701 352.176 270.601 350.831 270.601C349.487 270.601 348.383 271.701 348.383 273.042C348.383 274.382 349.487 275.483 350.831 275.483C352.176 275.483 353.28 274.382 353.28 273.042Z" fill="#C8D6D3"/>
<path fill-rule="evenodd" clip-rule="evenodd" d="M351.881 273.042C351.881 272.496 351.425 271.996 350.832 271.996C350.238 271.996 349.782 272.451 349.782 273.042C349.782 273.588 350.238 274.088 350.832 274.088C351.425 274.088 351.881 273.634 351.881 273.042Z" fill="#67838B"/>
<path fill-rule="evenodd" clip-rule="evenodd" d="M350.482 271.648C350.482 271.448 350.632 271.299 350.832 271.299C351.032 271.299 351.182 271.448 351.182 271.648C351.182 271.847 351.032 271.996 350.832 271.996C350.682 271.946 350.482 271.797 350.482 271.648Z" fill="#476970"/>
<path fill-rule="evenodd" clip-rule="evenodd" d="M350.482 275.134C350.482 274.935 350.632 274.785 350.832 274.785C351.032 274.785 351.182 274.935 351.182 275.134C351.182 275.333 351.032 275.483 350.832 275.483C350.682 275.433 350.482 275.283 350.482 275.134Z" fill="#476970"/>
<path fill-rule="evenodd" clip-rule="evenodd" d="M348.733 273.391C348.533 273.391 348.383 273.241 348.383 273.042C348.383 272.843 348.533 272.693 348.733 272.693C348.932 272.693 349.082 272.843 349.082 273.042C349.082 273.241 348.932 273.391 348.733 273.391Z" fill="#476970"/>
<path fill-rule="evenodd" clip-rule="evenodd" d="M352.93 273.391C352.73 273.391 352.58 273.241 352.58 273.042C352.58 272.843 352.73 272.693 352.93 272.693C353.13 272.693 353.28 272.843 353.28 273.042C353.28 273.241 353.13 273.391 352.93 273.391Z" fill="#476970"/>
<path fill-rule="evenodd" clip-rule="evenodd" d="M349.192 271.888C349.047 271.744 349.047 271.551 349.192 271.407C349.336 271.263 349.529 271.263 349.674 271.407C349.819 271.551 349.819 271.744 349.674 271.888C349.529 272.032 349.336 272.032 349.192 271.888Z" fill="#476970"/>
<path fill-rule="evenodd" clip-rule="evenodd" d="M351.989 274.677C351.845 274.533 351.845 274.34 351.989 274.196C352.134 274.052 352.327 274.052 352.472 274.196C352.617 274.34 352.617 274.533 352.472 274.677C352.327 274.821 352.086 274.821 351.989 274.677Z" fill="#476970"/>
<path fill-rule="evenodd" clip-rule="evenodd" d="M349.706 274.677C349.554 274.821 349.35 274.821 349.197 274.677C349.045 274.533 349.045 274.34 349.197 274.196C349.35 274.052 349.554 274.052 349.706 274.196C349.808 274.34 349.808 274.533 349.706 274.677Z" fill="#476970"/>
<path fill-rule="evenodd" clip-rule="evenodd" d="M352.504 271.888C352.351 272.032 352.148 272.032 351.995 271.888C351.843 271.744 351.843 271.551 351.995 271.407C352.148 271.263 352.351 271.263 352.504 271.407C352.606 271.551 352.606 271.744 352.504 271.888Z" fill="#476970"/>
<path fill-rule="evenodd" clip-rule="evenodd" d="M371.469 272.693C371.469 269.233 368.643 266.416 365.173 266.416C361.703 266.416 358.877 269.233 358.877 272.693C358.877 276.153 361.703 278.97 365.173 278.97C368.693 278.97 371.469 276.153 371.469 272.693Z" fill="#231F20"/>
<path fill-rule="evenodd" clip-rule="evenodd" d="M369.37 272.693C369.37 270.406 367.516 268.509 365.173 268.509C362.879 268.509 360.976 270.406 360.976 272.693C360.976 275.029 362.879 276.878 365.173 276.878C367.467 276.878 369.37 275.029 369.37 272.693Z" fill="#C8D6D3"/>
<path fill-rule="evenodd" clip-rule="evenodd" d="M368.67 272.693C368.67 270.773 367.099 269.206 365.173 269.206C363.246 269.206 361.675 270.773 361.675 272.693C361.675 274.614 363.246 276.18 365.173 276.18C367.099 276.18 368.67 274.614 368.67 272.693Z" fill="#231F20"/>
<path fill-rule="evenodd" clip-rule="evenodd" d="M367.272 273.042C367.272 271.701 366.168 270.601 364.823 270.601C363.479 270.601 362.375 271.701 362.375 273.042C362.375 274.382 363.479 275.483 364.823 275.483C366.168 275.483 367.272 274.382 367.272 273.042Z" fill="#C8D6D3"/>
<path fill-rule="evenodd" clip-rule="evenodd" d="M365.872 273.042C365.872 272.496 365.416 271.996 364.823 271.996C364.275 271.996 363.773 272.451 363.773 273.042C363.773 273.588 364.23 274.088 364.823 274.088C365.416 274.088 365.872 273.634 365.872 273.042Z" fill="#67838B"/>
<path fill-rule="evenodd" clip-rule="evenodd" d="M364.473 271.648C364.473 271.448 364.623 271.299 364.822 271.299C365.022 271.299 365.172 271.448 365.172 271.648C365.172 271.847 365.022 271.996 364.822 271.996C364.623 271.946 364.473 271.797 364.473 271.648Z" fill="#476970"/>
<path fill-rule="evenodd" clip-rule="evenodd" d="M364.473 275.134C364.473 274.935 364.623 274.785 364.822 274.785C365.022 274.785 365.172 274.935 365.172 275.134C365.172 275.333 365.022 275.483 364.822 275.483C364.623 275.433 364.473 275.283 364.473 275.134Z" fill="#476970"/>
<path fill-rule="evenodd" clip-rule="evenodd" d="M363.424 273.391C363.224 273.391 363.074 273.241 363.074 273.042C363.074 272.843 363.224 272.693 363.424 272.693C363.624 272.693 363.774 272.843 363.774 273.042C363.774 273.241 363.624 273.391 363.424 273.391Z" fill="#476970"/>
<path fill-rule="evenodd" clip-rule="evenodd" d="M366.922 273.391C366.722 273.391 366.572 273.241 366.572 273.042C366.572 272.843 366.722 272.693 366.922 272.693C367.122 272.693 367.272 272.843 367.272 273.042C367.272 273.241 367.122 273.391 366.922 273.391Z" fill="#476970"/>
<path fill-rule="evenodd" clip-rule="evenodd" d="M363.183 271.888C363.038 271.744 363.038 271.551 363.183 271.407C363.328 271.263 363.52 271.263 363.665 271.407C363.81 271.551 363.81 271.744 363.665 271.888C363.52 272.032 363.328 272.032 363.183 271.888Z" fill="#476970"/>
<path fill-rule="evenodd" clip-rule="evenodd" d="M365.981 274.677C365.836 274.533 365.836 274.34 365.981 274.196C366.125 274.052 366.318 274.052 366.463 274.196C366.608 274.34 366.608 274.533 366.463 274.677C366.318 274.821 366.077 274.821 365.981 274.677Z" fill="#476970"/>
<path fill-rule="evenodd" clip-rule="evenodd" d="M363.697 274.677C363.545 274.821 363.341 274.821 363.189 274.677C363.036 274.533 363.036 274.34 363.189 274.196C363.341 274.052 363.545 274.052 363.697 274.196C363.799 274.34 363.799 274.533 363.697 274.677Z" fill="#476970"/>
<path fill-rule="evenodd" clip-rule="evenodd" d="M366.463 271.888C366.318 272.032 366.125 272.032 365.981 271.888C365.836 271.744 365.836 271.551 365.981 271.407C366.125 271.263 366.318 271.263 366.463 271.407C366.608 271.551 366.608 271.744 366.463 271.888Z" fill="#476970"/>
<path fill-rule="evenodd" clip-rule="evenodd" d="M350.722 265.021C353.715 265.021 356.359 266.641 357.755 269.045C359.152 266.641 361.745 265.021 364.788 265.021C369.227 265.021 372.868 268.554 372.868 272.97C372.868 273.608 372.769 274.197 372.669 274.785H371.671C371.821 274.197 371.921 273.608 371.921 272.97C371.921 269.094 368.728 266.003 364.838 266.003C361.945 266.003 359.501 267.671 358.404 270.075H357.256C356.159 267.671 353.665 266.003 350.822 266.003C346.882 266.003 343.739 269.143 343.739 272.97C343.739 273.608 343.839 274.197 343.989 274.785H342.991C342.841 274.197 342.792 273.559 342.792 272.97C342.642 268.603 346.283 265.021 350.722 265.021Z" fill="#BCCDCC"/>
<path fill-rule="evenodd" clip-rule="evenodd" d="M340.688 264.324H341.387V272.693H340.688V264.324Z" fill="#ACBFBE"/>
<path fill-rule="evenodd" clip-rule="evenodd" d="M339.988 270.601H340.688V274.088H339.988V270.601Z" fill="#EA1D29"/>
<path fill-rule="evenodd" clip-rule="evenodd" d="M414.143 235.032H414.842V263.627H414.143V235.032Z" fill="#C0D2D0"/>
<path fill-rule="evenodd" clip-rule="evenodd" d="M378.465 235.032H379.164V263.627H378.465V235.032Z" fill="#C0D2D0"/>
<path fill-rule="evenodd" clip-rule="evenodd" d="M376.365 235.032H377.065V263.627H376.365V235.032Z" fill="#C0D2D0"/>
<path fill-rule="evenodd" clip-rule="evenodd" d="M373.567 235.032H374.267V263.627H373.567V235.032Z" fill="#C0D2D0"/>
<path fill-rule="evenodd" clip-rule="evenodd" d="M371.469 235.032H372.168V263.627H371.469V235.032Z" fill="#C0D2D0"/>
<path fill-rule="evenodd" clip-rule="evenodd" d="M368.671 235.032H369.37V263.627H368.671V235.032Z" fill="#C0D2D0"/>
<path fill-rule="evenodd" clip-rule="evenodd" d="M365.872 235.032H366.572V263.627H365.872V235.032Z" fill="#C0D2D0"/>
<path fill-rule="evenodd" clip-rule="evenodd" d="M363.773 235.032H364.473V263.627H363.773V235.032Z" fill="#C0D2D0"/>
<path fill-rule="evenodd" clip-rule="evenodd" d="M360.976 235.032H361.675V263.627H360.976V235.032Z" fill="#C0D2D0"/>
<path fill-rule="evenodd" clip-rule="evenodd" d="M358.177 235.032H358.876V263.627H358.177V235.032Z" fill="#C0D2D0"/>
<path fill-rule="evenodd" clip-rule="evenodd" d="M356.078 235.032H356.778V263.627H356.078V235.032Z" fill="#C0D2D0"/>
<path fill-rule="evenodd" clip-rule="evenodd" d="M353.28 235.032H353.98V263.627H353.28V235.032Z" fill="#C0D2D0"/>
<path fill-rule="evenodd" clip-rule="evenodd" d="M350.482 235.032H351.182V263.627H350.482V235.032Z" fill="#C0D2D0"/>
<path fill-rule="evenodd" clip-rule="evenodd" d="M348.383 235.032H349.082V263.627H348.383V235.032Z" fill="#C0D2D0"/>
<path fill-rule="evenodd" clip-rule="evenodd" d="M345.585 235.032H346.285V263.627H345.585V235.032Z" fill="#C0D2D0"/>
<path fill-rule="evenodd" clip-rule="evenodd" d="M343.486 235.032H344.186V263.627H343.486V235.032Z" fill="#C0D2D0"/>
<path fill-rule="evenodd" clip-rule="evenodd" d="M340.688 235.032H341.387V263.627H340.688V235.032Z" fill="#C0D2D0"/>
<path fill-rule="evenodd" clip-rule="evenodd" d="M337.89 235.032H338.589V263.627H337.89V235.032Z" fill="#C0D2D0"/>
<path fill-rule="evenodd" clip-rule="evenodd" d="M335.791 235.032H336.491V263.627H335.791V235.032Z" fill="#C0D2D0"/>
<path fill-rule="evenodd" clip-rule="evenodd" d="M414.143 233.638H414.842V235.033H414.143V233.638Z" fill="#A4BBBA"/>
<path fill-rule="evenodd" clip-rule="evenodd" d="M395.254 233.638H396.653V235.033H395.254V233.638Z" fill="#C0D2D0"/>
<path fill-rule="evenodd" clip-rule="evenodd" d="M377.065 233.638H378.465V235.033H377.065V233.638Z" fill="#C0D2D0"/>
<path fill-rule="evenodd" clip-rule="evenodd" d="M378.465 233.638H379.164V235.033H378.465V233.638Z" fill="#A4BBBA"/>
<path fill-rule="evenodd" clip-rule="evenodd" d="M374.967 233.638H376.366V235.033H374.967V233.638Z" fill="#C0D2D0"/>
<path fill-rule="evenodd" clip-rule="evenodd" d="M376.365 233.638H377.065V235.033H376.365V233.638Z" fill="#A4BBBA"/>
<path fill-rule="evenodd" clip-rule="evenodd" d="M372.168 233.638H373.567V235.033H372.168V233.638Z" fill="#C0D2D0"/>
<path fill-rule="evenodd" clip-rule="evenodd" d="M373.567 233.638H374.267V235.033H373.567V233.638Z" fill="#A4BBBA"/>
<path fill-rule="evenodd" clip-rule="evenodd" d="M369.37 233.638H370.769V235.033H369.37V233.638Z" fill="#C0D2D0"/>
<path fill-rule="evenodd" clip-rule="evenodd" d="M371.469 233.638H372.168V235.033H371.469V233.638Z" fill="#A4BBBA"/>
<path fill-rule="evenodd" clip-rule="evenodd" d="M367.271 233.638H368.671V235.033H367.271V233.638Z" fill="#C0D2D0"/>
<path fill-rule="evenodd" clip-rule="evenodd" d="M368.671 233.638H369.37V235.033H368.671V233.638Z" fill="#A4BBBA"/>
<path fill-rule="evenodd" clip-rule="evenodd" d="M364.473 233.638H365.872V235.033H364.473V233.638Z" fill="#C0D2D0"/>
<path fill-rule="evenodd" clip-rule="evenodd" d="M365.872 233.638H366.572V235.033H365.872V233.638Z" fill="#A4BBBA"/>
<path fill-rule="evenodd" clip-rule="evenodd" d="M361.675 233.638H363.074V235.033H361.675V233.638Z" fill="#C0D2D0"/>
<path fill-rule="evenodd" clip-rule="evenodd" d="M363.773 233.638H364.473V235.033H363.773V233.638Z" fill="#A4BBBA"/>
<path fill-rule="evenodd" clip-rule="evenodd" d="M359.576 233.638H360.975V235.033H359.576V233.638Z" fill="#C0D2D0"/>
<path fill-rule="evenodd" clip-rule="evenodd" d="M360.976 233.638H361.675V235.033H360.976V233.638Z" fill="#A4BBBA"/>
<path fill-rule="evenodd" clip-rule="evenodd" d="M356.778 233.638H358.177V235.033H356.778V233.638Z" fill="#C0D2D0"/>
<path fill-rule="evenodd" clip-rule="evenodd" d="M358.177 233.638H358.876V235.033H358.177V233.638Z" fill="#A4BBBA"/>
<path fill-rule="evenodd" clip-rule="evenodd" d="M354.68 233.638H356.079V235.033H354.68V233.638Z" fill="#C0D2D0"/>
<path fill-rule="evenodd" clip-rule="evenodd" d="M356.078 233.638H356.778V235.033H356.078V233.638Z" fill="#A4BBBA"/>
<path fill-rule="evenodd" clip-rule="evenodd" d="M351.881 233.638H353.28V235.033H351.881V233.638Z" fill="#C0D2D0"/>
<path fill-rule="evenodd" clip-rule="evenodd" d="M353.28 233.638H353.98V235.033H353.28V233.638Z" fill="#A4BBBA"/>
<path fill-rule="evenodd" clip-rule="evenodd" d="M349.083 233.638H350.482V235.033H349.083V233.638Z" fill="#C0D2D0"/>
<path fill-rule="evenodd" clip-rule="evenodd" d="M350.482 233.638H351.182V235.033H350.482V233.638Z" fill="#A4BBBA"/>
<path fill-rule="evenodd" clip-rule="evenodd" d="M346.984 233.638H348.384V235.033H346.984V233.638Z" fill="#C0D2D0"/>
<path fill-rule="evenodd" clip-rule="evenodd" d="M348.383 233.638H349.082V235.033H348.383V233.638Z" fill="#A4BBBA"/>
<path fill-rule="evenodd" clip-rule="evenodd" d="M344.186 233.638H345.585V235.033H344.186V233.638Z" fill="#C0D2D0"/>
<path fill-rule="evenodd" clip-rule="evenodd" d="M345.585 233.638H346.285V235.033H345.585V233.638Z" fill="#A4BBBA"/>
<path fill-rule="evenodd" clip-rule="evenodd" d="M341.388 233.638H342.787V235.033H341.388V233.638Z" fill="#C0D2D0"/>
<path fill-rule="evenodd" clip-rule="evenodd" d="M343.486 233.638H344.186V235.033H343.486V233.638Z" fill="#A4BBBA"/>
<path fill-rule="evenodd" clip-rule="evenodd" d="M339.289 233.638H340.688V235.033H339.289V233.638Z" fill="#C0D2D0"/>
<path fill-rule="evenodd" clip-rule="evenodd" d="M340.688 233.638H341.387V235.033H340.688V233.638Z" fill="#A4BBBA"/>
<path fill-rule="evenodd" clip-rule="evenodd" d="M336.49 233.638H337.889V235.033H336.49V233.638Z" fill="#C0D2D0"/>
<path fill-rule="evenodd" clip-rule="evenodd" d="M337.89 233.638H338.589V235.033H337.89V233.638Z" fill="#A4BBBA"/>
<path fill-rule="evenodd" clip-rule="evenodd" d="M335.791 233.638H336.491V235.033H335.791V233.638Z" fill="#A4BBBA"/>
<path fill-rule="evenodd" clip-rule="evenodd" d="M334.392 233.286C334.392 233.093 334.547 232.939 334.741 232.939C334.936 232.939 335.091 233.093 335.091 233.286C335.091 233.478 334.936 233.632 334.741 233.632C334.547 233.67 334.392 233.478 334.392 233.286Z" fill="#231F20"/>
<path fill-rule="evenodd" clip-rule="evenodd" d="M334.392 263.278C334.392 263.085 334.547 262.93 334.741 262.93C334.936 262.93 335.091 263.085 335.091 263.278C335.091 263.472 334.936 263.627 334.741 263.627C334.547 263.627 334.392 263.472 334.392 263.278Z" fill="#231F20"/>
<path fill-rule="evenodd" clip-rule="evenodd" d="M77.0095 66.9531H404.29C410.445 66.9531 415.491 71.9799 415.491 78.1628L415.541 299.842C415.541 305.975 410.445 311.052 404.29 311.052H77.0095C70.8544 311.052 65.7588 305.975 65.7588 299.842V78.1628C65.7588 71.9799 70.8544 66.9531 77.0095 66.9531Z" fill="#231F20"/>
<path fill-rule="evenodd" clip-rule="evenodd" d="M76.9996 66.9531H364.473L119.695 311.052H76.9996C70.8499 311.052 65.7588 305.975 65.7588 299.842V78.1628C65.7588 71.9799 70.8499 66.9531 76.9996 66.9531Z" fill="#13342D"/>
<path fill-rule="evenodd" clip-rule="evenodd" d="M81.8486 84.3887H398.751V295.011H81.8486V84.3887Z" fill="#BBBDBF"/>
<path fill-rule="evenodd" clip-rule="evenodd" d="M240.599 325H20.7917C12.072 325 6.12445 318.694 2.79785 315.491L240.65 315.236L478.502 315.491C475.175 318.644 469.228 325 460.508 325H240.599Z" fill="#37596B"/>
<path fill-rule="evenodd" clip-rule="evenodd" d="M0.699219 306.17H482V311.401C482 314.272 479.68 316.631 476.855 316.631H5.84358C3.01923 316.631 0.699219 314.272 0.699219 311.401L0.699219 306.17Z" fill="#DDE4E1"/>
<path fill-rule="evenodd" clip-rule="evenodd" d="M5.34162 315.934H475.959C478.882 315.934 481.3 313.565 481.3 310.703V305.473H0V310.703C0 313.565 2.36846 315.934 5.34162 315.934ZM0.403137 310.654V305.818H480.897V310.654C480.897 313.318 478.68 315.49 475.959 315.49H5.34162C2.62041 315.49 0.403137 313.318 0.403137 310.654Z" fill="#C6C4C3"/>
<path fill-rule="evenodd" clip-rule="evenodd" d="M274.229 306.17C274.128 307.455 273.524 308.585 272.668 309.407V309.459C271.661 310.435 270.302 311.052 268.842 311.052H213.158C211.698 311.052 210.338 310.435 209.331 309.407C208.526 308.585 207.922 307.403 207.771 306.17H209.08C209.281 307.095 209.684 307.866 210.238 308.482C210.942 309.253 212 309.767 213.158 309.767H268.842C269.95 309.767 270.957 309.305 271.762 308.585L271.812 308.534C272.417 307.917 272.819 307.146 272.92 306.221H274.229V306.17Z" fill="#92A8AA"/>
<path fill-rule="evenodd" clip-rule="evenodd" d="M81.8486 295.011H135.34L346.984 84.3887H81.8486V295.011Z" fill="#D0D2D3"/>
<path fill-rule="evenodd" clip-rule="evenodd" d="M114.729 295.011H365.872V5.47899C365.872 2.46303 363.399 0 360.37 0H120.281C117.202 0 114.779 2.46303 114.779 5.47899V295.011H114.729Z" fill="#F1F1F2"/>
<path fill-rule="evenodd" clip-rule="evenodd" d="M365.173 18.8305V5.41562C365.173 2.43455 362.705 0 359.684 0H120.217C117.145 0 114.729 2.43455 114.729 5.41562V18.8305H365.173Z" fill="#6D6E70"/>
<path fill-rule="evenodd" clip-rule="evenodd" d="M115.428 83.6914H93.042L115.428 294.314V83.6914Z" fill="#A6A8AB"/>
<path fill-rule="evenodd" clip-rule="evenodd" d="M365.872 83.6914H388.258L365.872 294.314V83.6914Z" fill="#929497"/>
<path fill-rule="evenodd" clip-rule="evenodd" d="M126.595 6.97461C128.112 6.97461 129.42 8.27821 129.42 9.79038C129.42 11.2504 128.112 12.554 126.595 12.554C125.131 12.554 123.823 11.2504 123.823 9.79038C123.823 8.27821 125.131 6.97461 126.595 6.97461Z" fill="#ED2828"/>
<path fill-rule="evenodd" clip-rule="evenodd" d="M137.814 6.97461C139.345 6.97461 140.612 8.27821 140.612 9.79038C140.612 11.2504 139.398 12.554 137.814 12.554C136.283 12.554 135.016 11.2504 135.016 9.79038C135.016 8.27821 136.283 6.97461 137.814 6.97461Z" fill="#58BC7D"/>
<path fill-rule="evenodd" clip-rule="evenodd" d="M148.308 6.97461C149.839 6.97461 151.106 8.27821 151.106 9.79038C151.106 11.2504 149.892 12.554 148.308 12.554C146.777 12.554 145.51 11.2504 145.51 9.79038C145.51 8.27821 146.724 6.97461 148.308 6.97461Z" fill="#ECEAEA"/>
<path fill-rule="evenodd" clip-rule="evenodd" d="M161.6 6.27734H353.98V13.2516H161.6V6.27734Z" fill="white"/>
<path fill-rule="evenodd" clip-rule="evenodd" d="M186.084 57.1895H339.289V59.2817H186.084V57.1895Z" fill="#231F20"/>
<path fill-rule="evenodd" clip-rule="evenodd" d="M186.084 71.835H228.058V73.9272H186.084V71.835Z" fill="#231F20"/>
<path fill-rule="evenodd" clip-rule="evenodd" d="M186.084 34.1738H339.289V43.9378H186.084V34.1738Z" fill="#EC2029"/>
<path fill-rule="evenodd" clip-rule="evenodd" d="M146.908 147.854H336.49V238.519H146.908V147.854Z" fill="white"/>
<path fill-rule="evenodd" clip-rule="evenodd" d="M146.908 238.519H336.49V147.156H146.908V238.519ZM336.088 238.116H147.26V147.508H336.088V238.116Z" fill="#231F20"/>
<path fill-rule="evenodd" clip-rule="evenodd" d="M160.2 158.315H165.797V232.242H160.2V158.315Z" fill="#231F20"/>
<path fill-rule="evenodd" clip-rule="evenodd" d="M170.693 165.987H176.29V232.243H170.693V165.987Z" fill="#231F20"/>
<path fill-rule="evenodd" clip-rule="evenodd" d="M180.487 165.987H186.084V232.243H180.487V165.987Z" fill="#231F20"/>
<path fill-rule="evenodd" clip-rule="evenodd" d="M190.981 158.315H196.578V232.242H190.981V158.315Z" fill="#231F20"/>
<path fill-rule="evenodd" clip-rule="evenodd" d="M200.775 165.987H206.372V232.243H200.775V165.987Z" fill="#231F20"/>
<path fill-rule="evenodd" clip-rule="evenodd" d="M211.269 165.987H216.865V232.243H211.269V165.987Z" fill="#231F20"/>
<path fill-rule="evenodd" clip-rule="evenodd" d="M221.062 158.315H226.659V232.242H221.062V158.315Z" fill="#231F20"/>
<path fill-rule="evenodd" clip-rule="evenodd" d="M231.556 165.987H237.152V232.243H231.556V165.987Z" fill="#231F20"/>
<path fill-rule="evenodd" clip-rule="evenodd" d="M241.35 165.987H246.946V232.243H241.35V165.987Z" fill="#231F20"/>
<path fill-rule="evenodd" clip-rule="evenodd" d="M251.844 158.315H257.44V232.242H251.844V158.315Z" fill="#231F20"/>
<path fill-rule="evenodd" clip-rule="evenodd" d="M261.637 165.987H267.233V232.243H261.637V165.987Z" fill="#231F20"/>
<path fill-rule="evenodd" clip-rule="evenodd" d="M272.131 165.987H277.727V232.243H272.131V165.987Z" fill="#231F20"/>
<path fill-rule="evenodd" clip-rule="evenodd" d="M281.925 158.315H287.521V232.242H281.925V158.315Z" fill="#231F20"/>
<path fill-rule="evenodd" clip-rule="evenodd" d="M292.418 165.987H298.014V232.243H292.418V165.987Z" fill="#231F20"/>
<path fill-rule="evenodd" clip-rule="evenodd" d="M302.212 165.987H307.808V232.243H302.212V165.987Z" fill="#231F20"/>
<path fill-rule="evenodd" clip-rule="evenodd" d="M312.705 158.315H318.302V232.242H312.705V158.315Z" fill="#231F20"/>
<path fill-rule="evenodd" clip-rule="evenodd" d="M275.629 253.165H336.491V257.35H275.629V253.165Z" fill="#231F20"/>
<path fill-rule="evenodd" clip-rule="evenodd" d="M149.707 269.903H336.491V274.088H149.707V269.903Z" fill="#231F20"/>
<path fill-rule="evenodd" clip-rule="evenodd" d="M156.566 123.778C155.454 122.691 153.939 122.049 152.271 122.049C150.604 122.049 149.089 122.74 147.977 123.778C146.866 124.865 146.209 126.347 146.209 127.977C146.209 129.607 146.866 131.089 147.977 132.176C149.089 133.263 150.604 133.905 152.271 133.905C153.939 133.905 155.454 133.263 156.566 132.176C157.374 131.386 157.93 130.447 158.182 129.36H207.288V126.594H158.182C157.93 125.507 157.324 124.519 156.566 123.778ZM154.545 125.754C153.939 125.161 153.13 124.815 152.271 124.815C151.362 124.815 150.554 125.161 149.998 125.754C149.392 126.347 149.038 127.088 149.038 127.977C149.038 128.866 149.392 129.657 149.998 130.2C150.604 130.793 151.413 131.139 152.271 131.139C153.181 131.139 153.989 130.793 154.545 130.2C155.151 129.607 155.505 128.817 155.505 127.977C155.505 127.137 155.151 126.347 154.545 125.754ZM216.635 126.594H256.041V129.36H216.635V126.594Z" fill="#231F20"/>
<path fill-rule="evenodd" clip-rule="evenodd" d="M326.121 123.778C327.233 122.691 328.751 122.049 330.42 122.049C332.09 122.049 333.607 122.74 334.72 123.778C335.833 124.865 336.49 126.347 336.49 127.977C336.49 129.607 335.833 131.089 334.72 132.176C333.607 133.263 332.09 133.905 330.42 133.905C328.751 133.905 327.233 133.263 326.121 132.176C325.311 131.386 324.755 130.447 324.502 129.36H274.929V126.594H324.502C324.755 125.507 325.362 124.519 326.121 123.778ZM330.42 124.815C329.51 124.815 328.751 125.161 328.144 125.754C327.537 126.347 327.183 127.137 327.183 127.977C327.183 128.817 327.537 129.607 328.144 130.2C328.7 130.793 329.51 131.139 330.42 131.139C331.28 131.139 332.089 130.793 332.696 130.2C333.303 129.657 333.658 128.866 333.658 127.977C333.658 127.088 333.303 126.347 332.696 125.754C332.14 125.161 331.331 124.815 330.42 124.815Z" fill="#231F20"/>
<path fill-rule="evenodd" clip-rule="evenodd" d="M266.644 123.778C267.758 122.691 269.278 122.049 270.949 122.049C272.621 122.049 274.14 122.74 275.255 123.778C276.369 124.865 277.027 126.347 277.027 127.977C277.027 129.607 276.369 131.089 275.255 132.176C274.14 133.263 272.621 133.905 270.949 133.905C269.278 133.905 267.758 133.263 266.644 132.176C265.834 131.386 265.276 130.447 265.023 129.36H251.144V126.594H265.023C265.276 125.507 265.884 124.519 266.644 123.778ZM270.949 124.815C270.038 124.815 269.278 125.161 268.67 125.754C268.062 126.347 267.708 127.137 267.708 127.977C267.708 128.817 268.062 129.607 268.67 130.2C269.227 130.793 270.038 131.139 270.949 131.139C271.81 131.139 272.621 130.793 273.229 130.2C273.836 129.657 274.191 128.866 274.191 127.977C274.191 127.088 273.836 126.347 273.229 125.754C272.671 125.161 271.861 124.815 270.949 124.815Z" fill="#231F20"/>
<path fill-rule="evenodd" clip-rule="evenodd" d="M207.88 123.778C208.995 122.691 210.514 122.049 212.186 122.049C213.857 122.049 215.377 122.74 216.491 123.778C217.605 124.865 218.264 126.347 218.264 127.977C218.264 129.607 217.605 131.089 216.491 132.176C215.377 133.263 213.857 133.905 212.186 133.905C210.514 133.905 208.995 133.263 207.88 132.176C207.07 131.386 206.513 130.447 206.26 129.36H192.38V126.594H206.26C206.513 125.507 207.121 124.519 207.88 123.778ZM212.186 124.815C211.274 124.815 210.514 125.161 209.906 125.754C209.299 126.347 208.944 127.137 208.944 127.977C208.944 128.817 209.299 129.607 209.906 130.2C210.463 130.793 211.274 131.139 212.186 131.139C213.047 131.139 213.857 130.793 214.465 130.2C215.073 129.657 215.427 128.866 215.427 127.977C215.427 127.088 215.073 126.347 214.465 125.754C213.908 125.161 213.097 124.815 212.186 124.815Z" fill="#231F20"/>
<path fill-rule="evenodd" clip-rule="evenodd" d="M152.505 115.075C158.312 115.075 162.999 110.352 162.999 104.614C162.999 98.8244 158.261 94.1523 152.505 94.1523C146.698 94.1523 142.012 98.8752 142.012 104.614C142.012 110.403 146.698 115.075 152.505 115.075Z" fill="#0082BE"/>
<path fill-rule="evenodd" clip-rule="evenodd" d="M146.96 106.706H148.141C147.986 106.965 147.884 107.275 147.884 107.636C147.884 108.669 148.705 109.496 149.732 109.496C150.759 109.496 151.581 108.669 151.581 107.636C151.581 107.275 151.478 106.965 151.324 106.706H153.737C153.583 106.965 153.48 107.275 153.48 107.636C153.48 108.669 154.302 109.496 155.329 109.496C156.356 109.496 157.177 108.669 157.177 107.636C157.177 107.275 157.074 106.965 156.92 106.706H158.101V105.776H146.96V106.706ZM155.277 106.706C155.791 106.706 156.202 107.119 156.202 107.636C156.202 108.153 155.791 108.566 155.277 108.566C154.764 108.566 154.353 108.153 154.353 107.636C154.353 107.119 154.764 106.706 155.277 106.706ZM149.732 106.706C150.246 106.706 150.656 107.119 150.656 107.636C150.656 108.153 150.246 108.566 149.732 108.566C149.219 108.566 148.808 108.153 148.808 107.636C148.808 107.119 149.219 106.706 149.732 106.706ZM148.962 105.311C148.294 104.743 147.884 103.864 147.884 102.986C147.884 102.108 148.294 101.23 148.962 100.661H156.099C156.766 101.23 157.177 102.108 157.177 102.986C157.177 103.864 156.766 104.743 156.099 105.311H157.331C157.793 104.639 158.101 103.813 158.101 102.986C158.101 101.746 157.485 100.558 156.51 99.8348L156.407 99.7314H148.654L148.5 99.8348C147.524 100.558 146.908 101.746 146.908 102.986C146.908 103.813 147.165 104.639 147.678 105.311H148.962Z" fill="white"/>
<path fill-rule="evenodd" clip-rule="evenodd" d="M211.968 115.075C217.775 115.075 222.462 110.352 222.462 104.614C222.462 98.8244 217.724 94.1523 211.968 94.1523C206.161 94.1523 201.475 98.8752 201.475 104.614C201.424 110.403 206.161 115.075 211.968 115.075Z" fill="#0082BE"/>
<path fill-rule="evenodd" clip-rule="evenodd" d="M206.371 99.7314V107.477H207.3V100.637H216.636V107.93H217.564V99.7314H206.371ZM215.243 101.542H208.692C208.176 101.542 207.764 101.945 207.764 102.448V109.288C207.764 109.791 208.176 110.193 208.692 110.193H209.621C210.136 110.193 210.549 109.791 210.549 109.288H213.334C213.334 109.791 213.747 110.193 214.263 110.193H215.191C215.707 110.193 216.12 109.791 216.12 109.288V102.448C216.171 101.945 215.759 101.542 215.243 101.542ZM214.314 109.288V108.383H209.621V109.288H208.692V102.448H215.243V109.288H214.314ZM209.156 107.93H211.013V107.024H209.156V107.93ZM212.922 107.93H214.779V107.024H212.922V107.93ZM209.156 106.069H214.779V103.353H209.156V106.069ZM210.136 104.258H213.85V105.164H210.136V104.258Z" fill="white"/>
<path fill-rule="evenodd" clip-rule="evenodd" d="M271.431 115.075C277.238 115.075 281.924 110.352 281.924 104.614C281.924 98.8244 277.187 94.1523 271.431 94.1523C265.624 94.1523 260.938 98.8752 260.938 104.614C260.938 110.403 265.675 115.075 271.431 115.075Z" fill="#0082BE"/>
<path fill-rule="evenodd" clip-rule="evenodd" d="M273.167 108.299L274.397 104.818L270.756 102.617L269.427 103.436V101.798H272.084V102.413L272.97 102.924V101.798C272.97 101.286 272.577 100.877 272.084 100.877H271.198V99.0342H270.313V100.877H269.427C268.935 100.877 268.541 101.286 268.541 101.798V103.999L267.114 104.87L268.344 108.35C268.688 108.401 268.984 108.35 269.279 108.299L268.196 105.33L270.756 103.795L273.315 105.33L272.183 108.401C271.592 108.504 271.1 108.657 270.559 108.811C269.378 109.22 268.295 109.579 266.178 108.709L265.834 109.579C266.917 110.039 267.753 110.193 268.492 110.193C269.427 110.193 270.116 109.937 270.854 109.681C272.035 109.272 273.167 108.913 275.283 109.835L275.628 108.964C274.644 108.504 273.807 108.299 273.167 108.299Z" fill="white"/>
<path fill-rule="evenodd" clip-rule="evenodd" d="M147.914 41.567H139.205V41.3674H137.787C137.686 40.968 137.433 40.6186 137.129 40.3191C136.623 39.77 135.914 39.4705 135.104 39.4705C134.344 39.4705 133.585 39.8199 133.079 40.3191C132.522 40.8183 132.218 41.5171 132.218 42.3158C132.218 43.0646 132.572 43.8134 133.079 44.3125C133.585 44.8616 134.294 45.1611 135.104 45.1611C135.863 45.1611 136.623 44.8117 137.129 44.3125C137.382 44.013 137.636 43.6636 137.787 43.2643H138.8H148.522H148.927L149.231 42.9648L152.117 40.1194H154.901L143.155 51.7004C142.294 50.2029 141.838 48.4557 141.838 46.6088V46.1096H143.762C143.863 46.3093 143.965 46.5089 144.117 46.6587C144.37 46.9083 144.724 47.058 145.129 47.058C145.534 47.058 145.889 46.9083 146.142 46.6587C146.395 46.4091 146.547 46.0597 146.547 45.6603C146.547 45.261 146.395 44.9116 146.142 44.662C145.889 44.4124 145.534 44.2626 145.129 44.2626C144.724 44.2626 144.37 44.4124 144.117 44.662C143.965 44.8117 143.813 45.0114 143.762 45.2111H141.889H140.674H138.446L138.446 45.2111C138.395 45.7102 138.344 46.2094 138.344 46.7086C138.344 50.1529 139.61 53.3477 141.737 55.7937L144.218 53.3477L157.838 39.9198L159.357 38.4222L159.458 38.3224L159.813 37.973L161.737 36.0761L162.446 35.3772L166.496 31.3838H163.762L160.876 34.2291L160.118 34.9763C157.908 33.5921 155.279 32.7815 152.471 32.7815C147.306 32.7815 142.749 35.527 140.268 39.6202H143.813H144.471H147.357L148.319 38.6718L149.636 37.3739L150.091 36.9247L150.75 36.2757C151.306 36.1759 151.863 36.126 152.42 36.126C154.952 36.126 157.281 36.9746 159.104 38.4222H157.028H151.509H151.104L150.8 38.7217L147.914 41.567ZM145.382 38.7223C146.395 37.8737 147.61 37.1748 148.927 36.7256L146.901 38.7223H145.382ZM144.876 45.3613C145.028 45.3613 145.129 45.4112 145.23 45.5111C145.332 45.6109 145.382 45.7108 145.382 45.8605C145.382 46.0103 145.332 46.1101 145.23 46.2099C145.129 46.3098 145.028 46.3597 144.876 46.3597C144.724 46.3597 144.623 46.3098 144.522 46.2099C144.42 46.1101 144.37 46.0103 144.37 45.8605C144.37 45.7108 144.42 45.6109 144.522 45.5111C144.623 45.4112 144.724 45.3613 144.876 45.3613ZM135.509 41.8669C135.357 41.7171 135.104 41.5674 134.851 41.5674C134.598 41.5674 134.344 41.6672 134.192 41.8669C134.041 42.0166 133.889 42.2662 133.889 42.5158C133.889 42.7654 133.99 43.015 134.192 43.1648C134.344 43.3145 134.598 43.4643 134.851 43.4643C135.104 43.4643 135.357 43.3644 135.509 43.1648C135.661 43.015 135.813 42.7654 135.813 42.5158C135.813 42.2662 135.711 42.0166 135.509 41.8669Z" fill="#EC2029"/>
<path fill-rule="evenodd" clip-rule="evenodd" d="M156.96 51.9085H165.655V51.8587H167.264C167.364 52.2572 167.615 52.606 167.917 52.9048C168.42 53.4528 169.123 53.7517 169.927 53.7517C170.681 53.7517 171.435 53.403 171.938 52.9048C172.491 52.4067 172.792 51.7093 172.792 50.9122C172.792 50.165 172.441 49.4177 171.938 48.9196C171.435 48.3716 170.732 48.0727 169.927 48.0727C169.173 48.0727 168.42 48.4214 167.917 48.9196C167.615 49.2185 167.414 49.5672 167.264 49.9657H166.258H156.608H156.206L155.904 50.2646L153.039 53.1041H150.275L161.785 41.6464C162.639 43.1409 163.092 44.8845 163.092 46.7277V47.2258H161.182C161.081 47.0266 160.981 46.8273 160.83 46.6778C160.579 46.4288 160.227 46.2793 159.825 46.2793C159.423 46.2793 159.071 46.4288 158.82 46.6778C158.568 46.9269 158.417 47.2756 158.417 47.6742C158.417 48.0727 158.568 48.4214 158.82 48.6705C159.071 48.9196 159.423 49.069 159.825 49.069C160.227 49.069 160.579 48.9196 160.83 48.6705C160.981 48.521 161.132 48.3218 161.182 48.1225H163.042H164.248H166.51C166.56 47.6742 166.56 47.2258 166.56 46.7775C166.56 43.2903 165.253 40.1021 163.142 37.6611L160.729 40.0523L147.209 53.4528L145.701 54.9473L145.601 55.0469L145.249 55.3957L143.289 57.3385L142.635 57.9861L138.514 62.071H141.228L144.093 59.1817L144.746 58.5341C146.907 59.9289 149.571 60.7758 152.386 60.7758C157.613 60.7758 162.137 57.9861 164.6 53.8514H161.031H160.378H157.513L156.558 54.7979L155.251 56.0931L154.799 56.5414L154.145 57.189C153.592 57.2887 153.039 57.3385 152.486 57.3385C149.973 57.3385 147.661 56.4916 145.852 55.0469H147.913H153.391H153.793L154.095 54.748L156.96 51.9085ZM159.976 48.1223C159.825 48.1223 159.724 48.0725 159.624 47.9728C159.523 47.8732 159.473 47.7736 159.473 47.6241C159.473 47.4747 159.523 47.3751 159.624 47.2754C159.724 47.1758 159.825 47.126 159.976 47.126C160.126 47.126 160.227 47.1758 160.327 47.2754C160.428 47.3751 160.478 47.4747 160.478 47.6241C160.478 47.7736 160.428 47.8732 160.327 47.9728C160.227 48.0725 160.126 48.1223 159.976 48.1223ZM159.473 54.748C158.468 55.5949 157.261 56.2923 155.955 56.7407L157.965 54.748H159.473ZM169.274 51.6097C169.425 51.7592 169.676 51.9086 169.927 51.9086C170.179 51.9086 170.43 51.809 170.581 51.6097C170.732 51.4603 170.882 51.2112 170.882 50.9621C170.882 50.713 170.782 50.464 170.581 50.3145C170.43 50.1651 170.179 50.0156 169.927 50.0156C169.676 50.0156 169.425 50.1153 169.274 50.3145C169.123 50.464 168.972 50.713 168.972 50.9621C168.972 51.2112 169.073 51.4603 169.274 51.6097Z" fill="#00ADE8"/>
<path fill-rule="evenodd" clip-rule="evenodd" d="M330.894 115.075C336.701 115.075 341.387 110.352 341.387 104.614C341.387 98.8244 336.65 94.1523 330.894 94.1523C325.087 94.1523 320.4 98.8752 320.4 104.614C320.4 110.403 325.087 115.075 330.894 115.075Z" fill="#0082BE"/>
<path fill-rule="evenodd" clip-rule="evenodd" d="M329.115 103.335L325.349 103.999V104.918L327.98 104.459L329.115 103.335ZM336.491 101.498L336.078 101.191C335.975 101.14 334.118 99.6084 332.725 101.038L327.928 105.786H326.381L325.298 107.012L328.083 108.646C328.238 108.748 328.444 108.799 328.651 108.799C328.909 108.799 329.115 108.697 329.321 108.543L330.765 107.267L334.686 108.186L336.491 106.756L333.86 104.408L336.491 101.498ZM335.047 106.705L334.479 107.165L330.559 106.246L328.754 107.829C328.702 107.88 328.651 107.88 328.599 107.88L326.794 106.807L326.845 106.756H328.341L333.396 101.753C333.963 101.191 334.531 101.6 335.098 101.804L332.622 104.51L335.047 106.705Z" fill="white"/>
</svg>
