<svg width="24" height="32" viewBox="0 0 24 32" fill="none" xmlns="http://www.w3.org/2000/svg">
<g id="pdf">
<path id="Shape" fill-rule="evenodd" clip-rule="evenodd" d="M12.9197 13.1631C13.2097 13.2603 13.4674 13.39 13.6929 13.5845C14.305 14.1033 14.5949 14.8814 14.5949 15.8865C14.5949 16.2431 14.5627 16.5349 14.4983 16.8267C14.4338 17.1185 14.3372 17.3779 14.2083 17.6048C14.0795 17.8318 13.9184 18.0263 13.7251 18.2208C13.5962 18.3505 13.4352 18.4478 13.2419 18.545C13.0486 18.6099 12.8553 18.6747 12.662 18.7071C12.4365 18.7396 12.211 18.772 11.9533 18.772H10.4714C10.2459 18.772 10.0848 18.7396 9.98819 18.6747C9.89154 18.6099 9.82711 18.545 9.7949 18.4153C9.73047 18.2857 9.73047 18.156 9.73047 17.9614V13.7791C9.73047 13.5197 9.7949 13.3252 9.89154 13.2279C10.0204 13.1306 10.1815 13.0658 10.4392 13.0658H11.9211C12.3077 13.0658 12.6298 13.0982 12.9197 13.1631ZM12.8545 17.6043L12.8545 17.6043C13.2411 17.2801 13.4344 16.7289 13.4666 15.886C13.4666 15.3348 13.37 14.9133 13.2089 14.6215C13.0478 14.3297 12.8545 14.1352 12.5968 14.0704C12.3391 13.9731 12.0492 13.9407 11.6948 13.9407H10.9216V17.8313H11.7914H12.2424C12.3189 17.8313 12.3954 17.811 12.4878 17.7864C12.5122 17.7799 12.5377 17.7732 12.5646 17.7664C12.6612 17.734 12.7579 17.6691 12.8545 17.6043Z" fill="#0F1C49"/>
<path id="Shape_2" fill-rule="evenodd" clip-rule="evenodd" d="M23.9356 6.38703L23.9034 6.35461V6.32219L17.7825 0.162107L17.7503 0.129686C17.7503 0.129686 17.7181 0.129686 17.7181 0.0972644C17.7181 0.0972644 17.6859 0.0972644 17.6859 0.064843C17.5893 0 17.4926 0 17.3638 0H2.1906C1.61074 0 1.06309 0.22695 0.67651 0.616008L0.644295 0.64843C0.257718 1.03749 0 1.62107 0 2.20466V29.7953C0 30.4113 0.257718 30.9625 0.644295 31.3516C1.03087 31.7406 1.61074 32 2.1906 32H21.8094C22.4215 32 22.9691 31.7406 23.3557 31.3516C23.7423 30.9625 24 30.3789 24 29.7953V6.71125C24 6.58156 23.9678 6.4843 23.9356 6.38703ZM17.9768 2.33435L21.6171 5.99798H18.9433C18.6856 5.99798 18.4278 5.90071 18.2668 5.70618C18.1057 5.54408 17.9768 5.28471 17.9768 5.02533V2.33435ZM22.3566 30.3783C22.5177 30.2162 22.6143 30.0216 22.6143 29.7947V7.35901H19.0385C18.3942 7.35901 17.7821 7.09964 17.3633 6.67816C16.9123 6.22426 16.6546 5.64067 16.6546 4.99224V1.32861H2.22238C2.02909 1.32861 1.8358 1.42588 1.67472 1.55556L1.64251 1.58799C1.48144 1.75009 1.38479 1.94462 1.38479 2.17157V29.8271C1.38479 30.054 1.44922 30.2486 1.61029 30.4107C1.77137 30.5404 1.96466 30.6376 2.19016 30.6376H21.7767C22.0022 30.6376 22.1955 30.5404 22.3566 30.3783Z" fill="#0F1C49"/>
<path id="Shape_3" fill-rule="evenodd" clip-rule="evenodd" d="M7.63457 13.1955C7.89229 13.2604 8.08558 13.3576 8.24665 13.5197C8.40773 13.6494 8.53659 13.844 8.66545 14.0385C8.76209 14.2654 8.79431 14.5248 8.79431 14.7842C8.79431 15.3678 8.60102 15.8217 8.24665 16.1135C7.89229 16.4053 7.37686 16.5674 6.66813 16.5674H5.60504V18.1884C5.60504 18.4154 5.54061 18.5775 5.44397 18.7072C5.31511 18.8369 5.18625 18.9017 5.02518 18.9017C4.8641 18.9017 4.70303 18.8693 4.60639 18.7396C4.50974 18.6099 4.44531 18.4478 4.44531 18.2209V13.8115C4.44531 13.5522 4.47753 13.3576 4.60639 13.2604C4.70303 13.1631 4.89632 13.0983 5.15404 13.0983H6.63592C7.05471 13.0983 7.40907 13.1307 7.63457 13.1955ZM7.05543 15.6271C7.24871 15.5623 7.37757 15.465 7.47422 15.3353C7.57086 15.2056 7.60308 15.0435 7.63529 14.849C7.63529 14.5896 7.57086 14.3951 7.40979 14.233C7.2165 14.0709 6.89435 13.9736 6.37892 13.9736H5.60576V15.7244H6.37892C6.63663 15.7244 6.86214 15.692 7.05543 15.6271Z" fill="#0F1C49"/>
<path id="Shape_4" d="M16.3005 13.0334C16.1072 13.0659 15.9784 13.0983 15.8817 13.1631C15.7851 13.1956 15.6884 13.2928 15.6562 13.3901C15.5918 13.4873 15.5918 13.617 15.5918 13.8116V18.1885C15.5918 18.4154 15.6562 18.6099 15.7529 18.7072C15.8495 18.8369 16.0106 18.8693 16.1717 18.8693C16.3327 18.8693 16.4616 18.8045 16.5905 18.7072C16.6871 18.5775 16.7515 18.4154 16.7515 18.1885V16.308H18.6522C18.8133 16.308 18.9421 16.2756 19.0388 16.1783C19.1354 16.1135 19.1676 15.9838 19.1676 15.8541C19.1676 15.7244 19.1354 15.6272 19.0388 15.5299C18.9421 15.4651 18.8133 15.4002 18.6522 15.4002H16.7515V13.9412H19.0066C19.1999 13.9412 19.3287 13.9088 19.4254 13.8116C19.522 13.7143 19.5542 13.617 19.5542 13.4873C19.5542 13.3577 19.522 13.2604 19.4254 13.1631C19.3287 13.0659 19.1999 13.0334 19.0066 13.0334H16.3005V13.0334Z" fill="#0F1C49"/>
</g>
</svg>
