<svg width="32" height="32" viewBox="0 0 32 32" fill="none" xmlns="http://www.w3.org/2000/svg">
<path d="M0.511482 17.0543L12.0678 28.4942C12.3977 28.8208 12.8374 29 13.3062 29C13.7755 29 14.2149 28.8205 14.5448 28.4942L15.594 27.4553C15.9236 27.1293 16.1052 26.6938 16.1052 26.2294C16.1052 25.7654 15.9236 25.3152 15.594 24.9892L8.85223 18.3007L30.2712 18.3007C31.2369 18.3007 32 17.5524 32 16.5961V15.1274C32 14.1712 31.2369 13.3473 30.2712 13.3473L8.77574 13.3473L15.5938 6.62158C15.9234 6.29503 16.105 5.87139 16.105 5.40705C16.105 4.94323 15.9234 4.51341 15.5938 4.18711L14.5445 3.15157C14.2147 2.82501 13.7752 2.64706 13.3059 2.64706C12.8371 2.64706 12.3974 2.82733 12.0675 3.15388L0.511223 14.5935C0.180559 14.9211 -0.00129318 15.3584 7.62939e-06 15.8233C-0.00103378 16.2897 0.180557 16.7272 0.511482 17.0543Z" fill="#009BDE"/>
</svg>
