<svg width="32" height="32" viewBox="0 0 32 32" fill="none" xmlns="http://www.w3.org/2000/svg">
<path d="M31.4885 14.9457L19.9322 3.5058C19.6023 3.17924 19.1626 3 18.6938 3C18.2245 3 17.7851 3.1795 17.4552 3.5058L16.406 4.54469C16.0764 4.87073 15.8948 5.30622 15.8948 5.77055C15.8948 6.23463 16.0764 6.6848 16.406 7.01083L23.1478 13.6993H1.72877C0.763051 13.6993 0 14.4476 0 15.4039V16.8726C0 17.8288 0.763051 18.6527 1.72877 18.6527H23.2243L16.4062 25.3784C16.0766 25.705 15.895 26.1286 15.895 26.5929C15.895 27.0568 16.0766 27.4866 16.4062 27.8129L17.4555 28.8484C17.7853 29.175 18.2248 29.3529 18.6941 29.3529C19.1629 29.3529 19.6026 29.1727 19.9325 28.8461L31.4888 17.4065C31.8194 17.0789 32.0013 16.6416 32 16.1767C32.001 15.7103 31.8194 15.2728 31.4885 14.9457Z" fill="#009BDE"/>
</svg>
