<svg width="82" height="39" viewBox="0 0 82 39" fill="none" xmlns="http://www.w3.org/2000/svg">
<path opacity="0.29" d="M11.6005 6.94823C15.5552 6.94823 19.2462 8.81723 21.3554 11.7543C27.6829 20.2984 40.6015 19.4975 45.8745 10.1523C49.0382 4.27818 55.1021 0.0060917 62.2205 0.0060917C72.7664 -0.260913 81.7303 8.28326 81.994 18.9635C82.2576 29.6436 73.8209 38.7218 63.2751 38.9888C55.6293 39.2558 48.7746 34.7167 45.6108 28.3086C40.6015 18.9634 27.6828 17.6284 21.0917 26.1726C18.9825 28.8426 15.8188 30.7116 12.1277 30.7116C5.53659 30.9787 0.263646 25.6386 0 18.9635C0 12.5553 5.0093 6.94823 11.6005 6.94823Z" fill="#878DA4"/>
</svg>
