<svg width="112" height="112" viewBox="0 0 112 112" fill="none" xmlns="http://www.w3.org/2000/svg">
<path fill-rule="evenodd" clip-rule="evenodd" d="M40.6209 31.8568H0.501465V25.5045H40.6209V31.8568ZM2.00594 30.3523H39.2836V27.009H2.00594V30.3523Z" fill="#0FD7DB"/>
<path fill-rule="evenodd" clip-rule="evenodd" d="M4.68066 28.012H6.18514V29.5164H4.68066V28.012Z" fill="#0FD7DB"/>
<path fill-rule="evenodd" clip-rule="evenodd" d="M7.68945 28.012H9.19393V29.5164H7.68945V28.012Z" fill="#0FD7DB"/>
<path fill-rule="evenodd" clip-rule="evenodd" d="M10.5312 28.012H12.0357V29.5164H10.5312V28.012Z" fill="#0FD7DB"/>
<path fill-rule="evenodd" clip-rule="evenodd" d="M105.982 35.5343C106.484 35.0328 106.818 34.3641 106.818 33.5283C106.818 32.6925 106.484 32.0238 105.982 31.5223C105.481 31.0209 104.812 30.6865 103.976 30.6865C103.14 30.6865 102.472 31.0209 101.97 31.5223C101.469 32.0238 101.134 32.6925 101.134 33.5283C101.134 34.3641 101.469 35.0328 101.97 35.5343C102.472 36.0358 103.14 36.3701 103.976 36.3701C104.812 36.3701 105.481 36.0358 105.982 35.5343ZM105.313 33.5283C105.313 34.0298 105.146 34.3641 104.979 34.5313C104.812 34.6985 104.478 34.8656 103.976 34.8656C103.475 34.8656 103.14 34.6985 102.973 34.5313C102.806 34.197 102.639 33.8626 102.639 33.5283C102.639 33.0268 102.806 32.6925 102.973 32.5253C103.307 32.3582 103.642 32.191 103.976 32.191C104.478 32.191 104.812 32.3582 104.979 32.5253L104.979 32.5253C105.146 32.8597 105.313 33.194 105.313 33.5283Z" fill="#0FD7DB"/>
<path d="M96.7881 30.6865H98.7941V32.191H96.7881V30.6865Z" fill="#0FD7DB"/>
<path d="M92.6089 30.6865H94.6149V32.191H92.6089V30.6865Z" fill="#0FD7DB"/>
<path d="M88.4297 30.6865H90.4357V32.191H88.4297V30.6865Z" fill="#0FD7DB"/>
<path d="M96.7881 34.8657H98.7941V36.3702H96.7881V34.8657Z" fill="#0FD7DB"/>
<path d="M92.6089 34.8657H94.6149V36.3702H92.6089V34.8657Z" fill="#0FD7DB"/>
<path d="M88.4297 34.8657H90.4357V36.3702H88.4297V34.8657Z" fill="#0FD7DB"/>
<path d="M72.0479 30.3523H73.5523V36.5374H72.0479V30.3523Z" fill="#0FD7DB"/>
<path d="M67.8687 30.3523H69.3731V36.5374H67.8687V30.3523Z" fill="#0FD7DB"/>
<path d="M76.2271 30.3523H77.7315V36.5374H76.2271V30.3523Z" fill="#0FD7DB"/>
<path d="M73.8867 85.1821H100.967V86.6866H73.8867V85.1821Z" fill="#0FD7DB"/>
<path fill-rule="evenodd" clip-rule="evenodd" d="M40.6211 59.1045H25.9106V57.7671H39.2838V44.8955H40.6211V59.1045Z" fill="#0FD7DB"/>
<path fill-rule="evenodd" clip-rule="evenodd" d="M15.2119 59.1045H0.501465V49.9104L7.52236 42.8895L12.5373 48.0716L11.5343 49.0746L7.52236 45.0627L2.00594 50.4119V57.7671H15.2119V59.1045Z" fill="#0FD7DB"/>
<path fill-rule="evenodd" clip-rule="evenodd" d="M33.7671 46.5672L28.585 41.3851L29.588 40.3821L33.7671 44.5612L39.2836 39.0448V31.8568H2.00594V44.7284H0.501465V30.3523H40.6209V39.7135L40.4537 39.8807L33.7671 46.5672Z" fill="#0FD7DB"/>
<path fill-rule="evenodd" clip-rule="evenodd" d="M18.2211 41.3851L13.5405 46.0657C13.7077 46.5672 13.8749 47.0687 14.042 47.5702L18.2211 43.3911L22.9017 48.0717L27.5823 43.3911C27.4152 42.8896 27.248 42.3881 27.0808 41.8866L22.9017 46.0657L18.2211 41.3851Z" fill="#0FD7DB"/>
<path fill-rule="evenodd" clip-rule="evenodd" d="M20.5611 37.5403C16.7163 37.5403 13.373 40.7164 13.373 44.7283C13.373 48.7403 16.5492 51.9164 20.5611 51.9164C24.573 51.9164 27.7492 48.7403 27.7492 44.7283C27.7492 40.7164 24.573 37.5403 20.5611 37.5403ZM20.5611 50.4119C17.385 50.4119 14.8775 47.9045 14.8775 44.7283C14.8775 41.5522 17.385 39.0448 20.5611 39.0448C23.7372 39.0448 26.2447 41.5522 26.2447 44.7283C26.4119 47.9045 23.7372 50.4119 20.5611 50.4119Z" fill="#0FD7DB"/>
<path fill-rule="evenodd" clip-rule="evenodd" d="M20.5611 54.9254C15.0447 54.9254 10.5312 50.412 10.5312 44.8956C10.5312 39.3792 15.0447 34.8657 20.5611 34.8657C26.0775 34.8657 30.591 39.3792 30.591 44.8956C30.7581 50.2448 26.2447 54.9254 20.5611 54.9254ZM20.5611 36.203C15.8805 36.203 11.8686 40.0478 11.8686 44.8956C11.8686 49.5762 15.7133 53.5881 20.5611 53.5881C25.2417 53.5881 29.2536 49.7433 29.2536 44.8956C29.2536 40.0478 25.4089 36.203 20.5611 36.203Z" fill="#0FD7DB"/>
<path fill-rule="evenodd" clip-rule="evenodd" d="M19.8926 54.0896H21.3971V58.4359H19.8926V54.0896Z" fill="#0FD7DB"/>
<path fill-rule="evenodd" clip-rule="evenodd" d="M20.5613 67.797C19.8927 67.797 19.224 67.4627 18.7225 66.9612C18.221 66.4597 17.8867 65.791 17.8867 65.1224V57.6H23.0688V65.1224C23.0688 65.791 22.7345 66.4597 22.233 66.9612C21.8987 67.6298 21.23 67.797 20.5613 67.797ZM19.3912 59.1045V65.2895C19.3912 65.6239 19.5584 65.9582 19.7255 66.1253C20.227 66.6268 20.8957 66.6268 21.3972 66.1253C21.5643 65.9582 21.7315 65.6239 21.7315 65.2895V59.1045H19.3912Z" fill="#0FD7DB"/>
<path fill-rule="evenodd" clip-rule="evenodd" d="M2.34042 69.9701V71.4746H0.835938V69.9701H2.34042ZM6.01803 71.4746V69.9701H4.17922V71.4746H6.01803ZM17.0509 71.4746H15.5464V69.9701H17.0509V71.4746ZM15.5464 75.1522H17.0509V73.3134H15.5464V75.1522ZM8.024 74.985H11.8688V77.1582V79.8328V81.3373H11.7016H10.03H8.69265H5.85086H5.6837V78.6626H5.85086V76.8238V75.3193V74.985H8.024ZM15.5464 78.6626H17.0509V76.8238H15.5464V78.6626ZM17.0509 82.1731H15.5464V80.3343H17.0509V82.1731ZM9.52847 71.4746V69.9701H7.68967V71.4746H9.52847ZM13.0389 69.9701V71.4746H11.2001V69.9701H13.0389ZM2.34042 77.4925H0.835938V79.3313H2.34042V77.4925ZM0.835938 73.982H2.34042V75.8208H0.835938V73.982ZM2.34042 81.0029H0.835938V82.8417H2.34042V81.0029ZM0.835938 84.6805H2.34042V86.185H0.835938V84.6805ZM8.35833 84.6805V86.185H10.03V84.6805H8.35833ZM4.84788 86.185V84.6805H6.68668V86.185H4.84788ZM11.8688 84.6805V86.185H13.7076V84.6805H11.8688ZM17.0509 86.185H15.5464V84.6805H17.0509V86.185ZM5.18221 82.6746H12.7046H13.5404V81.8387V74.3164V73.4805H12.7046H5.18221H4.34639V74.3164V81.8387V82.6746H5.18221Z" fill="#0FD7DB"/>
<path d="M64.8596 67.9642V44.7284H40.6208V57.2657H39.1164V43.0568H39.785H40.6208H65.5283H66.3641V43.8926V68.8V69.6359H65.5283H24.7402V68.8V67.9642C38.6149 67.9642 50.8178 67.9642 64.8596 67.9642Z" fill="#0FD7DB"/>
<path fill-rule="evenodd" clip-rule="evenodd" d="M44.2985 47.0687L39.6179 49.409L39.2835 49.7433V50.2448V57.7672H36.9432H36.1074V58.603V61.1104V61.6119L36.6089 61.7791L44.2985 65.6239L44.6328 65.791L44.9671 65.4567L52.6567 61.6119L53.1582 61.4448V60.9433V51.5821V51.0806L52.6567 50.9134L44.9671 47.0687L44.6328 46.9015L44.2985 47.0687ZM40.788 50.7463L44.6328 48.7403L51.6537 52.4179V60.7761L44.6328 64.2866L37.6119 60.7761V59.4388H39.9522H40.788V58.603V50.7463Z" fill="#0FD7DB"/>
<path d="M60.8477 40.0477H68.7044H69.373V40.8836V86.5194H67.8686V41.5522H60.8477V40.0477Z" fill="#0FD7DB"/>
<path d="M105.313 40.8835H106.818V46.0656H105.313V40.8835Z" fill="#0FD7DB"/>
<path d="M105.313 60.609H106.818V65.7911H105.313V60.609Z" fill="#0FD7DB"/>
<path d="M105.313 80.3344H106.818V86.5194H105.313V80.3344Z" fill="#0FD7DB"/>
<path fill-rule="evenodd" clip-rule="evenodd" d="M68.7047 41.5522H110.329H110.997V40.8836V26.3403V25.6716H110.329H64.5256H63.8569V26.3403V40.8836V41.5522H64.5256H68.7047ZM109.493 40.0478H68.7047H65.1942V27.0089H109.493V40.0478Z" fill="#0FD7DB"/>
<path fill-rule="evenodd" clip-rule="evenodd" d="M68.7043 61.2776H110.328H110.997V60.6089V46.0656V45.397H110.328H68.7043H68.0356V46.0656V60.6089V61.2776H68.7043ZM109.492 59.7731H69.373V46.7343H109.492V59.7731Z" fill="#0FD7DB"/>
<path fill-rule="evenodd" clip-rule="evenodd" d="M105.982 55.2597C106.484 54.7583 106.818 54.0896 106.818 53.2538C106.818 52.5851 106.484 51.7493 105.982 51.2478C105.481 50.7463 104.812 50.412 103.976 50.412C103.14 50.412 102.472 50.7463 101.97 51.2478C101.469 51.7493 101.134 52.418 101.134 53.2538C101.134 54.0896 101.469 54.7583 101.97 55.2597C102.472 55.7612 103.14 56.0956 103.976 56.0956C104.812 56.0956 105.481 55.7612 105.982 55.2597ZM105.313 53.2538C105.313 53.7553 105.146 54.0896 104.979 54.2568C104.812 54.4239 104.478 54.5911 103.976 54.5911C103.475 54.5911 103.14 54.4239 102.973 54.2568C102.806 53.9224 102.639 53.5881 102.639 53.2538C102.639 52.7523 102.806 52.418 102.973 52.2508C103.307 52.0836 103.642 51.9165 103.976 51.9165C104.478 51.9165 104.812 52.0836 104.979 52.2508L104.979 52.2508C105.146 52.5851 105.313 52.9195 105.313 53.2538Z" fill="#0FD7DB"/>
<path d="M96.7881 50.412H98.7941V51.9165H96.7881V50.412Z" fill="#0FD7DB"/>
<path d="M92.6089 50.412H94.6149V51.9165H92.6089V50.412Z" fill="#0FD7DB"/>
<path d="M88.4297 50.412H90.4357V51.9165H88.4297V50.412Z" fill="#0FD7DB"/>
<path d="M96.7881 54.5911H98.7941V56.0955H96.7881V54.5911Z" fill="#0FD7DB"/>
<path d="M92.6089 54.5911H94.6149V56.0955H92.6089V54.5911Z" fill="#0FD7DB"/>
<path d="M88.4297 54.5911H90.4357V56.0955H88.4297V54.5911Z" fill="#0FD7DB"/>
<path d="M72.0479 50.2448H73.5523V56.4298H72.0479V50.2448Z" fill="#0FD7DB"/>
<path d="M76.2271 50.2448H77.7315V56.4298H76.2271V50.2448Z" fill="#0FD7DB"/>
<path fill-rule="evenodd" clip-rule="evenodd" d="M68.7043 81.1702H110.328V81.003H110.997V80.3344V65.7911V65.1224H110.328H68.7043H68.0356V65.7911V80.5015V81.1702H68.7043ZM109.492 79.6657H69.373V66.6269H109.492V79.6657Z" fill="#0FD7DB"/>
<path fill-rule="evenodd" clip-rule="evenodd" d="M105.982 75.1522C106.484 74.6507 106.818 73.9821 106.818 73.1462C106.818 72.3104 106.484 71.6418 105.982 71.1403C105.481 70.6388 104.812 70.3044 103.976 70.3044C103.14 70.3044 102.472 70.6388 101.97 71.1403C101.469 71.6418 101.134 72.3104 101.134 73.1462C101.134 73.9821 101.469 74.6507 101.97 75.1522C102.472 75.6537 103.14 75.988 103.976 75.988C104.812 75.988 105.481 75.6537 105.982 75.1522ZM105.313 72.9791C105.313 73.4806 105.146 73.8149 104.979 73.9821C104.812 74.3164 104.478 74.4835 103.976 74.3164C103.475 74.3164 103.14 74.1492 102.973 73.9821C102.806 73.6477 102.639 73.3134 102.639 72.9791C102.639 72.4776 102.806 72.1432 102.973 71.9761C103.307 71.8089 103.642 71.6418 103.976 71.6418C104.478 71.6418 104.812 71.8089 104.979 71.9761C105.014 72.0459 105.049 72.1084 105.082 72.1681C105.209 72.3948 105.313 72.5822 105.313 72.9791Z" fill="#0FD7DB"/>
<path d="M96.7881 70.3044H98.7941V71.8089H96.7881V70.3044Z" fill="#0FD7DB"/>
<path d="M92.6089 70.3044H94.6149V71.8089H92.6089V70.3044Z" fill="#0FD7DB"/>
<path d="M88.4297 70.3044H90.4357V71.8089H88.4297V70.3044Z" fill="#0FD7DB"/>
<path d="M96.7881 74.4836H98.7941V75.9881H96.7881V74.4836Z" fill="#0FD7DB"/>
<path d="M92.6089 74.4836H94.6149V75.9881H92.6089V74.4836Z" fill="#0FD7DB"/>
<path d="M88.4297 74.4836H90.4357V75.9881H88.4297V74.4836Z" fill="#0FD7DB"/>
<path d="M72.0479 69.9701H73.5523V76.1552H72.0479V69.9701Z" fill="#0FD7DB"/>
<path d="M76.2271 69.9701H77.7315V76.1552H76.2271V69.9701Z" fill="#0FD7DB"/>
<path fill-rule="evenodd" clip-rule="evenodd" d="M68.7045 71.1403H20.5612V71.3074H19.8926V71.9761V75.8209C19.8926 76.1552 19.8926 76.6567 20.0597 76.991C20.2269 77.3253 20.3941 77.6597 20.7284 77.994C21.0627 78.3283 21.3971 78.4955 21.7314 78.6626C22.0657 78.8298 22.5672 78.8298 22.9015 78.8298H66.3642C66.6985 78.8298 67.2 78.8298 67.5344 78.6626C67.8687 78.4955 68.203 78.3283 68.5374 77.994C68.8717 77.6597 69.0388 77.3253 69.206 76.991C69.3732 76.6567 69.3732 76.1552 69.3732 75.8209V71.8089V71.1403H68.7045ZM21.3971 72.6447H67.8687H68.203V75.8209C68.203 76.0167 68.1457 76.1552 68.0981 76.2699C68.0645 76.351 68.0359 76.4203 68.0359 76.4895C68.0359 76.6567 67.8687 76.8238 67.7015 76.991C67.5344 77.1582 67.3672 77.3253 67.2 77.3253C66.8657 77.4925 66.6985 77.4925 66.5314 77.4925H23.0687C22.8729 77.4925 22.7344 77.4351 22.6196 77.3876C22.5385 77.354 22.4693 77.3253 22.4 77.3253C22.2329 77.3253 22.0657 77.1582 21.8985 76.991C21.7314 76.8238 21.5642 76.6567 21.5642 76.4895C21.3971 76.1552 21.3971 75.988 21.3971 75.8209V72.6447Z" fill="#0FD7DB"/>
<path d="M21.3971 66.9612V71.1403H68.0359V43.2238C68.0359 43.0567 68.0359 42.8895 67.8687 42.5552C67.8687 42.388 67.7015 42.2209 67.5344 42.0537C67.3672 41.8865 67.2 41.7194 67.0329 41.7194C66.8657 41.7194 66.6985 41.5522 66.3642 41.5522H42.2926V40.0477H66.3642C66.6985 40.0477 67.2 40.0477 67.5344 40.2149C67.8687 40.3821 68.203 40.5492 68.5374 40.8836C68.8717 41.2179 69.0388 41.5522 69.206 41.8865C69.3732 42.2209 69.3732 42.7224 69.3732 43.0567V71.8089V72.4776H68.7045H20.5612H19.8926V71.8089V66.9612H21.3971Z" fill="#0FD7DB"/>
<path d="M53.994 86.6865C53.994 86.5193 53.994 86.3522 53.8268 86.185C53.8268 86.185 53.6596 86.0179 53.4925 86.0179C53.3253 86.0179 53.3253 86.0179 53.1581 86.0179H36.1074C35.9402 86.0179 35.9402 86.0179 35.7731 86.0179C35.6059 86.0179 35.6059 86.185 35.4387 86.185C35.4387 86.185 35.2716 86.3522 35.2716 86.5193C35.2716 86.6865 35.2716 86.6865 35.2716 86.8537H33.7671C33.7671 86.5193 33.7671 86.185 33.9343 86.0179C34.1014 85.6835 34.2686 85.5164 34.4357 85.3492C34.6029 85.182 34.9372 85.0149 35.1044 84.8477C35.4387 84.6805 35.6059 84.6805 35.9402 84.6805H52.991C53.3253 84.6805 53.6596 84.6805 53.8268 84.8477C54.1611 85.0149 54.3283 85.182 54.4954 85.3492C54.9969 85.8507 55.1641 86.3522 55.1641 87.0208H53.994V86.6865Z" fill="#0FD7DB"/>
<path d="M50.0996 78.0964L51.5949 77.9302L52.3707 84.9083L50.8754 85.0745L50.0996 78.0964Z" fill="#0FD7DB"/>
<path d="M36.9375 84.892L37.7133 77.9139L39.2086 78.0801L38.4328 85.0582L36.9375 84.892Z" fill="#0FD7DB"/>
<path d="M42.2925 74.1493H46.9731V75.6538H42.2925V74.1493Z" fill="#0FD7DB"/>
<path fill-rule="evenodd" clip-rule="evenodd" d="M59.3435 53.9224H62.5196H63.1882V53.2538V47.0687V46.4H62.5196H59.3435H58.6748V47.0687V53.2538V53.9224H59.3435ZM61.8509 52.4179H60.1793V47.7373H61.8509V52.4179Z" fill="#0FD7DB"/>
<path d="M58.6748 55.594H63.3554V57.0985H58.6748V55.594Z" fill="#0FD7DB"/>
<path d="M58.6748 58.7701H63.3554V60.2746H58.6748V58.7701Z" fill="#0FD7DB"/>
<path d="M58.6748 61.7791H63.3554V63.2835H58.6748V61.7791Z" fill="#0FD7DB"/>
<path d="M58.6748 64.9552H63.3554V66.4597H58.6748V64.9552Z" fill="#0FD7DB"/>
<path d="M40.2863 52.585L44.6326 54.7582L51.9878 51.0806L52.6565 52.4179L44.9669 56.2627L44.6326 56.4298L44.2983 56.2627L39.6177 53.9224L40.2863 52.585Z" fill="#0FD7DB"/>
<path d="M43.9644 55.594H45.4688V64.9552H43.9644V55.594Z" fill="#0FD7DB"/>
<path fill-rule="evenodd" clip-rule="evenodd" d="M4.84766 77.6597H5.85064V82.1731H4.84766V77.6597Z" fill="#0FD7DB"/>
</svg>
