<svg width="24" height="24" viewBox="0 0 24 24" fill="none" xmlns="http://www.w3.org/2000/svg">
<path fill-rule="evenodd" clip-rule="evenodd" d="M6.00713 0.00952148H17.9453C21.2531 0.00952148 23.9525 2.70893 23.9715 6.01665V17.9549C23.9715 21.2626 21.2721 23.962 17.9644 23.962H6.00713C2.69941 23.962 0 21.2626 0 17.9739V6.01665C0 2.70893 2.69941 0.00952148 6.00713 0.00952148ZM17.9263 9.3814V8.98219C18.5156 8.56398 19.0289 8.0317 19.4471 7.42338C18.8958 7.67051 18.3065 7.82259 17.6792 7.89863C18.3065 7.51843 18.8008 6.92913 19.0289 6.22576C18.4396 6.58695 17.7933 6.83408 17.0899 6.96715C16.5196 6.37784 15.7212 6.01665 14.8467 6.01665C13.1549 6.01665 11.7861 7.36635 11.7861 9.03922C11.7861 9.26734 11.8051 9.49546 11.8622 9.72358C9.31485 9.59051 7.07168 8.39289 5.55089 6.56794C5.28475 7.02417 5.13267 7.53744 5.13267 8.08873C5.13267 9.13427 5.68396 10.0658 6.50139 10.598C6.00713 10.579 5.51287 10.446 5.13267 10.2178V10.2559C5.13267 11.7196 6.17822 12.9363 7.54693 13.2214C7.2998 13.2974 7.01465 13.3355 6.7295 13.3355C6.53941 13.3355 6.34931 13.3165 6.15921 13.2784C6.55842 14.4761 7.68 15.3505 9.0297 15.3695C7.98416 16.1869 6.67247 16.6622 5.22772 16.6622C4.99716 16.6622 4.78315 16.6456 4.5548 16.628C4.5384 16.6267 4.52191 16.6255 4.50535 16.6242C5.85505 17.4796 7.47089 17.9739 9.20079 17.9739C14.8467 17.9739 17.9263 13.3735 17.9263 9.3814Z" fill="#E3E5E7"/>
</svg>
