<svg width="653" height="416" viewBox="0 0 653 416" fill="none" xmlns="http://www.w3.org/2000/svg">
<path d="M421.488 321.987H291.719V415.987H421.488V321.987Z" fill="#E3E8F2"/>
<path fill-rule="evenodd" clip-rule="evenodd" d="M398.656 361.456H493.128V300.694H398.656V361.456Z" fill="white"/>
<path d="M276.15 321.987H145.861V415.987H276.15V321.987Z" fill="#D6DFED"/>
<path d="M130.285 321.987H0.515625V415.987H130.285V321.987Z" fill="#AEC2DD"/>
<path d="M0 283.558H53.465V289.79H0V283.558Z" fill="#2979A6"/>
<path d="M14.5391 339.644H88.7672V345.876H14.5391V339.644Z" fill="#2979A6"/>
<path d="M14.5391 364.053H97.0725V370.285H14.5391V364.053Z" fill="white"/>
<path d="M14.5391 378.594H82.5383V384.826H14.5391V378.594Z" fill="white"/>
<path d="M14.5391 393.138H105.378V399.37H14.5391V393.138Z" fill="white"/>
<path d="M160.912 364.053H243.446V370.285H160.912V364.053Z" fill="white"/>
<path d="M160.912 378.594H229.43V384.826H160.912V378.594Z" fill="white"/>
<path d="M160.912 393.138H251.751V399.37H160.912V393.138Z" fill="white"/>
<path d="M307.818 364.053H390.352V370.285H307.818V364.053Z" fill="white"/>
<path d="M307.818 378.594H375.817V384.826H307.818V378.594Z" fill="white"/>
<path d="M307.818 393.138H398.657V399.37H307.818V393.138Z" fill="white"/>
<path d="M160.912 339.644H235.14V345.876H160.912V339.644Z" fill="#2979A6"/>
<path d="M307.818 339.644H382.046V345.876H307.818V339.644Z" fill="#2979A6"/>
<path d="M63.8496 283.558H117.834V289.79H63.8496V283.558Z" fill="#CCDBED"/>
<path d="M128.209 283.558H181.674V289.79H128.209V283.558Z" fill="#CCDBED"/>
<path d="M192.059 283.558H245.524V289.79H192.059V283.558Z" fill="#CCDBED"/>
<path d="M255.908 283.558H309.892V289.79H255.908V283.558Z" fill="#CCDBED"/>
<path d="M320.268 283.558H373.733V289.79H320.268V283.558Z" fill="#CCDBED"/>
<path d="M531.021 401.445V359.898H537.25V401.445H531.021Z" fill="#CCDBED"/>
<path d="M511.291 400.927V374.96H517.52V400.927H511.291Z" fill="#CCDBED"/>
<path d="M492.09 401.446V387.424H498.319V401.446H492.09Z" fill="#CCDBED"/>
<path d="M531.021 415.987V408.197H537.25V415.987H531.021Z" fill="#CCDBED"/>
<path d="M511.291 415.987V408.197H517.52V415.987H511.291Z" fill="#CCDBED"/>
<path d="M492.09 415.987V408.197H498.319V415.987H492.09Z" fill="#CCDBED"/>
<path d="M588.639 401.446V348.474H594.868V401.446H588.639Z" fill="#CCDBED"/>
<path d="M569.426 401.446V387.424H575.655V401.446H569.426Z" fill="#CCDBED"/>
<path d="M550.223 401.443V375.477H556.452V401.443H550.223Z" fill="#CCDBED"/>
<path d="M588.639 415.987V408.197H594.868V415.987H588.639Z" fill="#CCDBED"/>
<path d="M569.426 415.987V408.197H575.655V415.987H569.426Z" fill="#CCDBED"/>
<path d="M550.223 415.987V408.197H556.452V415.987H550.223Z" fill="#CCDBED"/>
<path d="M646.77 401.445V359.898H652.999V401.445H646.77Z" fill="#CCDBED"/>
<path d="M627.568 400.927V371.845H633.797V400.927H627.568Z" fill="#CCDBED"/>
<path d="M607.84 401.445V358.34H614.069V401.445H607.84Z" fill="#CCDBED"/>
<path d="M646.77 415.987V408.197H652.999V415.987H646.77Z" fill="#CCDBED"/>
<path d="M627.568 415.987V408.197H633.797V415.987H627.568Z" fill="#CCDBED"/>
<path d="M607.84 415.987V408.197H614.069V415.987H607.84Z" fill="#CCDBED"/>
<path d="M392.424 300.176H498.835V277.845H392.424V300.176Z" fill="#C2D0E5"/>
<path d="M398.653 300.694V361.456H493.125V300.694H498.835V364.572V367.688H495.72H395.538H392.424V364.572V300.694H398.653Z" fill="#2979A6"/>
<path d="M415.786 268.496V288.75H409.557V268.496H415.786Z" fill="#2979A6"/>
<path d="M481.702 268.496V288.75H475.473V268.496H481.702Z" fill="#2979A6"/>
<path d="M411.107 311.602H416.298V317.834H411.107V311.602Z" fill="#488AB9"/>
<path d="M421.488 311.602H427.198V317.834H421.488V311.602Z" fill="#488AB9"/>
<path d="M432.393 311.602H438.102V317.834H432.393V311.602Z" fill="#488AB9"/>
<path d="M442.777 311.602H448.487V317.834H442.777V311.602Z" fill="#488AB9"/>
<path d="M453.676 311.602H459.386V317.834H453.676V311.602Z" fill="#488AB9"/>
<path d="M464.057 311.602H469.767V317.834H464.057V311.602Z" fill="#488AB9"/>
<path d="M474.957 311.602H480.667V317.834H474.957V311.602Z" fill="#488AB9"/>
<path d="M411.107 322.507H416.298V328.739H411.107V322.507Z" fill="#488AB9"/>
<path d="M421.488 322.507H427.198V328.739H421.488V322.507Z" fill="#488AB9"/>
<path d="M432.393 322.507H438.102V328.739H432.393V322.507Z" fill="#488AB9"/>
<path d="M442.777 322.507H448.487V328.739H442.777V322.507Z" fill="#488AB9"/>
<path d="M453.676 322.507H459.386V328.739H453.676V322.507Z" fill="#488AB9"/>
<path d="M464.057 322.507H469.767V328.739H464.057V322.507Z" fill="#488AB9"/>
<path d="M474.957 322.507H480.667V328.739H474.957V322.507Z" fill="#488AB9"/>
<path d="M411.107 333.412H416.298V339.644H411.107V333.412Z" fill="#488AB9"/>
<path d="M421.488 333.412H427.198V339.644H421.488V333.412Z" fill="#488AB9"/>
<path d="M432.393 333.412H438.102V339.644H432.393V333.412Z" fill="#488AB9"/>
<path d="M442.777 333.412H448.487V339.644H442.777V333.412Z" fill="#488AB9"/>
<path d="M453.676 333.412H459.386V339.644H453.676V333.412Z" fill="#488AB9"/>
<path d="M464.057 333.412H469.767V339.644H464.057V333.412Z" fill="#488AB9"/>
<path d="M474.957 333.412H480.667V339.644H474.957V333.412Z" fill="#488AB9"/>
<path d="M411.107 344.318H416.298V350.55H411.107V344.318Z" fill="#488AB9"/>
<path d="M421.488 344.318H427.198V350.55H421.488V344.318Z" fill="#488AB9"/>
<path d="M432.393 344.318H438.102V350.55H432.393V344.318Z" fill="#488AB9"/>
<path d="M442.777 344.318H448.487V350.55H442.777V344.318Z" fill="#488AB9"/>
<path d="M453.676 344.318H459.386V350.55H453.676V344.318Z" fill="#488AB9"/>
<path d="M464.057 344.318H469.767V350.55H464.057V344.318Z" fill="#488AB9"/>
<path d="M474.957 344.318H480.667V350.55H474.957V344.318Z" fill="#488AB9"/>
<path fill-rule="evenodd" clip-rule="evenodd" d="M267.327 189.038L343.113 158.397L418.379 125.16L494.164 94.5188H570.469L645.735 63.8781L644.697 61.8008L569.95 92.4415H493.645L417.86 123.082L342.074 156.32L342.594 157.358L342.074 156.32L266.289 186.96L267.327 189.038Z" fill="#FFC621"/>
<path fill-rule="evenodd" clip-rule="evenodd" d="M267.327 156.839L342.594 126.198L418.379 157.358L494.683 128.276L570.469 34.7954L645.735 2.07734L644.697 0L568.912 33.2374L493.126 126.198L418.379 154.762L342.594 123.602L266.289 154.762L267.327 156.839Z" fill="#4B9DC8"/>
<path fill-rule="evenodd" clip-rule="evenodd" d="M574.1 33.7572C574.1 36.3539 572.024 37.9119 569.948 37.9119C567.352 37.9119 565.795 35.8346 565.795 33.7572C565.795 31.1605 567.871 29.6025 569.948 29.6025C572.024 29.6025 574.1 31.6799 574.1 33.7572Z" fill="white"/>
<path fill-rule="evenodd" clip-rule="evenodd" d="M574.1 33.7566H573.062C573.062 35.3146 571.505 36.8726 569.948 36.8726C568.39 36.8726 566.833 35.3146 566.833 33.7566C566.833 32.1986 568.39 30.6406 569.948 30.6406C571.505 30.6406 573.062 32.1986 573.062 33.7566H574.1H575.138C575.138 30.6406 572.543 28.0439 569.429 28.0439C566.314 28.0439 563.719 30.6406 563.719 33.7566C563.719 36.8726 566.314 39.4693 569.429 39.4693C572.543 39.4693 575.138 36.8726 575.138 33.7566H574.1Z" fill="#4B9DC8"/>
<path fill-rule="evenodd" clip-rule="evenodd" d="M498.315 127.237C498.315 129.833 496.239 131.391 494.162 131.391C491.567 131.391 490.01 129.314 490.01 127.237C490.01 124.64 492.086 123.082 494.162 123.082C496.239 122.563 498.315 124.64 498.315 127.237Z" fill="white"/>
<path fill-rule="evenodd" clip-rule="evenodd" d="M498.315 127.236H497.277C497.277 128.794 495.72 130.352 494.163 130.352C492.605 130.352 491.048 128.794 491.048 127.236C491.048 125.678 492.605 124.12 494.163 124.12C495.72 124.12 497.277 125.678 497.277 127.236H498.315H499.353C499.353 124.12 496.758 121.523 493.643 121.523C490.529 121.523 487.934 124.12 487.934 127.236C487.934 130.352 490.529 132.949 493.643 132.949C496.758 132.949 499.353 130.352 499.353 127.236H498.315Z" fill="#4B9DC8"/>
<path fill-rule="evenodd" clip-rule="evenodd" d="M422.534 155.8C422.534 158.397 420.457 159.955 418.381 159.955C415.786 159.955 414.229 157.878 414.229 155.8C414.229 153.204 416.305 151.646 418.381 151.646C420.457 151.646 422.534 153.723 422.534 155.8Z" fill="white"/>
<path fill-rule="evenodd" clip-rule="evenodd" d="M422.53 155.801H421.492C421.492 157.359 419.935 158.917 418.377 158.917C416.82 158.917 415.263 157.359 415.263 155.801C415.263 154.243 416.82 152.685 418.377 152.685C419.935 152.685 421.492 154.243 421.492 155.801H422.53H423.568C423.568 152.685 420.973 150.088 417.858 150.088C414.744 150.088 412.148 152.685 412.148 155.801C412.148 158.917 414.744 161.513 417.858 161.513C420.973 161.513 423.568 158.917 423.568 155.801H422.53Z" fill="#4B9DC8"/>
<path fill-rule="evenodd" clip-rule="evenodd" d="M346.743 125.161C346.743 127.757 344.666 129.315 342.59 129.315C339.995 129.315 338.438 127.238 338.438 125.161C338.438 122.564 340.514 121.006 342.59 121.006C344.666 120.487 346.743 122.564 346.743 125.161Z" fill="white"/>
<path fill-rule="evenodd" clip-rule="evenodd" d="M346.749 125.16H345.711C345.711 126.718 344.153 128.276 342.596 128.276C341.039 128.276 339.482 126.718 339.482 125.16C339.482 123.602 341.039 122.044 342.596 122.044C344.153 122.044 345.711 123.602 345.711 125.16H346.749H347.787C347.787 122.044 345.191 119.447 342.077 119.447C338.963 119.447 336.367 122.044 336.367 125.16C336.367 128.276 338.963 130.873 342.077 130.873C345.191 130.873 347.787 128.276 347.787 125.16H346.749Z" fill="#4B9DC8"/>
<path fill-rule="evenodd" clip-rule="evenodd" d="M496.239 93.9994C496.239 96.5961 494.163 98.1541 492.086 98.1541C489.491 98.1541 487.934 96.0768 487.934 93.9994C487.934 91.4028 490.01 89.8448 492.086 89.8448C494.682 89.3254 496.239 91.4028 496.239 93.9994Z" fill="white"/>
<path fill-rule="evenodd" clip-rule="evenodd" d="M496.239 93.9998H495.201C495.201 95.5578 493.644 97.1158 492.086 97.1158C490.529 97.1158 488.972 95.5578 488.972 93.9998C488.972 92.4418 490.529 90.8838 492.086 90.8838C493.644 90.8838 495.201 92.4418 495.201 93.9998H496.239H497.277C497.277 90.8838 494.682 88.2871 491.567 88.2871C488.453 88.2871 485.857 90.8838 485.857 93.9998C485.857 97.1158 488.453 99.7125 491.567 99.7125C494.682 99.7125 497.277 97.1158 497.277 93.9998H496.239Z" fill="#FFC621"/>
<path fill-rule="evenodd" clip-rule="evenodd" d="M573.585 93.9994C573.585 96.5961 571.508 98.1541 569.432 98.1541C566.837 98.1541 565.279 96.0768 565.279 93.9994C565.279 91.4028 567.356 89.8448 569.432 89.8448C572.027 89.3254 573.585 91.4028 573.585 93.9994Z" fill="white"/>
<path fill-rule="evenodd" clip-rule="evenodd" d="M573.581 93.9998H572.543C572.543 95.5578 570.985 97.1158 569.428 97.1158C567.871 97.1158 566.314 95.5578 566.314 93.9998C566.314 92.4418 567.871 90.8838 569.428 90.8838C570.985 90.8838 572.543 92.4418 572.543 93.9998H573.581H574.619C574.619 90.8838 572.024 88.2871 568.909 88.2871C565.795 88.2871 563.199 90.8838 563.199 93.9998C563.199 97.1158 565.795 99.7125 568.909 99.7125C572.024 99.7125 574.619 97.1158 574.619 93.9998H573.581Z" fill="#FFC621"/>
<path fill-rule="evenodd" clip-rule="evenodd" d="M267.329 255.513H4.15625V58.166H267.329V255.513Z" fill="#E3E8F2"/>
<path fill-rule="evenodd" clip-rule="evenodd" d="M267.329 76.8621H4.15625V58.166H267.329V76.8621Z" fill="#AEC2DD"/>
<path fill-rule="evenodd" clip-rule="evenodd" d="M255.903 72.1869H99.6602V62.8389H255.903V72.1869Z" fill="white"/>
<path fill-rule="evenodd" clip-rule="evenodd" d="M18.1675 67.5133C18.1675 69.5906 16.6103 71.1486 14.534 71.1486C12.4577 71.1486 10.9004 69.5906 10.9004 67.5133C10.9004 65.4359 12.4577 63.8779 14.534 63.8779C16.6103 63.8779 18.1675 65.4359 18.1675 67.5133Z" fill="white"/>
<path fill-rule="evenodd" clip-rule="evenodd" d="M30.1089 67.5133C30.1089 69.5906 28.5516 71.1486 26.4753 71.1486C24.399 71.1486 22.8418 69.5906 22.8418 67.5133C22.8418 65.4359 24.399 63.8779 26.4753 63.8779C28.5516 63.8779 30.1089 65.4359 30.1089 67.5133Z" fill="#FFC54B"/>
<path fill-rule="evenodd" clip-rule="evenodd" d="M42.0405 67.5133C42.0405 69.5906 40.4833 71.1486 38.407 71.1486C36.3307 71.1486 34.7734 69.5906 34.7734 67.5133C34.7734 65.4359 36.3307 63.8779 38.407 63.8779C40.4833 63.8779 42.0405 65.4359 42.0405 67.5133Z" fill="#0064B0"/>
<path fill-rule="evenodd" clip-rule="evenodd" d="M220.088 165.666H45.1582V162.55H220.088V165.666Z" fill="#2979A6"/>
<path fill-rule="evenodd" clip-rule="evenodd" d="M53.4646 164.11C53.4646 170.861 47.7547 176.574 41.0067 176.574C34.2587 176.574 28.5488 170.861 28.5488 164.11C28.5488 157.358 34.2587 151.646 41.0067 151.646C47.7547 151.646 53.4646 156.839 53.4646 164.11Z" fill="#E3E8F2"/>
<path fill-rule="evenodd" clip-rule="evenodd" d="M41.0034 153.204C34.7745 153.204 30.1028 157.878 30.1028 164.11C30.1028 170.342 34.7745 175.016 41.0034 175.016C47.2323 175.016 51.904 170.342 51.904 164.11C51.904 157.878 47.2323 153.204 41.0034 153.204ZM41.0034 178.132C33.2172 178.132 26.9883 171.9 26.9883 164.11C26.9883 156.32 33.2172 150.088 41.0034 150.088C48.7896 150.088 55.0185 156.32 55.0185 164.11C55.0185 171.381 48.7896 178.132 41.0034 178.132Z" fill="#2979A6"/>
<path fill-rule="evenodd" clip-rule="evenodd" d="M200.885 164.11C200.885 170.861 195.175 176.574 188.427 176.574C181.679 176.574 175.969 170.861 175.969 164.11C175.969 157.358 181.679 151.646 188.427 151.646C195.175 151.646 200.885 156.839 200.885 164.11Z" fill="#E3E8F2"/>
<path fill-rule="evenodd" clip-rule="evenodd" d="M188.425 153.204C182.196 153.204 177.525 157.878 177.525 164.11C177.525 170.342 182.196 175.016 188.425 175.016C194.654 175.016 199.326 170.342 199.326 164.11C199.326 157.878 194.654 153.204 188.425 153.204ZM188.425 178.132C180.639 178.132 174.41 171.9 174.41 164.11C174.41 156.32 180.639 150.088 188.425 150.088C196.211 150.088 202.44 156.32 202.44 164.11C202.44 171.381 196.211 178.132 188.425 178.132Z" fill="#2979A6"/>
<path fill-rule="evenodd" clip-rule="evenodd" d="M153.126 173.977H109.523V153.723H153.126V173.977Z" fill="#E3E8F2"/>
<path fill-rule="evenodd" clip-rule="evenodd" d="M111.081 172.419H152.088V154.762H111.081V172.419ZM154.683 175.535H107.447V151.646H154.683V175.535Z" fill="#2979A6"/>
<path fill-rule="evenodd" clip-rule="evenodd" d="M235.145 173.977H214.9V153.723H235.145V173.977Z" fill="#E3E8F2"/>
<path fill-rule="evenodd" clip-rule="evenodd" d="M216.458 172.419H234.106V154.762H216.458V172.419ZM236.702 175.535H212.824V151.646H236.702V175.535Z" fill="#2979A6"/>
<path fill-rule="evenodd" clip-rule="evenodd" d="M77.8616 181.768L60.2129 164.11L77.8616 146.453L95.5102 164.11L77.8616 181.768Z" fill="#E3E8F2"/>
<path fill-rule="evenodd" clip-rule="evenodd" d="M62.2854 164.109L77.8578 179.689L93.4301 164.109L77.8578 148.529L62.2854 164.109ZM77.8578 183.843L58.1328 164.109L77.8578 144.374L97.5827 164.109L77.8578 183.843Z" fill="#2979A6"/>
<path fill-rule="evenodd" clip-rule="evenodd" d="M112.121 195.789H75.7852V182.286H78.8996V192.673H112.121V195.789Z" fill="#2979A6"/>
<path fill-rule="evenodd" clip-rule="evenodd" d="M78.8996 145.934H75.7852V131.912H112.121V135.547H78.8996V145.934Z" fill="#2979A6"/>
<path fill-rule="evenodd" clip-rule="evenodd" d="M191.023 195.788H154.688V192.672H187.908V176.054H191.023V195.788Z" fill="#2979A6"/>
<path fill-rule="evenodd" clip-rule="evenodd" d="M191.023 152.166H187.908V135.547H154.688V131.912H191.023V152.166Z" fill="#2979A6"/>
<path fill-rule="evenodd" clip-rule="evenodd" d="M153.126 144.894H109.523V124.64H153.126V144.894Z" fill="#E3E8F2"/>
<path fill-rule="evenodd" clip-rule="evenodd" d="M111.081 143.337H152.088V125.679H111.081V143.337ZM154.683 146.453H107.447V122.563H154.683V146.453Z" fill="#2979A6"/>
<path fill-rule="evenodd" clip-rule="evenodd" d="M153.126 203.579H109.523V182.806H153.126V203.579Z" fill="#E3E8F2"/>
<path fill-rule="evenodd" clip-rule="evenodd" d="M111.081 202.02H152.088V184.363H111.081V202.02ZM154.683 205.136H107.447V181.247H154.683V205.136Z" fill="#2979A6"/>
<path fill-rule="evenodd" clip-rule="evenodd" d="M301.585 230.585L267.845 219.678L233.586 208.772L244.487 242.529L255.906 276.805L267.845 253.435L286.013 271.612L296.394 260.706L278.227 242.529L301.585 230.585Z" fill="#231F20"/>
<path fill-rule="evenodd" clip-rule="evenodd" d="M267.845 219.678L233.586 208.772L234.105 209.811L290.685 266.419L296.394 260.706L278.227 242.529L301.585 230.584L267.845 219.678Z" fill="#6D6E71"/>
</svg>
