<svg width="1100" height="334" viewBox="0 0 1100 334" fill="none" xmlns="http://www.w3.org/2000/svg">
<g clip-path="url(#clip0)">
<path fill-rule="evenodd" clip-rule="evenodd" d="M907.219 203.154C907.219 204.317 906.055 205.481 904.892 205.481C903.728 205.481 902.564 204.317 902.564 203.154C902.564 201.991 903.728 200.828 904.892 200.828C906.055 200.828 907.219 201.991 907.219 203.154Z" fill="white"/>
<path fill-rule="evenodd" clip-rule="evenodd" d="M907.221 203.155H906.446C906.446 204.318 905.67 205.094 904.506 205.094C903.343 205.094 902.567 204.318 902.567 203.155C902.567 201.992 903.343 201.217 904.506 201.217C905.67 201.217 906.446 201.992 906.446 203.155H907.221H907.997C907.997 201.605 906.446 200.054 904.894 200.054C903.343 200.054 901.791 201.605 901.791 203.155C901.791 204.706 903.343 206.257 904.894 206.257C906.446 206.257 907.997 204.706 907.997 203.155H907.221Z" fill="#4B9DC8"/>
<path fill-rule="evenodd" clip-rule="evenodd" d="M864.944 255.495C864.944 256.658 863.78 257.821 862.616 257.821C861.453 257.821 860.289 256.658 860.289 255.495C860.289 254.332 861.453 253.169 862.616 253.169C863.78 252.781 864.944 253.944 864.944 255.495Z" fill="white"/>
<path fill-rule="evenodd" clip-rule="evenodd" d="M864.94 255.495H864.164C864.164 256.658 863.389 257.434 862.225 257.434C861.061 257.434 860.286 256.658 860.286 255.495C860.286 254.332 861.061 253.557 862.225 253.557C863.389 253.557 864.164 254.332 864.164 255.495H864.94H865.716C865.716 253.944 864.164 252.394 862.613 252.394C861.061 252.394 859.51 253.944 859.51 255.495C859.51 257.046 861.061 258.597 862.613 258.597C864.164 258.597 865.716 257.046 865.716 255.495H864.94Z" fill="#4B9DC8"/>
<path fill-rule="evenodd" clip-rule="evenodd" d="M822.276 271.39C822.276 272.553 821.112 273.716 819.948 273.716C818.785 273.716 817.621 272.553 817.621 271.39C817.621 270.227 818.785 269.064 819.948 269.064C821.5 269.064 822.276 270.227 822.276 271.39Z" fill="white"/>
<path fill-rule="evenodd" clip-rule="evenodd" d="M822.272 271.391H821.496C821.496 272.554 820.721 273.329 819.557 273.329C818.393 273.329 817.618 272.554 817.618 271.391C817.618 270.228 818.393 269.452 819.557 269.452C820.721 269.452 821.496 270.228 821.496 271.391H822.272H823.048C823.048 269.84 821.496 268.289 819.945 268.289C818.393 268.289 816.842 269.84 816.842 271.391C816.842 272.941 818.393 274.492 819.945 274.492C821.496 274.492 823.048 272.941 823.048 271.391H822.272Z" fill="#4B9DC8"/>
<path fill-rule="evenodd" clip-rule="evenodd" d="M779.996 253.943C779.996 255.106 778.833 256.27 777.669 256.27C776.505 256.27 775.342 255.106 775.342 253.943C775.342 252.78 776.505 251.617 777.669 251.617C778.833 251.617 779.996 252.78 779.996 253.943Z" fill="white"/>
<path fill-rule="evenodd" clip-rule="evenodd" d="M779.993 253.944H779.217C779.217 255.107 778.441 255.883 777.278 255.883C776.114 255.883 775.338 255.107 775.338 253.944C775.338 252.781 776.114 252.006 777.278 252.006C778.441 252.006 779.217 252.781 779.217 253.944H779.993H780.769C780.769 252.394 779.217 250.843 777.666 250.843C776.114 250.843 774.562 252.394 774.562 253.944C774.562 255.495 776.114 257.046 777.666 257.046C779.217 257.046 780.769 255.495 780.769 253.944H779.993Z" fill="#4B9DC8"/>
<path fill-rule="evenodd" clip-rule="evenodd" d="M863.778 236.497C863.778 237.66 862.614 238.823 861.45 238.823C860.287 238.823 859.123 237.66 859.123 236.497C859.123 235.334 860.287 234.171 861.45 234.171C862.614 234.171 863.778 235.334 863.778 236.497Z" fill="white"/>
<path fill-rule="evenodd" clip-rule="evenodd" d="M863.78 236.498H863.004C863.004 237.661 862.228 238.437 861.065 238.437C859.901 238.437 859.125 237.661 859.125 236.498C859.125 235.335 859.901 234.56 861.065 234.56C862.228 234.56 863.004 235.335 863.004 236.498H863.78H864.556C864.556 234.947 863.004 233.396 861.453 233.396C859.901 233.396 858.35 234.947 858.35 236.498C858.35 238.049 859.901 239.6 861.453 239.6C863.004 239.6 864.556 238.049 864.556 236.498H863.78Z" fill="#FFC621"/>
<path fill-rule="evenodd" clip-rule="evenodd" d="M907.219 236.497C907.219 237.66 906.055 238.823 904.892 238.823C903.728 238.823 902.564 237.66 902.564 236.497C902.564 235.334 903.728 234.171 904.892 234.171C906.055 234.171 907.219 235.334 907.219 236.497Z" fill="white"/>
<path fill-rule="evenodd" clip-rule="evenodd" d="M907.221 236.498H906.446C906.446 237.661 905.67 238.437 904.506 238.437C903.343 238.437 902.567 237.661 902.567 236.498C902.567 235.335 903.343 234.56 904.506 234.56C905.67 234.56 906.446 235.335 906.446 236.498H907.221H907.997C907.997 234.947 906.446 233.396 904.894 233.396C903.343 233.396 901.791 234.947 901.791 236.498C901.791 238.049 903.343 239.6 904.894 239.6C906.446 239.6 907.997 238.049 907.997 236.498H907.221Z" fill="#FFC621"/>
<path fill-rule="evenodd" clip-rule="evenodd" d="M735.388 290L778.055 272.553L820.335 254.332L862.614 237.273H905.282L947.561 220.214L946.785 219.051L904.894 235.722H862.226L819.947 253.168H819.559L777.279 271.39L777.667 272.166L777.279 271.39L735 288.837L735.388 290Z" fill="#FFC621"/>
<path fill-rule="evenodd" clip-rule="evenodd" d="M735.388 272.166L777.667 254.719L819.947 272.166L862.614 255.882L905.282 203.543L947.561 185.321L946.785 184.158L904.506 202.767L861.838 254.719L819.947 270.615L777.667 253.556L735 270.615L735.388 272.166Z" fill="#4B9DC8"/>
<path fill-rule="evenodd" clip-rule="evenodd" d="M1100 286.898H947.562V0H1100V286.898Z" fill="#F3F4F4"/>
<path fill-rule="evenodd" clip-rule="evenodd" d="M1085.26 35.6685H970.057V31.0161H1085.26V35.6685Z" fill="#D8DEE4"/>
<path fill-rule="evenodd" clip-rule="evenodd" d="M1007.29 25.588H970.057V20.9355H1007.29V25.588Z" fill="#D8DEE4"/>
<path fill-rule="evenodd" clip-rule="evenodd" d="M976.263 60.0933H970.057V53.8901H976.263V60.0933Z" fill="#D8DEE4"/>
<path fill-rule="evenodd" clip-rule="evenodd" d="M993.718 60.0933H987.512V53.8901H993.718V60.0933Z" fill="#D8DEE4"/>
<path fill-rule="evenodd" clip-rule="evenodd" d="M1011.17 60.0933H1004.97V53.8901H1011.17V60.0933Z" fill="#D8DEE4"/>
<path fill-rule="evenodd" clip-rule="evenodd" d="M1028.63 60.0933H1022.42V53.8901H1028.63V60.0933Z" fill="#C0C5CD"/>
<path fill-rule="evenodd" clip-rule="evenodd" d="M1045.7 60.0933H1039.88V53.8901H1045.7V60.0933Z" fill="#C0C5CD"/>
<path fill-rule="evenodd" clip-rule="evenodd" d="M1063.15 60.0933H1057.33V53.8901H1063.15V60.0933Z" fill="#FFC621"/>
<path fill-rule="evenodd" clip-rule="evenodd" d="M1080.61 60.0933H1074.4V53.8901H1080.61V60.0933Z" fill="#FFC621"/>
<path fill-rule="evenodd" clip-rule="evenodd" d="M976.263 75.2135H970.057V69.3979H976.263V75.2135Z" fill="#C0C5CD"/>
<path fill-rule="evenodd" clip-rule="evenodd" d="M993.718 75.2135H987.512V69.3979H993.718V75.2135Z" fill="#C0C5CD"/>
<path fill-rule="evenodd" clip-rule="evenodd" d="M1011.17 75.2135H1004.97V69.3979H1011.17V75.2135Z" fill="#C0C5CD"/>
<path fill-rule="evenodd" clip-rule="evenodd" d="M1028.63 75.2135H1022.42V69.3979H1028.63V75.2135Z" fill="#C0C5CD"/>
<path fill-rule="evenodd" clip-rule="evenodd" d="M1045.7 75.2135H1039.88V69.3979H1045.7V75.2135Z" fill="#C0C5CD"/>
<path fill-rule="evenodd" clip-rule="evenodd" d="M1063.15 75.2135H1057.33V69.3979H1063.15V75.2135Z" fill="#FFC621"/>
<path fill-rule="evenodd" clip-rule="evenodd" d="M1080.61 75.2135H1074.4V69.3979H1080.61V75.2135Z" fill="#FFC621"/>
<path fill-rule="evenodd" clip-rule="evenodd" d="M976.263 90.7213H970.057V84.5181H976.263V90.7213Z" fill="#C0C5CD"/>
<path fill-rule="evenodd" clip-rule="evenodd" d="M993.718 90.7213H987.512V84.5181H993.718V90.7213Z" fill="#C0C5CD"/>
<path fill-rule="evenodd" clip-rule="evenodd" d="M1011.17 90.7213H1004.97V84.5181H1011.17V90.7213Z" fill="#4B9DC8"/>
<path fill-rule="evenodd" clip-rule="evenodd" d="M1028.63 90.7213H1022.42V84.5181H1028.63V90.7213Z" fill="#4B9DC8"/>
<path fill-rule="evenodd" clip-rule="evenodd" d="M1045.7 90.7213H1039.88V84.5181H1045.7V90.7213Z" fill="#C0C5CD"/>
<path fill-rule="evenodd" clip-rule="evenodd" d="M1063.15 90.7213H1057.33V84.5181H1063.15V90.7213Z" fill="#FFC621"/>
<path fill-rule="evenodd" clip-rule="evenodd" d="M1080.61 90.7213H1074.4V84.5181H1080.61V90.7213Z" fill="#FFC621"/>
<path fill-rule="evenodd" clip-rule="evenodd" d="M976.263 105.842H970.057V100.026H976.263V105.842Z" fill="#566E83"/>
<path fill-rule="evenodd" clip-rule="evenodd" d="M993.718 105.842H987.512V100.026H993.718V105.842Z" fill="#C0C5CD"/>
<path fill-rule="evenodd" clip-rule="evenodd" d="M1011.17 105.842H1004.97V100.026H1011.17V105.842Z" fill="#C0C5CD"/>
<path fill-rule="evenodd" clip-rule="evenodd" d="M1028.63 105.842H1022.42V100.026H1028.63V105.842Z" fill="#C0C5CD"/>
<path fill-rule="evenodd" clip-rule="evenodd" d="M1045.7 105.842H1039.88V100.026H1045.7V105.842Z" fill="#C0C5CD"/>
<path fill-rule="evenodd" clip-rule="evenodd" d="M1063.15 105.842H1057.33V100.026H1063.15V105.842Z" fill="#FFC621"/>
<path fill-rule="evenodd" clip-rule="evenodd" d="M1080.61 105.842H1074.4V100.026H1080.61V105.842Z" fill="#FFC621"/>
<path fill-rule="evenodd" clip-rule="evenodd" d="M976.263 121.351H970.057V115.147H976.263V121.351Z" fill="#C0C5CD"/>
<path fill-rule="evenodd" clip-rule="evenodd" d="M993.718 121.351H987.512V115.147H993.718V121.351Z" fill="#C0C5CD"/>
<path fill-rule="evenodd" clip-rule="evenodd" d="M1011.17 121.351H1004.97V115.147H1011.17V121.351Z" fill="#C0C5CD"/>
<path fill-rule="evenodd" clip-rule="evenodd" d="M1028.63 121.351H1022.42V115.147H1028.63V121.351Z" fill="#C0C5CD"/>
<path fill-rule="evenodd" clip-rule="evenodd" d="M1045.7 121.351H1039.88V115.147H1045.7V121.351Z" fill="#C0C5CD"/>
<path fill-rule="evenodd" clip-rule="evenodd" d="M1063.15 121.351H1057.33V115.147H1063.15V121.351Z" fill="#FFC621"/>
<path fill-rule="evenodd" clip-rule="evenodd" d="M1080.61 121.351H1074.4V115.147H1080.61V121.351Z" fill="#FFC621"/>
<path fill-rule="evenodd" clip-rule="evenodd" d="M976.263 136.859H970.057V130.656H976.263V136.859Z" fill="#C0C5CD"/>
<path fill-rule="evenodd" clip-rule="evenodd" d="M993.718 136.859H987.512V130.656H993.718V136.859Z" fill="#C0C5CD"/>
<path fill-rule="evenodd" clip-rule="evenodd" d="M1011.17 136.859H1004.97V130.656H1011.17V136.859Z" fill="#C0C5CD"/>
<path fill-rule="evenodd" clip-rule="evenodd" d="M1028.63 136.859H1022.42V130.656H1028.63V136.859Z" fill="#C0C5CD"/>
<path fill-rule="evenodd" clip-rule="evenodd" d="M1045.7 136.859H1039.88V130.656H1045.7V136.859Z" fill="#C0C5CD"/>
<path fill-rule="evenodd" clip-rule="evenodd" d="M1063.15 136.859H1057.33V130.656H1063.15V136.859Z" fill="#D8DEE4"/>
<path fill-rule="evenodd" clip-rule="evenodd" d="M1080.61 136.859H1074.4V130.656H1080.61V136.859Z" fill="#D8DEE4"/>
<path fill-rule="evenodd" clip-rule="evenodd" d="M964.239 245.027L963.852 245.415V245.027L964.239 244.639H964.627V247.353H964.239V245.027Z" fill="#C0C5CD"/>
<path fill-rule="evenodd" clip-rule="evenodd" d="M965.791 246.19C965.791 246.965 966.179 247.353 966.179 247.353C966.567 247.353 966.567 246.965 966.567 246.19C966.567 245.415 966.567 245.027 966.179 245.027C966.179 245.027 965.791 245.415 965.791 246.19ZM967.343 246.19C967.343 246.965 966.955 247.741 966.567 247.741C966.179 247.741 965.791 247.353 965.791 246.19C965.791 245.415 966.179 244.639 966.955 244.639C967.343 244.639 967.343 245.027 967.343 246.19Z" fill="#C0C5CD"/>
<path fill-rule="evenodd" clip-rule="evenodd" d="M963.465 233.008L963.853 232.62C964.629 231.845 965.016 231.457 965.016 231.069C965.016 230.682 965.016 230.682 964.629 230.682C964.241 230.682 964.241 230.682 963.853 231.069V230.682C964.241 230.682 964.241 230.294 964.629 230.294C965.404 230.294 965.404 230.682 965.404 231.069C965.404 231.457 965.016 231.845 964.629 232.62H963.853H965.016V233.008H963.465Z" fill="#C0C5CD"/>
<path fill-rule="evenodd" clip-rule="evenodd" d="M965.791 231.845C965.791 232.62 966.179 233.008 966.179 233.008C966.567 233.008 966.567 232.62 966.567 231.845C966.567 231.069 966.567 230.682 966.179 230.682C966.179 230.682 965.791 231.069 965.791 231.845ZM967.343 231.845C967.343 232.62 966.955 233.396 966.567 233.396C966.179 233.396 965.791 233.008 965.791 231.845C965.791 231.069 966.179 230.294 966.955 230.294C967.343 230.294 967.343 230.682 967.343 231.845Z" fill="#C0C5CD"/>
<path fill-rule="evenodd" clip-rule="evenodd" d="M963.465 218.275C963.465 218.275 963.853 218.275 964.241 218.275C964.628 218.275 965.016 217.888 965.016 217.888C965.016 217.5 964.628 217.5 964.241 217.5H963.853V217.112H964.241C964.628 217.112 965.016 217.112 965.016 216.725C965.016 216.337 965.016 216.337 964.629 216.337C964.241 216.337 964.241 216.337 964.241 216.337V215.949C964.241 215.949 964.629 215.562 965.016 215.562C965.404 215.562 965.792 215.949 965.792 216.337C965.792 216.725 965.792 216.725 965.404 217.112C965.792 217.112 966.18 217.5 966.18 217.888C966.18 218.275 965.792 218.663 965.016 218.663C963.853 218.663 963.465 218.663 963.465 218.275Z" fill="#C0C5CD"/>
<path fill-rule="evenodd" clip-rule="evenodd" d="M965.791 217.5C965.791 218.276 966.179 218.664 966.179 218.664C966.567 218.664 966.567 218.276 966.567 217.5C966.567 216.725 966.567 216.337 966.179 216.337C966.179 216.337 965.791 216.725 965.791 217.5ZM967.343 217.5C967.343 218.276 966.955 219.051 966.567 219.051C966.179 219.051 965.791 218.664 965.791 217.5C965.791 216.725 966.179 215.95 966.955 215.95C967.343 215.95 967.343 216.337 967.343 217.5Z" fill="#C0C5CD"/>
<path fill-rule="evenodd" clip-rule="evenodd" d="M964.629 203.155V202.379V201.992C964.629 201.992 964.629 202.379 964.241 202.379L963.853 203.155H964.629ZM964.629 204.318V203.543H963.465V203.155L964.629 201.216H965.016V202.767H965.404V203.155H965.016L964.629 204.318Z" fill="#C0C5CD"/>
<path fill-rule="evenodd" clip-rule="evenodd" d="M965.791 202.767C965.791 203.543 966.179 203.93 966.179 203.93C966.567 203.93 966.567 203.543 966.567 202.767C966.567 201.992 966.567 201.604 966.179 201.604C966.179 201.604 965.791 202.379 965.791 202.767ZM967.343 202.767C967.343 203.543 966.955 204.318 966.567 204.318C966.179 204.318 965.791 203.93 965.791 202.767C965.791 201.992 966.179 201.216 966.955 201.216C967.343 201.604 967.343 201.992 967.343 202.767Z" fill="#C0C5CD"/>
<path fill-rule="evenodd" clip-rule="evenodd" d="M965.016 187.647H963.853V188.423C963.853 188.423 963.853 188.423 964.241 188.423C964.629 188.423 964.629 188.423 965.016 188.423C965.404 188.423 965.404 188.811 965.404 189.198C965.404 189.586 965.016 189.974 964.241 189.974C963.853 189.974 963.853 189.974 963.465 189.974V189.586C963.465 189.586 963.853 189.586 964.241 189.586C964.629 189.586 965.016 189.198 965.016 188.811C965.016 188.423 964.629 188.035 964.241 188.035H963.853V186.872L965.016 187.647Z" fill="#C0C5CD"/>
<path fill-rule="evenodd" clip-rule="evenodd" d="M965.791 188.423C965.791 189.198 966.179 189.586 966.179 189.586C966.567 189.586 966.567 189.198 966.567 188.423C966.567 187.647 966.567 187.26 966.179 187.26C966.179 187.26 965.791 187.647 965.791 188.423ZM967.343 188.423C967.343 189.198 966.955 189.974 966.567 189.974C966.179 189.974 965.791 189.586 965.791 188.423C965.791 187.647 966.179 186.872 966.955 186.872C967.343 187.26 967.343 187.647 967.343 188.423Z" fill="#C0C5CD"/>
<path fill-rule="evenodd" clip-rule="evenodd" d="M965.016 174.465C965.016 174.078 964.629 173.69 964.629 173.69C964.241 173.69 964.241 173.69 964.241 174.078C964.241 174.465 964.629 174.853 965.016 174.853C964.629 175.241 965.016 174.853 965.016 174.465ZM965.016 172.915C964.241 172.915 963.853 173.302 963.853 174.078C963.853 174.078 964.241 173.69 964.629 173.69C965.016 173.69 965.404 174.078 965.404 174.465C965.404 174.853 965.016 175.628 964.629 175.628C963.853 175.628 963.465 175.241 963.465 174.465C963.465 174.078 963.853 173.302 963.853 173.302C964.241 172.915 964.241 172.915 965.016 172.915Z" fill="#C0C5CD"/>
<path fill-rule="evenodd" clip-rule="evenodd" d="M965.791 174.078C965.791 174.853 966.179 175.241 966.179 175.241C966.567 175.241 966.567 174.853 966.567 174.078C966.567 173.302 966.567 172.915 966.179 172.915C966.179 172.915 965.791 173.302 965.791 174.078ZM967.343 174.078C967.343 174.853 966.955 175.628 966.567 175.628C966.179 175.628 965.791 175.241 965.791 174.078C965.791 173.302 966.179 172.527 966.955 172.527C967.343 172.915 967.343 173.302 967.343 174.078Z" fill="#C0C5CD"/>
<path fill-rule="evenodd" clip-rule="evenodd" d="M980.921 257.82H980.533L980.921 257.433H981.309V259.759H980.921V257.82Z" fill="#C0C5CD"/>
<path fill-rule="evenodd" clip-rule="evenodd" d="M1002.25 259.759L1002.64 259.371C1003.42 258.596 1003.42 258.596 1003.42 258.208C1003.42 257.82 1003.42 257.82 1003.03 257.82C1002.64 257.82 1002.64 257.82 1002.64 258.208V257.82C1002.64 257.82 1003.03 257.433 1003.42 257.433C1003.81 257.433 1004.19 257.82 1004.19 258.208C1004.19 258.596 1003.81 258.983 1003.42 259.371H1003.03H1004.19V259.759H1002.25Z" fill="#C0C5CD"/>
<path fill-rule="evenodd" clip-rule="evenodd" d="M1024.75 259.371H1025.14C1025.52 259.371 1025.52 258.983 1025.52 258.983C1025.52 258.596 1025.14 258.596 1024.75 258.596V258.208C1025.14 258.208 1025.14 258.208 1025.14 257.82C1025.14 257.433 1025.14 257.433 1024.75 257.433C1024.36 257.433 1024.36 257.433 1024.36 257.433V257.045C1024.36 257.045 1024.75 257.045 1025.14 257.045C1025.52 257.045 1025.91 257.433 1025.91 257.433C1025.91 257.82 1025.91 257.82 1025.52 257.82C1025.91 257.82 1025.91 258.208 1025.91 258.596C1025.91 258.983 1025.52 259.371 1025.14 259.371C1024.75 259.759 1024.75 259.759 1024.75 259.371Z" fill="#C0C5CD"/>
<path fill-rule="evenodd" clip-rule="evenodd" d="M1047.64 258.983V258.208V257.82C1047.64 257.82 1047.64 258.208 1047.25 258.208L1046.47 258.983H1047.64ZM1047.64 259.759V258.983H1046.47V258.596L1047.64 257.045H1048.03V258.596H1048.41V258.983H1048.03L1047.64 259.759Z" fill="#C0C5CD"/>
<path fill-rule="evenodd" clip-rule="evenodd" d="M1070.13 257.821H1069.36V258.596H1069.75H1070.13C1070.13 258.596 1070.52 258.984 1070.52 259.372C1070.52 259.759 1070.13 260.147 1069.75 260.147C1069.36 260.147 1069.36 260.147 1068.97 260.147V259.759H1069.36C1069.75 259.759 1069.75 259.372 1069.75 259.372C1069.75 258.984 1069.36 258.984 1068.97 258.984H1068.58V257.821H1070.13Z" fill="#C0C5CD"/>
<path fill-rule="evenodd" clip-rule="evenodd" d="M969.67 166.323H1081.77V254.331H970.058V166.323H969.67V254.719H1081.77V166.323H969.67Z" fill="#C0C5CD"/>
<path fill-rule="evenodd" clip-rule="evenodd" d="M969.67 239.986H1081.77V239.598H969.67V239.986Z" fill="#C0C5CD"/>
<path fill-rule="evenodd" clip-rule="evenodd" d="M969.67 225.254H1081.77V224.866H969.67V225.254Z" fill="#C0C5CD"/>
<path fill-rule="evenodd" clip-rule="evenodd" d="M969.67 210.522H1081.77V210.134H969.67V210.522Z" fill="#C0C5CD"/>
<path fill-rule="evenodd" clip-rule="evenodd" d="M1059.27 166.323V254.331H1059.66V166.323H1059.27Z" fill="#C0C5CD"/>
<path fill-rule="evenodd" clip-rule="evenodd" d="M1036.78 166.323V254.331H1037.17V166.323H1036.78Z" fill="#C0C5CD"/>
<path fill-rule="evenodd" clip-rule="evenodd" d="M983.632 254.332H978.201V217.112H983.632V254.332Z" fill="#566E83"/>
<path fill-rule="evenodd" clip-rule="evenodd" d="M1006.13 254.332H1000.7V217.112H1006.13V254.332Z" fill="#FFC621"/>
<path fill-rule="evenodd" clip-rule="evenodd" d="M1028.63 254.332H1023.2V217.112H1028.63V254.332Z" fill="#4B9DC8"/>
<path fill-rule="evenodd" clip-rule="evenodd" d="M1050.74 254.332H1045.31V217.112H1050.74V254.332Z" fill="#566E83"/>
<path fill-rule="evenodd" clip-rule="evenodd" d="M1073.24 254.332H1067.81V217.112H1073.24V254.332Z" fill="#4B9DC8"/>
<path fill-rule="evenodd" clip-rule="evenodd" d="M983.632 210.521H978.201V217.112H983.632V210.521Z" fill="#566E83"/>
<path fill-rule="evenodd" clip-rule="evenodd" d="M1006.13 188.035H1000.7V217.112H1006.13V188.035Z" fill="#FFC621"/>
<path fill-rule="evenodd" clip-rule="evenodd" d="M1050.74 191.524H1045.31V217.112H1050.74V191.524Z" fill="#566E83"/>
<path fill-rule="evenodd" clip-rule="evenodd" d="M1073.24 169.812H1067.81V217.112H1073.24V169.812Z" fill="#4B9DC8"/>
<path fill-rule="evenodd" clip-rule="evenodd" d="M995.658 195.789C995.658 199.278 992.943 201.992 989.452 201.992C985.961 201.992 983.246 199.278 983.246 195.789C983.246 192.299 985.961 189.585 989.452 189.585C992.943 189.585 995.658 192.299 995.658 195.789Z" fill="#FFC621"/>
<path fill-rule="evenodd" clip-rule="evenodd" d="M988.678 196.176V195.013C988.678 194.625 988.678 194.625 988.678 194.238C988.678 194.625 988.29 194.626 988.29 194.626L987.126 196.176H988.678ZM988.678 197.339V196.176H986.738V195.789L988.29 193.462H988.678V195.789H989.066V196.176H988.678V197.339Z" fill="#E6EDF3"/>
<path fill-rule="evenodd" clip-rule="evenodd" d="M992.17 194.238H991.006V195.401C991.006 195.401 991.006 195.401 991.394 195.401C991.782 195.401 992.17 195.401 992.17 195.789C992.558 195.789 992.558 196.177 992.558 196.952C992.558 197.728 991.782 198.115 991.006 198.115C990.618 198.115 990.23 198.115 990.23 197.728V197.34C990.23 197.34 990.618 197.728 991.006 197.728C991.394 197.728 991.782 197.34 991.782 196.952C991.782 196.564 991.394 196.177 990.618 196.177C990.23 196.177 990.23 196.177 990.23 196.177L990.618 194.238H992.558H992.17Z" fill="#E6EDF3"/>
<path fill-rule="evenodd" clip-rule="evenodd" d="M995.656 196.176H1000.7V195.401H995.656V196.176Z" fill="#FFC621"/>
<path fill-rule="evenodd" clip-rule="evenodd" d="M1063.15 181.056C1063.15 184.546 1060.44 187.259 1056.95 187.259C1053.46 187.259 1050.74 184.546 1050.74 181.056C1050.74 177.567 1053.46 174.853 1056.95 174.853C1060.44 174.853 1063.15 177.567 1063.15 181.056Z" fill="#4B9DC8"/>
<path fill-rule="evenodd" clip-rule="evenodd" d="M1056.56 179.505H1055.01V180.668C1055.01 180.668 1055.01 180.668 1055.4 180.668C1055.78 180.668 1056.17 180.668 1056.17 181.056C1056.56 181.056 1056.56 181.443 1056.56 182.219C1056.56 182.994 1055.78 183.382 1055.01 183.382C1054.62 183.382 1054.23 183.382 1054.23 182.994V182.606C1054.23 182.606 1054.62 182.994 1055.01 182.994C1055.4 182.994 1055.78 182.606 1055.78 182.219C1055.78 181.831 1055.4 181.443 1054.62 181.443C1054.23 181.443 1054.23 181.443 1054.23 181.443L1054.62 179.505H1056.56Z" fill="#E6EDF3"/>
<path fill-rule="evenodd" clip-rule="evenodd" d="M1057.72 179.894C1057.72 180.281 1058.11 180.669 1058.5 180.669C1058.88 180.669 1059.27 180.281 1059.27 179.894C1059.27 179.506 1059.27 179.118 1058.5 179.118C1058.11 179.118 1057.72 179.506 1057.72 179.894ZM1059.27 181.832C1059.27 181.444 1058.88 181.057 1058.5 181.057C1058.11 181.057 1057.72 181.444 1057.72 181.832C1057.72 182.22 1058.11 182.607 1058.5 182.607C1058.88 182.607 1059.27 182.22 1059.27 181.832ZM1057.33 181.832C1057.33 181.444 1057.72 181.057 1058.11 180.669C1057.72 180.281 1057.33 180.281 1057.33 179.894C1057.33 179.118 1057.72 178.73 1058.5 178.73C1059.27 178.73 1059.66 179.118 1059.66 179.506C1059.66 179.894 1059.66 180.281 1058.88 180.281C1059.27 180.669 1059.66 180.669 1059.66 181.444C1059.66 182.22 1059.27 182.607 1058.5 182.607C1057.72 182.995 1057.33 182.22 1057.33 181.832Z" fill="#E6EDF3"/>
<path fill-rule="evenodd" clip-rule="evenodd" d="M1063.15 181.444H1067.81V180.669H1063.15V181.444Z" fill="#6C9CC6"/>
</g>
<g clip-path="url(#clip1)">
<path fill-rule="evenodd" clip-rule="evenodd" d="M733.493 309.861C733.493 310.624 732.734 311.386 731.975 311.386C731.216 311.386 730.457 310.624 730.457 309.861C730.457 309.099 731.216 308.337 731.975 308.337C732.734 308.337 733.493 309.099 733.493 309.861Z" fill="white"/>
<path fill-rule="evenodd" clip-rule="evenodd" d="M733.493 309.862H732.987C732.987 310.624 732.481 311.132 731.722 311.132C730.963 311.132 730.457 310.624 730.457 309.862C730.457 309.1 730.963 308.591 731.722 308.591C732.481 308.591 732.987 309.1 732.987 309.862H733.493H733.999C733.999 308.845 732.987 307.829 731.975 307.829C730.963 307.829 729.951 308.845 729.951 309.862C729.951 310.878 730.963 311.895 731.975 311.895C732.987 311.895 733.999 310.878 733.999 309.862H733.493Z" fill="#4B9DC8"/>
<path fill-rule="evenodd" clip-rule="evenodd" d="M705.915 298.682C705.915 299.444 705.156 300.206 704.397 300.206C703.638 300.206 702.879 299.444 702.879 298.682C702.879 297.919 703.638 297.157 704.397 297.157C705.156 296.903 705.915 297.665 705.915 298.682Z" fill="white"/>
<path fill-rule="evenodd" clip-rule="evenodd" d="M705.913 298.682H705.407C705.407 299.444 704.901 299.952 704.142 299.952C703.383 299.952 702.877 299.444 702.877 298.682C702.877 297.919 703.383 297.411 704.142 297.411C704.901 297.411 705.407 297.919 705.407 298.682H705.913H706.419C706.419 297.665 705.407 296.649 704.395 296.649C703.383 296.649 702.371 297.665 702.371 298.682C702.371 299.698 703.383 300.714 704.395 300.714C705.407 300.714 706.419 299.698 706.419 298.682H705.913Z" fill="#4B9DC8"/>
<path d="M367.887 253.2H285.404H284.139V251.929V188.662V187.391H285.404H367.887H369.152V188.662V251.929V253.2H367.887ZM286.669 250.405H366.369V189.932H286.669V250.405Z" fill="#C2D0E5"/>
<path d="M285.148 197.554H368.138V200.349H285.148V197.554Z" fill="#C2D0E5"/>
<path d="M285.148 241.512H368.138V244.307H285.148V241.512Z" fill="#C2D0E5"/>
<path d="M289.955 192.727H305.895V195.268H289.955V192.727Z" fill="#C2D0E5"/>
<path d="M320.064 192.727H339.294V195.268H320.064V192.727Z" fill="#C2D0E5"/>
<path d="M354.223 192.727H361.054V195.268H354.223V192.727Z" fill="#C2D0E5"/>
<path d="M289.955 203.907H305.895V206.448H289.955V203.907Z" fill="#C2D0E5"/>
<path d="M320.064 203.907H339.294V206.448H320.064V203.907Z" fill="#C2D0E5"/>
<path d="M354.223 203.907H361.054V206.448H354.223V203.907Z" fill="#C2D0E5"/>
<path d="M289.955 210.259H300.076V212.8H289.955V210.259Z" fill="#C2D0E5"/>
<path d="M320.064 210.259H344.101V212.8H320.064V210.259Z" fill="#C2D0E5"/>
<path d="M354.223 210.259H361.054V212.8H354.223V210.259Z" fill="#C2D0E5"/>
<path d="M289.955 216.611H305.895V219.406H289.955V216.611Z" fill="#C2D0E5"/>
<path d="M320.064 216.611H333.98V219.406H320.064V216.611Z" fill="#C2D0E5"/>
<path d="M354.223 216.611H361.054V219.406H354.223V216.611Z" fill="#C2D0E5"/>
<path d="M289.955 222.963H301.594V225.758H289.955V222.963Z" fill="#C2D0E5"/>
<path d="M320.064 222.963H339.294V225.758H320.064V222.963Z" fill="#C2D0E5"/>
<path d="M354.223 222.963H361.054V225.758H354.223V222.963Z" fill="#C2D0E5"/>
<path d="M289.955 229.57H311.208V232.111H289.955V229.57Z" fill="#C2D0E5"/>
<path d="M320.064 229.57H331.703V232.111H320.064V229.57Z" fill="#C2D0E5"/>
<path d="M354.223 229.57H361.054V232.111H354.223V229.57Z" fill="#C2D0E5"/>
<path d="M351.944 188.408V252.692H349.414V188.408H351.944Z" fill="#C2D0E5"/>
<path d="M317.788 188.408V252.692H315.258V188.408H317.788Z" fill="#C2D0E5"/>
<path fill-rule="evenodd" clip-rule="evenodd" d="M317.789 200.35H264.149V145.721H317.789V200.35Z" fill="white"/>
<path d="M509.826 192.727C506.79 192.981 504.007 193.489 500.971 194.251L497.935 187.645L489.079 190.948L491.103 198.063C488.32 199.333 485.79 200.858 483.26 202.636L483.513 202.382L478.452 197.046L471.115 203.145L475.416 209.243C473.392 211.275 471.368 213.562 469.597 216.103V215.849L463.018 212.8L458.211 221.185L464.283 225.504C463.018 228.299 462.006 231.094 461.247 233.889V233.635L453.91 232.873L452.139 242.274L459.223 244.053C459.223 245.577 458.97 247.102 458.97 248.626C458.97 250.151 458.97 251.675 459.223 252.946V252.692L452.139 254.47L453.91 263.872L461.247 263.109C462.006 265.904 463.018 268.699 464.283 271.494L458.211 275.814L463.018 284.199L469.597 281.15C471.368 283.69 473.392 285.977 475.416 288.01L475.163 287.756L470.862 293.854L478.199 299.952L483.26 294.616C485.79 296.395 488.32 297.919 490.85 299.19H490.597L488.573 306.304L497.429 309.607L500.465 303.001C503.248 303.763 506.284 304.272 509.32 304.526H509.067L509.573 311.894H519.188L519.694 304.526C522.73 304.272 525.513 303.763 528.296 303.001L531.333 309.607L540.188 306.304L538.164 299.19C540.947 297.919 543.477 296.395 546.008 294.616L545.755 294.87L550.815 300.206L558.152 294.108L553.851 288.01C555.875 285.977 557.899 283.69 559.67 281.15V281.404L566.755 284.453L571.562 276.068L565.49 271.748C566.755 268.953 567.767 266.158 568.526 263.363V263.618L575.864 264.38L577.635 254.979L570.55 253.2C570.55 251.675 570.803 250.151 570.803 248.626C570.803 247.102 570.803 245.577 570.55 244.307V244.561L577.635 242.782L575.864 233.381L568.526 234.143C567.767 231.348 566.755 228.553 565.49 225.758L571.562 221.439L566.755 213.054L560.176 216.103C558.405 213.562 556.381 211.275 554.357 209.243L554.61 209.497L558.911 203.399L551.574 197.301L546.514 202.636C543.983 200.858 541.453 199.333 538.923 198.063L540.947 190.948L532.092 187.645L529.056 194.251C526.272 193.489 523.236 192.981 520.2 192.727H520.453L519.947 185.358H510.332L509.826 192.727ZM514.887 290.805C491.609 290.805 472.886 272.002 472.886 248.626C472.886 225.25 491.609 206.448 514.887 206.448C538.164 206.448 556.887 225.25 556.887 248.626C556.887 271.748 537.911 290.805 514.887 290.805Z" fill="#ABC3E1"/>
<path d="M445.814 150.04L445.308 142.672H435.694L435.188 150.04H445.814Z" fill="#C2D0E5"/>
<path d="M427.343 152.327L422.536 146.483L414.945 152.327L418.741 158.426L427.343 152.327Z" fill="#C2D0E5"/>
<path d="M413.429 164.777L406.345 163.252L403.309 172.146L410.14 175.195L413.429 164.777Z" fill="#C2D0E5"/>
<path d="M409.632 183.326L402.801 186.121L405.837 195.268L412.921 193.49L409.632 183.326Z" fill="#C2D0E5"/>
<path d="M417.476 200.35L413.428 206.702L421.271 212.292L426.079 206.702L417.476 200.35Z" fill="#C2D0E5"/>
<path d="M433.67 209.751L434.176 217.12H443.791L444.297 209.751H433.67Z" fill="#C2D0E5"/>
<path d="M452.139 207.718L456.946 213.308L464.789 207.718L460.994 201.366L452.139 207.718Z" fill="#C2D0E5"/>
<path d="M466.055 195.014L473.139 196.792L476.175 187.645L469.344 184.85L466.055 195.014Z" fill="#C2D0E5"/>
<path d="M469.852 176.719L476.683 173.67L473.647 164.777L466.562 166.302L469.852 176.719Z" fill="#C2D0E5"/>
<path d="M462.26 159.442L466.055 153.089L458.212 147.5L453.404 153.089L462.26 159.442Z" fill="#C2D0E5"/>
<path d="M439.743 148.262C422.285 148.262 408.369 162.491 408.369 179.769C408.369 197.301 422.538 211.276 439.743 211.276C457.201 211.276 471.117 197.047 471.117 179.769C471.37 162.491 457.201 148.262 439.743 148.262ZM439.743 197.555C430.129 197.555 422.285 189.678 422.285 180.023C422.285 170.367 430.129 162.491 439.743 162.491C449.358 162.491 457.201 170.367 457.201 180.023C457.201 189.678 449.358 197.555 439.743 197.555Z" fill="#C2D0E5"/>
<path d="M445.056 254.47V245.069L436.706 244.307C436.2 241.258 434.935 238.463 433.417 235.922L438.984 229.315L432.405 222.709L426.08 228.045C423.55 226.266 420.766 224.996 417.73 224.234L416.971 215.595H407.61L406.851 223.98C403.814 224.488 401.031 225.758 398.501 227.283L391.923 221.693L385.344 228.299L390.658 234.651C388.886 237.192 387.621 239.987 386.862 243.036L378.26 243.799V253.2L386.609 253.962C387.115 257.011 388.38 259.806 389.899 262.347L384.585 269.207L391.164 275.814L397.489 270.478C400.019 272.256 402.802 273.527 405.839 274.289L406.598 282.928H415.959L416.718 274.543C419.754 274.035 422.538 272.765 425.068 271.24L431.646 276.83L438.225 270.224L432.911 263.871C434.682 261.331 435.947 258.536 436.706 255.487L445.056 254.47ZM411.658 259.806C405.839 259.806 401.284 255.232 401.284 249.388C401.284 243.544 405.839 238.971 411.658 238.971C417.477 238.971 422.032 243.544 422.032 249.388C422.032 254.978 417.477 259.806 411.658 259.806Z" fill="#C2D0E5"/>
<path d="M411.658 266.666C406.851 266.666 402.55 264.634 399.513 261.585C396.477 258.536 394.453 254.216 394.453 249.388C394.453 244.561 396.477 240.241 399.513 237.192C402.55 234.143 406.851 232.11 411.658 232.11C416.466 232.11 420.767 234.143 423.803 237.192C426.839 240.241 428.863 244.561 428.863 249.388H426.839C426.839 245.069 425.068 241.258 422.285 238.463C419.502 235.668 415.707 233.889 411.405 233.889C407.104 233.889 403.309 235.668 400.526 238.463C397.742 241.258 395.971 245.069 395.971 249.388C395.971 253.708 397.742 257.519 400.526 260.314C403.309 263.109 407.104 264.888 411.405 264.888V266.666H411.658Z" fill="#2979A6"/>
<path d="M424.308 294.616H442.525C442.778 292.838 443.031 290.551 444.043 289.28C450.874 280.641 451.128 272.256 451.128 271.748C451.128 261.839 443.031 253.708 433.163 253.708C423.296 253.708 415.199 261.839 415.199 271.748C415.199 272.256 415.705 280.641 422.284 289.28C423.802 290.551 424.308 292.838 424.308 294.616Z" fill="#FFC54B"/>
<path d="M427.849 294.871L424.307 275.052L426.331 274.543L429.873 294.362L427.849 294.871Z" fill="#2979A6"/>
<path d="M437.465 294.362L441.007 274.543L442.778 275.052L439.236 294.871L437.465 294.362Z" fill="#2979A6"/>
<path d="M425.825 275.306L428.103 276.322L430.38 275.306H431.139L433.669 276.322L435.946 275.306H436.705L438.982 276.322L441.259 275.306L442.271 277.084L439.488 278.355H438.476L436.199 277.084L433.922 278.355H433.163L430.886 277.084L428.609 278.355H427.597L425.066 277.084L425.825 275.306Z" fill="#2979A6"/>
<path d="M423.297 293.854H443.791V295.887H423.297V293.854Z" fill="#2979A6"/>
<path d="M423.297 299.189H443.791V301.222H423.297V299.189Z" fill="#2979A6"/>
<path d="M426.836 304.78H440.246V306.812H426.836V304.78Z" fill="#2979A6"/>
<path d="M427.344 299.953V295.125H429.368V299.953H427.344Z" fill="#2979A6"/>
<path fill-rule="evenodd" clip-rule="evenodd" d="M117.654 198.825C107.786 199.079 99.6897 191.203 99.4367 181.293C99.1837 171.384 107.027 163.253 116.895 162.999C126.762 162.745 134.859 170.621 135.112 180.531C135.112 190.44 127.268 198.571 117.654 198.825ZM156.365 207.718L162.691 196.284L157.377 191.711C157.883 189.932 158.136 188.153 158.389 186.121L165.221 184.596L164.968 171.638L157.377 170.113C156.871 168.589 156.365 167.064 155.859 165.54L161.426 160.204L154.847 149.024L147.004 151.819C145.992 150.803 144.727 149.786 143.714 148.77L145.992 140.893L134.353 134.541L128.787 140.893C127.268 140.385 126.003 140.131 124.485 139.877L122.714 132L109.81 132.254L108.292 140.385C106.774 140.639 105.256 141.147 103.738 141.655L98.4246 135.811L87.2919 142.418L89.8221 149.786C88.557 151.057 87.2919 152.073 86.2798 153.597L79.1954 151.565L72.87 162.999L78.1833 167.572C77.4243 169.351 76.9183 171.384 76.6652 173.416L70.3398 174.941L70.5929 187.899L76.6652 189.17C77.1713 191.457 77.6773 193.489 78.4364 195.522L74.1351 199.587L80.7135 210.767L86.0268 208.989C87.5449 210.767 89.316 212.292 91.0872 213.816L89.5691 218.898L100.955 225.25L104.497 221.185C106.774 221.947 109.051 222.455 111.328 222.709L112.594 227.791L125.497 227.537L126.509 221.947C128.787 221.439 130.811 220.677 133.088 219.914L136.883 223.98L148.016 217.374L145.992 211.275C147.51 209.751 148.775 208.226 150.04 206.448L156.365 207.718Z" fill="#ABC3E1"/>
<path fill-rule="evenodd" clip-rule="evenodd" d="M117.652 202.636C105.76 202.891 95.6397 193.235 95.3867 181.293C95.1337 169.351 104.748 159.187 116.64 158.933C128.532 158.679 138.652 168.335 138.905 180.277C139.158 192.473 129.544 202.382 117.652 202.636ZM116.64 153.343C101.459 153.597 89.5674 166.302 89.8204 181.547C90.0734 196.792 102.724 208.735 117.905 208.48C132.833 208.226 144.978 195.522 144.472 180.277C144.219 165.031 131.821 153.089 116.64 153.343Z" fill="#7EA3CC"/>
<path fill-rule="evenodd" clip-rule="evenodd" d="M235.305 311.132H0V175.957H235.305V311.132Z" fill="#BFCADB"/>
<path fill-rule="evenodd" clip-rule="evenodd" d="M235.305 184.342H0V175.957H235.305V184.342Z" fill="#DEE5F4"/>
<path fill-rule="evenodd" clip-rule="evenodd" d="M227.462 302.493H25.0488V192.981H227.462V302.493Z" fill="white"/>
<path fill-rule="evenodd" clip-rule="evenodd" d="M6.0725 180.277C6.0725 181.293 5.31345 182.055 4.30139 182.055C3.28932 182.055 2.53027 181.293 2.53027 180.277C2.53027 179.26 3.28932 178.498 4.30139 178.498C5.31345 178.498 6.0725 179.26 6.0725 180.277Z" fill="#B5BCD2"/>
<path fill-rule="evenodd" clip-rule="evenodd" d="M11.385 180.277C11.385 181.293 10.6259 182.055 9.61389 182.055C8.60182 182.055 7.84277 181.293 7.84277 180.277C7.84277 179.26 8.60182 178.498 9.61389 178.498C10.6259 178.498 11.385 179.26 11.385 180.277Z" fill="#FFC621"/>
<path fill-rule="evenodd" clip-rule="evenodd" d="M16.6985 180.277C16.6985 181.293 15.9394 182.055 14.9274 182.055C13.9153 182.055 13.1562 181.293 13.1562 180.277C13.1562 179.26 13.9153 178.498 14.9274 178.498C15.9394 178.498 16.6985 179.26 16.6985 180.277Z" fill="#4B9DC8"/>
<path fill-rule="evenodd" clip-rule="evenodd" d="M82.4836 206.702H38.9648V204.923H82.4836V206.702Z" fill="#D8DEE4"/>
<path fill-rule="evenodd" clip-rule="evenodd" d="M53.1337 202.891H38.9648V201.112H53.1337V202.891Z" fill="#D8DEE4"/>
<path fill-rule="evenodd" clip-rule="evenodd" d="M174.074 206.702H130.556V204.923H174.074V206.702Z" fill="#D8DEE4"/>
<path fill-rule="evenodd" clip-rule="evenodd" d="M132.833 270.478H130.556V268.699H132.833V270.478Z" fill="#FFC621"/>
<path fill-rule="evenodd" clip-rule="evenodd" d="M167.243 274.798H130.556V273.019H167.243V274.798Z" fill="#D8DEE4"/>
<path fill-rule="evenodd" clip-rule="evenodd" d="M181.919 270.478H179.642V268.699H181.919V270.478Z" fill="#4B9DC8"/>
<path fill-rule="evenodd" clip-rule="evenodd" d="M216.329 274.798H179.642V273.019H216.329V274.798Z" fill="#D8DEE4"/>
<path fill-rule="evenodd" clip-rule="evenodd" d="M144.725 202.891H130.556V201.112H144.725V202.891Z" fill="#D8DEE4"/>
<path fill-rule="evenodd" clip-rule="evenodd" d="M40.7354 210.513H108.797V287.756H40.7354V210.513H40.4824V288.01H108.797V210.259H40.4824V210.513H40.7354Z" fill="#C0C5CD"/>
<path fill-rule="evenodd" clip-rule="evenodd" d="M40.7354 265.904H108.797V265.65H40.7354V265.904Z" fill="#C0C5CD"/>
<path fill-rule="evenodd" clip-rule="evenodd" d="M40.7354 243.799H108.797V243.544H40.7354V243.799Z" fill="#C0C5CD"/>
<path fill-rule="evenodd" clip-rule="evenodd" d="M40.7346 210.513L37.1924 213.816V214.07L40.7346 210.513Z" fill="#C0C5CD"/>
<path fill-rule="evenodd" clip-rule="evenodd" d="M40.7346 221.439L37.1924 224.997L40.7346 221.439Z" fill="#C0C5CD"/>
<path fill-rule="evenodd" clip-rule="evenodd" d="M40.7346 232.619L37.1924 236.176L40.7346 232.619Z" fill="#C0C5CD"/>
<path fill-rule="evenodd" clip-rule="evenodd" d="M40.7346 243.544L37.1924 247.102L40.7346 243.544Z" fill="#C0C5CD"/>
<path fill-rule="evenodd" clip-rule="evenodd" d="M40.7346 254.724L37.1924 258.281L40.7346 254.724Z" fill="#C0C5CD"/>
<path fill-rule="evenodd" clip-rule="evenodd" d="M40.7346 265.65L37.1924 269.208V269.462L40.7346 265.904V265.65Z" fill="#C0C5CD"/>
<path fill-rule="evenodd" clip-rule="evenodd" d="M40.7346 276.83L37.1924 280.387L40.7346 276.83Z" fill="#C0C5CD"/>
<path fill-rule="evenodd" clip-rule="evenodd" d="M33.9054 280.641L33.6523 280.895V280.641L33.9054 280.387H34.1584V282.42H33.9054V280.641Z" fill="#C0C5CD"/>
<path fill-rule="evenodd" clip-rule="evenodd" d="M35.17 281.404C35.17 281.912 35.423 282.166 35.676 282.166C35.9291 282.166 36.1821 281.912 36.1821 281.404C36.1821 280.895 36.1821 280.641 35.676 280.641C35.423 280.641 35.17 280.895 35.17 281.404ZM36.4351 281.404C36.4351 282.166 36.1821 282.42 35.676 282.42C35.17 282.42 34.917 282.166 34.917 281.404C34.917 280.641 35.17 280.387 35.676 280.387C36.1821 280.387 36.4351 280.895 36.4351 281.404Z" fill="#C0C5CD"/>
<path fill-rule="evenodd" clip-rule="evenodd" d="M33.3975 271.495L33.6505 271.241C34.1565 270.732 34.4095 270.478 34.4095 270.224C34.4095 269.97 34.4095 269.716 33.9035 269.716C33.6505 269.716 33.6505 269.716 33.3975 269.97V269.716C33.6505 269.716 33.6505 269.462 33.9035 269.462C34.4095 269.462 34.4095 269.716 34.4095 269.97C34.4095 270.224 34.1565 270.732 33.6505 270.986L33.3975 271.241H34.4095V271.495H33.3975Z" fill="#C0C5CD"/>
<path fill-rule="evenodd" clip-rule="evenodd" d="M35.17 270.478C35.17 270.986 35.423 271.241 35.676 271.241C35.9291 271.241 36.1821 270.986 36.1821 270.478C36.1821 269.97 36.1821 269.716 35.676 269.716C35.423 269.716 35.17 269.97 35.17 270.478ZM36.4351 270.478C36.4351 271.241 36.1821 271.495 35.676 271.495C35.17 271.495 34.917 271.241 34.917 270.478C34.917 269.716 35.17 269.462 35.676 269.462C36.1821 269.462 36.4351 269.716 36.4351 270.478Z" fill="#C0C5CD"/>
<path fill-rule="evenodd" clip-rule="evenodd" d="M33.3975 260.061C33.3975 260.061 33.6505 260.061 33.9035 260.061C34.1565 260.061 34.4095 259.806 34.4095 259.552C34.4095 259.298 34.1565 259.044 33.9035 259.044H33.6505V258.79H33.9035C34.1565 258.79 34.4095 258.79 34.4095 258.536C34.4095 258.282 34.4095 258.282 34.1565 258.282C33.9035 258.282 33.9035 258.282 33.6505 258.536V258.282C33.6505 258.282 33.9035 258.028 34.1565 258.028C34.6625 258.028 34.6625 258.282 34.6625 258.536C34.6625 258.79 34.6625 259.044 34.4095 259.044C34.6625 259.044 34.9156 259.298 34.9156 259.552C34.9156 259.806 34.6625 260.061 34.1565 260.061C33.6505 260.569 33.3975 260.315 33.3975 260.061Z" fill="#C0C5CD"/>
<path fill-rule="evenodd" clip-rule="evenodd" d="M35.17 259.552C35.17 260.06 35.423 260.314 35.676 260.314C35.9291 260.314 36.1821 260.06 36.1821 259.552C36.1821 259.044 36.1821 258.79 35.676 258.79C35.423 258.536 35.17 259.044 35.17 259.552ZM36.4351 259.552C36.4351 260.314 36.1821 260.568 35.676 260.568C35.17 260.568 34.917 260.314 34.917 259.552C34.917 258.79 35.17 258.536 35.676 258.536C36.1821 258.536 36.4351 258.79 36.4351 259.552Z" fill="#C0C5CD"/>
<path fill-rule="evenodd" clip-rule="evenodd" d="M34.1566 248.626V247.864V247.61C34.1566 247.61 34.1566 247.864 33.9036 247.864L33.3975 248.626H34.1566ZM34.1566 249.389V248.88H33.1445V248.626L34.1566 247.356H34.4096V248.626H34.6626V248.88H34.4096V249.389H34.1566Z" fill="#C0C5CD"/>
<path fill-rule="evenodd" clip-rule="evenodd" d="M35.17 248.372C35.17 248.88 35.423 249.135 35.676 249.135C35.9291 249.135 36.1821 248.88 36.1821 248.372C36.1821 247.864 36.1821 247.61 35.676 247.61C35.423 247.61 35.17 247.864 35.17 248.372ZM36.4351 248.372C36.4351 249.135 36.1821 249.389 35.676 249.389C35.17 249.389 34.917 249.135 34.917 248.372C34.917 247.61 35.17 247.356 35.676 247.356C36.1821 247.356 36.4351 247.864 36.4351 248.372Z" fill="#C0C5CD"/>
<path fill-rule="evenodd" clip-rule="evenodd" d="M34.6644 236.684H33.9054V237.193C33.9054 237.193 33.9054 237.193 34.1584 237.193C34.4114 237.193 34.4114 237.193 34.6644 237.193C34.9174 237.193 34.9174 237.447 34.9174 237.701C34.9174 238.209 34.6644 238.463 34.1584 238.463C33.9054 238.463 33.6523 238.463 33.6523 238.463V238.209C33.6523 238.209 33.9054 238.209 34.1584 238.209C34.4114 238.209 34.6644 237.955 34.6644 237.701C34.6644 237.447 34.4114 237.193 34.1584 237.193H33.9054L34.1584 236.176L34.6644 236.684Z" fill="#C0C5CD"/>
<path fill-rule="evenodd" clip-rule="evenodd" d="M35.17 237.447C35.17 237.955 35.423 238.209 35.676 238.209C35.9291 238.209 36.1821 237.955 36.1821 237.447C36.1821 236.938 36.1821 236.684 35.676 236.684C35.423 236.684 35.17 236.938 35.17 237.447ZM36.4351 237.447C36.4351 238.209 36.1821 238.463 35.676 238.463C35.17 238.463 34.917 238.209 34.917 237.447C34.917 236.684 35.17 236.43 35.676 236.43C36.1821 236.43 36.4351 236.938 36.4351 237.447Z" fill="#C0C5CD"/>
<path fill-rule="evenodd" clip-rule="evenodd" d="M34.4096 226.775C34.4096 226.521 34.1566 226.267 33.9036 226.267C33.6506 226.267 33.6506 226.267 33.3975 226.521C33.3975 226.775 33.6506 227.029 33.9036 227.029C34.4096 227.283 34.4096 227.029 34.4096 226.775ZM34.6626 225.759C34.4096 225.759 34.4096 225.759 34.6626 225.759C34.1566 225.759 33.9036 226.267 33.6506 226.521C33.6506 226.521 33.9036 226.267 34.1566 226.267C34.4096 226.267 34.6626 226.521 34.6626 227.029C34.6626 227.283 34.4096 227.792 33.9036 227.792C33.3975 227.792 33.1445 227.538 33.1445 227.029C33.1445 226.521 33.3975 226.267 33.3975 226.013C33.9036 225.505 34.1566 225.505 34.6626 225.759C34.4096 225.505 34.4096 225.505 34.6626 225.759Z" fill="#C0C5CD"/>
<path fill-rule="evenodd" clip-rule="evenodd" d="M35.17 226.52C35.17 227.028 35.423 227.283 35.676 227.283C35.9291 227.283 36.1821 227.028 36.1821 226.52C36.1821 226.012 36.1821 225.758 35.676 225.758C35.423 225.758 35.17 226.012 35.17 226.52ZM36.4351 226.52C36.4351 227.283 36.1821 227.537 35.676 227.537C35.17 227.537 34.917 227.283 34.917 226.52C34.917 225.758 35.17 225.504 35.676 225.504C36.1821 225.504 36.4351 225.758 36.4351 226.52Z" fill="#C0C5CD"/>
<path fill-rule="evenodd" clip-rule="evenodd" d="M34.6625 214.579L33.9035 216.611H33.6505L34.4095 214.833H33.3975V214.579H34.6625Z" fill="#C0C5CD"/>
<path fill-rule="evenodd" clip-rule="evenodd" d="M35.17 215.595C35.17 216.103 35.423 216.357 35.676 216.357C35.9291 216.357 36.1821 216.103 36.1821 215.595C36.1821 215.087 36.1821 214.833 35.676 214.833C35.423 214.579 35.17 214.833 35.17 215.595ZM36.4351 215.595C36.4351 216.357 36.1821 216.611 35.676 216.611C35.17 216.611 34.917 216.357 34.917 215.595C34.917 214.833 35.17 214.579 35.676 214.579C36.1821 214.579 36.4351 214.833 36.4351 215.595Z" fill="#C0C5CD"/>
<path fill-rule="evenodd" clip-rule="evenodd" d="M47.8203 292.076L48.0733 291.822C48.5794 291.313 48.8324 291.059 48.8324 290.805C48.8324 290.551 48.8324 290.297 48.3263 290.297C48.0733 290.297 48.0733 290.297 47.8203 290.551V290.297C48.0733 290.297 48.0733 290.043 48.3263 290.043C48.8324 290.043 48.8324 290.297 48.8324 290.551C48.8324 290.805 48.5794 291.313 48.0733 291.567V291.822H49.0854V292.076H47.8203Z" fill="#C0C5CD"/>
<path fill-rule="evenodd" clip-rule="evenodd" d="M49.592 291.059C49.592 291.567 49.845 291.822 50.098 291.822C50.351 291.822 50.604 291.567 50.604 291.059C50.604 290.551 50.604 290.297 50.098 290.297C49.845 290.297 49.592 290.551 49.592 291.059ZM50.604 291.059C50.604 291.822 50.351 292.076 49.845 292.076C49.339 292.076 49.0859 291.822 49.0859 291.059C49.0859 290.297 49.339 290.043 49.845 290.043C50.604 290.043 50.604 290.297 50.604 291.059Z" fill="#C0C5CD"/>
<path fill-rule="evenodd" clip-rule="evenodd" d="M51.6144 290.297L51.1084 290.551V290.297L51.6144 290.043H51.8674V292.076H51.6144V290.297Z" fill="#C0C5CD"/>
<path fill-rule="evenodd" clip-rule="evenodd" d="M53.894 290.043V290.297L52.8819 292.076H52.6289L53.641 290.297H52.6289V290.043H53.894Z" fill="#C0C5CD"/>
<path fill-rule="evenodd" clip-rule="evenodd" d="M70.8447 292.076L71.0977 291.822C71.6038 291.313 71.8568 291.059 71.8568 290.805C71.8568 290.551 71.8568 290.297 71.3508 290.297C71.0977 290.297 71.0977 290.297 70.8447 290.551V290.297C71.0977 290.297 71.0977 290.043 71.3508 290.043C71.8568 290.043 71.8568 290.297 71.8568 290.551C71.8568 290.805 71.6038 291.313 71.0977 291.567L70.8447 291.822H71.8568V292.076H70.8447Z" fill="#C0C5CD"/>
<path fill-rule="evenodd" clip-rule="evenodd" d="M72.8683 291.059C72.8683 291.567 73.1213 291.822 73.3744 291.822C73.6274 291.822 73.8804 291.567 73.8804 291.059C73.8804 290.551 73.8804 290.297 73.3744 290.297C72.8683 290.297 72.8683 290.551 72.8683 291.059ZM73.8804 291.059C73.8804 291.822 73.6274 292.076 73.1213 292.076C72.6153 292.076 72.3623 291.822 72.3623 291.059C72.3623 290.297 72.6153 290.043 73.1213 290.043C73.6274 290.043 73.8804 290.297 73.8804 291.059Z" fill="#C0C5CD"/>
<path fill-rule="evenodd" clip-rule="evenodd" d="M74.6407 290.297L74.3877 290.551V290.297L74.6407 290.043H74.8937V292.076H74.6407V290.297Z" fill="#C0C5CD"/>
<path fill-rule="evenodd" clip-rule="evenodd" d="M75.9054 290.551C75.9054 290.805 76.1584 290.805 76.4114 290.805C76.6644 290.805 76.6644 290.551 76.6644 290.551C76.6644 290.297 76.6644 290.297 76.4114 290.297C76.1584 290.043 75.9054 290.297 75.9054 290.551ZM76.6644 291.567C76.6644 291.313 76.4114 291.313 76.1584 291.059C75.9054 291.059 75.9054 291.313 75.9054 291.567C75.9054 291.822 76.1584 292.076 76.4114 292.076C76.6644 291.822 76.6644 291.567 76.6644 291.567ZM75.6523 291.567C75.6523 291.313 75.9054 291.059 76.1584 291.059C75.9054 291.059 75.9054 290.805 75.9054 290.551C75.9054 290.297 76.1584 290.043 76.4114 290.043C76.9174 290.043 76.9174 290.297 76.9174 290.551C76.9174 290.805 76.9174 290.805 76.6644 291.059C76.9174 291.059 77.1704 291.313 77.1704 291.567C77.1704 291.822 76.9174 292.076 76.4114 292.076C75.9054 292.076 75.6523 291.822 75.6523 291.567Z" fill="#C0C5CD"/>
<path fill-rule="evenodd" clip-rule="evenodd" d="M94.1211 292.076L94.3741 291.822C94.8801 291.313 95.1331 291.059 95.1331 290.805C95.1331 290.551 95.1332 290.297 94.6271 290.297C94.3741 290.297 94.3741 290.297 94.1211 290.551V290.297C94.3741 290.297 94.3741 290.043 94.6271 290.043C95.1332 290.043 95.1331 290.297 95.1331 290.551C95.1331 290.805 94.8801 291.313 94.3741 291.567L94.1211 291.822H95.1331V292.076H94.1211Z" fill="#C0C5CD"/>
<path fill-rule="evenodd" clip-rule="evenodd" d="M95.8918 291.059C95.8918 291.567 96.1448 291.822 96.3978 291.822C96.6508 291.822 96.9038 291.567 96.9038 291.059C96.9038 290.551 96.9038 290.297 96.3978 290.297C96.1448 290.297 95.8918 290.551 95.8918 291.059ZM96.9038 291.059C96.9038 291.822 96.6508 292.076 96.1448 292.076C95.6388 292.076 95.3857 291.822 95.3857 291.059C95.3857 290.297 95.6388 290.043 96.1448 290.043C96.6508 290.043 96.9038 290.297 96.9038 291.059Z" fill="#C0C5CD"/>
<path fill-rule="evenodd" clip-rule="evenodd" d="M97.9172 290.297L97.4111 290.551V290.297L97.9172 290.043H98.1702V292.076H97.9172V290.297Z" fill="#C0C5CD"/>
<path fill-rule="evenodd" clip-rule="evenodd" d="M99.1817 290.551C99.1817 290.805 99.4348 291.059 99.6878 291.059C99.9408 291.059 99.9408 291.059 100.194 290.805C100.194 290.551 100.194 290.297 99.6878 290.297C99.1817 290.297 99.1817 290.297 99.1817 290.551ZM98.9287 291.822C98.9287 291.822 99.1817 291.822 98.9287 291.822C99.1817 291.822 99.4348 291.822 99.6878 291.567C99.9408 291.567 99.9408 291.313 99.9408 291.059C99.9408 291.313 99.6878 291.313 99.4347 291.313C99.1817 291.313 98.9287 291.059 98.9287 290.805C98.9287 290.551 99.1817 290.043 99.6878 290.043C100.194 290.043 100.447 290.297 100.447 290.805C100.447 291.313 100.194 291.568 100.194 291.822C99.6878 291.822 99.4347 292.076 98.9287 291.822C99.1817 292.076 99.1817 292.076 98.9287 291.822Z" fill="#C0C5CD"/>
<path fill-rule="evenodd" clip-rule="evenodd" d="M108.797 232.619H86.0254V221.439H108.797V232.619Z" fill="#EDF0F7"/>
<path fill-rule="evenodd" clip-rule="evenodd" d="M86.0252 232.619H63.2538V221.693H86.0252V232.619ZM63.2538 232.619H40.7354V221.693H63.2538V232.619Z" fill="#EDF0F7"/>
<path fill-rule="evenodd" clip-rule="evenodd" d="M108.797 254.725H86.0254V243.799H108.797V254.725Z" fill="#EDF0F7"/>
<path fill-rule="evenodd" clip-rule="evenodd" d="M108.797 243.799H86.0254V243.544H108.797V243.799Z" fill="#D3D7DC"/>
<path fill-rule="evenodd" clip-rule="evenodd" d="M86.0253 254.725H63.2539V243.799H86.0253V254.725Z" fill="#EDF0F7"/>
<path fill-rule="evenodd" clip-rule="evenodd" d="M86.0253 243.799H63.2539V243.544H86.0253V243.799Z" fill="#D3D7DC"/>
<path fill-rule="evenodd" clip-rule="evenodd" d="M63.2538 254.725H40.7354V243.799H63.2538V254.725Z" fill="#EDF0F7"/>
<path fill-rule="evenodd" clip-rule="evenodd" d="M63.2538 243.799H40.7354V243.544H63.2538V243.799Z" fill="#D3D7DC"/>
<path fill-rule="evenodd" clip-rule="evenodd" d="M108.797 276.831H86.0252V265.905H108.797V276.831ZM86.0252 276.831H63.2538V265.905H86.0252V276.831ZM63.2538 276.831H40.7354V265.905H63.2538V276.831Z" fill="#EDF0F7"/>
<path fill-rule="evenodd" clip-rule="evenodd" d="M108.797 276.831V265.905V276.831ZM40.7354 276.831V265.905V276.831Z" fill="#D3D7DC"/>
<path fill-rule="evenodd" clip-rule="evenodd" d="M71.3503 223.218H40.7354V221.439H71.3503V223.218Z" fill="#FFC621"/>
<path fill-rule="evenodd" clip-rule="evenodd" d="M93.1096 227.791H40.7354V226.267H93.1096V227.791Z" fill="#566E83"/>
<path fill-rule="evenodd" clip-rule="evenodd" d="M59.4585 232.619H40.7354V230.84H59.4585V232.619Z" fill="#4B9DC8"/>
<path fill-rule="evenodd" clip-rule="evenodd" d="M95.8928 245.323H40.7354V243.544H95.8928V245.323Z" fill="#FFC621"/>
<path fill-rule="evenodd" clip-rule="evenodd" d="M63.2538 250.151H40.7354V248.372H63.2538V250.151Z" fill="#566E83"/>
<path fill-rule="evenodd" clip-rule="evenodd" d="M86.0252 254.725H40.7354V252.946H86.0252V254.725Z" fill="#4B9DC8"/>
<path fill-rule="evenodd" clip-rule="evenodd" d="M63.2538 267.683H40.7354V265.905H63.2538V267.683Z" fill="#FFC621"/>
<path fill-rule="evenodd" clip-rule="evenodd" d="M86.0252 272.257H40.7354V270.478H86.0252V272.257Z" fill="#566E83"/>
<path fill-rule="evenodd" clip-rule="evenodd" d="M78.1817 277.084H40.7354V275.306H78.1817V277.084Z" fill="#4B9DC8"/>
<path fill-rule="evenodd" clip-rule="evenodd" d="M199.883 252.437H165.473V210.259H182.678V252.437V210.259H199.883V252.437Z" fill="#EDF0F7"/>
<path fill-rule="evenodd" clip-rule="evenodd" d="M131.063 210.259H217.089V252.438H131.063V210.259V252.692H217.089V210.005H131.063V210.259Z" fill="#C0C5CD"/>
<path fill-rule="evenodd" clip-rule="evenodd" d="M217.089 245.323H131.063V245.577H217.089V245.323Z" fill="#C0C5CD"/>
<path fill-rule="evenodd" clip-rule="evenodd" d="M131.063 217.374H217.089V217.12H131.063V217.374Z" fill="#C0C5CD"/>
<path fill-rule="evenodd" clip-rule="evenodd" d="M128.786 252.183C128.786 252.692 129.039 252.946 129.039 252.946C129.292 252.946 129.292 252.692 129.292 252.183C129.292 251.675 129.292 251.421 129.039 251.421C128.786 251.421 128.786 251.675 128.786 252.183ZM129.798 252.183C129.798 252.692 129.545 253.2 129.039 253.2C128.786 253.2 128.533 252.946 128.533 252.183C128.533 251.675 128.786 251.167 129.292 251.167C129.545 251.167 129.798 251.675 129.798 252.183Z" fill="#C0C5CD"/>
<path fill-rule="evenodd" clip-rule="evenodd" d="M127.522 244.307L127.269 244.561V244.307H127.522H127.775V246.086H127.522V244.307Z" fill="#C0C5CD"/>
<path fill-rule="evenodd" clip-rule="evenodd" d="M128.786 245.069C128.786 245.577 129.039 245.831 129.039 245.831C129.292 245.831 129.292 245.577 129.292 245.069C129.292 244.561 129.292 244.307 129.039 244.307C128.786 244.307 128.786 244.561 128.786 245.069ZM129.798 245.069C129.798 245.577 129.545 246.085 129.039 246.085C128.786 246.085 128.533 245.831 128.533 245.069C128.533 244.561 128.786 244.053 129.292 244.053C129.545 244.053 129.798 244.561 129.798 245.069Z" fill="#C0C5CD"/>
<path fill-rule="evenodd" clip-rule="evenodd" d="M127.013 238.971L127.266 238.717C127.772 238.209 128.025 237.955 128.025 237.701C128.025 237.446 128.025 237.446 127.772 237.446C127.519 237.446 127.519 237.446 127.266 237.701V237.446C127.519 237.446 127.519 237.192 127.772 237.192C128.278 237.192 128.278 237.446 128.278 237.701C128.278 237.955 128.025 238.209 127.772 238.717H127.266H128.025V238.971H127.013Z" fill="#C0C5CD"/>
<path fill-rule="evenodd" clip-rule="evenodd" d="M128.786 237.954C128.786 238.463 129.039 238.717 129.039 238.717C129.292 238.717 129.292 238.463 129.292 237.954C129.292 237.446 129.292 237.192 129.039 237.192C128.786 237.192 128.786 237.446 128.786 237.954ZM129.798 237.954C129.798 238.463 129.545 238.971 129.039 238.971C128.786 238.971 128.533 238.717 128.533 237.954C128.533 237.446 128.786 236.938 129.292 236.938C129.545 236.938 129.798 237.446 129.798 237.954Z" fill="#C0C5CD"/>
<path fill-rule="evenodd" clip-rule="evenodd" d="M127.013 231.602C127.013 231.602 127.266 231.602 127.519 231.602C127.772 231.602 128.025 231.348 128.025 231.348C128.025 231.094 127.772 231.094 127.519 231.094H127.266V230.84H127.519C127.772 230.84 128.025 230.84 128.025 230.586C128.025 230.332 128.025 230.332 127.772 230.332C127.519 230.332 127.519 230.332 127.519 230.332V230.078C127.519 230.078 127.772 229.824 128.025 229.824C128.278 229.824 128.531 230.078 128.531 230.332C128.531 230.586 128.531 230.586 128.278 230.84C128.531 230.84 128.784 231.094 128.784 231.348C128.784 231.602 128.531 231.856 128.025 231.856C127.266 231.856 127.013 231.856 127.013 231.602Z" fill="#C0C5CD"/>
<path fill-rule="evenodd" clip-rule="evenodd" d="M128.786 230.84C128.786 231.348 129.039 231.602 129.039 231.602C129.292 231.602 129.292 231.348 129.292 230.84C129.292 230.332 129.292 230.078 129.039 230.078C128.786 230.078 128.786 230.332 128.786 230.84ZM129.798 230.84C129.798 231.348 129.545 231.856 129.039 231.856C128.786 231.856 128.533 231.602 128.533 230.84C128.533 230.332 128.786 229.824 129.292 229.824C129.545 230.078 129.798 230.332 129.798 230.84Z" fill="#C0C5CD"/>
<path fill-rule="evenodd" clip-rule="evenodd" d="M127.772 223.98V223.472V223.218C127.772 223.218 127.772 223.472 127.519 223.472L127.013 223.98H127.772ZM127.772 224.742V224.234H127.013V223.98L127.772 222.709H128.025V223.726H128.278V223.98H128.025L127.772 224.742Z" fill="#C0C5CD"/>
<path fill-rule="evenodd" clip-rule="evenodd" d="M128.786 223.726C128.786 224.234 129.039 224.488 129.039 224.488C129.292 224.488 129.292 224.234 129.292 223.726C129.292 223.218 129.292 222.964 129.039 222.964C128.786 222.964 128.786 223.218 128.786 223.726ZM129.798 223.726C129.798 224.234 129.545 224.742 129.039 224.742C128.786 224.742 128.533 224.488 128.533 223.726C128.533 223.218 128.786 222.709 129.292 222.709C129.545 222.964 129.798 223.218 129.798 223.726Z" fill="#C0C5CD"/>
<path fill-rule="evenodd" clip-rule="evenodd" d="M128.025 216.103H127.266V216.611C127.266 216.611 127.266 216.611 127.519 216.611C127.772 216.611 127.772 216.611 128.025 216.611C128.278 216.611 128.278 216.865 128.278 217.119C128.278 217.373 128.025 217.627 127.519 217.627C127.266 217.627 127.266 217.627 127.013 217.627V217.373C127.013 217.373 127.266 217.373 127.519 217.373C127.772 217.373 128.025 217.119 128.025 216.865C128.025 216.611 127.772 216.357 127.519 216.357H127.266V215.595L128.025 216.103Z" fill="#C0C5CD"/>
<path fill-rule="evenodd" clip-rule="evenodd" d="M128.786 216.865C128.786 217.373 129.039 217.627 129.039 217.627C129.292 217.627 129.292 217.373 129.292 216.865C129.292 216.357 129.292 216.103 129.039 216.103C128.786 216.103 128.786 216.357 128.786 216.865ZM129.798 216.611C129.798 217.119 129.545 217.627 129.039 217.627C128.786 217.627 128.533 217.373 128.533 216.611C128.533 216.103 128.786 215.595 129.292 215.595C129.545 215.849 129.798 216.103 129.798 216.611Z" fill="#C0C5CD"/>
<path fill-rule="evenodd" clip-rule="evenodd" d="M139.412 254.978H139.159L139.412 254.724H139.665V256.503H139.412V254.978Z" fill="#C0C5CD"/>
<path fill-rule="evenodd" clip-rule="evenodd" d="M156.109 256.503L156.362 256.249C156.868 255.74 157.121 255.486 157.121 255.232C157.121 254.978 157.121 254.978 156.868 254.978C156.615 254.978 156.615 254.978 156.615 255.232V254.978C156.615 254.978 156.868 254.724 157.121 254.724C157.374 254.724 157.627 254.978 157.627 255.232C157.627 255.486 157.374 255.74 157.121 256.249H156.868H157.627V256.503H156.109Z" fill="#C0C5CD"/>
<path fill-rule="evenodd" clip-rule="evenodd" d="M173.315 256.249C173.315 256.249 173.568 256.249 173.821 256.249C174.074 256.249 174.327 255.995 174.327 255.995C174.327 255.741 174.074 255.741 173.821 255.741H173.568V255.487H173.821C174.074 255.487 174.327 255.487 174.327 255.233C174.327 254.979 174.328 254.979 174.074 254.979C173.821 254.979 173.821 254.979 173.821 254.979V254.725C173.821 254.725 174.074 254.471 174.327 254.471C174.581 254.471 174.834 254.725 174.834 254.979C174.834 255.233 174.834 255.233 174.581 255.487C174.834 255.487 175.087 255.741 175.087 255.995C175.087 256.249 174.834 256.503 174.581 256.503C173.568 256.503 173.568 256.249 173.315 256.249Z" fill="#C0C5CD"/>
<path fill-rule="evenodd" clip-rule="evenodd" d="M191.282 255.74V255.232V254.978C191.282 254.978 191.282 255.232 191.028 255.232L190.522 255.74H191.282ZM191.282 256.503V255.995H190.522V255.74L191.282 254.724H191.535V255.74H191.788V255.995H191.535L191.282 256.503Z" fill="#C0C5CD"/>
<path fill-rule="evenodd" clip-rule="evenodd" d="M208.739 254.978H207.98V255.486C207.98 255.486 207.98 255.486 208.233 255.486C208.486 255.486 208.486 255.486 208.486 255.486C208.739 255.486 208.739 255.74 208.739 255.995C208.739 256.249 208.486 256.503 207.98 256.503C207.727 256.503 207.727 256.503 207.474 256.503V256.249H207.727C207.98 256.249 208.233 255.995 208.233 255.995C208.233 255.74 207.98 255.486 207.727 255.486H207.474V254.724L208.739 254.978Z" fill="#C0C5CD"/>
<path fill-rule="evenodd" clip-rule="evenodd" d="M131.316 253.2L148.522 246.086L165.727 238.463L182.679 231.603H200.137L217.342 224.488L217.089 223.98L200.137 231.094H182.679L165.474 237.955L148.269 245.577V245.832V245.577L131.063 252.692L131.316 253.2Z" fill="#FFC621"/>
<path fill-rule="evenodd" clip-rule="evenodd" d="M131.316 245.832L148.269 238.717L165.474 245.832L182.932 239.226L200.137 217.882L217.342 210.514L217.089 210.005L199.884 217.374L182.679 238.717L165.474 245.324L148.269 238.209L131.063 245.324L131.316 245.832Z" fill="#4B9DC8"/>
<path fill-rule="evenodd" clip-rule="evenodd" d="M200.894 217.627C200.894 218.135 200.388 218.644 199.882 218.644C199.376 218.644 198.87 218.135 198.87 217.627C198.87 217.119 199.376 216.611 199.882 216.611C200.388 216.611 200.894 217.119 200.894 217.627Z" fill="white"/>
<path fill-rule="evenodd" clip-rule="evenodd" d="M200.894 217.628H200.641C200.641 218.136 200.388 218.39 199.882 218.39C199.376 218.39 199.123 218.136 199.123 217.628C199.123 217.12 199.376 216.866 199.882 216.866C200.388 216.866 200.641 217.12 200.641 217.628H200.894H201.147C201.147 216.866 200.641 216.357 199.882 216.357C199.123 216.357 198.617 216.866 198.617 217.628C198.617 218.39 199.123 218.898 199.882 218.898C200.641 218.898 201.147 218.39 201.147 217.628H200.894Z" fill="#4B9DC8"/>
<path fill-rule="evenodd" clip-rule="evenodd" d="M183.691 238.971C183.691 239.48 183.185 239.988 182.679 239.988C182.173 239.988 181.667 239.48 181.667 238.971C181.667 238.463 182.173 237.955 182.679 237.955C183.185 237.955 183.691 238.463 183.691 238.971Z" fill="white"/>
<path fill-rule="evenodd" clip-rule="evenodd" d="M183.688 238.971H183.435C183.435 239.479 183.182 239.733 182.676 239.733C182.17 239.733 181.917 239.479 181.917 238.971C181.917 238.463 182.17 238.209 182.676 238.209C183.182 238.209 183.435 238.463 183.435 238.971H183.688H183.941C183.941 238.209 183.435 237.701 182.676 237.701C181.917 237.701 181.411 238.209 181.411 238.971C181.411 239.733 181.917 240.242 182.676 240.242C183.435 240.242 183.941 239.733 183.941 238.971H183.688Z" fill="#4B9DC8"/>
<path fill-rule="evenodd" clip-rule="evenodd" d="M166.484 245.577C166.484 246.085 165.978 246.593 165.472 246.593C164.966 246.593 164.46 246.085 164.46 245.577C164.46 245.069 164.966 244.561 165.472 244.561C165.978 244.561 166.484 245.069 166.484 245.577Z" fill="white"/>
<path fill-rule="evenodd" clip-rule="evenodd" d="M166.485 245.578H166.232C166.232 246.086 165.979 246.34 165.473 246.34C164.967 246.34 164.714 246.086 164.714 245.578C164.714 245.069 164.967 244.815 165.473 244.815C165.979 244.815 166.232 245.069 166.232 245.578H166.485H166.738C166.738 244.815 166.232 244.307 165.473 244.307C164.714 244.307 164.208 244.815 164.208 245.578C164.208 246.34 164.714 246.848 165.473 246.848C166.232 246.848 166.738 246.34 166.738 245.578H166.485Z" fill="#4B9DC8"/>
<path fill-rule="evenodd" clip-rule="evenodd" d="M149.278 238.463C149.278 238.971 148.772 239.479 148.266 239.479C147.76 239.479 147.254 238.971 147.254 238.463C147.254 237.955 147.76 237.447 148.266 237.447C148.772 237.447 149.278 237.955 149.278 238.463Z" fill="white"/>
<path fill-rule="evenodd" clip-rule="evenodd" d="M149.279 238.463H149.026C149.026 238.971 148.773 239.225 148.267 239.225C147.761 239.225 147.508 238.971 147.508 238.463C147.508 237.955 147.761 237.701 148.267 237.701C148.773 237.701 149.026 237.955 149.026 238.463H149.279H149.532C149.532 237.701 149.026 237.192 148.267 237.192C147.508 237.192 147.002 237.701 147.002 238.463C147.002 239.225 147.508 239.733 148.267 239.733C149.026 239.733 149.532 239.225 149.532 238.463H149.279Z" fill="#4B9DC8"/>
<path fill-rule="evenodd" clip-rule="evenodd" d="M183.435 231.349C183.435 231.857 182.929 232.365 182.423 232.365C181.917 232.365 181.411 231.857 181.411 231.349C181.411 230.841 181.917 230.333 182.423 230.333C182.929 230.333 183.435 230.841 183.435 231.349Z" fill="white"/>
<path fill-rule="evenodd" clip-rule="evenodd" d="M183.436 231.349H183.183C183.183 231.857 182.93 232.111 182.424 232.111C181.918 232.111 181.665 231.857 181.665 231.349C181.665 230.84 181.918 230.586 182.424 230.586C182.93 230.586 183.183 230.84 183.183 231.349H183.436H183.689C183.689 230.586 183.183 230.078 182.424 230.078C181.665 230.078 181.159 230.586 181.159 231.349C181.159 232.111 181.665 232.619 182.424 232.619C183.183 232.619 183.689 232.111 183.689 231.349H183.436Z" fill="#FFC621"/>
<path fill-rule="evenodd" clip-rule="evenodd" d="M200.894 231.349C200.894 231.857 200.388 232.365 199.882 232.365C199.376 232.365 198.87 231.857 198.87 231.349C198.87 230.841 199.376 230.333 199.882 230.333C200.388 230.333 200.894 230.841 200.894 231.349Z" fill="white"/>
<path fill-rule="evenodd" clip-rule="evenodd" d="M200.894 231.349H200.641C200.641 231.857 200.388 232.111 199.882 232.111C199.376 232.111 199.123 231.857 199.123 231.349C199.123 230.84 199.376 230.586 199.882 230.586C200.388 230.586 200.641 230.84 200.641 231.349H200.894H201.147C201.147 230.586 200.641 230.078 199.882 230.078C199.123 230.078 198.617 230.586 198.617 231.349C198.617 232.111 199.123 232.619 199.882 232.619C200.641 232.619 201.147 232.111 201.147 231.349H200.894Z" fill="#FFC621"/>
<path fill-rule="evenodd" clip-rule="evenodd" d="M9.86627 197.555H6.83008V196.03H9.86627V197.555Z" fill="#B5BCD2"/>
<path fill-rule="evenodd" clip-rule="evenodd" d="M19.9869 201.366H6.83008V199.842H19.9869V201.366Z" fill="#B5BCD2"/>
<path fill-rule="evenodd" clip-rule="evenodd" d="M9.86627 211.53H6.83008V210.005H9.86627V211.53Z" fill="#B5BCD2"/>
<path fill-rule="evenodd" clip-rule="evenodd" d="M19.9869 215.595H6.83008V213.816H19.9869V215.595Z" fill="#B5BCD2"/>
<path fill-rule="evenodd" clip-rule="evenodd" d="M9.86627 225.505H6.83008V223.98H9.86627V225.505Z" fill="#B5BCD2"/>
<path fill-rule="evenodd" clip-rule="evenodd" d="M19.9869 229.569H6.83008V228.045H19.9869V229.569Z" fill="#B5BCD2"/>
<path fill-rule="evenodd" clip-rule="evenodd" d="M9.86627 239.733H6.83008V238.208H9.86627V239.733Z" fill="#B5BCD2"/>
<path fill-rule="evenodd" clip-rule="evenodd" d="M19.9869 243.545H6.83008V242.02H19.9869V243.545Z" fill="#B5BCD2"/>
<path fill-rule="evenodd" clip-rule="evenodd" d="M9.86627 253.708H6.83008V252.184H9.86627V253.708Z" fill="#B5BCD2"/>
<path fill-rule="evenodd" clip-rule="evenodd" d="M19.9869 257.519H6.83008V255.995H19.9869V257.519Z" fill="#B5BCD2"/>
<path fill-rule="evenodd" clip-rule="evenodd" d="M9.86627 267.683H6.83008V266.158H9.86627V267.683Z" fill="#B5BCD2"/>
<path fill-rule="evenodd" clip-rule="evenodd" d="M19.9869 271.494H6.83008V269.97H19.9869V271.494Z" fill="#B5BCD2"/>
<path fill-rule="evenodd" clip-rule="evenodd" d="M526.527 173.416H728.18C731.976 173.416 735.012 176.465 735.012 180.276V317.992C735.012 321.803 731.976 324.853 728.18 324.853H526.527C522.732 324.853 519.695 321.803 519.695 317.992V180.53C519.695 176.719 522.732 173.416 526.527 173.416Z" fill="#231F20"/>
<path fill-rule="evenodd" clip-rule="evenodd" d="M526.527 173.416H703.638L552.84 325.107H526.527C522.732 325.107 519.695 322.058 519.695 318.246V180.53C519.695 176.719 522.732 173.416 526.527 173.416Z" fill="#3D4448"/>
<path fill-rule="evenodd" clip-rule="evenodd" d="M529.816 315.198H724.892V184.342H529.816V315.198Z" fill="#D6DFED"/>
<path fill-rule="evenodd" clip-rule="evenodd" d="M627.732 334H492.115C486.802 334 483.007 330.189 480.982 328.156L627.732 327.902L774.481 328.156C772.457 330.189 768.662 334 763.348 334H627.732Z" fill="#606772"/>
<path fill-rule="evenodd" clip-rule="evenodd" d="M479.466 322.058H776.001V325.361C776.001 327.139 774.483 328.664 772.711 328.664H482.502C480.731 328.664 479.213 327.139 479.213 325.361V322.058H479.466Z" fill="#D7DEE0" stroke="#BCBEC0" stroke-width="0.1009" stroke-miterlimit="22.9256"/>
<path fill-rule="evenodd" clip-rule="evenodd" d="M648.479 322.058C648.479 322.82 647.973 323.582 647.467 324.09C646.961 324.598 645.949 325.107 645.19 325.107H610.779C609.767 325.107 609.008 324.853 608.502 324.09C607.996 323.582 607.743 322.82 607.49 322.058H608.249C608.249 322.566 608.502 323.074 609.008 323.328C609.514 323.836 610.02 324.09 610.779 324.09H645.19C645.949 324.09 646.455 323.836 646.961 323.328C647.214 323.074 647.467 322.566 647.72 322.058H648.479Z" fill="#959FA8"/>
<path fill-rule="evenodd" clip-rule="evenodd" d="M529.816 315.198H562.708L693.012 184.342H529.816V315.198Z" fill="#E3E8F2"/>
<path fill-rule="evenodd" clip-rule="evenodd" d="M550.057 184.342H536.395L550.057 315.198V184.342Z" fill="#AEC2DD"/>
<path fill-rule="evenodd" clip-rule="evenodd" d="M704.648 184.342H718.311L704.648 315.198V184.342Z" fill="#AEC2DD"/>
<path fill-rule="evenodd" clip-rule="evenodd" d="M593.574 176.72H619.635V177.736H593.574V176.72Z" fill="#231F20"/>
<path fill-rule="evenodd" clip-rule="evenodd" d="M569.791 280.134H686.684V223.726H569.791V280.134Z" fill="white" stroke="#231F20" stroke-width="0.0804409" stroke-miterlimit="22.9256"/>
<path fill-rule="evenodd" clip-rule="evenodd" d="M578.141 276.322H581.43V230.333H578.141V276.322Z" fill="#231F20"/>
<path fill-rule="evenodd" clip-rule="evenodd" d="M584.215 276.322H587.757V235.16H584.215V276.322Z" fill="#231F20"/>
<path fill-rule="evenodd" clip-rule="evenodd" d="M590.539 276.322H594.081V235.16H590.539V276.322Z" fill="#231F20"/>
<path fill-rule="evenodd" clip-rule="evenodd" d="M596.865 276.322H600.154V230.333H596.865V276.322Z" fill="#231F20"/>
<path fill-rule="evenodd" clip-rule="evenodd" d="M602.938 276.322H606.48V235.16H602.938V276.322Z" fill="#231F20"/>
<path fill-rule="evenodd" clip-rule="evenodd" d="M609.264 276.322H612.806V235.16H609.264V276.322Z" fill="#231F20"/>
<path fill-rule="evenodd" clip-rule="evenodd" d="M615.59 276.322H619.132V230.333H615.59V276.322Z" fill="#231F20"/>
<path fill-rule="evenodd" clip-rule="evenodd" d="M621.914 276.322H625.203V235.16H621.914V276.322Z" fill="#231F20"/>
<path fill-rule="evenodd" clip-rule="evenodd" d="M627.984 276.322H631.527V235.16H627.984V276.322Z" fill="#231F20"/>
<path fill-rule="evenodd" clip-rule="evenodd" d="M634.311 276.322H637.853V230.333H634.311V276.322Z" fill="#231F20"/>
<path fill-rule="evenodd" clip-rule="evenodd" d="M640.635 276.322H643.924V235.16H640.635V276.322Z" fill="#231F20"/>
<path fill-rule="evenodd" clip-rule="evenodd" d="M646.709 276.322H650.251V235.16H646.709V276.322Z" fill="#231F20"/>
<path fill-rule="evenodd" clip-rule="evenodd" d="M653.033 276.322H656.575V230.333H653.033V276.322Z" fill="#231F20"/>
<path fill-rule="evenodd" clip-rule="evenodd" d="M659.359 276.322H662.648V235.16H659.359V276.322Z" fill="#231F20"/>
<path fill-rule="evenodd" clip-rule="evenodd" d="M665.432 276.322H668.974V235.16H665.432V276.322Z" fill="#231F20"/>
<path fill-rule="evenodd" clip-rule="evenodd" d="M671.758 276.322H675.3V230.333H671.758V276.322Z" fill="#231F20"/>
<path fill-rule="evenodd" clip-rule="evenodd" d="M648.986 289.28H686.686V291.821H648.986V289.28Z" fill="#231F20"/>
<path fill-rule="evenodd" clip-rule="evenodd" d="M571.564 299.698H686.687V302.239H571.564V299.698Z" fill="#231F20"/>
<path d="M573.08 207.718C574.092 207.718 575.104 208.226 575.61 208.734C576.116 209.242 576.369 209.75 576.622 210.513H606.731V212.291H576.875C576.622 213.054 576.369 213.562 575.863 214.07C575.104 214.832 574.345 215.086 573.333 215.086C572.321 215.086 571.309 214.578 570.803 214.07C570.044 213.308 569.791 212.545 569.791 211.529C569.791 210.513 570.297 209.496 570.803 208.988C571.309 208.226 572.068 207.718 573.08 207.718ZM612.804 210.513H620.9V212.291H612.804V210.513ZM574.598 210.005C574.345 209.75 573.839 209.496 573.08 209.496C572.574 209.496 572.068 209.75 571.562 210.005C571.309 210.259 571.056 210.767 571.056 211.529C571.056 212.037 571.309 212.545 571.562 213.054C571.815 213.308 572.321 213.562 573.08 213.562C573.586 213.562 574.092 213.308 574.598 213.054C574.851 212.8 575.104 212.291 575.104 211.529C575.104 211.021 574.851 210.513 574.598 210.005Z" fill="#231F20"/>
<path d="M682.892 207.718C681.88 207.718 680.868 208.226 680.362 208.734C679.856 209.242 679.603 209.75 679.35 210.513H648.988V212.291H679.35C679.603 213.054 679.856 213.562 680.362 214.07C681.121 214.832 681.88 215.086 682.892 215.086C683.904 215.086 684.916 214.578 685.422 214.07C686.181 213.308 686.434 212.545 686.434 211.529C686.434 210.513 685.928 209.496 685.422 208.988C684.916 208.226 683.904 207.718 682.892 207.718ZM643.674 210.513H619.385V212.291H643.674V210.513ZM681.627 210.005C681.88 209.75 682.386 209.496 683.145 209.496C683.651 209.496 684.157 209.75 684.663 210.005C684.916 210.259 685.169 210.767 685.169 211.529C685.169 212.037 684.916 212.545 684.663 213.054C684.41 213.308 683.904 213.562 683.145 213.562C682.639 213.562 682.133 213.308 681.627 213.054C681.374 212.8 681.121 212.291 681.121 211.529C680.868 211.021 681.121 210.513 681.627 210.005Z" fill="#231F20"/>
<path d="M600.152 210.513H605.972C606.731 209.751 607.49 209.497 608.502 209.497C609.514 209.497 610.526 210.005 611.032 210.513H618.37V212.292H611.032C610.273 213.054 609.514 213.308 608.502 213.308C607.49 213.308 606.478 212.8 605.972 212.292H600.152V210.513ZM611.285 210.005C611.032 209.751 610.526 209.497 609.767 209.497C609.261 209.497 608.755 209.751 608.249 210.005C607.996 210.259 607.743 210.768 607.743 211.53C607.743 212.038 607.996 212.546 608.249 213.054C608.502 213.308 609.008 213.562 609.767 213.562C610.273 213.562 610.779 213.308 611.285 213.054C611.538 212.8 611.791 212.292 611.791 211.53C611.791 211.022 611.538 210.513 611.285 210.005Z" fill="#231F20"/>
<path fill-rule="evenodd" clip-rule="evenodd" d="M573.081 203.653C576.623 203.653 579.407 200.858 579.407 197.301C579.407 193.744 576.623 190.949 573.081 190.949C569.539 190.949 566.756 193.744 566.756 197.301C566.756 200.604 569.792 203.653 573.081 203.653Z" fill="#627D9F"/>
<path fill-rule="evenodd" clip-rule="evenodd" d="M609.769 203.653C613.311 203.653 616.094 200.858 616.094 197.301C616.094 193.744 613.311 190.949 609.769 190.949C606.227 190.949 603.443 193.744 603.443 197.301C603.443 200.604 606.227 203.653 609.769 203.653Z" fill="#627D9F"/>
<path fill-rule="evenodd" clip-rule="evenodd" d="M646.455 203.653C649.998 203.653 652.781 200.858 652.781 197.301C652.781 193.744 649.998 190.949 646.455 190.949C642.913 190.949 640.13 193.744 640.13 197.301C639.877 200.604 642.913 203.653 646.455 203.653Z" fill="#627D9F"/>
<path fill-rule="evenodd" clip-rule="evenodd" d="M682.89 203.653C686.432 203.653 689.215 200.858 689.215 197.301C689.215 193.744 686.432 190.949 682.89 190.949C679.348 190.949 676.564 193.744 676.564 197.301C676.564 200.604 679.348 203.653 682.89 203.653Z" fill="#627D9F"/>
<path d="M636.84 210.513H642.659C643.418 209.751 644.177 209.497 645.189 209.497C646.201 209.497 647.213 210.005 647.72 210.513H655.057V212.292H647.72C646.96 213.054 646.201 213.308 645.189 213.308C644.177 213.308 643.165 212.8 642.659 212.292H636.84V210.513ZM647.72 210.005C647.466 209.751 646.96 209.497 646.201 209.497C645.695 209.497 645.189 209.751 644.683 210.005C644.43 210.259 644.177 210.768 644.177 211.53C644.177 212.038 644.43 212.546 644.683 213.054C644.936 213.308 645.442 213.562 646.201 213.562C646.707 213.562 647.213 213.308 647.72 213.054C647.973 212.8 648.226 212.292 648.226 211.53C648.226 211.022 647.973 210.513 647.72 210.005Z" fill="#231F20"/>
<path fill-rule="evenodd" clip-rule="evenodd" d="M281.354 294.362H274.522C274.522 294.362 274.522 294.87 274.775 295.125C275.788 295.633 278.065 296.395 279.33 296.395C280.848 296.395 282.619 296.395 282.619 296.395L281.354 294.362Z" fill="#EAD8BF"/>
<path fill-rule="evenodd" clip-rule="evenodd" d="M275.282 295.125H274.523C274.523 295.125 274.017 295.125 273.763 295.125C273.257 295.125 273.004 294.617 273.257 294.109C273.257 293.6 273.51 293.346 273.51 293.346C273.51 293.346 274.017 293.092 274.27 293.6C274.523 294.108 275.788 294.363 275.535 294.617C275.282 294.871 275.282 295.125 275.282 295.125Z" fill="#EAD8BF"/>
<path fill-rule="evenodd" clip-rule="evenodd" d="M273.258 293.346H272.499H271.487V293.6H272.246L273.005 294.108L273.258 293.854V293.346Z" fill="#EAD8BF"/>
<path fill-rule="evenodd" clip-rule="evenodd" d="M272.246 293.854L271.487 294.109V294.363H272.246H273.005L273.258 293.854H272.246Z" fill="#EAD8BF"/>
<path fill-rule="evenodd" clip-rule="evenodd" d="M271.487 294.616L272.246 294.362H272.499H273.005V294.87L272.499 294.616L271.74 294.87L271.487 294.616Z" fill="#EAD8BF"/>
<path fill-rule="evenodd" clip-rule="evenodd" d="M271.992 295.124L273.004 294.616L273.257 294.87V295.124H272.751L271.992 295.378V295.124Z" fill="#EAD8BF"/>
<path fill-rule="evenodd" clip-rule="evenodd" d="M275.787 294.87C275.281 294.87 275.028 294.362 275.028 294.362C275.028 294.362 274.269 293.346 274.016 293.346C273.763 293.346 273.257 293.092 273.257 293.092C273.257 293.092 273.004 293.092 273.257 293.6C273.51 293.854 273.763 294.108 273.763 294.108C273.763 294.108 274.016 294.87 274.269 295.124C274.269 294.87 275.534 294.87 275.787 294.87C275.534 294.87 275.787 294.87 275.787 294.87Z" fill="#EAD8BF"/>
<path fill-rule="evenodd" clip-rule="evenodd" d="M285.907 278.609C285.907 303.001 266.172 322.82 241.882 322.82C217.593 322.82 197.857 303.001 197.857 278.609C197.857 254.216 217.593 234.397 241.882 234.397C266.172 234.397 285.907 254.216 285.907 278.609Z" fill="#0083C7"/>
<path fill-rule="evenodd" clip-rule="evenodd" d="M283.126 278.609C283.126 301.477 264.656 320.025 241.884 320.025C219.113 320.025 200.643 301.477 200.643 278.609C200.643 255.741 219.113 237.192 241.884 237.192C264.656 237.192 283.126 255.741 283.126 278.609Z" fill="#5E6372"/>
<path fill-rule="evenodd" clip-rule="evenodd" d="M281.102 278.609C281.102 300.206 263.644 317.738 242.137 317.738C220.631 317.738 203.173 300.206 203.173 278.609C203.173 257.011 220.631 239.479 242.137 239.479C263.644 239.479 281.102 257.011 281.102 278.609Z" fill="white"/>
<path fill-rule="evenodd" clip-rule="evenodd" d="M242.643 243.544H241.378V242.274H242.643V243.544Z" fill="#B5BCD2"/>
<path fill-rule="evenodd" clip-rule="evenodd" d="M242.643 250.659H241.378V242.274H242.643V250.659Z" fill="#B5BCD2"/>
<path fill-rule="evenodd" clip-rule="evenodd" d="M228.727 253.963L227.462 254.725L223.414 247.61L224.426 246.848L228.727 253.963Z" fill="#B5BCD2"/>
<path fill-rule="evenodd" clip-rule="evenodd" d="M218.099 263.872L217.593 265.142L210.256 261.077L211.015 259.806L218.099 263.872Z" fill="#B5BCD2"/>
<path fill-rule="evenodd" clip-rule="evenodd" d="M217.593 292.076L218.099 293.092L211.015 297.412L210.256 296.141L217.593 292.076Z" fill="#B5BCD2"/>
<path fill-rule="evenodd" clip-rule="evenodd" d="M227.462 302.493L228.727 303.255L224.426 310.37L223.414 309.608L227.462 302.493Z" fill="#B5BCD2"/>
<path fill-rule="evenodd" clip-rule="evenodd" d="M241.125 306.559H242.643V314.944H241.125V306.559Z" fill="#B5BCD2"/>
<path fill-rule="evenodd" clip-rule="evenodd" d="M255.294 303.255L256.559 302.493L260.607 309.608L259.342 310.37L255.294 303.255Z" fill="#B5BCD2"/>
<path fill-rule="evenodd" clip-rule="evenodd" d="M265.667 293.092L266.426 292.076L273.51 296.141L272.751 297.157L265.667 293.092Z" fill="#B5BCD2"/>
<path fill-rule="evenodd" clip-rule="evenodd" d="M269.715 279.371V277.846H278.064V279.371H269.715Z" fill="#B5BCD2"/>
<path fill-rule="evenodd" clip-rule="evenodd" d="M266.426 265.142L265.667 264.126L273.004 259.806L273.51 261.077L266.426 265.142Z" fill="#B5BCD2"/>
<path fill-rule="evenodd" clip-rule="evenodd" d="M256.559 254.725L255.294 253.963L259.342 246.848L260.607 247.61L256.559 254.725Z" fill="#B5BCD2"/>
<path fill-rule="evenodd" clip-rule="evenodd" d="M239.101 243.798H237.583V242.528L238.848 242.274L239.101 243.798Z" fill="#B5BCD2"/>
<path fill-rule="evenodd" clip-rule="evenodd" d="M235.305 244.307L234.04 244.561L233.787 243.291L235.052 243.037L235.305 244.307Z" fill="#B5BCD2"/>
<path fill-rule="evenodd" clip-rule="evenodd" d="M231.762 245.069L230.497 245.577L230.244 244.307L231.509 243.799L231.762 245.069Z" fill="#B5BCD2"/>
<path fill-rule="evenodd" clip-rule="evenodd" d="M228.473 246.34L227.208 246.848L226.702 245.578L227.967 245.069L228.473 246.34Z" fill="#B5BCD2"/>
<path fill-rule="evenodd" clip-rule="evenodd" d="M225.185 247.864L223.92 248.627L223.414 247.356L224.426 246.848L225.185 247.864Z" fill="#B5BCD2"/>
<path fill-rule="evenodd" clip-rule="evenodd" d="M222.148 249.897L220.883 250.659L220.124 249.643L221.389 248.88L222.148 249.897Z" fill="#B5BCD2"/>
<path fill-rule="evenodd" clip-rule="evenodd" d="M219.112 252.183L218.1 252.946L217.341 251.929L218.353 251.167L219.112 252.183Z" fill="#B5BCD2"/>
<path fill-rule="evenodd" clip-rule="evenodd" d="M216.583 254.724L215.571 255.741L214.559 254.724L215.571 253.708L216.583 254.724Z" fill="#B5BCD2"/>
<path fill-rule="evenodd" clip-rule="evenodd" d="M215.571 301.477L216.583 302.493L215.571 303.256L214.559 302.239L215.571 301.477Z" fill="#B5BCD2"/>
<path fill-rule="evenodd" clip-rule="evenodd" d="M218.1 304.018L219.112 305.034L218.353 306.051L217.341 305.034L218.1 304.018Z" fill="#B5BCD2"/>
<path fill-rule="evenodd" clip-rule="evenodd" d="M220.883 306.305L222.148 307.321L221.389 308.337L220.124 307.575L220.883 306.305Z" fill="#B5BCD2"/>
<path fill-rule="evenodd" clip-rule="evenodd" d="M223.92 308.337L225.185 309.099L224.426 310.37L223.414 309.607L223.92 308.337Z" fill="#B5BCD2"/>
<path fill-rule="evenodd" clip-rule="evenodd" d="M227.208 310.116L228.473 310.624L227.967 311.894L226.702 311.386L227.208 310.116Z" fill="#B5BCD2"/>
<path fill-rule="evenodd" clip-rule="evenodd" d="M230.497 311.641L231.762 311.895L231.509 313.165L230.244 312.911L230.497 311.641Z" fill="#B5BCD2"/>
<path fill-rule="evenodd" clip-rule="evenodd" d="M234.04 312.657L235.305 312.911L235.052 314.181L233.787 313.927L234.04 312.657Z" fill="#B5BCD2"/>
<path fill-rule="evenodd" clip-rule="evenodd" d="M237.583 313.165L239.101 313.419L238.848 314.689H237.583V313.165Z" fill="#B5BCD2"/>
<path fill-rule="evenodd" clip-rule="evenodd" d="M241.378 313.419H242.643V314.943H241.378V313.419Z" fill="#B5BCD2"/>
<path fill-rule="evenodd" clip-rule="evenodd" d="M244.921 313.419L246.186 313.165L246.439 314.689H245.174L244.921 313.419Z" fill="#B5BCD2"/>
<path fill-rule="evenodd" clip-rule="evenodd" d="M248.461 312.911L249.726 312.657L250.232 313.927L248.714 314.181L248.461 312.911Z" fill="#B5BCD2"/>
<path fill-rule="evenodd" clip-rule="evenodd" d="M252.003 311.895L253.268 311.641L253.774 312.911L252.509 313.419L252.003 311.895Z" fill="#B5BCD2"/>
<path fill-rule="evenodd" clip-rule="evenodd" d="M255.546 310.624L256.811 310.116L257.317 311.386L256.052 311.894L255.546 310.624Z" fill="#B5BCD2"/>
<path fill-rule="evenodd" clip-rule="evenodd" d="M258.836 309.099L259.848 308.591L260.607 309.608L259.342 310.37L258.836 309.099Z" fill="#B5BCD2"/>
<path fill-rule="evenodd" clip-rule="evenodd" d="M261.871 307.321L262.883 306.305L263.642 307.575L262.63 308.337L261.871 307.321Z" fill="#B5BCD2"/>
<path fill-rule="evenodd" clip-rule="evenodd" d="M264.654 305.034L265.666 304.018L266.678 305.034L265.666 306.051L264.654 305.034Z" fill="#B5BCD2"/>
<path fill-rule="evenodd" clip-rule="evenodd" d="M271.739 296.649L272.498 295.378L273.51 296.141L273.004 297.411L271.739 296.649Z" fill="#B5BCD2"/>
<path fill-rule="evenodd" clip-rule="evenodd" d="M273.51 293.346L274.016 292.076L275.281 292.838L274.775 293.854L273.51 293.346Z" fill="#B5BCD2"/>
<path fill-rule="evenodd" clip-rule="evenodd" d="M274.774 290.043L275.28 288.772L276.546 289.027L276.04 290.551L274.774 290.043Z" fill="#B5BCD2"/>
<path fill-rule="evenodd" clip-rule="evenodd" d="M275.787 286.485L276.04 285.215L277.558 285.469L277.052 286.739L275.787 286.485Z" fill="#B5BCD2"/>
<path fill-rule="evenodd" clip-rule="evenodd" d="M276.548 282.928V281.658H278.066L277.813 282.928H276.548Z" fill="#B5BCD2"/>
<path fill-rule="evenodd" clip-rule="evenodd" d="M276.8 279.371V277.846H278.065V279.371H276.8Z" fill="#B5BCD2"/>
<path fill-rule="evenodd" clip-rule="evenodd" d="M276.548 275.56V274.289L277.813 274.035L278.066 275.56H276.548Z" fill="#B5BCD2"/>
<path fill-rule="evenodd" clip-rule="evenodd" d="M276.04 272.003L275.787 270.732L277.052 270.478L277.558 271.748L276.04 272.003Z" fill="#B5BCD2"/>
<path fill-rule="evenodd" clip-rule="evenodd" d="M275.28 268.445L274.774 267.175L276.04 266.667L276.546 267.937L275.28 268.445Z" fill="#B5BCD2"/>
<path fill-rule="evenodd" clip-rule="evenodd" d="M274.016 264.888L273.51 263.872L274.775 263.109L275.281 264.38L274.016 264.888Z" fill="#B5BCD2"/>
<path fill-rule="evenodd" clip-rule="evenodd" d="M272.498 261.585L271.739 260.568L273.004 259.806L273.51 261.077L272.498 261.585Z" fill="#B5BCD2"/>
<path fill-rule="evenodd" clip-rule="evenodd" d="M270.474 258.536L269.715 257.52L270.727 256.757L271.739 257.774L270.474 258.536Z" fill="#B5BCD2"/>
<path fill-rule="evenodd" clip-rule="evenodd" d="M268.196 255.741L267.437 254.724L268.449 253.708L269.208 254.724L268.196 255.741Z" fill="#B5BCD2"/>
<path fill-rule="evenodd" clip-rule="evenodd" d="M265.666 253.2L264.654 252.183L265.666 251.167L266.678 252.183L265.666 253.2Z" fill="#B5BCD2"/>
<path fill-rule="evenodd" clip-rule="evenodd" d="M262.883 250.659L261.871 249.897L262.63 248.88L263.895 249.643L262.883 250.659Z" fill="#B5BCD2"/>
<path fill-rule="evenodd" clip-rule="evenodd" d="M259.848 248.627L258.836 247.864L259.342 246.848L260.607 247.356L259.848 248.627Z" fill="#B5BCD2"/>
<path fill-rule="evenodd" clip-rule="evenodd" d="M256.811 246.848L255.546 246.34L256.052 245.069L257.317 245.578L256.811 246.848Z" fill="#B5BCD2"/>
<path fill-rule="evenodd" clip-rule="evenodd" d="M253.268 245.577L252.003 245.069L252.509 243.799L253.774 244.307L253.268 245.577Z" fill="#B5BCD2"/>
<path fill-rule="evenodd" clip-rule="evenodd" d="M249.979 244.561L248.461 244.307L248.967 243.037L250.232 243.291L249.979 244.561Z" fill="#B5BCD2"/>
<path fill-rule="evenodd" clip-rule="evenodd" d="M246.186 243.798H244.921L245.174 242.274L246.439 242.528L246.186 243.798Z" fill="#B5BCD2"/>
<path fill-rule="evenodd" clip-rule="evenodd" d="M238.341 275.814L237.582 276.83L225.185 269.716L225.944 268.699L238.341 275.814Z" fill="#6D7077"/>
<path fill-rule="evenodd" clip-rule="evenodd" d="M240.871 278.101L238.088 276.322V276.068L241.124 277.847L240.871 278.101Z" fill="#6D7077"/>
<path fill-rule="evenodd" clip-rule="evenodd" d="M248.715 274.289L247.956 273.273L267.944 259.044L268.703 260.06L248.715 274.289Z" fill="#6D7077"/>
<path fill-rule="evenodd" clip-rule="evenodd" d="M242.896 277.847L242.643 277.592L248.462 273.273L248.715 273.527L242.896 277.847Z" fill="#6D7077"/>
<path fill-rule="evenodd" clip-rule="evenodd" d="M241.882 277.339C241.376 277.339 240.87 277.847 240.87 278.355C240.87 278.863 241.376 279.371 241.882 279.371C242.388 279.371 242.894 278.863 242.894 278.355C242.894 277.847 242.388 277.339 241.882 277.339ZM241.882 279.625C241.123 279.625 240.617 279.117 240.617 278.355C240.617 277.593 241.123 277.084 241.882 277.084C242.641 277.084 243.147 277.593 243.147 278.355C243.147 278.863 242.641 279.625 241.882 279.625Z" fill="#6D7077"/>
<path fill-rule="evenodd" clip-rule="evenodd" d="M241.884 277.846C241.631 277.846 241.378 278.1 241.378 278.355C241.378 278.609 241.631 278.863 241.884 278.863C242.137 278.863 242.39 278.609 242.39 278.355C242.39 277.846 242.137 277.846 241.884 277.846ZM241.884 279.117C241.378 279.117 241.125 278.609 241.125 278.355C241.125 277.846 241.631 277.592 241.884 277.592C242.39 277.592 242.643 278.1 242.643 278.355C242.896 278.609 242.39 279.117 241.884 279.117Z" fill="#F89B6F"/>
<path fill-rule="evenodd" clip-rule="evenodd" d="M242.136 308.845H241.883V279.117H242.136V308.845Z" fill="#F89B6F"/>
<path fill-rule="evenodd" clip-rule="evenodd" d="M242.136 277.593H241.883V273.527H242.136V277.593Z" fill="#F89B6F"/>
<path fill-rule="evenodd" clip-rule="evenodd" d="M214.053 277.846V279.117H205.703V277.846H214.053Z" fill="#B5BCD2"/>
<path fill-rule="evenodd" clip-rule="evenodd" d="M214.305 257.52L213.546 258.536L212.281 257.774L213.04 256.757L214.305 257.52Z" fill="#B5BCD2"/>
<path fill-rule="evenodd" clip-rule="evenodd" d="M212.28 260.568L211.521 261.585L210.256 261.077L211.015 259.806L212.28 260.568Z" fill="#B5BCD2"/>
<path fill-rule="evenodd" clip-rule="evenodd" d="M210.509 263.618L210.003 264.888L208.738 264.38L209.244 263.109L210.509 263.618Z" fill="#B5BCD2"/>
<path fill-rule="evenodd" clip-rule="evenodd" d="M208.992 267.175L208.739 268.445L207.474 267.937L207.727 266.667L208.992 267.175Z" fill="#B5BCD2"/>
<path fill-rule="evenodd" clip-rule="evenodd" d="M207.979 270.732L207.726 272.002L206.461 271.748L206.714 270.224L207.979 270.732Z" fill="#B5BCD2"/>
<path fill-rule="evenodd" clip-rule="evenodd" d="M207.474 274.289L207.221 275.56L205.956 275.306L206.209 274.035L207.474 274.289Z" fill="#B5BCD2"/>
<path fill-rule="evenodd" clip-rule="evenodd" d="M207.221 277.846V279.117H205.703V277.846H207.221Z" fill="#B5BCD2"/>
<path fill-rule="evenodd" clip-rule="evenodd" d="M207.221 281.403L207.474 282.928H206.209L205.956 281.657L207.221 281.403Z" fill="#B5BCD2"/>
<path fill-rule="evenodd" clip-rule="evenodd" d="M207.726 285.215L207.979 286.485L206.714 286.739L206.461 285.469L207.726 285.215Z" fill="#B5BCD2"/>
<path fill-rule="evenodd" clip-rule="evenodd" d="M208.739 288.772L208.992 290.043L207.727 290.297L207.474 289.027L208.739 288.772Z" fill="#B5BCD2"/>
<path fill-rule="evenodd" clip-rule="evenodd" d="M210.003 292.076L210.509 293.346L209.244 293.854L208.738 292.584L210.003 292.076Z" fill="#B5BCD2"/>
<path fill-rule="evenodd" clip-rule="evenodd" d="M211.521 295.378L212.28 296.649L211.015 297.157L210.256 296.141L211.521 295.378Z" fill="#B5BCD2"/>
<path fill-rule="evenodd" clip-rule="evenodd" d="M213.546 298.428L214.305 299.698L213.04 300.46L212.281 299.444L213.546 298.428Z" fill="#B5BCD2"/>
<path d="M369.15 300.207V278.355H365.607V300.207H369.15Z" fill="#2979A6"/>
<path d="M380.789 299.952V286.485H376.994V299.952H380.789Z" fill="#0083C7"/>
<path d="M392.174 300.206V292.837H388.379V300.206H392.174Z" fill="#0083C7"/>
<path d="M369.15 308.084V304.018H365.607V308.084H369.15Z" fill="#0083C7"/>
<path d="M380.789 308.084V304.018H376.994V308.084H380.789Z" fill="#0083C7"/>
<path d="M392.174 308.084V304.018H388.379V308.084H392.174Z" fill="#0083C7"/>
<path d="M334.741 300.206V272.51H331.199V300.206H334.741Z" fill="#2979A6"/>
<path d="M346.379 300.206V293.092H342.584V300.206H346.379Z" fill="#0083C7"/>
<path d="M357.766 300.206V286.739H353.971V300.206H357.766Z" fill="#0083C7"/>
<path d="M334.741 308.084V304.018H331.199V308.084H334.741Z" fill="#0083C7"/>
<path d="M346.379 308.084V304.018H342.584V308.084H346.379Z" fill="#0083C7"/>
<path d="M357.766 308.084V304.018H353.971V308.084H357.766Z" fill="#0083C7"/>
<path d="M300.331 300.207V278.355H296.789V300.207H300.331Z" fill="#2979A6"/>
<path d="M311.969 299.953V284.961H308.174V299.953H311.969Z" fill="#0083C7"/>
<path d="M323.356 300.206V277.846H319.561V300.206H323.356Z" fill="#0083C7"/>
<path d="M300.331 308.084V304.018H296.789V308.084H300.331Z" fill="#0083C7"/>
<path d="M311.969 308.084V304.018H308.174V308.084H311.969Z" fill="#0083C7"/>
<path d="M323.356 308.084V304.018H319.561V308.084H323.356Z" fill="#0083C7"/>
<path d="M316.524 200.35H265.414H264.149V199.079V146.991V145.721H265.414H316.524H317.789V146.991V198.825V200.096H316.524V200.35ZM266.68 197.555H315.006V148.516H266.68V197.555Z" fill="#5A97C4"/>
<path d="M264.906 158.679H316.015V161.22H264.906V158.679Z" fill="#5A97C4"/>
<path d="M271.232 151.818H297.04V154.613H271.232V151.818Z" fill="#4377A3"/>
<path d="M271.232 164.777H297.04V167.318H271.232V164.777Z" fill="#5A97C4"/>
<path d="M271.232 171.129H287.425V173.924H271.232V171.129Z" fill="#5A97C4"/>
<path d="M271.232 177.481H297.04V180.276H271.232V177.481Z" fill="#5A97C4"/>
<path d="M271.232 184.088H290.209V186.629H271.232V184.088Z" fill="#5A97C4"/>
<path d="M271.232 190.44H293.245V193.235H271.232V190.44Z" fill="#5A97C4"/>
<path d="M306.402 164.777H311.969V167.318H306.402V164.777Z" fill="#5A97C4"/>
<path d="M306.402 171.129H311.969V173.924H306.402V171.129Z" fill="#5A97C4"/>
<path d="M306.402 177.481H311.969V180.276H306.402V177.481Z" fill="#5A97C4"/>
<path d="M306.402 184.088H311.969V186.629H306.402V184.088Z" fill="#5A97C4"/>
<path d="M306.402 190.44H311.969V193.235H306.402V190.44Z" fill="#5A97C4"/>
</g>
<defs>
<clipPath id="clip0">
<rect width="365" height="290" fill="white" transform="translate(735)"/>
</clipPath>
<clipPath id="clip1">
<rect width="776" height="202" fill="white" transform="translate(0 132)"/>
</clipPath>
</defs>
</svg>
