<svg width="117" height="45" viewBox="0 0 117 45" fill="none" xmlns="http://www.w3.org/2000/svg">
<path fill-rule="evenodd" clip-rule="evenodd" d="M31.6175 41.57C31.0822 41.57 30.6484 41.1337 30.6484 40.5958C30.6484 35.8562 31.5294 31.602 33.2673 27.9509C34.6666 25.0117 36.6178 22.4602 39.0669 20.3675C41.2432 18.5082 43.4184 17.3635 44.8598 16.7309C46.4389 16.0378 47.5098 15.7863 47.5546 15.776C48.0763 15.6554 48.5964 15.9828 48.7165 16.5072C48.8365 17.0311 48.5114 17.5534 47.9909 17.6747C47.981 17.6769 47.0005 17.9108 45.5592 18.5503C44.2373 19.1369 42.2439 20.196 40.255 21.9102C35.1669 26.2948 32.5869 32.5814 32.5869 40.5958C32.5869 41.1337 32.1529 41.57 31.6175 41.57Z" fill="#76B1E1"/>
<path fill-rule="evenodd" clip-rule="evenodd" d="M82.9889 41.57C83.5244 41.57 83.9582 41.1337 83.9582 40.5958C83.9582 35.8562 83.0772 31.602 81.3392 27.9509C79.9401 25.0117 77.9889 22.4602 75.5398 20.3675C73.3632 18.5082 71.1881 17.3635 69.7466 16.7309C68.1677 16.0378 67.0966 15.7863 67.0518 15.776C66.5301 15.6554 66.0101 15.9828 65.8901 16.5072C65.7702 17.0311 66.0952 17.5534 66.6158 17.6747C66.6256 17.6769 67.6062 17.9108 69.0472 18.5503C70.3692 19.1369 72.3625 20.196 74.3516 21.9102C79.4397 26.2948 82.0198 32.5814 82.0198 40.5958C82.0198 41.1337 82.4535 41.57 82.9889 41.57Z" fill="#76B1E1"/>
<path fill-rule="evenodd" clip-rule="evenodd" d="M57.7875 0C49.74 0 43.1867 4.33307 42.9336 9.74281H72.6418C72.3884 4.33307 65.8351 0 57.7875 0Z" fill="#ECF1F7"/>
<path fill-rule="evenodd" clip-rule="evenodd" d="M35.964 13.1561C37.7554 12.7872 51.8157 12.065 51.8157 12.065C52.1174 11.9893 63.0522 12.2166 63.6555 12.1409C64.2587 12.065 75.0427 12.5199 75.0427 12.5199C75.0427 12.5199 79.5677 12.9747 80.2463 13.0504C80.9251 13.1263 94.9383 14.7893 96.8236 14.8651C97.9664 14.911 99.7186 14.6228 100.922 14.3887C100.92 15.9866 99.0326 16.2317 98.3085 16.2885C97.543 16.3485 94.1624 16.4684 92.7008 16.0485C91.9881 15.8439 82.8572 15.1808 82.1242 15.3405C80.3205 15.044 77.0027 14.5949 75.344 14.9798C73.3685 15.4379 72.8767 15.5877 73.1578 16.2511C72.3909 16.4215 69.7436 17.0092 69.3193 17.0946C68.822 17.1944 67.9971 17.5342 67.8776 17.5342H64.9344C64.9344 17.5342 64.3775 18.3837 64.2583 18.7736C64.139 19.1632 63.9202 19.6932 63.1744 20.1029V20.8602L63.1479 20.8618V19.5429H53.2975V20.099C52.5572 19.6896 52.3391 19.1621 52.2201 18.7736C52.1008 18.3837 51.544 17.5342 51.544 17.5342H48.6008C48.4815 17.5342 47.6563 17.1944 47.1591 17.0946C46.6619 16.9943 43.1123 16.2047 43.1123 16.2047C43.1123 16.2047 37.5043 15.935 36.4105 15.8151C35.3168 15.6952 33.5965 14.8757 32.1348 15.2952C30.6732 15.715 27.2927 15.5952 26.5271 15.5352C25.7786 15.4766 23.7877 15.2166 23.9204 13.4695C25.6645 14.5275 34.334 13.4916 35.964 13.1561Z" fill="#D1E4F5"/>
<path fill-rule="evenodd" clip-rule="evenodd" d="M25.6832 11.5971C25.6832 11.5971 31.5199 11.087 32.1262 11.0471C32.7326 11.0072 35.7256 10.7771 35.7256 10.7771C36.3123 10.5673 47.1007 9.34801 47.1007 9.34801C48.1745 7.7988 51.2572 6.86949 51.2572 6.86949C52.7883 3.94075 53.8623 3.73096 53.8623 3.73096C53.3054 4.14063 52.4901 5.51993 52.4204 6.10965C52.3507 6.69959 52.4105 6.87918 53.9417 7.23905C55.473 7.59892 56.6064 9.73785 56.6064 9.73785C56.6064 9.73785 57.0317 10.7429 58.2407 10.8564C59.4496 10.7429 59.8749 9.73785 59.8749 9.73785C59.8749 9.73785 61.0083 7.59892 62.5397 7.23905C64.0708 6.87918 64.1304 6.69959 64.0609 6.10965C63.9912 5.51993 63.1759 4.14063 62.619 3.73096C62.619 3.73096 63.6928 3.94075 65.2242 6.86949C65.2242 6.86949 68.3066 7.7988 69.3804 9.34801C69.3804 9.34801 80.1688 10.5673 80.7557 10.7771C80.7557 10.7771 92.1057 11.7605 92.7121 11.8004C93.3187 11.8403 99.1554 12.3504 99.1554 12.3504C99.1554 12.3504 100.667 12.2405 100.905 14.0995C100.918 14.2009 100.923 14.2965 100.923 14.3886C99.7201 14.6228 97.9679 14.911 96.8251 14.865C94.9397 14.7893 80.9093 13.1655 80.2307 13.0898C79.5517 13.0141 75.0166 12.6481 75.0166 12.6481C75.0166 12.6481 64.26 12.0649 63.657 12.1409C63.0537 12.2166 52.1187 11.9892 51.8171 12.0649C51.8171 12.0649 37.7566 12.7872 35.9655 13.156C34.3355 13.4916 25.666 14.5275 23.9219 13.4695C23.925 13.4287 23.9279 13.3884 23.9333 13.3464C24.1718 11.4872 25.6832 11.5971 25.6832 11.5971Z" fill="#ECF1F7"/>
<path fill-rule="evenodd" clip-rule="evenodd" d="M63.9785 31.7985C64.1036 30.7191 57.6604 30.8194 57.6604 30.8194C57.6604 30.8194 52.8908 31.0956 52.2165 31.1959C51.5422 31.2964 51.3924 31.7232 51.3924 31.7232C51.3924 33.0534 50.8681 32.6518 50.8681 32.6518L50.793 39.7811H64.4529V32.6771C63.8788 32.6268 63.9785 31.7985 63.9785 31.7985Z" fill="#262069"/>
<path fill-rule="evenodd" clip-rule="evenodd" d="M64.6518 39.5122C64.6518 39.9935 64.264 40.3833 63.7852 40.3833H51.6088C51.1302 40.3833 50.7422 39.9935 50.7422 39.5122V32.795C50.7422 32.3141 51.1302 31.9238 51.6088 31.9238H63.7852C64.264 31.9238 64.6518 32.3141 64.6518 32.795V39.5122Z" fill="#9F9E9E"/>
<path fill-rule="evenodd" clip-rule="evenodd" d="M64.4522 39.7809H50.7923L50.7174 32.702C50.7174 32.702 51.3917 33.0533 51.3917 31.7229C51.3917 31.7229 51.5415 31.2964 52.2158 31.1956C52.8899 31.0954 57.6597 30.8191 57.6597 30.8191C57.6597 30.8191 64.1027 30.7188 63.9778 31.7982C63.9778 31.7982 63.8778 32.6265 64.4522 32.677V39.7809ZM65.1543 30.7188C65.1043 29.9157 59.5356 29.9407 59.5356 29.9407C59.0112 29.6394 58.8113 28.8111 58.8113 28.8111L58.7086 28.7989V28.5601L57.6987 28.6795L56.6885 28.5601V28.7989L56.5859 28.8111C56.5859 28.8111 56.3861 29.6394 55.8618 29.9407C55.8618 29.9407 50.2928 29.9157 50.2428 30.7188C50.1931 31.5222 50.2428 40.7095 50.2428 40.7095C50.2428 40.7095 50.0431 42.1904 51.4166 42.1904H56.6885H58.7086H63.9805C65.354 42.1904 65.1543 40.7095 65.1543 40.7095C65.1543 40.7095 65.2041 31.5222 65.1543 30.7188Z" fill="#EBECED"/>
<mask id="mask0" mask-type="alpha" maskUnits="userSpaceOnUse" x="80" y="38" width="6" height="7">
<path fill-rule="evenodd" clip-rule="evenodd" d="M80.4023 44.0551H85.6812V38.9761H80.4023L80.4023 44.0551H80.4023Z" fill="white"/>
</mask>
<g mask="url(#mask0)">
<path fill-rule="evenodd" clip-rule="evenodd" d="M80.4023 41.5157C80.4023 42.9182 81.584 44.0552 83.0416 44.0552C84.4994 44.0552 85.6812 42.9182 85.6812 41.5157C85.6812 40.1131 84.4994 38.9761 83.0416 38.9761C81.584 38.9761 80.4023 40.1131 80.4023 41.5157Z" fill="#9F9E9E"/>
</g>
<path fill-rule="evenodd" clip-rule="evenodd" d="M34.5562 41.1075C34.5562 42.51 33.3746 43.647 31.9168 43.647C30.459 43.647 29.2773 42.51 29.2773 41.1075C29.2773 39.7047 30.459 38.5679 31.9168 38.5679C33.3746 38.5679 34.5562 39.7047 34.5562 41.1075Z" fill="#9F9E9E"/>
<path fill-rule="evenodd" clip-rule="evenodd" d="M80.2253 13.1561C78.4342 12.7872 64.3736 12.065 64.3736 12.065C64.0721 11.9893 53.1373 12.2166 52.5338 12.1409C51.9306 12.065 41.1466 12.5199 41.1466 12.5199C41.1466 12.5199 36.6219 12.9747 35.9431 13.0504C35.2642 13.1263 21.251 14.7893 19.3657 14.8651C18.2229 14.911 16.4707 14.6228 15.2676 14.3887C15.2694 15.9866 17.1567 16.2317 17.8808 16.2885C18.6463 16.3485 22.0269 16.4684 23.4885 16.0485C24.2012 15.8439 33.3323 15.1808 34.0651 15.3405C35.8688 15.044 39.1866 14.5949 40.8453 14.9798C42.8208 15.4379 43.3126 15.5877 43.0315 16.2511C43.7984 16.4215 46.4457 17.0092 46.87 17.0946C47.3673 17.1944 48.1924 17.5342 48.3117 17.5342H51.2549C51.2549 17.5342 51.8118 18.3837 51.931 18.7736C52.0505 19.1632 52.2691 19.6932 53.0149 20.1029V20.8602L53.0416 20.8618V19.5429H62.8921V20.099C63.6321 19.6896 63.8502 19.1621 63.9692 18.7736C64.0887 18.3837 64.6453 17.5342 64.6453 17.5342H67.5885C67.7078 17.5342 68.5332 17.1944 69.0304 17.0946C69.5274 16.9943 73.077 16.2047 73.077 16.2047C73.077 16.2047 78.6852 15.935 79.779 15.8151C80.8727 15.6952 82.5928 14.8757 84.0545 15.2952C85.5161 15.715 88.8969 15.5952 89.6624 15.5352C90.4107 15.4766 93.3559 16.4659 93.2232 14.7188C91.4791 15.777 81.8553 13.4916 80.2253 13.1561Z" fill="#D1E4F5"/>
<path fill-rule="evenodd" clip-rule="evenodd" d="M90.5076 11.5971C90.5076 11.5971 84.6709 11.087 84.0645 11.0471C83.4582 11.0072 80.465 10.7771 80.465 10.7771C79.8785 10.5673 69.0901 9.34801 69.0901 9.34801C68.0163 7.7988 64.9336 6.86949 64.9336 6.86949C63.4025 3.94075 62.3287 3.73096 62.3287 3.73096C62.8853 4.14063 63.7007 5.51993 63.7702 6.10965C63.8399 6.69959 63.7803 6.87918 62.2489 7.23905C60.7178 7.59892 59.5844 9.73785 59.5844 9.73785C59.5844 9.73785 59.1589 8.14447 57.9501 8.25827C56.7411 8.14447 56.3161 9.73785 56.3161 9.73785C56.3161 9.73785 55.1825 7.59892 53.6511 7.23905C52.12 6.87918 52.0604 6.69959 52.1299 6.10965C52.1996 5.51993 53.0149 4.14063 53.5718 3.73096C53.5718 3.73096 52.4977 3.94075 50.9666 6.86949C50.9666 6.86949 47.8842 7.7988 46.8102 9.34801C46.8102 9.34801 36.0217 10.5673 35.4351 10.7771C35.4351 10.7771 24.0851 11.7605 23.4785 11.8004C22.8721 11.8403 17.0354 12.3504 17.0354 12.3504C17.0354 12.3504 15.524 12.2405 15.2855 14.0995C15.2725 14.2009 15.2676 14.2965 15.2676 14.3886C16.4707 14.6228 18.2229 14.911 19.3655 14.865C21.251 14.7893 35.2815 13.1655 35.9601 13.0898C36.6389 13.0141 41.1742 12.6481 41.1742 12.6481C41.1742 12.6481 51.9306 12.0649 52.5338 12.1409C53.1371 12.2166 64.0721 11.9892 64.3736 12.0649C64.3736 12.0649 78.4342 12.7872 80.2253 13.156C81.8553 13.4916 90.5248 14.5275 92.2689 13.4695C92.2658 13.4287 92.2629 13.3884 92.2575 13.3464C92.0187 11.4872 90.5076 11.5971 90.5076 11.5971Z" fill="#ECF1F7"/>
<path fill-rule="evenodd" clip-rule="evenodd" d="M53.0403 19.543V20.8621L53.0137 20.8605V24.7206C53.0137 24.7206 53.3318 25.1702 53.7097 25.3899C53.7097 25.3899 53.6799 26.6292 54.1173 26.6292V28.1584C54.1173 28.1584 54.157 28.5084 54.9725 28.6183C54.9725 28.6183 55.635 29.0036 56.1925 29.0776V29.0879H56.3048H59.5932H59.7055V29.0776C60.2631 29.0036 60.9255 28.6183 60.9255 28.6183C61.7408 28.5084 61.7805 28.1584 61.7805 28.1584V26.6292C62.2181 26.6292 62.1883 25.3899 62.1883 25.3899C62.5662 25.1702 62.8843 24.7206 62.8843 24.7206V20.1029C62.8864 20.1016 62.8884 20.1005 62.8908 20.0991V19.543H53.0403Z" fill="#EBECED"/>
<path fill-rule="evenodd" clip-rule="evenodd" d="M40.8446 14.9799C39.1857 14.595 35.8679 15.0441 34.0645 15.3409C34.8349 15.5088 35.5602 15.7539 36.1206 15.8152C37.2143 15.9351 42.8223 16.2051 42.8223 16.2051C42.8223 16.2051 42.899 16.2222 43.0306 16.2515C43.3117 15.5879 42.8201 15.438 40.8446 14.9799Z" fill="#9F9E9E"/>
<path fill-rule="evenodd" clip-rule="evenodd" d="M17.768 6.45666C17.768 6.45666 17.542 6.34444 17.5449 6.17206C17.5479 5.9999 18.048 3.19238 19.3601 3.19238C20.6722 3.19238 21.1775 6.15673 21.1775 6.15673C21.1775 6.15673 21.193 6.45936 20.9345 6.45936C20.6762 6.45936 17.768 6.45666 17.768 6.45666Z" fill="#262069"/>
<path fill-rule="evenodd" clip-rule="evenodd" d="M98.3903 6.97304C98.3903 6.97304 98.6161 6.86104 98.6132 6.68866C98.6103 6.51627 98.1104 3.70898 96.7983 3.70898C95.4862 3.70898 94.9806 6.67333 94.9806 6.67333C94.9806 6.67333 94.9654 6.97574 95.2236 6.97574C95.4821 6.97574 98.3903 6.97304 98.3903 6.97304Z" fill="#262069"/>
<path fill-rule="evenodd" clip-rule="evenodd" d="M100.175 13.6206V11.2264L93.3262 11.1626V13.578C93.3262 13.578 93.3793 13.9291 96.6395 13.9291C99.8997 13.9291 100.175 13.6206 100.175 13.6206Z" fill="#9F9E9E"/>
<path fill-rule="evenodd" clip-rule="evenodd" d="M98.4284 8.896L98.6084 8.94918L100.164 9.99183V11.2794C100.164 11.2794 100.249 11.5027 96.7877 11.5027C93.3262 11.5027 93.3262 11.2156 93.3262 11.2156V9.87487L95.1259 8.896H98.4284Z" fill="#262069"/>
<mask id="mask1" mask-type="alpha" maskUnits="userSpaceOnUse" x="76" y="5" width="41" height="5">
<path fill-rule="evenodd" clip-rule="evenodd" d="M116.157 9.4022V5.80664L76.2871 5.80664V9.4022H116.157Z" fill="white"/>
</mask>
<g mask="url(#mask1)">
<path fill-rule="evenodd" clip-rule="evenodd" d="M77.0756 7.71145C77.6425 7.75359 83.4865 7.3428 84.4034 7.27565C85.3203 7.20895 89.7722 6.7648 90.214 6.77314C90.6559 6.78148 93.582 6.99938 93.8571 7.05797C94.0555 7.10033 94.5529 7.15148 94.8152 7.1765C94.8419 7.04895 94.9257 6.97054 95.1493 6.97054H98.517C98.5926 6.97054 98.6502 7.04377 98.691 7.16388C98.9813 7.12625 99.4256 7.06135 99.7928 6.97437C100.393 6.83173 102.294 6.43783 103.694 6.43783C105.095 6.43783 108.104 6.41259 108.946 6.32899C109.788 6.24517 116.191 5.67528 116.157 5.8346C116.124 5.99369 115.49 6.13633 113.315 6.53856C111.139 6.94057 103.761 8.22298 102.477 8.28134C101.391 8.33114 99.3514 8.47063 98.7482 8.51254C98.7083 8.84244 98.5818 9.12772 98.2173 9.12772H95.4494C95.251 9.12772 95.1111 9.04254 95.0145 8.91252C93.1846 8.88841 89.0972 9.27509 87.321 9.3792C85.4622 9.48826 81.6772 9.17819 80.6186 9.10271C79.5599 9.02722 77.0921 8.75072 76.5254 8.3904C75.9585 8.02986 76.5088 7.66954 77.0756 7.71145Z" fill="#76B1E1"/>
</g>
<path fill-rule="evenodd" clip-rule="evenodd" d="M15.9824 13.1035V10.7093L22.8312 10.6455V13.0612C22.8312 13.0612 22.7783 13.412 19.5179 13.412C16.2577 13.412 15.9824 13.1035 15.9824 13.1035Z" fill="#9F9E9E"/>
<path fill-rule="evenodd" clip-rule="evenodd" d="M17.7284 8.37939L17.5484 8.43257L15.9924 9.47545V10.763C15.9924 10.763 15.9076 10.9864 19.3691 10.9864C22.8306 10.9864 22.8306 10.699 22.8306 10.699V9.3585L21.0309 8.37939H17.7284Z" fill="#262069"/>
<path fill-rule="evenodd" clip-rule="evenodd" d="M74.964 14.9799C76.6227 14.595 79.9405 15.0441 81.7442 15.3409C80.9739 15.5088 80.2485 15.7539 79.6878 15.8152C78.5941 15.9351 72.9863 16.2051 72.9863 16.2051C72.9863 16.2051 72.9096 16.2222 72.7781 16.2515C72.4967 15.5879 72.9883 15.438 74.964 14.9799Z" fill="#9F9E9E"/>
<path fill-rule="evenodd" clip-rule="evenodd" d="M24.9957 12.7438C24.9232 12.9644 24.784 13.1168 24.6849 13.0839C24.5859 13.051 24.5641 12.8452 24.6365 12.6248C24.7092 12.404 24.8481 12.2517 24.9475 12.2848C25.0465 12.3175 25.0681 12.5232 24.9957 12.7438Z" fill="#262069"/>
<path fill-rule="evenodd" clip-rule="evenodd" d="M25.7789 12.6891C25.7065 12.9097 25.5673 13.062 25.4682 13.0293C25.3689 12.9962 25.3474 12.7907 25.4198 12.5701C25.4924 12.3493 25.6314 12.1972 25.7305 12.2301C25.8298 12.2627 25.8513 12.4685 25.7789 12.6891Z" fill="#262069"/>
<path fill-rule="evenodd" clip-rule="evenodd" d="M26.4449 12.6595C26.3725 12.8801 26.2332 13.0322 26.1342 12.9996C26.0351 12.9667 26.0133 12.7609 26.0857 12.5405C26.1584 12.3197 26.2974 12.1674 26.3967 12.2003C26.4958 12.2332 26.5173 12.4389 26.4449 12.6595Z" fill="#262069"/>
<path fill-rule="evenodd" clip-rule="evenodd" d="M27.2281 12.6047C27.1557 12.8253 27.0165 12.9776 26.9174 12.9447C26.8181 12.9118 26.7966 12.7063 26.869 12.4857C26.9416 12.2648 27.0806 12.1125 27.1797 12.1456C27.279 12.1783 27.3005 12.384 27.2281 12.6047Z" fill="#262069"/>
<path fill-rule="evenodd" clip-rule="evenodd" d="M27.9235 12.5968C27.851 12.8175 27.7118 12.9698 27.6127 12.9369C27.5134 12.904 27.4919 12.6985 27.5643 12.4779C27.637 12.257 27.7759 12.1047 27.8753 12.1378C27.9743 12.1705 27.9959 12.3762 27.9235 12.5968Z" fill="#262069"/>
<path fill-rule="evenodd" clip-rule="evenodd" d="M88.7323 12.6432C88.8047 12.8638 88.9439 13.0162 89.043 12.9833C89.1421 12.9504 89.1638 12.7446 89.0914 12.5243C89.0188 12.3034 88.8798 12.1511 88.7807 12.1842C88.6814 12.2169 88.6599 12.4226 88.7323 12.6432Z" fill="#262069"/>
<path fill-rule="evenodd" clip-rule="evenodd" d="M87.951 12.5885C88.0234 12.8092 88.1627 12.9615 88.262 12.9288C88.3608 12.8957 88.3826 12.6902 88.3102 12.4696C88.2375 12.2487 88.0985 12.0964 87.9995 12.1295C87.9002 12.1622 87.8786 12.3679 87.951 12.5885Z" fill="#262069"/>
<path fill-rule="evenodd" clip-rule="evenodd" d="M87.285 12.5589C87.3574 12.7795 87.4964 12.9316 87.5957 12.899C87.6948 12.8658 87.7166 12.6603 87.6442 12.4399C87.5715 12.2191 87.4323 12.0668 87.3332 12.0997C87.2342 12.1326 87.2126 12.3383 87.285 12.5589Z" fill="#262069"/>
<path fill-rule="evenodd" clip-rule="evenodd" d="M86.5018 12.5041C86.5742 12.7247 86.7132 12.877 86.8125 12.8441C86.9116 12.8112 86.9334 12.6057 86.861 12.3851C86.7883 12.1643 86.6491 12.0119 86.5502 12.0451C86.4509 12.0777 86.4294 12.2835 86.5018 12.5041Z" fill="#262069"/>
<path fill-rule="evenodd" clip-rule="evenodd" d="M85.8065 12.4963C85.8789 12.7169 86.0179 12.8692 86.1172 12.8363C86.2163 12.8034 86.2381 12.5979 86.1657 12.3773C86.093 12.1564 85.9538 12.0041 85.8547 12.0372C85.7556 12.0699 85.7341 12.2756 85.8065 12.4963Z" fill="#262069"/>
<path fill-rule="evenodd" clip-rule="evenodd" d="M13.167 6.24154C12.6615 6.16898 10.2781 6.43511 4.3318 6.04798C3.09794 5.96753 2.15393 5.86545 1.43164 5.75391C1.80736 5.82849 2.27118 5.91615 2.84215 6.02161C5.018 6.42407 12.3958 7.70603 13.6797 7.76484C14.7418 7.81329 16.7161 7.94782 17.3663 7.99266C17.143 7.25715 13.6275 6.30779 13.167 6.24154Z" fill="#76B1E1"/>
<path fill-rule="evenodd" clip-rule="evenodd" d="M39.082 7.19453C38.515 7.23667 32.671 6.82587 31.7541 6.75872C30.837 6.69179 26.3853 6.24765 25.9435 6.25599C25.5017 6.26455 22.5755 6.48223 22.3004 6.54104C22.102 6.58318 21.6046 6.63433 21.3425 6.65934C21.3156 6.53203 21.2318 6.45361 21.0081 6.45361H17.6403C17.5649 6.45361 17.5073 6.52662 17.4665 6.64673C17.1762 6.60932 16.7317 6.5442 16.3649 6.45721C15.7646 6.3148 13.8638 5.9209 12.4634 5.9209C11.0627 5.9209 8.05318 5.89567 7.21118 5.81184C6.36918 5.72801 -0.0332719 5.15835 0.000130228 5.31744C0.0247895 5.43485 0.376745 5.54346 1.43239 5.75348C2.15468 5.86525 3.09868 5.96732 4.33254 6.04755C10.2788 6.43491 12.6622 6.16855 13.1677 6.24134C13.6282 6.30736 17.1437 7.25672 17.367 7.99246C17.3816 7.99358 17.3964 7.99448 17.4094 7.99539C17.449 8.32551 17.5757 8.61079 17.9402 8.61079H20.7081C20.9063 8.61079 21.0462 8.52561 21.143 8.39536C22.9727 8.37148 27.0603 8.75794 28.8363 8.86204C30.6953 8.97111 34.4801 8.66104 35.5389 8.58555C36.5977 8.51029 39.0652 8.23357 39.6321 7.87325C40.199 7.51293 39.6487 7.15261 39.082 7.19453Z" fill="#76B1E1"/>
<path fill-rule="evenodd" clip-rule="evenodd" d="M53.3963 21.8564V24.7376C53.3963 24.7376 53.0934 25.326 57.9782 25.326C62.863 25.326 62.4191 24.9607 62.4191 24.9607V21.8767C62.4191 21.8767 59.5528 22.0392 58.3819 22.0392C57.2113 22.0392 53.3963 21.8564 53.3963 21.8564Z" fill="#252527"/>
<path fill-rule="evenodd" clip-rule="evenodd" d="M59.1509 23.6517C59.1509 24.3411 58.5952 24.8995 57.9095 24.8995C57.2237 24.8995 56.668 24.3411 56.668 23.6517C56.668 22.9624 57.2237 22.4038 57.9095 22.4038C58.5952 22.4038 59.1509 22.9624 59.1509 23.6517Z" fill="black"/>
<path fill-rule="evenodd" clip-rule="evenodd" d="M58.869 23.6518C58.869 24.184 58.4397 24.6155 57.9102 24.6155C57.3805 24.6155 56.9512 24.184 56.9512 23.6518C56.9512 23.1195 57.3805 22.688 57.9102 22.688C58.4397 22.688 58.869 23.1195 58.869 23.6518Z" fill="#313133"/>
<path fill-rule="evenodd" clip-rule="evenodd" d="M44.3008 14.8223C44.2782 14.8223 44.2562 14.8117 44.2421 14.7921C44.2188 14.7597 44.2262 14.7144 44.2587 14.6907L45.029 14.1341C45.0612 14.1109 45.1065 14.1183 45.1296 14.1508C45.1529 14.1832 45.1458 14.2288 45.1133 14.2522L44.3428 14.8086C44.3302 14.8178 44.3154 14.8223 44.3008 14.8223Z" fill="#58575D"/>
<path fill-rule="evenodd" clip-rule="evenodd" d="M44.9745 15.0406C44.953 15.0406 44.9315 15.0309 44.9174 15.0122C44.8929 14.9804 44.899 14.9349 44.9304 14.9106L46.086 14.0151C46.1176 13.9907 46.1631 13.9964 46.1873 14.0284C46.2118 14.0599 46.2057 14.1057 46.1743 14.13L45.0187 15.0255C45.0055 15.0356 44.99 15.0406 44.9745 15.0406Z" fill="#58575D"/>
<path fill-rule="evenodd" clip-rule="evenodd" d="M45.6718 15.2582C45.6562 15.2582 45.6402 15.253 45.627 15.2424C45.5956 15.2174 45.5905 15.1716 45.6154 15.1403C45.6423 15.1061 46.2832 14.3009 46.9638 13.9588C46.9994 13.9408 47.0427 13.9557 47.0606 13.9915C47.0783 14.0273 47.064 14.0708 47.0283 14.0889C46.3762 14.4167 45.7348 15.2226 45.7283 15.2307C45.7142 15.2487 45.6931 15.2582 45.6718 15.2582Z" fill="#58575D"/>
<path fill-rule="evenodd" clip-rule="evenodd" d="M46.3224 15.621C46.3152 15.621 46.3078 15.6199 46.3006 15.6176C46.2625 15.6057 46.2414 15.5649 46.2533 15.5266C46.401 15.0567 47.8497 14.0312 48.0142 13.9161C48.0472 13.8929 48.0922 13.901 48.1149 13.9341C48.1377 13.9668 48.1297 14.0121 48.0969 14.0351C47.6607 14.3406 46.5037 15.2127 46.3912 15.5703C46.3815 15.6012 46.3531 15.621 46.3224 15.621Z" fill="#58575D"/>
<path fill-rule="evenodd" clip-rule="evenodd" d="M46.9471 15.9602C46.9332 15.9602 46.9191 15.9559 46.9066 15.9476C46.8736 15.925 46.8651 15.88 46.8875 15.8466C46.9254 15.7907 47.8237 14.4698 48.6051 14.1505C48.6424 14.1352 48.6845 14.1532 48.6993 14.1904C48.7143 14.2278 48.6966 14.2699 48.6596 14.2848C47.9183 14.5876 47.016 15.9149 47.007 15.9282C46.9931 15.9489 46.9702 15.9602 46.9471 15.9602Z" fill="#58575D"/>
<path fill-rule="evenodd" clip-rule="evenodd" d="M71.4794 14.8223C71.5018 14.8223 71.5238 14.8117 71.5381 14.7921C71.5612 14.7597 71.554 14.7144 71.5213 14.6907L70.751 14.1341C70.7188 14.1109 70.6735 14.1183 70.6504 14.1508C70.6271 14.1832 70.6343 14.2288 70.6668 14.2522L71.4375 14.8086C71.45 14.8178 71.4648 14.8223 71.4794 14.8223Z" fill="#58575D"/>
<path fill-rule="evenodd" clip-rule="evenodd" d="M70.806 15.0406C70.8275 15.0406 70.8488 15.0309 70.8631 15.0122C70.8873 14.9804 70.8815 14.9349 70.8499 14.9106L69.6945 14.0151C69.6627 13.9907 69.6174 13.9964 69.5932 14.0284C69.5687 14.0599 69.5748 14.1057 69.6062 14.13L70.762 15.0255C70.7748 15.0356 70.7905 15.0406 70.806 15.0406Z" fill="#58575D"/>
<path fill-rule="evenodd" clip-rule="evenodd" d="M70.1073 15.2582C70.123 15.2582 70.1389 15.253 70.1521 15.2424C70.1835 15.2174 70.1884 15.1716 70.1638 15.1403C70.1369 15.1061 69.496 14.3009 68.8154 13.9588C68.7797 13.9408 68.7365 13.9557 68.7185 13.9915C68.7008 14.0273 68.7152 14.0708 68.7508 14.0889C69.4029 14.4167 70.0443 15.2226 70.0506 15.2307C70.0651 15.2487 70.086 15.2582 70.1073 15.2582Z" fill="#58575D"/>
<path fill-rule="evenodd" clip-rule="evenodd" d="M69.4581 15.621C69.465 15.621 69.4724 15.6199 69.4798 15.6176C69.5179 15.6057 69.5388 15.5649 69.5269 15.5266C69.3792 15.0567 67.9308 14.0312 67.766 13.9161C67.7333 13.8929 67.688 13.901 67.6654 13.9341C67.6425 13.9668 67.6506 14.0121 67.6833 14.0351C68.1198 14.3406 69.2767 15.2127 69.389 15.5703C69.3987 15.6012 69.4274 15.621 69.4581 15.621Z" fill="#58575D"/>
<path fill-rule="evenodd" clip-rule="evenodd" d="M68.8317 15.9602C68.8456 15.9602 68.8597 15.9559 68.8723 15.9476C68.9052 15.925 68.9138 15.88 68.8916 15.8466C68.8537 15.7907 67.9552 14.4698 67.1737 14.1505C67.1365 14.1352 67.0946 14.1532 67.0796 14.1904C67.0645 14.2278 67.0823 14.2699 67.1192 14.2848C67.8608 14.5876 68.7627 15.9149 68.7719 15.9282C68.7858 15.9489 68.8084 15.9602 68.8317 15.9602Z" fill="#58575D"/>
<path fill-rule="evenodd" clip-rule="evenodd" d="M54.4308 34.075C54.4308 34.6712 53.9499 35.1544 53.357 35.1544C52.7638 35.1544 52.2832 34.6712 52.2832 34.075C52.2832 33.4787 52.7638 32.9956 53.357 32.9956C53.9499 32.9956 54.4308 33.4787 54.4308 34.075Z" fill="white"/>
<path fill-rule="evenodd" clip-rule="evenodd" d="M53.6066 33.6333V33.7406C53.6066 33.7412 53.6064 33.7424 53.6064 33.7435C53.7422 33.828 53.8335 33.9787 53.8335 34.1511C53.8335 34.4155 53.6196 34.6304 53.3564 34.6304C53.0935 34.6304 52.8796 34.4155 52.8796 34.1511C52.8796 33.9787 52.9706 33.828 53.1067 33.7435C53.1067 33.7424 53.1065 33.7412 53.1065 33.7406V33.6333C52.9155 33.7268 52.7832 33.9233 52.7832 34.1511C52.7832 34.4689 53.0403 34.7271 53.3564 34.7271C53.6725 34.7271 53.9299 34.4689 53.9299 34.1511C53.9299 33.9233 53.7976 33.7268 53.6066 33.6333Z" fill="#3C4546"/>
<path fill-rule="evenodd" clip-rule="evenodd" d="M53.5383 33.9251C53.5383 33.9621 53.483 33.992 53.4148 33.992C53.3467 33.992 53.291 33.9621 53.291 33.9251V33.4891C53.291 33.4521 53.3467 33.4224 53.4148 33.4224C53.483 33.4224 53.5383 33.4521 53.5383 33.4891V33.9251Z" fill="#3C4546"/>
<path fill-rule="evenodd" clip-rule="evenodd" d="M64.0427 35.3073C64.0427 36.964 62.7066 38.3073 61.0582 38.3073C59.4103 38.3073 58.0742 36.964 58.0742 35.3073C58.0742 33.6506 59.4103 32.3076 61.0582 32.3076C62.7066 32.3076 64.0427 33.6506 64.0427 35.3073Z" fill="#312F33"/>
<path fill-rule="evenodd" clip-rule="evenodd" d="M63.3212 35.3073C63.3212 36.5635 62.308 37.5823 61.058 37.5823C59.8082 37.5823 58.7949 36.5635 58.7949 35.3073C58.7949 34.051 59.8082 33.0322 61.058 33.0322C62.308 33.0322 63.3212 34.051 63.3212 35.3073Z" fill="#19181D"/>
<path fill-rule="evenodd" clip-rule="evenodd" d="M61.0585 33.0427C59.8161 33.0427 58.8053 34.0588 58.8053 35.3076C58.8053 36.5565 59.8161 37.5725 61.0585 37.5725C62.3009 37.5725 63.3117 36.5565 63.3117 35.3076C63.3117 34.0588 62.3009 33.0427 61.0585 33.0427ZM61.0585 37.5926C59.8049 37.5926 58.7852 36.5677 58.7852 35.3076C58.7852 34.0475 59.8049 33.0225 61.0585 33.0225C62.3121 33.0225 63.3319 34.0475 63.3319 35.3076C63.3319 36.5677 62.3121 37.5926 61.0585 37.5926Z" fill="#151314"/>
<path fill-rule="evenodd" clip-rule="evenodd" d="M62.6935 35.3074C62.6935 36.2153 61.9611 36.9515 61.0577 36.9515C60.1545 36.9515 59.4219 36.2153 59.4219 35.3074C59.4219 34.3995 60.1545 33.6631 61.0577 33.6631C61.9611 33.6631 62.6935 34.3995 62.6935 35.3074Z" fill="#373638"/>
<path fill-rule="evenodd" clip-rule="evenodd" d="M60.7561 34.773C60.7561 35.0297 60.5492 35.2377 60.2941 35.2377C60.0389 35.2377 59.832 35.0297 59.832 34.773C59.832 34.5166 60.0389 34.3086 60.2941 34.3086C60.5492 34.3086 60.7561 34.5166 60.7561 34.773Z" fill="#151314"/>
<path fill-rule="evenodd" clip-rule="evenodd" d="M57.9189 38.1232C57.9189 38.5568 57.5692 38.9079 57.1381 38.9079H52.23C51.7987 38.9079 51.4492 38.5568 51.4492 38.1232C51.4492 37.6897 51.7987 37.3384 52.23 37.3384H57.1381C57.5692 37.3384 57.9189 37.6897 57.9189 38.1232Z" fill="#373638"/>
<path fill-rule="evenodd" clip-rule="evenodd" d="M42.7793 9.76689C42.7793 9.76689 57.8901 7.95629 72.8004 9.81737L72.6507 8.86148C72.6507 8.86148 58.7906 6.95037 42.9295 8.91195C42.9295 8.91195 42.8795 9.51541 42.7793 9.76689Z" fill="#262069"/>
</svg>
