<svg width="331" height="163" viewBox="0 0 331 163" fill="none" xmlns="http://www.w3.org/2000/svg">
<path fill-rule="evenodd" clip-rule="evenodd" d="M259.712 24.4083C260.43 24.0955 261.11 23.7888 261.753 23.4948C256.701 20.729 251.29 18.251 245.564 16.086C239.895 13.9459 233.93 12.1188 227.719 10.642C221.64 9.19032 215.303 8.0765 208.765 7.32561C202.396 6.58723 195.845 6.21179 189.149 6.21179C177.364 6.21179 166.006 7.39444 155.317 9.58453C144.262 11.8622 133.919 15.2225 124.583 19.4712C115.084 23.8014 106.618 29.0638 99.4878 35.0647C92.4454 40.9779 86.7132 47.6171 82.581 54.7755L154.511 54.7943C154.756 54.7943 155.002 54.8882 155.191 55.0759C155.367 55.2448 155.455 55.4638 155.474 55.6954L160.64 62.372L162.983 65.4006C163.008 65.4382 163.04 65.4694 163.065 65.5132L166.586 70.0624L181.66 55.0884C181.836 54.9132 182.076 54.8068 182.34 54.8068H236.462C236.632 54.8068 236.802 54.8569 236.96 54.9445L236.966 54.9507L236.972 54.957C237.079 55.0133 237.18 55.1009 237.262 55.2073L244.487 64.5559L254.055 55.0509C254.226 54.8819 254.465 54.7755 254.736 54.7755H263.932H295.718H320.782H321.79C322.117 54.7755 322.439 54.9382 322.615 55.2386C323.869 57.3098 324.984 59.4185 325.947 61.5648C326.898 63.6986 327.705 65.8574 328.36 68.0412C329.028 70.2877 329.538 72.5591 329.872 74.8556C330.205 77.1333 330.382 79.436 330.382 81.7575C330.382 92.7392 326.558 103.22 319.629 112.782C312.473 122.65 301.998 131.541 289.009 138.988C275.983 146.447 260.424 152.466 243.133 156.565C226.497 160.513 208.261 162.691 189.149 162.691C182.138 162.691 175.235 162.397 168.488 161.827C161.603 161.258 154.882 160.388 148.35 159.262C142.719 158.286 137.201 157.109 131.846 155.739C126.454 154.368 121.251 152.81 116.269 151.083C115.853 150.977 115.551 150.601 115.551 150.157C115.551 149.632 115.979 149.206 116.514 149.206H137.604C137.705 149.206 137.805 149.219 137.906 149.256C141.83 150.564 145.881 151.728 150.044 152.735C154.158 153.73 158.378 154.569 162.693 155.251C166.964 155.927 171.342 156.44 175.814 156.784C180.186 157.122 184.633 157.297 189.149 157.297C204.614 157.297 219.354 155.263 232.796 151.571C246.736 147.742 259.29 142.129 269.81 135.171C280.348 128.187 288.839 119.853 294.622 110.592C300.165 101.712 303.226 91.9696 303.226 81.7575C303.226 80.9753 303.207 80.2369 303.176 79.5486C303.151 78.8478 303.094 78.1157 303.031 77.3398C302.968 76.5763 302.886 75.8567 302.792 75.1622C302.704 74.4613 302.596 73.7292 302.458 72.9721L266.742 108.452C266.566 108.627 266.326 108.733 266.062 108.733H211.946C211.694 108.733 211.448 108.639 211.259 108.452L211.247 108.439C211.209 108.402 211.171 108.364 211.14 108.32L199.745 93.584L184.746 108.489C184.57 108.658 184.331 108.771 184.066 108.771H130.102C129.724 108.883 129.308 108.758 129.062 108.433L108.999 82.4771C108.899 82.3707 108.829 82.233 108.792 82.0829C108.766 81.9765 108.754 81.8764 108.76 81.7763H75.1606C74.915 81.7763 74.663 81.6824 74.4803 81.4947C74.1024 81.1192 74.1024 80.5123 74.4803 80.1431L86.4109 68.2853L76.8992 68.2603H71.8599H51.1862C51.0854 68.2603 50.9909 68.2477 50.8964 68.2164C50.3925 68.06 50.1091 67.5219 50.2665 67.0213C53.2586 57.7165 59.016 48.9749 67.0348 41.0843C75.2047 33.0373 85.7306 25.8726 98.0642 19.903C110.587 13.8396 124.987 9.00259 140.684 5.7112C155.808 2.53869 172.129 0.811646 189.149 0.811646C201.785 0.811646 214.031 1.76277 225.672 3.54613C237.69 5.37955 249.085 8.11404 259.636 11.6057C269.898 14.9972 279.334 19.1021 287.737 23.8014C296.152 28.5069 303.541 33.807 309.714 39.5825C309.935 39.764 310.067 40.0331 310.067 40.3272C310.067 40.8528 309.639 41.2846 309.11 41.2846H285.885V41.2783C285.633 41.2783 285.387 41.1844 285.198 40.9842C284.121 39.8829 282.994 38.7879 281.828 37.7116C280.644 36.6228 279.435 35.5653 278.194 34.5391C276.896 33.4691 275.542 32.4116 274.137 31.3728C272.764 30.3529 271.347 29.3642 269.891 28.4006C269.873 28.388 269.847 28.3755 269.828 28.363L269.822 28.3568C269.23 28.6196 268.657 28.8699 268.121 29.1014V29.0951V29.1014C267.592 29.3267 267.038 29.5519 266.452 29.7897C265.835 30.0463 265.249 30.2778 264.714 30.4905C264.222 30.6783 263.662 30.8973 263.051 31.1225C263 31.1413 262.95 31.1663 262.893 31.1788C252.745 34.9646 242.194 37.6553 231.587 39.2947C220.582 41.0092 209.514 41.5974 198.749 41.1219C188.217 40.6651 177.981 39.1946 168.388 36.773C158.857 34.3701 149.944 31.0224 141.969 26.7861C141.761 26.686 141.597 26.5046 141.509 26.273C141.327 25.785 141.578 25.2343 142.07 25.0528L142.668 24.8276C142.908 24.7462 143.172 24.7462 143.418 24.8589C150.996 28.4631 159.38 31.2727 168.274 33.2313C177.219 35.2024 186.68 36.3224 196.362 36.5289C205.943 36.7354 215.744 36.0471 225.476 34.4327C234.881 32.8621 244.223 30.4154 253.237 27.049C253.948 26.7861 254.685 26.5046 255.429 26.2105C256.185 25.9039 256.903 25.6098 257.583 25.3282C258.219 25.0591 258.931 24.7525 259.712 24.4083ZM213.376 105.004L250.358 68.2603H243.076C242.9 68.2603 242.717 68.2102 242.553 68.1038C242.427 68.0475 242.314 67.9536 242.226 67.8347L235.032 58.5362L202.466 90.887L213.376 105.004ZM10.4183 130.853C10.4183 131.929 9.87662 132.474 8.81207 132.474H0.0751953V136.241H9.9837C11.7349 136.241 13.0136 135.84 13.8388 135.039C14.6639 134.245 15.0734 133.024 15.0734 131.391V131.379V131.36V131.341V131.122C15.0734 130.39 14.9852 129.739 14.8151 129.182C14.3112 127.637 13.3663 126.667 11.9679 126.273C12.7427 126.004 13.3726 125.534 13.8388 124.859C14.3175 124.183 14.5569 123.313 14.5569 122.23C14.5569 120.597 14.16 119.383 13.3663 118.582C12.5726 117.781 11.3317 117.381 9.64355 117.381H0.0751953V121.154H8.35223C9.37899 121.154 9.90181 121.692 9.90181 122.775V123.313C9.90181 124.389 9.37899 124.927 8.35223 124.927H2.65783V128.701H8.86246C9.90181 128.701 10.4183 129.232 10.4183 130.315V130.421V130.853ZM25.6685 127.218V126.679C25.6685 125.96 25.3283 125.597 24.6354 125.597H17.7883V121.961H26.059C27.3504 121.961 28.3645 122.343 29.0952 123.113C29.8259 123.87 30.1913 124.927 30.1913 126.273V126.385V129.301V136.241H26.185L25.9331 134.895C25.1205 135.452 24.289 135.859 23.4323 136.122C22.5756 136.378 21.8638 136.51 21.2717 136.51H20.3709C19.1993 136.51 18.2544 136.141 17.5552 135.402C16.8497 134.67 16.4907 133.688 16.4907 132.474V131.26C16.4907 130.033 16.8497 129.057 17.5552 128.319C18.2544 127.58 19.1993 127.218 20.3709 127.218H25.6685ZM22.5693 132.737C23.4827 132.737 24.5158 132.561 25.6685 132.198V130.584H21.9205C21.6623 130.584 21.4481 130.672 21.2717 130.853C21.1016 131.035 21.0135 131.26 21.0135 131.523V131.798C21.0135 132.067 21.1016 132.292 21.2717 132.474C21.4481 132.649 21.6623 132.737 21.9205 132.737H22.5693ZM94.1903 127.218V126.679C94.1903 125.96 93.8375 125.597 93.1509 125.597H86.2975V121.961H94.5745C95.8658 121.961 96.8737 122.343 97.6107 123.113C98.3414 123.87 98.7067 124.927 98.7067 126.273V126.385V129.301V136.241H94.7005L94.4422 134.895C93.6296 135.452 92.8045 135.859 91.9478 136.122C91.0911 136.378 90.373 136.51 89.7872 136.51H88.8864C87.7085 136.51 86.7699 136.141 86.0707 135.402C85.3589 134.67 85.0061 133.688 85.0061 132.474V131.26C85.0061 130.033 85.3589 129.057 86.0707 128.319C86.7699 127.58 87.7085 127.218 88.8864 127.218H94.1903ZM91.0785 132.737C91.9982 132.737 93.0312 132.561 94.1903 132.198V130.584H90.436C90.1777 130.584 89.9573 130.672 89.7872 130.853C89.6171 131.035 89.5289 131.26 89.5289 131.523V131.798C89.5289 132.067 89.6171 132.292 89.7872 132.474C89.9573 132.649 90.1777 132.737 90.436 132.737H91.0785ZM213.886 127.218V126.679C213.886 125.96 213.54 125.597 212.853 125.597H206V121.961H214.277C215.568 121.961 216.576 122.343 217.313 123.113C218.043 123.87 218.409 124.927 218.409 126.273V126.385V129.301V136.241H214.403L214.144 134.895C213.332 135.452 212.507 135.859 211.656 136.122C210.793 136.378 210.075 136.51 209.489 136.51H208.582C207.411 136.51 206.478 136.141 205.766 135.402C205.061 134.67 204.708 133.688 204.708 132.474V131.26C204.708 130.033 205.061 129.057 205.766 128.319C206.478 127.58 207.411 127.218 208.582 127.218H213.886ZM241.287 129.301V131.929C241.287 132.649 241.634 133.006 242.327 133.006H249.18V136.647H240.903C239.612 136.647 238.597 136.26 237.867 135.496C237.136 134.733 236.764 133.681 236.764 132.336V129.301V126.273C236.764 124.927 237.136 123.87 237.867 123.113C238.597 122.343 239.612 121.961 240.903 121.961H249.18V125.597H242.327C241.634 125.597 241.287 125.96 241.287 126.679V129.301ZM49.4539 136.241H32.5219V121.961H37.0447V132.605H40.0179V121.961H44.5469V132.605H47.5138V121.961H52.0429V132.605H53.983V139.476H49.7185L49.4539 136.241ZM64.7104 121.961H69.4914V136.241H64.9687V128.431L60.5719 136.241H55.7909V121.961H60.3136V129.777L64.7104 121.961ZM79.8346 125.597V136.241H75.3118V125.597H71.041V121.961H84.0991V125.597H79.8346ZM117.062 136.241H112.407V124.658L106.209 136.241H101.296V117.381H105.944V128.963L112.149 117.381H117.062V136.241ZM129.081 127.218V121.961H133.61V136.241H129.081V130.853H124.432V136.241H119.91V121.961H124.432V127.218H129.081ZM154.422 131.929C154.422 133.275 154.057 134.332 153.326 135.096C152.596 135.859 151.575 136.241 150.284 136.241H147.443V140.821H142.914V136.241H140.073C138.782 136.241 137.768 135.859 137.037 135.096C136.3 134.332 135.934 133.275 135.934 131.929V126.273C135.934 124.927 136.3 123.87 137.037 123.113C137.768 122.343 138.782 121.961 140.073 121.961H142.914V117.381H147.443V121.961H150.284C151.575 121.961 152.596 122.343 153.326 123.113C154.057 123.87 154.422 124.927 154.422 126.273V131.929ZM140.464 131.523C140.464 132.242 140.81 132.605 141.497 132.605H143.304V125.597H141.497C140.81 125.597 140.464 125.96 140.464 126.679V131.523ZM149.9 126.679C149.9 125.96 149.553 125.597 148.86 125.597H147.317V132.605H148.86C149.553 132.605 149.9 132.242 149.9 131.523V126.679ZM170.712 132.198C170.712 133.544 170.34 134.601 169.61 135.365C168.879 136.128 167.865 136.51 166.573 136.51H160.627C159.329 136.51 158.322 136.128 157.591 135.365C156.854 134.601 156.488 133.544 156.488 132.198V126.004C156.488 124.658 156.854 123.601 157.591 122.837C158.322 122.074 159.329 121.692 160.627 121.692H166.573C167.865 121.692 168.879 122.074 169.61 122.837C170.34 123.601 170.712 124.658 170.712 126.004V132.198ZM166.183 126.41C166.183 125.691 165.843 125.334 165.15 125.334H162.051C161.364 125.334 161.018 125.691 161.018 126.41V131.798C161.018 132.511 161.364 132.868 162.051 132.868H165.15C165.843 132.868 166.183 132.511 166.183 131.798V126.41ZM182.088 136.241H177.433V121.154H172.003V117.381H187.512V121.154H182.088V136.241ZM196.696 125.597C195.782 125.597 194.743 125.778 193.59 126.141V132.605H197.471C198.157 132.605 198.504 132.242 198.504 131.523V126.542C198.504 126.273 198.415 126.047 198.245 125.872C198.069 125.691 197.855 125.597 197.603 125.597H196.696ZM193.59 136.241V140.821H189.068V121.961H193.074L193.332 123.313C194.145 122.756 194.976 122.343 195.826 122.086C196.677 121.824 197.395 121.692 197.987 121.692H199.152C200.318 121.692 201.263 122.061 201.968 122.8C202.674 123.532 203.026 124.514 203.026 125.735V131.929C203.026 133.275 202.661 134.332 201.93 135.096C201.193 135.859 200.185 136.241 198.888 136.241H193.59ZM210.781 132.737C211.694 132.737 212.733 132.561 213.886 132.198V130.584H210.138C209.88 130.584 209.659 130.672 209.489 130.853C209.319 131.035 209.231 131.26 209.231 131.523V131.798C209.231 132.067 209.319 132.292 209.489 132.474C209.659 132.649 209.88 132.737 210.138 132.737H210.781ZM229.917 127.218V121.961H234.44V136.241H229.917V130.853H225.262V136.241H220.739V121.961H225.262V127.218H229.917ZM14.1096 108.739H1.06416C0.818491 108.739 0.572825 108.639 0.383852 108.458C0.00590505 108.082 0.00590505 107.475 0.383852 107.106L7.26878 100.261L7.8294 99.7037L12.0372 95.53C12.2073 95.3548 12.453 95.2485 12.7175 95.2485H14.1096V95.2422L113.774 95.2672C114.02 95.2672 114.266 95.3611 114.455 95.5425C114.832 95.918 114.832 96.525 114.455 96.8941L102.795 108.477C102.625 108.646 102.385 108.752 102.115 108.752L14.1096 108.739ZM160.167 67.9662L160.148 67.9536L157.169 64.0928C157.137 64.0553 157.112 64.024 157.087 63.9927L152.961 58.6489L129.957 81.4947C129.787 81.6699 129.541 81.7763 129.276 81.7763H113.258L131.298 105.116L163.871 72.7593L160.167 67.9662Z" fill="white"/>
</svg>
