<svg width="240" height="32" viewBox="0 0 240 32" fill="none" xmlns="http://www.w3.org/2000/svg">
<path fill-rule="evenodd" clip-rule="evenodd" d="M71.2293 11.6043L69.6926 7.74488H69.6696C69.6853 7.98042 69.6926 8.22209 69.6926 8.47113V11.6043H69.4155V7.42347H69.862L71.3224 11.1013H71.3406L72.8011 7.42347H73.2354V11.6043H72.9438V8.43555C72.9438 8.21473 72.9559 7.98656 72.9777 7.74979H72.9559L71.4132 11.6043H71.2293ZM74.6995 7.42347H74.9766V10.1579C74.9766 10.3518 74.9694 10.6781 74.9536 11.1357H74.9706L77.4063 7.42347H77.6979V11.6043H77.4196V8.88823C77.4196 8.57908 77.4305 8.2454 77.4559 7.88719H77.4317L74.9875 11.6043H74.6995V7.42347ZM82.1519 11.6043H81.8615V9.54945H79.4524V11.6043H79.1656V7.42347H79.4524V9.27956H81.8615V7.42347H82.1519V11.6043ZM83.6184 7.42347H83.8967V10.1579C83.8967 10.3518 83.8882 10.6781 83.8725 11.1357H83.8894L86.3263 7.42347H86.6167V11.6043H86.3372V8.88823C86.3372 8.57908 86.3505 8.2454 86.3747 7.88719H86.3517L83.9075 11.6043H83.6184V7.42347ZM89.8438 7.62712C89.3271 7.62712 88.9206 7.79518 88.6229 8.13009C88.3253 8.46499 88.1764 8.92503 88.1764 9.50897C88.1764 10.1052 88.318 10.5677 88.5975 10.8977C88.877 11.2277 89.2787 11.3933 89.799 11.3933C90.1451 11.3933 90.4621 11.3479 90.7525 11.2571V11.5147C90.4803 11.6129 90.139 11.6607 89.7313 11.6607C89.1529 11.6607 88.6967 11.4718 88.3628 11.0927C88.0312 10.7136 87.8642 10.1837 87.8642 9.50283C87.8642 9.07715 87.9429 8.70299 88.1026 8.37912C88.2623 8.05526 88.4898 7.805 88.7875 7.62834C89.0863 7.45292 89.4324 7.36336 89.8269 7.36336C90.2298 7.36336 90.5892 7.43942 90.9074 7.59277L90.7912 7.85529C90.4899 7.70317 90.1741 7.62712 89.8438 7.62712ZM93.0467 11.6043H92.7563V7.69827H91.4168V7.42347H94.3862V7.69827H93.0467V11.6043ZM97.5516 11.6043H95.2986V7.42347H97.5516V7.69336H95.5853V9.27343H97.4427V9.54332H95.5853V11.3356H97.5516V11.6043ZM101.267 8.62447C101.267 9.02808 101.132 9.33845 100.862 9.55436C100.591 9.76904 100.207 9.877 99.7113 9.877H99.0737V11.6043H98.7857V7.42347H99.7948C100.777 7.42347 101.267 7.82462 101.267 8.62447ZM99.0737 9.62551H99.64C100.106 9.62551 100.441 9.54822 100.647 9.39243C100.854 9.23785 100.958 8.98514 100.958 8.63674C100.958 8.3141 100.86 8.07488 100.665 7.92031C100.469 7.76451 100.166 7.68723 99.7562 7.68723H99.0737V9.62551ZM104.226 7.62712C103.707 7.62712 103.3 7.79518 103.003 8.13009C102.706 8.46499 102.558 8.92503 102.558 9.50897C102.558 10.1052 102.698 10.5677 102.978 10.8977C103.259 11.2277 103.658 11.3933 104.18 11.3933C104.526 11.3933 104.843 11.3479 105.133 11.2571V11.5147C104.86 11.6129 104.52 11.6607 104.111 11.6607C103.533 11.6607 103.076 11.4718 102.744 11.0927C102.412 10.7136 102.245 10.1837 102.245 9.50283C102.245 9.07715 102.324 8.70299 102.482 8.37912C102.642 8.05526 102.871 7.805 103.168 7.62834C103.467 7.45292 103.812 7.36336 104.208 7.36336C104.609 7.36336 104.97 7.43942 105.287 7.59277L105.172 7.85529C104.871 7.70317 104.555 7.62712 104.226 7.62712ZM107.428 11.6043H107.137V7.69827H105.796V7.42347H108.766V7.69827H107.428V11.6043ZM109.679 7.42347H110.81C111.32 7.42347 111.693 7.5118 111.932 7.68723C112.171 7.86265 112.291 8.12763 112.291 8.48217C112.291 8.72507 112.218 8.92503 112.072 9.08696C111.926 9.24767 111.713 9.35072 111.434 9.39611V9.41451C111.763 9.46358 112.005 9.56908 112.16 9.73101C112.315 9.89172 112.393 10.1162 112.393 10.4033C112.393 10.7885 112.266 11.0854 112.015 11.2927C111.763 11.5012 111.405 11.6043 110.943 11.6043H109.679V7.42347ZM109.967 9.2857H110.876C111.262 9.2857 111.544 9.22068 111.719 9.08941C111.896 8.95938 111.983 8.75451 111.983 8.47603C111.983 8.19879 111.884 7.99637 111.685 7.87124C111.487 7.74488 111.192 7.68109 110.799 7.68109H109.967V9.2857ZM109.967 9.54332V11.3467H110.936C111.7 11.3467 112.082 11.0326 112.082 10.4033C112.082 9.83038 111.681 9.54332 110.876 9.54332H109.967ZM117.066 9.50897C117.066 10.1714 116.903 10.6965 116.576 11.0817C116.248 11.4681 115.797 11.6607 115.222 11.6607C114.649 11.6607 114.199 11.4681 113.872 11.0817C113.544 10.6965 113.381 10.1702 113.381 9.50283C113.381 8.83793 113.545 8.31288 113.876 7.93135C114.206 7.5486 114.657 7.35846 115.228 7.35846C115.803 7.35846 116.253 7.54983 116.579 7.93503C116.904 8.31901 117.066 8.84406 117.066 9.50897ZM113.694 9.50897C113.694 10.1064 113.826 10.5701 114.089 10.8964C114.352 11.2228 114.73 11.3871 115.222 11.3871C115.72 11.3871 116.098 11.224 116.36 10.9001C116.622 10.5775 116.754 10.1125 116.754 9.50897C116.754 8.9054 116.622 8.44414 116.36 8.12273C116.098 7.80132 115.722 7.64184 115.228 7.64184C114.737 7.64184 114.358 7.80254 114.093 8.12763C113.826 8.4515 113.694 8.91153 113.694 9.50897ZM121.666 11.6043H121.375V7.69827H120.036V7.42347H123.005V7.69827H121.666V11.6043ZM126.4 8.62447C126.4 9.02808 126.264 9.33845 125.994 9.55436C125.723 9.76904 125.339 9.877 124.843 9.877H124.205V11.6043H123.917V7.42347H124.927C125.909 7.42347 126.4 7.82462 126.4 8.62447ZM124.205 9.62551H124.772C125.237 9.62551 125.573 9.54822 125.78 9.39243C125.985 9.23785 126.088 8.98514 126.088 8.63674C126.088 8.3141 125.991 8.07488 125.796 7.92031C125.602 7.76451 125.298 7.68723 124.888 7.68723H124.205V9.62551ZM129.293 10.1285H127.62L127.044 11.6043H126.725L128.384 7.4063H128.566L130.191 11.6043H129.867L129.293 10.1285ZM127.723 9.86595H129.198L128.636 8.35826C128.59 8.24172 128.534 8.07734 128.468 7.86756C128.417 8.05035 128.362 8.21596 128.301 8.3644L127.723 9.86595ZM134.061 11.6043H133.772V9.54945H131.363V11.6043H131.075V7.42347H131.363V9.27956H133.772V7.42347H134.061V11.6043ZM137.289 7.62712C136.771 7.62712 136.365 7.79518 136.067 8.13009C135.77 8.46499 135.622 8.92503 135.622 9.50897C135.622 10.1052 135.762 10.5677 136.043 10.8977C136.322 11.2277 136.723 11.3933 137.244 11.3933C137.589 11.3933 137.907 11.3479 138.197 11.2571V11.5147C137.925 11.6129 137.583 11.6607 137.175 11.6607C136.597 11.6607 136.141 11.4718 135.807 11.0927C135.476 10.7136 135.308 10.1837 135.308 9.50283C135.308 9.07715 135.388 8.70299 135.547 8.37912C135.706 8.05526 135.935 7.805 136.233 7.62834C136.53 7.45292 136.876 7.36336 137.272 7.36336C137.675 7.36336 138.034 7.43942 138.351 7.59277L138.236 7.85529C137.934 7.70317 137.619 7.62712 137.289 7.62712ZM142.372 11.6043H142.084V7.69827H139.704V11.6043H139.416V7.42347H142.372V11.6043ZM147.306 9.50897C147.306 10.1714 147.142 10.6965 146.814 11.0817C146.488 11.4681 146.036 11.6607 145.462 11.6607C144.888 11.6607 144.438 11.4681 144.111 11.0817C143.783 10.6965 143.62 10.1702 143.62 9.50283C143.62 8.83793 143.784 8.31288 144.115 7.93135C144.444 7.5486 144.895 7.35846 145.468 7.35846C146.044 7.35846 146.492 7.54983 146.818 7.93503C147.143 8.31901 147.306 8.84406 147.306 9.50897ZM143.932 9.50897C143.932 10.1064 144.064 10.5701 144.328 10.8964C144.591 11.2228 144.968 11.3871 145.461 11.3871C145.957 11.3871 146.337 11.224 146.599 10.9001C146.861 10.5775 146.993 10.1125 146.993 9.50897C146.993 8.9054 146.861 8.44414 146.599 8.12273C146.337 7.80132 145.96 7.64184 145.467 7.64184C144.976 7.64184 144.599 7.80254 144.332 8.12763C144.065 8.4515 143.932 8.91153 143.932 9.50897ZM151.036 8.62447C151.036 9.02808 150.899 9.33845 150.629 9.55436C150.358 9.76904 149.975 9.877 149.477 9.877H148.841V11.6043H148.553V7.42347H149.562C150.545 7.42347 151.036 7.82462 151.036 8.62447ZM148.841 9.62551H149.407C149.873 9.62551 150.207 9.54822 150.414 9.39243C150.621 9.23785 150.725 8.98514 150.725 8.63674C150.725 8.3141 150.627 8.07488 150.432 7.92031C150.236 7.76451 149.932 7.68723 149.523 7.68723H148.841V9.62551ZM153.307 11.6043H153.017V7.69827H151.676V7.42347H154.645V7.69827H153.307V11.6043ZM157.14 10.1285H155.466L154.891 11.6043H154.571L156.23 7.4063H156.413L158.038 11.6043H157.714L157.14 10.1285ZM155.57 9.86595H157.045L156.483 8.35826C156.437 8.24172 156.38 8.07734 156.315 7.86756C156.264 8.05035 156.207 8.21596 156.148 8.3644L155.57 9.86595ZM163.68 8.62447C163.68 9.02808 163.545 9.33845 163.275 9.55436C163.004 9.76904 162.62 9.877 162.124 9.877H161.487V11.6043H161.199V7.42347H162.208C163.189 7.42347 163.68 7.82462 163.68 8.62447ZM161.487 9.62551H162.054C162.518 9.62551 162.853 9.54822 163.061 9.39243C163.267 9.23785 163.369 8.98514 163.369 8.63674C163.369 8.3141 163.273 8.07488 163.078 7.92031C162.882 7.76451 162.579 7.68723 162.169 7.68723H161.487V9.62551ZM168.344 9.50897C168.344 10.1714 168.18 10.6965 167.852 11.0817C167.524 11.4681 167.074 11.6607 166.5 11.6607C165.926 11.6607 165.476 11.4681 165.149 11.0817C164.821 10.6965 164.658 10.1702 164.658 9.50283C164.658 8.83793 164.823 8.31288 165.153 7.93135C165.483 7.5486 165.933 7.35846 166.504 7.35846C167.08 7.35846 167.529 7.54983 167.855 7.93503C168.18 8.31901 168.344 8.84406 168.344 9.50897ZM164.971 9.50897C164.971 10.1064 165.103 10.5701 165.366 10.8964C165.63 11.2228 166.007 11.3871 166.5 11.3871C166.996 11.3871 167.376 11.224 167.637 10.9001C167.9 10.5775 168.03 10.1125 168.03 9.50897C168.03 8.9054 167.9 8.44414 167.637 8.12273C167.376 7.80132 166.998 7.64184 166.504 7.64184C166.014 7.64184 165.636 7.80254 165.371 8.12763C165.103 8.4515 164.971 8.91153 164.971 9.50897ZM171.352 7.62712C170.834 7.62712 170.427 7.79518 170.13 8.13009C169.833 8.46499 169.684 8.92503 169.684 9.50897C169.684 10.1052 169.825 10.5677 170.106 10.8977C170.385 11.2277 170.786 11.3933 171.306 11.3933C171.652 11.3933 171.969 11.3479 172.259 11.2571V11.5147C171.987 11.6129 171.646 11.6607 171.238 11.6607C170.66 11.6607 170.204 11.4718 169.87 11.0927C169.538 10.7136 169.371 10.1837 169.371 9.50283C169.371 9.07715 169.451 8.70299 169.609 8.37912C169.769 8.05526 169.997 7.805 170.296 7.62834C170.593 7.45292 170.939 7.36336 171.334 7.36336C171.737 7.36336 172.096 7.43942 172.414 7.59277L172.299 7.85529C171.997 7.70317 171.682 7.62712 171.352 7.62712ZM175.123 7.62712C174.606 7.62712 174.2 7.79518 173.903 8.13009C173.605 8.46499 173.457 8.92503 173.457 9.50897C173.457 10.1052 173.598 10.5677 173.877 10.8977C174.157 11.2277 174.558 11.3933 175.079 11.3933C175.425 11.3933 175.743 11.3479 176.032 11.2571V11.5147C175.76 11.6129 175.417 11.6607 175.011 11.6607C174.431 11.6607 173.975 11.4718 173.642 11.0927C173.311 10.7136 173.144 10.1837 173.144 9.50283C173.144 9.07715 173.223 8.70299 173.381 8.37912C173.541 8.05526 173.769 7.805 174.067 7.62834C174.365 7.45292 174.712 7.36336 175.106 7.36336C175.509 7.36336 175.869 7.43942 176.186 7.59277L176.071 7.85529C175.77 7.70317 175.454 7.62712 175.123 7.62712ZM177.251 7.42347H177.528V10.1579C177.528 10.3518 177.52 10.6781 177.506 11.1357H177.523L179.959 7.42347H180.249V11.6043H179.971V8.88823C179.971 8.57908 179.982 8.2454 180.007 7.88719H179.984L177.539 11.6043H177.251V7.42347ZM181.717 7.42347H181.994V10.1579C181.994 10.3518 181.986 10.6781 181.97 11.1357H181.988L184.425 7.42347H184.715V11.6043H184.436V8.88823C184.436 8.57908 184.448 8.2454 184.472 7.88719H184.449L182.005 11.6043H181.717V7.42347ZM183.212 7.08857C182.931 7.08857 182.718 7.026 182.571 6.89965C182.424 6.77329 182.339 6.56842 182.316 6.28627H182.564C182.591 6.49604 182.654 6.64448 182.755 6.73158C182.854 6.81745 183.009 6.86162 183.217 6.86162C183.424 6.86162 183.578 6.81623 183.678 6.72667C183.78 6.63712 183.84 6.49113 183.863 6.28627H184.111C184.071 6.82236 183.772 7.08857 183.212 7.08857ZM187.942 7.62712C187.424 7.62712 187.018 7.79518 186.721 8.13009C186.424 8.46499 186.275 8.92503 186.275 9.50897C186.275 10.1052 186.415 10.5677 186.696 10.8977C186.975 11.2277 187.376 11.3933 187.896 11.3933C188.242 11.3933 188.56 11.3479 188.85 11.2571V11.5147C188.577 11.6129 188.236 11.6607 187.828 11.6607C187.25 11.6607 186.794 11.4718 186.46 11.0927C186.128 10.7136 185.963 10.1837 185.963 9.50283C185.963 9.07715 186.041 8.70299 186.2 8.37912C186.359 8.05526 186.588 7.805 186.885 7.62834C187.183 7.45292 187.529 7.36336 187.924 7.36336C188.327 7.36336 188.687 7.43942 189.004 7.59277L188.89 7.85529C188.588 7.70317 188.272 7.62712 187.942 7.62712ZM192.788 11.6043H192.396L190.357 9.47462V11.6043H190.069V7.42347H190.357V9.44886L192.34 7.42347H192.72L190.727 9.44886L192.788 11.6043ZM197.022 9.50897C197.022 10.1714 196.86 10.6965 196.532 11.0817C196.205 11.4681 195.754 11.6607 195.179 11.6607C194.604 11.6607 194.155 11.4681 193.828 11.0817C193.501 10.6965 193.337 10.1702 193.337 9.50283C193.337 8.83793 193.502 8.31288 193.831 7.93135C194.163 7.5486 194.613 7.35846 195.184 7.35846C195.76 7.35846 196.209 7.54983 196.535 7.93503C196.86 8.31901 197.022 8.84406 197.022 9.50897ZM193.65 9.50897C193.65 10.1064 193.782 10.5701 194.044 10.8964C194.308 11.2228 194.685 11.3871 195.179 11.3871C195.675 11.3871 196.055 11.224 196.317 10.9001C196.579 10.5775 196.71 10.1125 196.71 9.50897C196.71 8.9054 196.579 8.44414 196.317 8.12273C196.055 7.80132 195.678 7.64184 195.184 7.64184C194.694 7.64184 194.315 7.80254 194.049 8.12763C193.783 8.4515 193.65 8.91153 193.65 9.50897ZM198.271 7.42347H198.548V10.1579C198.548 10.3518 198.539 10.6781 198.525 11.1357H198.542L200.977 7.42347H201.269V11.6043H200.989V8.88823C200.989 8.57908 201 8.2454 201.026 7.88719H201.003L198.557 11.6043H198.271V7.42347ZM199.766 7.08857C199.487 7.08857 199.272 7.026 199.125 6.89965C198.978 6.77329 198.892 6.56842 198.868 6.28627H199.118C199.145 6.49604 199.208 6.64448 199.309 6.73158C199.408 6.81745 199.563 6.86162 199.771 6.86162C199.978 6.86162 200.132 6.81623 200.232 6.72667C200.332 6.63712 200.394 6.49113 200.417 6.28627H200.665C200.625 6.82236 200.326 7.08857 199.766 7.08857ZM206.485 7.36336H206.773V7.8786H206.894C207.411 7.8786 207.81 8.01232 208.094 8.28221C208.377 8.55087 208.518 8.9238 208.518 9.40224C208.518 9.73469 208.453 10.0205 208.321 10.2634C208.192 10.5051 207.998 10.6916 207.741 10.8228C207.484 10.9529 207.173 11.0179 206.804 11.0179H206.773V11.6607H206.485V11.0179H206.435C206.072 11.0179 205.763 10.9529 205.511 10.8241C205.258 10.694 205.066 10.5125 204.937 10.2769C204.807 10.0426 204.742 9.76291 204.742 9.43659C204.742 9.13971 204.808 8.87105 204.939 8.63306C205.071 8.39261 205.26 8.2086 205.507 8.07611C205.752 7.94485 206.044 7.8786 206.38 7.8786H206.485V7.36336ZM206.773 10.7774H206.816C207.257 10.7774 207.601 10.6584 207.842 10.4229C208.084 10.1837 208.206 9.84878 208.206 9.41451C208.206 8.99618 208.092 8.676 207.866 8.45273C207.641 8.23068 207.317 8.11905 206.894 8.11905H206.773V10.7774ZM206.485 8.11905H206.37C205.958 8.11905 205.635 8.23436 205.402 8.46745C205.169 8.6993 205.051 9.01826 205.051 9.42064C205.051 9.85246 205.174 10.1874 205.414 10.4241C205.656 10.6584 205.998 10.7774 206.441 10.7774H206.485V8.11905ZM211.968 11.6043H209.715V7.42347H211.968V7.69336H210.002V9.27343H211.858V9.54332H210.002V11.3356H211.968V11.6043ZM216.216 12.6593H215.94V11.6043H212.937V12.6593H212.657V11.3295H212.954C213.232 10.84 213.478 10.2193 213.686 9.46358C213.898 8.71035 214.015 8.02949 214.039 7.42347H215.794V11.3295H216.216V12.6593ZM215.5 11.3295V7.69827H214.287C214.243 8.29815 214.124 8.94588 213.933 9.639C213.74 10.3334 213.521 10.8964 213.276 11.3295H215.5ZM219.525 11.6043H217.272V7.42347H219.525V7.69336H217.56V9.27343H219.415V9.54332H217.56V11.3356H219.525V11.6043ZM223.241 8.62447C223.241 9.02808 223.107 9.33845 222.836 9.55436C222.565 9.76904 222.181 9.877 221.685 9.877H221.048V11.6043H220.76V7.42347H221.769C222.751 7.42347 223.241 7.82462 223.241 8.62447ZM221.048 9.62551H221.615C222.08 9.62551 222.414 9.54822 222.621 9.39243C222.829 9.23785 222.932 8.98514 222.932 8.63674C222.932 8.3141 222.834 8.07488 222.639 7.92031C222.443 7.76451 222.14 7.68723 221.73 7.68723H221.048V9.62551ZM226.136 10.1285H224.461L223.886 11.6043H223.567L225.226 7.4063H225.409L227.034 11.6043H226.709L226.136 10.1285ZM224.565 9.86595H226.04L225.479 8.35826C225.433 8.24172 225.376 8.07734 225.311 7.86756C225.26 8.05035 225.203 8.21596 225.144 8.3644L224.565 9.86595ZM230.873 11.3295H231.312V12.6593H231.037V11.6043H227.917V7.42347H228.205V11.3295H230.586V7.42347H230.873V11.3295ZM232.371 7.42347H232.648V10.1579C232.648 10.3518 232.641 10.6781 232.625 11.1357H232.642L235.079 7.42347H235.369V11.6043H235.09V8.88823C235.09 8.57908 235.102 8.2454 235.127 7.88719H235.103L232.659 11.6043H232.371V7.42347ZM236.836 7.42347H237.113V10.1579C237.113 10.3518 237.106 10.6781 237.09 11.1357H237.108L239.544 7.42347H239.834V11.6043H239.555V8.88823C239.555 8.57908 239.568 8.2454 239.592 7.88719H239.569L237.124 11.6043H236.836V7.42347ZM72.922 15.9335H75.0697V16.964H75.2343C75.9409 16.964 76.558 17.0953 77.0868 17.3578C77.6156 17.6215 78.0209 17.9908 78.304 18.4668C78.5884 18.9428 78.7312 19.485 78.7312 20.0898C78.7312 20.7228 78.5908 21.2773 78.3137 21.7508C78.0354 22.2256 77.6264 22.5936 77.0892 22.8525C76.552 23.1113 75.9022 23.2401 75.1375 23.2401H75.0697V24.5294H72.922V23.2401H72.8082C72.0496 23.2401 71.4034 23.1137 70.871 22.8623C70.3398 22.6083 69.9381 22.2452 69.6683 21.7741C69.3972 21.3043 69.2617 20.7387 69.2617 20.0787C69.2617 19.458 69.4045 18.906 69.6925 18.4238C69.9805 17.9417 70.3822 17.5786 70.9001 17.332C71.4167 17.0867 72.0205 16.964 72.7138 16.964H72.922V15.9335ZM75.0698 21.5312H75.1375C75.6119 21.5312 75.9676 21.4135 76.2035 21.1779C76.4407 20.9412 76.5605 20.5744 76.5605 20.0787C76.5605 19.6457 76.4371 19.3034 76.1927 19.0581C75.9482 18.8115 75.6058 18.6888 75.1605 18.6888H75.0698V21.5312ZM72.9219 18.6888H72.7924C72.352 18.6888 72.0144 18.8078 71.7821 19.0434C71.5486 19.2801 71.4336 19.6261 71.4336 20.0787C71.4336 20.594 71.5474 20.9645 71.7748 21.1914C72.0011 21.4184 72.346 21.5312 72.8082 21.5312H72.9219V18.6888ZM85.5482 16.0537V17.8767H82.2897V24.4129H80.0512V16.0537H85.5482ZM87.7892 24.5294C87.2616 24.5294 86.7813 24.4705 86.3457 24.3565V22.5617C86.6978 22.7016 87.1467 22.7715 87.6876 22.7715C87.9199 22.7715 88.1171 22.7175 88.2756 22.6096C88.4366 22.5004 88.5672 22.3102 88.6689 22.0342L85.9778 16.0537H88.3797L89.3973 18.6029C89.4336 18.7023 89.4796 18.8213 89.5328 18.9587C89.5885 19.0949 89.6429 19.2372 89.695 19.3832C89.747 19.5316 89.7978 19.6764 89.8414 19.8211C89.8873 19.9671 89.9224 20.0922 89.9491 20.2002H90.0289C90.1548 19.68 90.3459 19.0753 90.5976 18.3797L91.4374 16.0537H93.8404L91.3357 21.9213C91.0235 22.6525 90.7174 23.1923 90.4173 23.5358C90.116 23.8805 89.7567 24.132 89.3368 24.2902C88.9181 24.4485 88.4015 24.5294 87.7892 24.5294ZM101.353 24.4129H99.1099V17.9H96.8351V24.4129H94.5966V16.0537H101.353V24.4129ZM105.658 21.0503L107.851 18.2889L109.431 19.1415L107.897 21.1252L109.431 23.115L107.851 23.9565L105.658 21.2049V21.0503ZM108.9 21.0503L111.084 18.2889L112.679 19.1415L111.129 21.1252L112.679 23.115L111.084 23.9565L108.9 21.2049V21.0503ZM119.945 18.0092C119.945 19.1108 119.298 19.7745 118.004 19.999V20.0456C118.748 20.1094 119.311 20.3106 119.691 20.6504C120.07 20.9902 120.26 21.4466 120.26 22.0232C120.26 22.5261 120.122 22.9678 119.847 23.3481C119.569 23.7259 119.169 24.0166 118.647 24.2227C118.123 24.4252 117.506 24.5294 116.791 24.5294C115.478 24.5294 114.432 24.3773 113.649 24.0768V22.1323C113.969 22.2955 114.377 22.428 114.871 22.5298C115.364 22.6292 115.813 22.6807 116.216 22.6807C116.851 22.6807 117.304 22.6145 117.57 22.482C117.836 22.3458 117.969 22.1238 117.969 21.8109C117.969 21.2515 117.337 20.9706 116.075 20.9706H115.105V19.1415H115.974C116.409 19.1415 116.751 19.1206 116.997 19.0753C117.243 19.0323 117.422 18.9599 117.537 18.8606C117.647 18.7612 117.706 18.6128 117.706 18.4165C117.706 17.9957 117.31 17.7859 116.516 17.7859C115.767 17.7859 115.109 17.9798 114.541 18.3686L113.605 16.8131C114.098 16.4929 114.597 16.2672 115.105 16.1335C115.613 15.9998 116.225 15.9335 116.943 15.9335C117.85 15.9335 118.575 16.1237 119.125 16.5052C119.672 16.8879 119.945 17.386 119.945 18.0092ZM125.731 24.4129L125.308 23.5566H125.262C124.965 23.9295 124.663 24.1847 124.355 24.3221C124.047 24.4583 123.649 24.5294 123.159 24.5294C122.557 24.5294 122.083 24.3454 121.737 23.9774C121.392 23.613 121.218 23.0978 121.218 22.4341C121.218 21.7459 121.456 21.2319 121.929 20.8945C122.402 20.556 123.087 20.367 123.988 20.3241L125.054 20.291V20.2002C125.054 19.6641 124.795 19.3991 124.275 19.3991C123.81 19.3991 123.217 19.5598 122.499 19.8788L121.862 18.4042C122.607 18.0153 123.546 17.8203 124.682 17.8203C125.501 17.8203 126.135 18.0276 126.584 18.4361C127.036 18.8483 127.259 19.4249 127.259 20.1646V24.4129H125.731ZM124.095 22.9494C124.363 22.9494 124.59 22.8635 124.78 22.6917C124.971 22.52 125.066 22.2967 125.066 22.0232V21.5202L124.557 21.5423C123.831 21.5705 123.468 21.8416 123.468 22.3544C123.468 22.7506 123.677 22.9494 124.095 22.9494ZM138.832 22.7482H140.263V26.7928H138.335V24.4129H128.76V17.9356H130.965V22.7482H132.736V17.9356H134.884V22.7482H136.625V17.9356H138.832V22.7482ZM143.129 17.9356V19.566C143.129 19.6543 143.129 19.7549 143.126 19.8616C143.124 19.9696 143.098 20.6467 143.049 21.898L145.604 17.9356H148.041V24.4129H146.077V22.6586C146.077 22.044 146.104 21.3165 146.157 20.4787L143.614 24.4129H141.167V17.9356H143.129ZM155.491 19.5979H153.387V24.4129H151.181V19.5979H149.079V17.9356H155.491V19.5979ZM160.697 24.4129L160.273 23.5566H160.227C159.931 23.9295 159.629 24.1847 159.321 24.3221C159.012 24.4583 158.614 24.5294 158.124 24.5294C157.523 24.5294 157.048 24.3454 156.702 23.9774C156.358 23.613 156.185 23.0978 156.185 22.4341C156.185 21.7459 156.422 21.2319 156.895 20.8945C157.368 20.556 158.053 20.367 158.953 20.3241L160.019 20.291V20.2002C160.019 19.6641 159.76 19.3991 159.242 19.3991C158.776 19.3991 158.183 19.5598 157.466 19.8788L156.827 18.4042C157.572 18.0153 158.511 17.8203 159.648 17.8203C160.467 17.8203 161.101 18.0276 161.55 18.4361C162.001 18.8483 162.226 19.4249 162.226 20.1646V24.4129H160.697ZM159.061 22.9494C159.328 22.9494 159.556 22.8635 159.745 22.6917C159.937 22.52 160.031 22.2967 160.031 22.0232V21.5202L159.523 21.5423C158.797 21.5705 158.435 21.8416 158.435 22.3544C158.435 22.7506 158.643 22.9494 159.061 22.9494ZM163.853 16.0537H165.838V19.6457C165.838 20.026 165.81 20.789 165.748 21.9324H165.794L169.083 16.0537H171.833V24.4129H169.861V20.9142C169.861 20.3854 169.895 19.5905 169.963 18.5343H169.917L166.601 24.4129H163.853V16.0537ZM175.692 17.9356V20.2677H177.439V17.9356H179.646V24.4129H177.439V21.9324H175.692V24.4129H173.487V17.9356H175.692ZM189.926 21.1828C189.926 22.1201 189.625 22.8696 189.025 23.4303C188.422 23.9897 187.567 24.3172 186.459 24.4129V27.2259H184.393V24.4129C183.304 24.2988 182.447 23.9565 181.826 23.3861C181.202 22.8169 180.891 22.0833 180.891 21.1828C180.891 20.2002 181.184 19.4298 181.771 18.8765C182.358 18.3196 183.223 18.008 184.367 17.9356V15.5152H186.459V17.9356C187.56 18.0325 188.413 18.3686 189.019 18.9403C189.624 19.512 189.926 20.2603 189.926 21.1828ZM183.074 21.1828C183.074 21.6281 183.198 21.9998 183.445 22.2955C183.69 22.5911 183.996 22.7433 184.367 22.7482V19.5979C184.012 19.6138 183.708 19.7757 183.455 20.0849C183.201 20.3928 183.074 20.7596 183.074 21.1828ZM187.727 21.1828C187.727 20.7486 187.606 20.3793 187.364 20.0763C187.122 19.7745 186.819 19.6138 186.459 19.5979V22.7482C186.826 22.7433 187.131 22.5936 187.37 22.2992C187.608 22.0084 187.727 21.6355 187.727 21.1828ZM197.273 21.1595C197.273 22.2194 196.993 23.0451 196.431 23.6388C195.869 24.2313 195.083 24.5294 194.071 24.5294C193.1 24.5294 192.331 24.224 191.756 23.6192C191.182 23.0119 190.896 22.1925 190.896 21.1595C190.896 20.1033 191.178 19.2838 191.739 18.6986C192.302 18.1135 193.091 17.8203 194.106 17.8203C194.733 17.8203 195.288 17.9552 195.769 18.2263C196.25 18.4987 196.621 18.8839 196.884 19.3905C197.145 19.8947 197.273 20.4848 197.273 21.1595ZM193.135 21.1595C193.135 21.7165 193.208 22.1397 193.354 22.4329C193.501 22.7236 193.746 22.8696 194.094 22.8696C194.436 22.8696 194.677 22.7236 194.82 22.4329C194.96 22.1397 195.029 21.7165 195.029 21.1595C195.029 20.6075 194.958 20.1892 194.816 19.907C194.673 19.6261 194.429 19.485 194.082 19.485C193.744 19.485 193.501 19.6236 193.354 19.9045C193.208 20.1842 193.135 20.6038 193.135 21.1595ZM202.3 24.4129H200.071V17.9H198.056V16.0537H204.308V17.9H202.3V24.4129ZM208.616 24.5294C208.293 24.5294 208.003 24.4742 207.749 24.365C207.493 24.2559 207.238 24.0608 206.986 23.7787H206.883C206.951 24.2313 206.986 24.5147 206.986 24.6239V27.2259H204.782V17.9356H206.574L206.883 18.76H206.986C207.397 18.1319 207.963 17.8203 208.684 17.8203C209.392 17.8203 209.946 18.1172 210.348 18.7121C210.751 19.3083 210.953 20.1229 210.953 21.1595C210.953 22.2047 210.742 23.0279 210.322 23.6265C209.902 24.2289 209.335 24.5294 208.616 24.5294ZM207.878 19.5758C207.554 19.5758 207.327 19.6935 207.198 19.9279C207.069 20.1634 206.997 20.5093 206.986 20.9706V21.1485C206.986 21.7042 207.06 22.1066 207.205 22.3544C207.353 22.6022 207.584 22.7273 207.901 22.7273C208.182 22.7273 208.387 22.6046 208.514 22.3581C208.642 22.1115 208.708 21.7042 208.708 21.1362C208.708 20.5793 208.642 20.1818 208.514 19.9401C208.387 19.696 208.174 19.5758 207.878 19.5758ZM216.377 24.4129L215.952 23.5566H215.908C215.611 23.9295 215.309 24.1847 215 24.3221C214.693 24.4583 214.294 24.5294 213.806 24.5294C213.202 24.5294 212.729 24.3454 212.383 23.9774C212.038 23.613 211.865 23.0978 211.865 22.4341C211.865 21.7459 212.102 21.2319 212.575 20.8945C213.048 20.556 213.733 20.367 214.634 20.3241L215.7 20.291V20.2002C215.7 19.6641 215.439 19.3991 214.922 19.3991C214.456 19.3991 213.863 19.5598 213.145 19.8788L212.508 18.4042C213.253 18.0153 214.192 17.8203 215.328 17.8203C216.146 17.8203 216.781 18.0276 217.23 18.4361C217.68 18.8483 217.905 19.4249 217.905 20.1646V24.4129H216.377ZM214.74 22.9494C215.009 22.9494 215.236 22.8635 215.426 22.6917C215.617 22.52 215.712 22.2967 215.712 22.0232V21.5202L215.202 21.5423C214.477 21.5705 214.116 21.8416 214.116 22.3544C214.116 22.7506 214.323 22.9494 214.74 22.9494ZM221.609 17.9356V20.2677H223.357V17.9356H225.563V24.4129H223.357V21.9324H221.609V24.4129H219.404V17.9356H221.609ZM229.994 24.5294C228.95 24.5294 228.159 24.2411 227.618 23.6707C227.078 23.0978 226.81 22.2759 226.81 21.2049C226.81 20.1315 227.1 19.2973 227.683 18.706C228.266 18.1147 229.094 17.8203 230.171 17.8203C230.912 17.8203 231.608 17.9847 232.263 18.3122L231.615 19.9647C231.347 19.8469 231.1 19.7524 230.874 19.6825C230.65 19.6126 230.415 19.5758 230.171 19.5758C229.814 19.5758 229.537 19.7168 229.34 19.999C229.146 20.2824 229.048 20.6786 229.048 21.1951C229.048 22.2317 229.426 22.7482 230.182 22.7482C230.829 22.7482 231.449 22.5593 232.044 22.1765V23.9565C231.477 24.3368 230.793 24.5294 229.994 24.5294ZM240 21.2049L237.817 23.9565L236.21 23.115L237.761 21.1252L236.21 19.1415L237.817 18.2889L240 21.0503V21.2049ZM236.752 21.2049L234.569 23.9565L232.979 23.115L234.514 21.1252L232.979 19.1415L234.569 18.2889L236.752 21.0503V21.2049Z" fill="#016CB1"/>
<path fill-rule="evenodd" clip-rule="evenodd" d="M50.1065 4.55557C50.2451 4.49517 50.3764 4.43597 50.5004 4.37919C49.5255 3.84523 48.4812 3.36684 47.3762 2.94886C46.2821 2.5357 45.1309 2.18295 43.9323 1.89785C42.7591 1.61758 41.5362 1.40255 40.2744 1.25758C39.0453 1.11503 37.7811 1.04255 36.4888 1.04255C34.2143 1.04255 32.0225 1.27087 29.9596 1.69369C27.8261 2.13342 25.83 2.78215 24.0284 3.60241C22.1952 4.43839 20.5614 5.45436 19.1852 6.61288C17.8261 7.75449 16.7199 9.03624 15.9224 10.4183L29.804 10.4219C29.8514 10.4219 29.8988 10.44 29.9352 10.4762C29.9693 10.5089 29.9863 10.5511 29.99 10.5958L30.9868 11.8848L31.439 12.4695C31.4439 12.4768 31.4499 12.4828 31.4548 12.4913L32.1344 13.3695L35.0434 10.4787C35.0774 10.4448 35.1236 10.4243 35.1747 10.4243H45.6196C45.6524 10.4243 45.6852 10.434 45.7156 10.4509L45.7168 10.4521L45.718 10.4533C45.7387 10.4642 45.7582 10.4811 45.774 10.5016L47.1683 12.3064L49.0149 10.4714C49.0477 10.4388 49.0939 10.4183 49.1462 10.4183H50.921H57.0552H61.8923H62.0868C62.15 10.4183 62.212 10.4497 62.246 10.5076C62.4879 10.9075 62.7031 11.3146 62.8891 11.729C63.0727 12.1409 63.2283 12.5577 63.3547 12.9793C63.4836 13.413 63.582 13.8515 63.6465 14.2949C63.7109 14.7346 63.7449 15.1792 63.7449 15.6274C63.7449 17.7475 63.007 19.771 61.6698 21.6169C60.2888 23.522 58.2672 25.2386 55.7605 26.6762C53.2466 28.1162 50.2439 29.2784 46.9069 30.0696C43.6964 30.8319 40.1771 31.2523 36.4888 31.2523C35.1358 31.2523 33.8034 31.1956 32.5015 31.0856C31.1728 30.9757 29.8757 30.8078 28.615 30.5903C27.5283 30.4019 26.4633 30.1747 25.43 29.9102C24.3894 29.6456 23.3853 29.3448 22.4237 29.0114C22.3435 28.9909 22.2852 28.9184 22.2852 28.8326C22.2852 28.7311 22.3678 28.649 22.4711 28.649H26.5411C26.5606 28.649 26.58 28.6514 26.5995 28.6586C27.3568 28.9111 28.1385 29.1358 28.9421 29.3303C29.7359 29.5224 30.5504 29.6843 31.3831 29.816C32.2073 29.9464 33.0522 30.0455 33.9153 30.1119C34.7589 30.1772 35.6172 30.211 36.4888 30.211C39.4732 30.211 42.3179 29.8184 44.9121 29.1056C47.6023 28.3663 50.0251 27.2827 52.0552 25.9393C54.089 24.5911 55.7277 22.982 56.8437 21.1941C57.9134 19.4799 58.5043 17.5989 58.5043 15.6274C58.5043 15.4764 58.5006 15.3338 58.4945 15.2009C58.4897 15.0656 58.4787 14.9243 58.4666 14.7745C58.4544 14.6271 58.4386 14.4882 58.4204 14.3541C58.4034 14.2188 58.3827 14.0774 58.3559 13.9313L51.4632 20.7809C51.4292 20.8148 51.383 20.8353 51.3319 20.8353H40.8883C40.8396 20.8353 40.7922 20.8172 40.7558 20.7809L40.7533 20.7785C40.746 20.7713 40.7387 20.764 40.7327 20.7556L38.5335 17.9106L35.6391 20.7882C35.605 20.8208 35.5588 20.8425 35.5078 20.8425H25.0933C25.0204 20.8643 24.9401 20.8401 24.8927 20.7773L21.0209 15.7663C21.0014 15.7458 20.9881 15.7192 20.9808 15.6902C20.9759 15.6697 20.9735 15.6503 20.9747 15.631H14.4904C14.443 15.631 14.3944 15.6129 14.3591 15.5766C14.2862 15.5042 14.2862 15.387 14.3591 15.3157L16.6616 13.0264L14.8259 13.0216H13.8534H9.86363C9.84418 13.0216 9.82595 13.0192 9.80771 13.0131C9.71046 12.9829 9.65576 12.8791 9.68615 12.7824C10.2636 10.986 11.3747 9.29838 12.9222 7.77503C14.4989 6.22147 16.5303 4.83825 18.9105 3.68577C21.3272 2.51517 24.1062 1.58134 27.1356 0.945906C30.0544 0.333423 33.2041 0 36.4888 0C38.9274 0 41.2906 0.183624 43.5372 0.527919C45.8566 0.881879 48.0557 1.4098 50.092 2.08389C52.0722 2.73866 53.8933 3.53114 55.515 4.43839C57.1391 5.34684 58.565 6.37006 59.7564 7.4851C59.7989 7.52013 59.8245 7.57208 59.8245 7.62886C59.8245 7.73033 59.7418 7.81369 59.6397 7.81369H55.1576V7.81248C55.1089 7.81248 55.0615 7.79436 55.0251 7.7557C54.8172 7.54308 54.5996 7.33167 54.3747 7.12389C54.1461 6.91369 53.9127 6.70953 53.6733 6.51141C53.4228 6.30483 53.1615 6.10067 52.8904 5.90013C52.6254 5.70322 52.3518 5.51235 52.071 5.32631C52.0674 5.32389 52.0625 5.32147 52.0589 5.31906L52.0577 5.31785C51.9434 5.36859 51.8328 5.41691 51.7294 5.46161V5.4604V5.46161C51.6273 5.5051 51.5203 5.54859 51.4073 5.59449C51.2882 5.64402 51.1751 5.68872 51.0718 5.7298C50.9769 5.76604 50.8688 5.80832 50.7508 5.85181C50.7411 5.85543 50.7314 5.86027 50.7204 5.86268C48.762 6.59355 46.7258 7.11302 44.6787 7.42953C42.5549 7.76053 40.419 7.87409 38.3415 7.78228C36.3089 7.69409 34.3335 7.4102 32.482 6.94268C30.6428 6.47879 28.9226 5.83248 27.3836 5.01463C27.3435 4.9953 27.3119 4.96027 27.2949 4.91557C27.2596 4.82134 27.3082 4.71503 27.403 4.68L27.5185 4.63651C27.5647 4.6208 27.6158 4.6208 27.6632 4.64255C29.1256 5.33839 30.7437 5.8808 32.4602 6.25892C34.1864 6.63946 36.0123 6.8557 37.8807 6.89557C39.7297 6.93543 41.6213 6.80255 43.4995 6.49087C45.3144 6.18765 47.1173 5.7153 48.8568 5.06537C48.9942 5.01463 49.1365 4.96027 49.2799 4.90349C49.4258 4.84429 49.5644 4.78751 49.6957 4.73315C49.8184 4.68121 49.9558 4.62201 50.1065 4.55557ZM41.1641 20.1153L48.3012 13.0216H46.8959C46.8618 13.0216 46.8266 13.0119 46.795 12.9914C46.7707 12.9805 46.7488 12.9624 46.7318 12.9395L45.3435 11.1443L39.0586 17.3899L41.1641 20.1153ZM1.99585 25.1058C1.99585 25.3135 1.89131 25.4186 1.68586 25.4186H-0.000244141V26.1459H1.91197C2.24993 26.1459 2.4967 26.0686 2.65595 25.9139C2.8152 25.7605 2.89422 25.525 2.89422 25.2097V25.2072V25.2036V25.2V25.1577C2.89422 25.0164 2.8772 24.8907 2.84438 24.7832C2.74713 24.4848 2.56478 24.2976 2.2949 24.2215C2.44443 24.1695 2.56599 24.0789 2.65595 23.9484C2.74834 23.818 2.79454 23.6501 2.79454 23.4411C2.79454 23.1258 2.71795 22.8914 2.56478 22.7368C2.41161 22.5821 2.17212 22.5048 1.84633 22.5048H-0.000244141V23.2333H1.59712C1.79527 23.2333 1.89617 23.3372 1.89617 23.5462V23.6501C1.89617 23.8578 1.79527 23.9617 1.59712 23.9617H0.498173V24.6902H1.69559C1.89617 24.6902 1.99585 24.7929 1.99585 25.0019V25.0224V25.1058ZM4.93895 24.4039V24.3C4.93895 24.1611 4.87331 24.091 4.73959 24.091H3.41817V23.3891H5.01432C5.26353 23.3891 5.45925 23.4628 5.60027 23.6114C5.74128 23.7576 5.81179 23.9617 5.81179 24.2215V24.2432V24.8062V26.1459H5.03864L4.99001 25.8862C4.83319 25.9937 4.67273 26.0722 4.5074 26.1229C4.34207 26.1725 4.2047 26.1978 4.09043 26.1978H3.91659C3.69048 26.1978 3.50813 26.1266 3.37319 25.984C3.23704 25.8427 3.16775 25.653 3.16775 25.4186V25.1843C3.16775 24.9475 3.23704 24.759 3.37319 24.6165C3.50813 24.4739 3.69048 24.4039 3.91659 24.4039H4.93895ZM4.34079 25.4694C4.51706 25.4694 4.71643 25.4356 4.93889 25.3655V25.0538H4.21558C4.16574 25.0538 4.12441 25.0707 4.09037 25.1058C4.05755 25.1408 4.04053 25.1843 4.04053 25.235V25.2882C4.04053 25.3401 4.05755 25.3836 4.09037 25.4186C4.12441 25.4525 4.16574 25.4694 4.21558 25.4694H4.34079ZM18.1629 24.4039V24.3C18.1629 24.1611 18.0948 24.091 17.9623 24.091H16.6397V23.3891H18.237C18.4862 23.3891 18.6808 23.4628 18.823 23.6114C18.964 23.7576 19.0345 23.9617 19.0345 24.2215V24.2432V24.8062V26.1459H18.2614L18.2115 25.8862C18.0547 25.9937 17.8954 26.0722 17.7301 26.1229C17.5648 26.1725 17.4262 26.1978 17.3131 26.1978H17.1393C16.912 26.1978 16.7308 26.1266 16.5959 25.984C16.4585 25.8427 16.3905 25.653 16.3905 25.4186V25.1843C16.3905 24.9475 16.4585 24.759 16.5959 24.6165C16.7308 24.4739 16.912 24.4039 17.1393 24.4039H18.1629ZM17.5623 25.4694C17.7398 25.4694 17.9391 25.4356 18.1628 25.3655V25.0538H17.4383C17.3884 25.0538 17.3459 25.0707 17.3131 25.1058C17.2802 25.1408 17.2632 25.1843 17.2632 25.235V25.2882C17.2632 25.3401 17.2802 25.3836 17.3131 25.4186C17.3459 25.4525 17.3884 25.4694 17.4383 25.4694H17.5623ZM41.2625 24.4039V24.3C41.2625 24.1611 41.1957 24.091 41.0632 24.091H39.7405V23.3891H41.3379C41.5871 23.3891 41.7816 23.4628 41.9239 23.6114C42.0649 23.7576 42.1354 23.9617 42.1354 24.2215V24.2432V24.8062V26.1459H41.3622L41.3124 25.8862C41.1556 25.9937 40.9963 26.0722 40.8322 26.1229C40.6657 26.1725 40.5271 26.1978 40.414 26.1978H40.239C40.0128 26.1978 39.8329 26.1266 39.6956 25.984C39.5594 25.8427 39.4913 25.653 39.4913 25.4186V25.1843C39.4913 24.9475 39.5594 24.759 39.6956 24.6165C39.8329 24.4739 40.0128 24.4039 40.239 24.4039H41.2625ZM46.5507 24.8062V25.3135C46.5507 25.4525 46.6176 25.5213 46.7513 25.5213H48.0739V26.2244H46.4766C46.2274 26.2244 46.0316 26.1495 45.8906 26.0021C45.7496 25.8548 45.6779 25.6518 45.6779 25.3921V24.8062V24.2215C45.6779 23.9617 45.7496 23.7576 45.8906 23.6114C46.0316 23.4628 46.2274 23.3891 46.4766 23.3891H48.0739V24.091H46.7513C46.6176 24.091 46.5507 24.1611 46.5507 24.3V24.8062ZM9.52929 26.1459H6.26162V23.3891H7.13445V25.444H7.70824V23.3891H8.58229V25.444H9.15487V23.3891H10.0289V25.444H10.4033V26.7705H9.58034L9.52929 26.1459ZM12.4735 23.3891H13.3961V26.1459H12.5233V24.6382L11.6748 26.1459H10.7521V23.3891H11.6249V24.898L12.4735 23.3891ZM15.3924 24.091V26.1459H14.5196V24.091H13.6953V23.3891H16.2154V24.091H15.3924ZM22.5769 26.1459H21.6785V23.9098L20.4823 26.1459H19.5341V22.5048H20.4312V24.7409L21.6286 22.5048H22.5769V26.1459ZM24.8964 24.4039V23.3891H25.7704V26.1459H24.8964V25.1058H23.9992V26.1459H23.1264V23.3891H23.9992V24.4039H24.8964ZM29.7868 25.3135C29.7868 25.5733 29.7163 25.7774 29.5753 25.9248C29.4343 26.0722 29.2373 26.1459 28.9881 26.1459H28.4399V27.0302H27.5658V26.1459H27.0176C26.7683 26.1459 26.5726 26.0722 26.4316 25.9248C26.2894 25.7774 26.2189 25.5733 26.2189 25.3135V24.2215C26.2189 23.9617 26.2894 23.7576 26.4316 23.6114C26.5726 23.4628 26.7683 23.3891 27.0176 23.3891H27.5658V22.5048H28.4399V23.3891H28.9881C29.2373 23.3891 29.4343 23.4628 29.5753 23.6114C29.7163 23.7576 29.7868 23.9617 29.7868 24.2215V25.3135ZM27.0929 25.235C27.0929 25.3739 27.1597 25.444 27.2923 25.444H27.6411V24.091H27.2923C27.1597 24.091 27.0929 24.1611 27.0929 24.3V25.235ZM28.9139 24.3C28.9139 24.1611 28.8471 24.091 28.7134 24.091H28.4155V25.444H28.7134C28.8471 25.444 28.9139 25.3739 28.9139 25.235V24.3ZM32.9305 25.3655C32.9305 25.6252 32.8588 25.8294 32.7178 25.9768C32.5767 26.1241 32.381 26.1978 32.1318 26.1978H30.9842C30.7338 26.1978 30.5393 26.1241 30.3983 25.9768C30.2561 25.8294 30.1855 25.6252 30.1855 25.3655V24.1695C30.1855 23.9098 30.2561 23.7056 30.3983 23.5582C30.5393 23.4109 30.7338 23.3372 30.9842 23.3372H32.1318C32.381 23.3372 32.5767 23.4109 32.7178 23.5582C32.8588 23.7056 32.9305 23.9098 32.9305 24.1695V25.3655ZM32.0565 24.248C32.0565 24.1091 31.9908 24.0403 31.8571 24.0403H31.259C31.1265 24.0403 31.0596 24.1091 31.0596 24.248V25.2882C31.0596 25.4259 31.1265 25.4948 31.259 25.4948H31.8571C31.9908 25.4948 32.0565 25.4259 32.0565 25.2882V24.248ZM35.126 26.1459H34.2276V23.2333H33.1797V22.5048H36.1727V23.2333H35.126V26.1459ZM37.9451 24.091C37.7688 24.091 37.5683 24.126 37.3458 24.1961V25.444H38.0946C38.2271 25.444 38.294 25.3739 38.294 25.235V24.2734C38.294 24.2215 38.277 24.178 38.2442 24.1441C38.2101 24.1091 38.1688 24.091 38.1202 24.091H37.9451ZM37.3458 26.1459V27.0302H36.473V23.3891H37.2461L37.296 23.6501C37.4528 23.5425 37.6133 23.4628 37.7774 23.4133C37.9415 23.3625 38.0801 23.3372 38.1943 23.3372H38.4192C38.6441 23.3372 38.8265 23.4084 38.9626 23.551C39.0988 23.6923 39.1669 23.882 39.1669 24.1176V25.3135C39.1669 25.5733 39.0963 25.7774 38.9553 25.9248C38.8131 26.0722 38.6186 26.1459 38.3682 26.1459H37.3458ZM40.6634 25.4694C40.8396 25.4694 41.0402 25.4356 41.2627 25.3655V25.0538H40.5394C40.4895 25.0538 40.447 25.0707 40.4142 25.1058C40.3813 25.1408 40.3643 25.1843 40.3643 25.235V25.2882C40.3643 25.3401 40.3813 25.3836 40.4142 25.4186C40.447 25.4525 40.4895 25.4694 40.5394 25.4694H40.6634ZM44.3564 24.4039V23.3891H45.2292V26.1459H44.3564V25.1058H43.458V26.1459H42.5852V23.3891H43.458V24.4039H44.3564ZM2.70828 20.8365H0.190666C0.143256 20.8365 0.0958453 20.8172 0.0593757 20.7821C-0.0135633 20.7097 -0.0135633 20.5925 0.0593757 20.5212L1.38808 19.1996L1.49628 19.0921L2.30833 18.2863C2.34115 18.2525 2.38856 18.2319 2.43962 18.2319H2.70828V18.2307L21.9423 18.2356C21.9897 18.2356 22.0371 18.2537 22.0736 18.2887C22.1465 18.3612 22.1465 18.4784 22.0736 18.5497L19.8234 20.7858C19.7906 20.8184 19.7444 20.8389 19.6921 20.8389L2.70828 20.8365ZM30.8956 12.9648L30.8919 12.9624L30.3169 12.217C30.3109 12.2098 30.306 12.2038 30.3011 12.1977L29.5049 11.166L25.0653 15.5766C25.0325 15.6105 24.9851 15.631 24.934 15.631H21.8426L25.3243 20.137L31.6104 13.8902L30.8956 12.9648Z" fill="#016CB1"/>
</svg>
