<svg width="24" height="24" viewBox="0 0 24 24" fill="none" xmlns="http://www.w3.org/2000/svg">
<path fill-rule="evenodd" clip-rule="evenodd" d="M2.7 21.4C4.9 23.65 8.85 23.95 12.05 24C15.25 23.95 19.2 23.6 21.4 21.25C23.65 19.05 23.95 15.1 24 11.9C23.95 8.75 23.6 4.8 21.3 2.6C19.1 0.35 15.15 0.05 11.95 0C8.75 0.05 4.8 0.4 2.6 2.7C0.35 4.9 0.05 8.85 0 12.05C0.05 15.25 0.4 19.2 2.7 21.4ZM2.40031 12.0499C2.42552 13.589 2.52399 15.1615 2.84553 16.5635C3.17251 17.9894 3.68099 19.0172 4.35893 19.6657L4.38795 19.6934L4.41602 19.7221C5.05546 20.3761 6.07723 20.8674 7.5113 21.1801C8.92002 21.4873 10.4975 21.5745 12.0499 21.5997C13.5895 21.5745 15.1578 21.4759 16.5552 21.1502C17.9732 20.8196 18.9976 20.3044 19.6479 19.6098L19.6842 19.5711L19.7221 19.534C20.3761 18.8945 20.8674 17.8728 21.1801 16.4387C21.4872 15.0301 21.5744 13.4527 21.5997 11.9004C21.5745 10.3875 21.4762 8.82772 21.1549 7.43212C20.828 6.01185 20.3196 4.98333 19.6411 4.33434L19.6121 4.30659L19.584 4.27788C18.9445 3.62391 17.9228 3.1326 16.4887 2.8199C15.08 2.51274 13.5025 2.42555 11.9501 2.40031C10.411 2.42552 8.83855 2.52399 7.43645 2.84553C6.01058 3.17251 4.98281 3.68099 4.33434 4.35893L4.30659 4.38795L4.27788 4.41602C3.62391 5.05546 3.1326 6.07723 2.8199 7.5113C2.51274 8.92002 2.42555 10.4975 2.40031 12.0499Z" fill="#04092A"/>
<mask id="mask0" mask-type="alpha" maskUnits="userSpaceOnUse" x="0" y="0" width="24" height="24">
<path d="M12.05 24C8.85 23.95 4.9 23.65 2.7 21.4C0.4 19.2 0.05 15.25 0 12.05C0.05 8.85 0.35 4.9 2.6 2.7C4.8 0.4 8.75 0.05 11.95 0C15.15 0.05 19.1 0.35 21.3 2.6C23.6 4.8 23.95 8.75 24 11.9C23.95 15.1 23.65 19.05 21.4 21.25C19.2 23.6 15.25 23.95 12.05 24Z" fill="#F8F5EE"/>
</mask>
<g mask="url(#mask0)">
<path d="M16.1704 16.6499L16.6674 13.4163H13.5558V11.3183C13.5558 10.4344 13.9897 9.571 15.3846 9.571H16.7999V6.81871C16.7999 6.81871 15.5155 6.6001 14.2879 6.6001C11.7254 6.6001 10.0497 8.14767 10.0497 10.9519V13.4163H7.19995V16.6499H10.0497V24.4648C10.6209 24.5545 11.2063 24.6001 11.8027 24.6001C12.3992 24.6001 12.9846 24.5529 13.5558 24.4648V16.6499H16.1704Z" fill="#04092A"/>
</g>
</svg>
