<svg width="24" height="24" viewBox="0 0 24 24" fill="none" xmlns="http://www.w3.org/2000/svg">
<path fill-rule="evenodd" clip-rule="evenodd" d="M2.7 21.4C4.9 23.65 8.85 23.95 12.05 24C15.25 23.95 19.2 23.6 21.4 21.25C23.65 19.05 23.95 15.1 24 11.9C23.95 8.75 23.6 4.8 21.3 2.6C19.1 0.35 15.15 0.05 11.95 0C8.75 0.05 4.8 0.4 2.6 2.7C0.35 4.9 0.05 8.85 0 12.05C0.05 15.25 0.4 19.2 2.7 21.4ZM2.40031 12.0499C2.42552 13.589 2.52399 15.1615 2.84553 16.5635C3.17251 17.9894 3.68099 19.0172 4.35893 19.6657L4.38795 19.6934L4.41602 19.7221C5.05546 20.3761 6.07723 20.8674 7.5113 21.1801C8.92002 21.4873 10.4975 21.5745 12.0499 21.5997C13.5895 21.5745 15.1578 21.4759 16.5552 21.1502C17.9732 20.8196 18.9976 20.3044 19.6479 19.6098L19.6842 19.5711L19.7221 19.534C20.3761 18.8945 20.8674 17.8728 21.1801 16.4387C21.4872 15.0301 21.5744 13.4527 21.5997 11.9004C21.5745 10.3875 21.4762 8.82772 21.1549 7.43212C20.828 6.01185 20.3196 4.98333 19.6411 4.33434L19.6121 4.30659L19.584 4.27788C18.9445 3.62391 17.9228 3.1326 16.4887 2.8199C15.08 2.51274 13.5025 2.42555 11.9501 2.40031C10.411 2.42552 8.83855 2.52399 7.43645 2.84553C6.01058 3.17251 4.98281 3.68099 4.33434 4.35893L4.30659 4.38795L4.27788 4.41602C3.62391 5.05546 3.1326 6.07723 2.8199 7.5113C2.51274 8.92002 2.42555 10.4975 2.40031 12.0499Z" fill="#04092A"/>
<mask id="mask0" mask-type="alpha" maskUnits="userSpaceOnUse" x="0" y="0" width="24" height="24">
<path d="M12.05 24C8.85 23.95 4.9 23.65 2.7 21.4C0.4 19.2 0.05 15.25 0 12.05C0.05 8.85 0.35 4.9 2.6 2.7C4.8 0.4 8.75 0.05 11.95 0C15.15 0.05 19.1 0.35 21.3 2.6C23.6 4.8 23.95 8.75 24 11.9C23.95 15.1 23.65 19.05 21.4 21.25C19.2 23.6 15.25 23.95 12.05 24Z" fill="#F8F5EE"/>
</mask>
<g mask="url(#mask0)">
<mask id="mask1" mask-type="alpha" maskUnits="userSpaceOnUse" x="2" y="2" width="20" height="20">
<path d="M12.0417 22C9.375 21.9583 6.08333 21.7083 4.25 19.8333C2.33333 18 2.04167 14.7083 2 12.0417C2.04167 9.375 2.29167 6.08333 4.16667 4.25C6 2.33333 9.29167 2.04167 11.9583 2C14.625 2.04167 17.9167 2.29167 19.75 4.16667C21.6667 6 21.9583 9.29167 22 11.9167C21.9583 14.5833 21.7083 17.875 19.8333 19.7083C18 21.6667 14.7083 21.9583 12.0417 22Z" fill="#1977F3"/>
</mask>
<g mask="url(#mask1)">
<path d="M11.9889 4.98909C10.0067 4.98909 8.3999 6.6042 8.3999 8.59647C8.3999 10.5888 10.0067 12.204 11.9889 12.204C13.971 12.204 15.5779 10.5888 15.5779 8.59647C15.5779 6.6042 13.971 4.98909 11.9889 4.98909ZM11.9889 10.0878C11.1695 10.0878 10.5053 9.42008 10.5053 8.59652C10.5053 7.77296 11.1695 7.10531 11.9889 7.10531C12.8082 7.10531 13.4725 7.77296 13.4725 8.59652C13.4725 9.42008 12.8082 10.0878 11.9889 10.0878Z" fill="#04092A"/>
<path d="M13.2559 15.0744C14.6927 14.7802 15.5537 14.0963 15.5992 14.0596C16.0197 13.7207 16.0872 13.1034 15.75 12.6807C15.4129 12.2581 14.7988 12.1902 14.3782 12.5291C14.3693 12.5363 13.451 13.2444 11.94 13.2454C10.4291 13.2444 9.49138 12.5363 9.4825 12.5291C9.06196 12.1902 8.44784 12.2581 8.11071 12.6807C7.77353 13.1034 7.84106 13.7207 8.2615 14.0596C8.30768 14.0968 9.20423 14.7985 10.6813 15.0858L8.62272 17.2482C8.24861 17.6382 8.25986 18.2591 8.64784 18.6352C8.8372 18.8187 9.08127 18.9099 9.32513 18.9099C9.5808 18.9099 9.83622 18.8095 10.0277 18.6099L11.9401 16.5622L14.0457 18.6231C14.4272 19.006 15.0449 19.0054 15.4257 18.6221C15.8065 18.2387 15.8061 17.6177 15.4247 17.2349L13.2559 15.0744Z" fill="#04092A"/>
<path d="M11.9399 13.2454C11.9379 13.2454 11.9418 13.2454 11.9399 13.2454C11.938 13.2454 11.9419 13.2454 11.9399 13.2454Z" fill="#04092A"/>
</g>
</g>
</svg>
