<svg width="24" height="24" viewBox="0 0 24 24" fill="none" xmlns="http://www.w3.org/2000/svg">
<path fill-rule="evenodd" clip-rule="evenodd" d="M2.7 21.4C4.9 23.65 8.85 23.95 12.05 24C15.25 23.95 19.2 23.6 21.4 21.25C23.65 19.05 23.95 15.1 24 11.9C23.95 8.75 23.6 4.8 21.3 2.6C19.1 0.35 15.15 0.05 11.95 0C8.75 0.05 4.8 0.4 2.6 2.7C0.35 4.9 0.05 8.85 0 12.05C0.05 15.25 0.4 19.2 2.7 21.4ZM4.55996 19.5199C6.31996 21.3199 9.47996 21.5599 12.04 21.5999C14.6 21.5599 17.76 21.2799 19.52 19.3999C21.32 17.6399 21.56 14.4799 21.6 11.9199C21.56 9.3999 21.28 6.2399 19.44 4.4799C17.68 2.6799 14.52 2.4399 11.96 2.3999C9.39996 2.4399 6.23996 2.7199 4.47996 4.5599C2.67996 6.3199 2.43996 9.4799 2.39996 12.0399C2.43996 14.5999 2.71996 17.7599 4.55996 19.5199Z" fill="#04092A"/>
<path d="M18.7747 7.77066C18.2657 7.99579 17.726 8.14365 17.1734 8.20933C17.7559 7.86095 18.1918 7.31267 18.4 6.66666C17.8534 6.992 17.254 7.22 16.6294 7.34333C16.2098 6.89438 15.6536 6.59664 15.0473 6.49639C14.4411 6.39613 13.8187 6.49899 13.2769 6.78897C12.7351 7.07894 12.3043 7.53979 12.0514 8.09986C11.7986 8.65993 11.7379 9.28785 11.8787 9.886C10.7701 9.83043 9.68559 9.54235 8.69556 9.04044C7.70553 8.53853 6.83212 7.83403 6.13204 6.97266C5.88423 7.3983 5.75401 7.88215 5.7547 8.37466C5.7547 9.34133 6.2467 10.1953 6.9947 10.6953C6.55204 10.6814 6.11912 10.5619 5.73204 10.3467V10.3813C5.73217 11.0251 5.95495 11.6491 6.3626 12.1474C6.77025 12.6457 7.33769 12.9876 7.9687 13.1153C7.55778 13.2267 7.12691 13.2431 6.7087 13.1633C6.88661 13.7175 7.23337 14.2021 7.70043 14.5494C8.16749 14.8967 8.73145 15.0892 9.31337 15.1C8.73502 15.5542 8.07282 15.89 7.36462 16.0881C6.65642 16.2862 5.91612 16.3428 5.18604 16.2547C6.4605 17.0743 7.9441 17.5094 9.45937 17.508C14.588 17.508 17.3927 13.2593 17.3927 9.57466C17.3927 9.45466 17.3894 9.33333 17.384 9.21466C17.9299 8.82011 18.4011 8.33134 18.7754 7.77133L18.7747 7.77066Z" fill="#04092A"/>
</svg>
