<svg width="24" height="24" viewBox="0 0 24 24" fill="none" xmlns="http://www.w3.org/2000/svg">
<path fill-rule="evenodd" clip-rule="evenodd" d="M2.7 21.4C4.9 23.65 8.85 23.95 12.05 24C15.25 23.95 19.2 23.6 21.4 21.25C23.65 19.05 23.95 15.1 24 11.9C23.95 8.75 23.6 4.8 21.3 2.6C19.1 0.35 15.15 0.05 11.95 0C8.75 0.05 4.8 0.4 2.6 2.7C0.35 4.9 0.05 8.85 0 12.05C0.05 15.25 0.4 19.2 2.7 21.4ZM2.40031 12.0499C2.42552 13.589 2.52399 15.1615 2.84553 16.5635C3.17251 17.9894 3.68099 19.0172 4.35893 19.6657L4.38795 19.6934L4.41602 19.7221C5.05546 20.3761 6.07723 20.8674 7.5113 21.1801C8.92002 21.4873 10.4975 21.5745 12.0499 21.5997C13.5895 21.5745 15.1578 21.4759 16.5552 21.1502C17.9732 20.8196 18.9976 20.3044 19.6479 19.6098L19.6842 19.5711L19.7221 19.534C20.3761 18.8945 20.8674 17.8728 21.1801 16.4387C21.4872 15.0301 21.5744 13.4527 21.5997 11.9004C21.5745 10.3875 21.4762 8.82772 21.1549 7.43212C20.828 6.01185 20.3196 4.98333 19.6411 4.33434L19.6121 4.30659L19.584 4.27788C18.9445 3.62391 17.9228 3.1326 16.4887 2.8199C15.08 2.51274 13.5025 2.42555 11.9501 2.40031C10.411 2.42552 8.83855 2.52399 7.43645 2.84553C6.01058 3.17251 4.98281 3.68099 4.33434 4.35893L4.30659 4.38795L4.27788 4.41602C3.62391 5.05546 3.1326 6.07723 2.8199 7.5113C2.51274 8.92002 2.42555 10.4975 2.40031 12.0499Z" fill="#04092A"/>
<mask id="mask0" mask-type="alpha" maskUnits="userSpaceOnUse" x="0" y="0" width="24" height="24">
<path d="M12.05 24C8.85 23.95 4.9 23.65 2.7 21.4C0.4 19.2 0.05 15.25 0 12.05C0.05 8.85 0.35 4.9 2.6 2.7C4.8 0.4 8.75 0.05 11.95 0C15.15 0.05 19.1 0.35 21.3 2.6C23.6 4.8 23.95 8.75 24 11.9C23.95 15.1 23.65 19.05 21.4 21.25C19.2 23.6 15.25 23.95 12.05 24Z" fill="#F8F5EE"/>
</mask>
<g mask="url(#mask0)">
<mask id="mask1" mask-type="alpha" maskUnits="userSpaceOnUse" x="2" y="2" width="20" height="20">
<path d="M12.0417 22C9.375 21.9583 6.08333 21.7083 4.25 19.8333C2.33333 18 2.04167 14.7083 2 12.0417C2.04167 9.375 2.29167 6.08333 4.16667 4.25C6 2.33333 9.29167 2.04167 11.9583 2C14.625 2.04167 17.9167 2.29167 19.75 4.16667C21.6667 6 21.9583 9.29167 22 11.9167C21.9583 14.5833 21.7083 17.875 19.8333 19.7083C18 21.6667 14.7083 21.9583 12.0417 22Z" fill="#1977F3"/>
</mask>
<g mask="url(#mask1)">
</g>
<path fill-rule="evenodd" clip-rule="evenodd" d="M18.3786 8.89024C18.4713 8.58123 18.3786 8.35417 17.9376 8.35417H16.4793C16.1084 8.35417 15.9375 8.55032 15.8448 8.76661C15.8448 8.76661 15.1032 10.5743 14.0526 11.7485C13.7127 12.0884 13.5582 12.1965 13.3728 12.1965C13.2801 12.1965 13.1459 12.0884 13.1459 11.7794V8.89024C13.1459 8.51943 13.0383 8.35417 12.7293 8.35417H10.4376C10.2059 8.35417 10.0665 8.52627 10.0665 8.68938C10.0665 9.04089 10.5918 9.12196 10.6459 10.1108V12.2583C10.6459 12.7292 10.5609 12.8145 10.3755 12.8145C9.8811 12.8145 8.67852 10.9988 7.96527 8.92112C7.82549 8.5173 7.6853 8.35417 7.31259 8.35417H5.85425C5.43759 8.35417 5.35425 8.55032 5.35425 8.76661C5.35425 9.15287 5.84866 11.0687 7.65629 13.6025C8.86137 15.3328 10.5593 16.2708 12.1043 16.2708C13.0312 16.2708 13.1459 16.0625 13.1459 15.7036V14.3958C13.1459 13.9792 13.2337 13.896 13.5273 13.896C13.7436 13.896 14.1144 14.0042 14.9796 14.8385C15.9684 15.8273 16.1314 16.2708 16.6876 16.2708H18.1459C18.5626 16.2708 18.7709 16.0625 18.6507 15.6514C18.5192 15.2416 18.0471 14.6471 17.4207 13.9424C17.0808 13.5407 16.5709 13.1081 16.4164 12.8917C16.2001 12.6137 16.2619 12.49 16.4164 12.2429C16.4164 12.2429 18.1932 9.73997 18.3786 8.89024Z" fill="#04092A"/>
</g>
</svg>
