<svg width="28" height="28" viewBox="0 0 28 28" fill="none" xmlns="http://www.w3.org/2000/svg">
<path d="M12.9935 19C12.4445 19 12 19.4545 12 20C12 20.5325 12.4314 21 12.9935 21C13.5555 21 14 20.5325 14 20C14 19.4545 13.5425 19 12.9935 19Z" fill="#009BDE"/>
<path d="M12.3634 7C10.0585 7 9 8.40074 9 9.34627C9 10.0292 9.56337 10.3443 10.0244 10.3443C10.9463 10.3443 10.5707 8.9961 12.3122 8.9961C13.1658 8.9961 13.8488 9.38133 13.8488 10.1868C13.8488 11.1323 12.8927 11.6751 12.3293 12.1654C11.8342 12.6031 11.1854 13.321 11.1854 14.8269C11.1854 15.7373 11.4243 16 12.1244 16C12.961 16 13.1317 15.6148 13.1317 15.2821C13.1317 14.3716 13.1488 13.8463 14.0878 13.0934C14.5488 12.7257 16 11.5351 16 9.88914C16 8.24321 14.5488 7 12.3634 7Z" fill="#009BDE"/>
<path fill-rule="evenodd" clip-rule="evenodd" d="M0 14C0 6.26155 6.26259 0 14 0C21.7384 0 28 6.26259 28 14C28 21.7384 21.7374 28 14 28H1.09375C0.489672 28 0 27.5103 0 26.9062V14ZM2.1875 25.8125H14C20.5293 25.8125 25.8125 20.5284 25.8125 14C25.8125 7.4707 20.5284 2.1875 14 2.1875C7.4707 2.1875 2.1875 7.47157 2.1875 14V25.8125Z" fill="#009BDE"/>
</svg>
