<svg width="24" height="24" viewBox="0 0 24 24" fill="none" xmlns="http://www.w3.org/2000/svg">
<path fill-rule="evenodd" clip-rule="evenodd" d="M4.84049 17.5684C4.40115 18.0078 4.40115 18.7201 4.84049 19.1594C5.27983 19.5988 5.99214 19.5988 6.43148 19.1594L12 13.591L17.5684 19.1594C18.0078 19.5988 18.7201 19.5988 19.1594 19.1594C19.5988 18.7201 19.5988 18.0078 19.1594 17.5684L13.5909 12L19.1594 6.43151C19.5987 5.99217 19.5987 5.27986 19.1594 4.84052C18.7201 4.40118 18.0078 4.40118 17.5684 4.84052L12 10.409L6.43149 4.84052C5.99215 4.40118 5.27984 4.40118 4.8405 4.84052C4.40116 5.27986 4.40116 5.99218 4.8405 6.43152L10.409 12L4.84049 17.5684Z" fill="#76767A"/>
</svg>
